<svg id="available_wm" data-name="available wm" xmlns="http://www.w3.org/2000/svg" viewBox="0 0 595.28 595.28"><defs><style>.cls-1{fill:#010101;}.cls-2,.cls-3,.cls-5,.cls-6{fill:none;}.cls-2,.cls-3,.cls-4,.cls-5,.cls-6{stroke:#010101;}.cls-2,.cls-6{stroke-linecap:round;stroke-linejoin:round;}.cls-2{stroke-width:14px;}.cls-3,.cls-4,.cls-5{stroke-miterlimit:10;}.cls-3,.cls-4{stroke-width:17px;}.cls-4{fill:#fff;}.cls-5{stroke-width:5px;}.cls-6{stroke-width:3px;}</style></defs><path class="cls-1" d="M563.18,45.53a15.13,15.13,0,0,1,15.1,15.1v474a15.12,15.12,0,0,1-15.1,15.09H219.07A15.11,15.11,0,0,1,204,534.65v-474a15.12,15.12,0,0,1,15.09-15.1H563.18m0-17H219.07A32.1,32.1,0,0,0,187,60.63v474a32.09,32.09,0,0,0,32.09,32.09H563.18a32.1,32.1,0,0,0,32.1-32.09v-474a32.1,32.1,0,0,0-32.1-32.1Z"/><line class="cls-2" x1="194.4" y1="113.91" x2="584.62" y2="113.91"/><line class="cls-2" x1="194.4" y1="143.6" x2="586.46" y2="143.6"/><circle class="cls-3" cx="392.06" cy="344.96" r="127.13"/><rect class="cls-1" x="0.57" y="312.48" width="33.41" height="66.81" rx="3.45" transform="translate(34.54 691.78) rotate(-180)"/><circle class="cls-4" cx="141.46" cy="344.96" r="127.13"/><circle class="cls-1" cx="250.55" cy="74.62" r="19.95"/><circle class="cls-1" cx="309.93" cy="74.62" r="19.95"/><line class="cls-2" x1="194.4" y1="511.06" x2="580.59" y2="511.06"/><circle class="cls-1" cx="466.29" cy="87" r="2.78"/><circle class="cls-1" cx="475.57" cy="87" r="2.78"/><circle class="cls-1" cx="484.85" cy="87" r="2.78"/><circle class="cls-1" cx="494.13" cy="87" r="2.78"/><circle class="cls-1" cx="503.41" cy="87" r="2.78"/><circle class="cls-1" cx="512.69" cy="87" r="2.78"/><circle class="cls-1" cx="521.97" cy="87" r="2.78"/><circle class="cls-1" cx="531.25" cy="87" r="2.78"/><circle class="cls-5" cx="142.38" cy="344.96" r="101.7"/><line class="cls-6" x1="95.92" y1="334.85" x2="154.67" y2="390.66"/><line class="cls-6" x1="128.23" y1="311.35" x2="186.98" y2="367.16"/></svg>