<svg id="reserved_washing_machine" data-name="reserved washing machine" xmlns="http://www.w3.org/2000/svg" viewBox="0 0 595.28 595.28"><defs><style>.cls-1{fill:#010101;}.cls-2,.cls-3,.cls-5,.cls-6{fill:none;}.cls-2,.cls-3,.cls-4,.cls-5,.cls-6{stroke:#010101;}.cls-2,.cls-6{stroke-linecap:round;stroke-linejoin:round;}.cls-2{stroke-width:14px;}.cls-3,.cls-4,.cls-5{stroke-miterlimit:10;}.cls-3,.cls-4{stroke-width:17px;}.cls-4,.cls-7{fill:#fff;}.cls-5{stroke-width:5px;}.cls-6{stroke-width:3px;}</style></defs><path class="cls-1" d="M563.18,45.53a15.13,15.13,0,0,1,15.1,15.1v474a15.12,15.12,0,0,1-15.1,15.09H219.07A15.11,15.11,0,0,1,204,534.65v-474a15.12,15.12,0,0,1,15.09-15.1H563.18m0-17H219.07A32.1,32.1,0,0,0,187,60.63v474a32.09,32.09,0,0,0,32.09,32.09H563.18a32.1,32.1,0,0,0,32.1-32.09v-474a32.1,32.1,0,0,0-32.1-32.1Z"/><line class="cls-2" x1="194.4" y1="113.91" x2="584.62" y2="113.91"/><line class="cls-2" x1="194.4" y1="143.6" x2="586.46" y2="143.6"/><circle class="cls-3" cx="392.06" cy="344.96" r="127.13"/><rect class="cls-1" x="0.57" y="312.48" width="33.41" height="66.81" rx="3.45" transform="translate(34.54 691.78) rotate(-180)"/><circle class="cls-4" cx="141.46" cy="344.96" r="127.13"/><circle class="cls-1" cx="250.55" cy="74.62" r="19.95"/><circle class="cls-1" cx="309.93" cy="74.62" r="19.95"/><line class="cls-2" x1="194.4" y1="511.06" x2="580.59" y2="511.06"/><circle class="cls-1" cx="466.29" cy="87" r="2.78"/><circle class="cls-1" cx="475.57" cy="87" r="2.78"/><circle class="cls-1" cx="484.85" cy="87" r="2.78"/><circle class="cls-1" cx="494.13" cy="87" r="2.78"/><circle class="cls-1" cx="503.41" cy="87" r="2.78"/><circle class="cls-1" cx="512.69" cy="87" r="2.78"/><circle class="cls-1" cx="521.97" cy="87" r="2.78"/><circle class="cls-1" cx="531.25" cy="87" r="2.78"/><circle class="cls-5" cx="142.38" cy="344.96" r="101.7"/><line class="cls-6" x1="95.92" y1="334.85" x2="154.67" y2="390.66"/><line class="cls-6" x1="128.23" y1="311.35" x2="186.98" y2="367.16"/><path class="cls-7" d="M445.32,425a69.83,69.83,0,0,1,16.2,29.8c2.06,8,2.7,16.43,5.86,24.08s9.76,14.71,18,15.09c10.35.46,18.17-9.31,22.3-18.8,12.3-28.28,7.33-63.28-12.35-87"/><path class="cls-1" d="M441.78,428.57c1.24,1.35,2.42,2.75,3.56,4.19-.65-.81.22.3.37.5l.75,1c.57.8,1.12,1.62,1.66,2.44a69.93,69.93,0,0,1,5.34,9.85c.14.33.49,1.17.16.36.16.39.32.78.47,1.18.36.91.71,1.84,1,2.77q.93,2.72,1.64,5.49c1,3.95,1.66,8,2.46,12,1.57,7.83,3.94,15.31,9.06,21.58,4.56,5.58,11.7,9.63,19.07,9,15.34-1.22,23.75-16.72,27.94-29.79a90.93,90.93,0,0,0,2.85-41.84,87.82,87.82,0,0,0-15.64-38.05q-1.74-2.37-3.61-4.64c-1.67-2-5.36-1.86-7.07,0a5.14,5.14,0,0,0,0,7.07,18.8,18.8,0,0,1,1.44,1.79c-.44-.72-.12-.15.15.21l.8,1.08c1,1.35,1.9,2.72,2.78,4.13a82,82,0,0,1,4.62,8.37c.33.69.65,1.38,1,2.08.16.35.31.7.46,1.05.24.53-.11-.28-.13-.31a3.12,3.12,0,0,1,.29.71q.94,2.31,1.74,4.66a87.07,87.07,0,0,1,2.57,9.23c.35,1.56.65,3.13.91,4.71l.18,1.13c0,.26.07.51.11.76.09.6-.06-.38-.05-.38a24.67,24.67,0,0,1,.29,2.48,90,90,0,0,1,.45,9.57,85.62,85.62,0,0,1-.63,9.74c0,.19-.05.38-.07.57-.07.6.05-.38.05-.38s-.15,1-.17,1.14c-.12.82-.26,1.64-.41,2.45-.29,1.57-.63,3.13-1,4.68a77.75,77.75,0,0,1-2.9,9.31c-.27.72-.56,1.43-.85,2.14-.21.54.13-.28.14-.31a2.17,2.17,0,0,1-.23.52c-.17.39-.35.77-.53,1.16a44.37,44.37,0,0,1-2.17,4.09c-.42.7-.85,1.39-1.31,2.06-.21.31-.42.62-.64.92l-.33.45c-.08.11-.6.75-.18.24l-.42.5-.73.84c-.53.58-1.08,1.15-1.65,1.7-.26.24-1.59,1.11-1.62,1.42,0,0,.76-.56.31-.24l-.43.31c-.34.24-.68.46-1,.68a19.08,19.08,0,0,1-1.82,1,2,2,0,0,0-.47.22s.93-.35.41-.16-.75.28-1.13.4c-.72.23-1.44.37-2.17.53-.55.12.45-.06.47-.06a3.27,3.27,0,0,0-.53,0c-.41,0-.82.05-1.23.05L485,489l-.54-.05c-.57,0,.41,0,.44.06a3.56,3.56,0,0,0-1.05-.21c-.41-.1-.81-.21-1.2-.34s-.67-.24-1-.36c-.53-.19.37.14.38.16s-.41-.19-.48-.23a19.12,19.12,0,0,1-2-1.15,7.63,7.63,0,0,0-.88-.62s.73.6.29.23l-.42-.34a23.75,23.75,0,0,1-1.86-1.76c-.52-.54-1-1.1-1.47-1.67-.6-.73.43.61-.12-.17-.25-.36-.5-.71-.74-1.07a33.36,33.36,0,0,1-2.23-4.06c-.41-.85.3.8-.11-.24-.17-.43-.33-.86-.49-1.29-.34-.93-.64-1.88-.92-2.83-.56-1.9-1-3.84-1.44-5.78-1.56-7.37-2.67-14.75-5.44-21.8a77.89,77.89,0,0,0-11.46-19.94c-1.09-1.38-2.24-2.72-3.43-4a5,5,0,0,0-7.07,0,5.11,5.11,0,0,0,0,7.07Z"/><path class="cls-7" d="M295.67,395.71c-20.4,23.19-21.53,61.05-2.55,85.42,7.48,9.61,20.2,17.51,31.44,12.8,11.9-5,14.63-20.33,15.59-33.19s3.45-28.19,15.24-33.45"/><path class="cls-1" d="M292.14,392.17A72.42,72.42,0,0,0,275,432.46a74.26,74.26,0,0,0,8,42.22,54.7,54.7,0,0,0,14,17.44c6.41,5.07,14.54,9.08,22.94,8.06A24.72,24.72,0,0,0,338.33,488c3.74-6.25,5.22-13.5,6.16-20.63.43-3.31.62-6.64.94-10,.08-.8.17-1.6.26-2.4,0-.2.16-1.53.08-.72s.1-.69.13-.88c.26-1.67.56-3.33.92-5s.8-3.22,1.32-4.79c.25-.74.52-1.47.8-2.2.46-1.17-.3.63.08-.18.19-.39.37-.79.56-1.18.34-.68.7-1.34,1.09-2,.17-.29,1.5-1.88,1.43-2.11,0,0-.65.77-.3.39.14-.15.27-.32.41-.48s.48-.55.74-.82c.54-.56,1.18-1,1.73-1.59.36-.38-.35.32-.39.29s.44-.33.51-.37c.31-.22.62-.42.94-.62a19.48,19.48,0,0,1,2.17-1.14c2.39-1.09,3.16-4.73,1.79-6.84-1.58-2.46-4.28-3-6.84-1.79-13.25,6-16.33,22.23-17.51,35.23-.14,1.62-.25,3.24-.4,4.86-.06.73-.14,1.47-.22,2.2,0,.4-.09.8-.14,1.19l-.06.52c-.08.68.19-1.29,0-.14a64.42,64.42,0,0,1-2,9.42c-.21.7-.44,1.39-.68,2.08-.13.36-.27.73-.41,1.09a3.51,3.51,0,0,1-.25.61c.12-.08.43-1,.12-.29a32.84,32.84,0,0,1-2.14,4c-.2.31-.41.61-.62.92-.64.94.47-.54-.07.11s-.95,1.1-1.46,1.61c-.26.26-1.59,1.17-1.63,1.45,0,0,.83-.58.39-.3-.18.11-.34.24-.51.36s-.62.4-.94.59a6,6,0,0,1-2,1s.94-.35.36-.17l-.7.26c-.47.15-.95.29-1.43.41l-1.07.23c-1.28.23.63,0-.29,0s-1.8.09-2.71,0a5,5,0,0,0-1.26-.1s1,.16.43.05l-.54-.09a22.46,22.46,0,0,1-2.69-.66c-.47-.14-2-.4-2.29-.81.18.27.75.33.15.05l-.52-.24c-.46-.22-.91-.45-1.36-.69a45.83,45.83,0,0,1-4.59-2.94c-.59-.42.63.52.08.06l-.46-.37c-.36-.29-.71-.59-1.05-.89-.7-.61-1.37-1.23-2-1.88s-1.27-1.3-1.88-2c-.3-.34-.59-.68-.88-1s-1-.94-1-1.19c0,0,.58.77.24.3l-.32-.42-.73-1c-.52-.72-1-1.46-1.5-2.21a62,62,0,0,1-4.7-8.76l-.21-.49c-.28-.64.34.86.09.21l-.46-1.15c-.3-.77-.58-1.55-.86-2.34-.54-1.57-1-3.15-1.44-4.76s-.8-3.23-1.11-4.86q-.22-1.21-.42-2.46c0-.2-.18-1.54-.11-.74s-.06-.54-.08-.76a71.69,71.69,0,0,1-.41-10.15c.05-1.67.16-3.33.32-5,0-.42.09-.83.13-1.24.07-.59.16-.92,0-.09.16-.88.25-1.77.41-2.64a70.22,70.22,0,0,1,2.41-9.68c.26-.78.53-1.57.82-2.35a16.33,16.33,0,0,0,1-2.48s-.39.89-.16.38l.21-.49.51-1.14c.37-.8.76-1.6,1.17-2.39a62.19,62.19,0,0,1,5.21-8.46c.11-.16.9-1.22.47-.64s.39-.49.49-.61c.52-.65,1.06-1.29,1.61-1.91,1.72-2,2.08-5.17,0-7.08-1.89-1.73-5.23-2.1-7.07,0Z"/><path class="cls-7" d="M496.85,329.75A447.84,447.84,0,0,0,501,270.87c0-3.38,0-6.85-1.2-10s-3.76-6-7.09-6.59c-3.82-.66-7.43,1.72-10.58,4l-32.1,23L447.39,283c-17.38-9.07-30.67-10.68-53.46-10.68A139.46,139.46,0,0,0,356,277.44l-28.28-24.82c-1.71-1.5-3.68-3.09-5.95-3s-3.93,1.91-5.37,3.6C301.58,270.79,299.74,290,300.56,313h0c-8.9,11.72-14,25.26-14,39.71,0,44.41,48.08,80.41,107.39,80.41s107.38-36,107.38-80.41A61.84,61.84,0,0,0,496.85,329.75Z"/><path class="cls-1" d="M501.67,331.08A460.28,460.28,0,0,0,506,271.85c0-5.07-.1-10.24-2.48-14.85a14.2,14.2,0,0,0-11.45-7.81c-5-.36-9.39,2.53-13.27,5.31l-12,8.64c-7.26,5.2-14.37,10.74-21.93,15.49h5a102.57,102.57,0,0,0-16.29-6.87,92.3,92.3,0,0,0-16.28-3.37,159.63,159.63,0,0,0-17.62-1.08,172.17,172.17,0,0,0-21.18.78,146.22,146.22,0,0,0-23.83,4.52l4.86,1.29-20.65-18.12c-3.45-3-6.79-6.38-10.55-9a10.62,10.62,0,0,0-6.94-2,11.9,11.9,0,0,0-7.18,3.55,53.77,53.77,0,0,0-7.29,9.42,61.12,61.12,0,0,0-4.9,9.17,79.44,79.44,0,0,0-5.72,21.52,148.63,148.63,0,0,0-.78,24.6l.68-2.52c-9.12,12.07-14.64,26.81-14.69,42a68.86,68.86,0,0,0,7.61,31.23,83.8,83.8,0,0,0,20.37,25.43A115.31,115.31,0,0,0,340.78,428a136.61,136.61,0,0,0,38,9.35,147.78,147.78,0,0,0,41-1.5,131.92,131.92,0,0,0,36.37-12,104.9,104.9,0,0,0,28.12-20.33,80.27,80.27,0,0,0,17.82-27.73A66.68,66.68,0,0,0,505,339.63a64.64,64.64,0,0,0-3.31-11.21c-.95-2.42-3.39-4.38-6.15-3.49-2.35.76-4.51,3.55-3.49,6.15a65.86,65.86,0,0,1,3.08,10.08c.32,1.5.59,3,.8,4.53-.16-1.15,0,.37,0,.5.05.46.09.92.13,1.38.08.93.14,1.85.17,2.78a60.78,60.78,0,0,1-.16,7.39c0,.49-.09,1-.14,1.47s-.44,2.4-.08.72c-.22,1-.33,2.13-.53,3.18a64.12,64.12,0,0,1-1.56,6.25c-.32,1-.66,2-1,3.05-.17.46-.34.92-.52,1.38-.1.27-.21.55-.32.82s-.54,1.34-.2.49,0,.09-.09.21-.24.54-.37.81c-.2.45-.41.89-.62,1.34-.52,1.06-1.06,2.12-1.63,3.16-1,1.93-2.2,3.8-3.42,5.63-.62.92-1.26,1.83-1.92,2.72-.3.41-.64.79-.91,1.22.83-1.32-.3.36-.55.67-1.43,1.76-2.94,3.47-4.51,5.11s-3.35,3.36-5.13,4.93c-.84.75-1.69,1.48-2.56,2.2-.45.38-.91.75-1.38,1.12l-.64.51c-.42.32-.34.26.24-.19l-.52.4a104.89,104.89,0,0,1-12.3,8c-2.21,1.23-4.46,2.38-6.74,3.47-1.16.54-2.33,1.07-3.51,1.58-.24.11-1.35.61-.1.05l-.65.28-2.14.86a127.89,127.89,0,0,1-15.38,4.91q-4,1-8,1.77c-1.37.26-2.74.49-4.11.71l-1.89.28-.38.06c-.57.07-.51.07.19,0a6.82,6.82,0,0,1-1.14.15,143.5,143.5,0,0,1-34.84,0l-1.15-.14c-.93-.12,0,0,.19,0-.76-.08-1.51-.22-2.27-.33-1.37-.22-2.74-.45-4.11-.7q-4-.75-8.05-1.75a129.11,129.11,0,0,1-15.57-4.94l-1.65-.65-1-.41c-1.09-.45.75.33.06,0-1.23-.54-2.46-1.07-3.68-1.65q-3.44-1.6-6.76-3.44a106.42,106.42,0,0,1-12.6-8.17,3,3,0,0,1-.52-.4c.72.9.34.27,0,0l-1.26-1c-1-.81-2-1.65-2.94-2.5q-2.61-2.31-5-4.81t-4.53-5.1c-.36-.44-.7-.89-1.06-1.32s.76,1,.13.17l-.55-.74c-.66-.89-1.31-1.79-1.93-2.71-1.29-1.9-2.49-3.87-3.59-5.88s-1.84-3.93-2.85-5.85c.73,1.4,0-.06-.17-.43s-.35-.92-.52-1.37q-.62-1.65-1.14-3.33a64.08,64.08,0,0,1-1.59-6.24c-.21-1.06-.38-2.12-.55-3.18s.12,1,0,.31l-.09-.73q-.1-.89-.18-1.77a62.64,62.64,0,0,1-.21-7.25c.05-1.47.15-2.94.3-4.4.05-.42.07-.85.15-1.25-.22,1.1,0,.17,0-.12q.19-1.33.45-2.67a62.74,62.74,0,0,1,2.41-8.81q.35-1,.72-1.95c.15-.39.31-.77.46-1.16.52-1.29-.43.92.15-.34s1.29-2.8,2-4.16a73.94,73.94,0,0,1,4.87-8c.49-.7,1-1.38,1.52-2.09a5.89,5.89,0,0,0,.91-3.7c0-1.58-.09-3.16-.11-4.73,0-3,0-6,.09-9,.11-2.8.3-5.61.62-8.4,0-.28.25-2.36.1-.9.07-.68.2-1.36.3-2,.23-1.4.49-2.79.79-4.18a67.23,67.23,0,0,1,2.16-7.77,34.65,34.65,0,0,1,1.43-3.79c-.59,1.24.24-.53.38-.84.34-.74.69-1.47,1.06-2.19a64.66,64.66,0,0,1,4.44-7.42q.57-.82,1.17-1.62c.1-.14.93-1.22.2-.28l.5-.64a30.89,30.89,0,0,1,3.25-3.6c-.76.7-.18.14.09,0s1.07-.5,0-.06l.36-.1c-.7.06-.76.08-.17.06-1.2-.23-.27,0,0,0,.62.08-.87-.58.08,0,.33.22.68.43,1,.64,1.09.7-.44-.43.13.1.36.35.77.66,1.14,1l8.19,7.18,16.74,14.7c1.52,1.33,3.21,3.35,5.19,3.9,2.14.59,4.84-.62,7-1.14,3.22-.8,6.47-1.47,9.74-2l2.26-.37,1.37-.2c.12,0,1.64-.21.5-.07q2.55-.33,5.1-.57,5.19-.48,10.4-.58c6.38-.13,12.8,0,19.17.41,1.24.09,2.48.18,3.72.3l2.17.23.71.08c.32,0,1.92.11.43.05a42.44,42.44,0,0,1,7.47,1.35q3.66.82,7.23,2c1.21.4,2.42.83,3.61,1.28l1.65.65,1,.41c-1.28-.57.24.11.48.22,1.14.51,2.28,1,3.4,1.58,2.5,1.22,5,3,7.83,1.41a41.14,41.14,0,0,0,3.88-2.55l17.65-12.66,9-6.48a80.86,80.86,0,0,1,8.66-5.82c.83-.45.19-.1,0,0,.4-.15.8-.29,1.21-.4l.4-.11q.87-.17-.09,0c.2-.1.6,0,.83,0,1.16-.14-.69-.29.29,0,.25.07.84.12,1,.31-.45-.45-.65-.34-.23-.06.21.11.41.24.61.37.44.31.39.27-.15-.14a17,17,0,0,1,1.27,1.29l-.33-.44c.14.2.28.4.41.61s.38.63.55.95a4.61,4.61,0,0,0,.31.66l-.23-.52q.17.44.3.87a17.56,17.56,0,0,1,.59,2.68c-.16-1.14,0,.37,0,.5l.06.93c0,.92,0,1.85,0,2.77,0,1.79,0,3.57,0,5.36q-.08,5.54-.3,11.07-.44,11-1.4,21.86c-.31,3.43-.65,6.86-1,10.29q-.3,2.69-.63,5.37c-.1.82-.21,1.63-.31,2.45-.07.49-.13,1-.19,1.46.14-1.05-.08.56-.09.62a5.55,5.55,0,0,0,.5,3.86,5.12,5.12,0,0,0,3,2.29C497.87,335.11,501.29,333.85,501.67,331.08Z"/><path class="cls-1" d="M340.37,379.19c3.84,0,7.52-3.38,7.34-7.34a7.47,7.47,0,0,0-7.34-7.35c-3.84,0-7.52,3.38-7.34,7.35a7.46,7.46,0,0,0,7.34,7.34Z"/><path class="cls-1" d="M443.18,382.42c3.84,0,7.52-3.38,7.34-7.34a7.48,7.48,0,0,0-7.34-7.35c-3.84,0-7.52,3.38-7.35,7.35a7.48,7.48,0,0,0,7.35,7.34Z"/><path class="cls-1" d="M375.34,401.69a106.6,106.6,0,0,1,23.62.2l-6.35-11.05a15.44,15.44,0,0,1-1.11,1.77l1.15-1.49a14.32,14.32,0,0,1-2.46,2.46l1.49-1.15a14.63,14.63,0,0,1-3,1.74l1.75-.74a14.33,14.33,0,0,1-3,.81l1.95-.26a13.78,13.78,0,0,1-3.21,0l1.95.26a14.35,14.35,0,0,1-3.45-.94l1.75.74a14.65,14.65,0,0,1-2.79-1.61l1.49,1.15a14.35,14.35,0,0,1-2.07-2,7.37,7.37,0,0,0-5.19-2.15,7.47,7.47,0,0,0-5.19,2.15c-2.87,3.13-2.67,7.25,0,10.38a19.87,19.87,0,0,0,16.71,6.68,20.08,20.08,0,0,0,9.18-3.15,20.81,20.81,0,0,0,6.78-7.27,7.5,7.5,0,0,0,0-7.41c-1.43-2.44-3.68-3.32-6.34-3.64a107.21,107.21,0,0,0-23.62-.2,8,8,0,0,0-5.19,2.15,7.51,7.51,0,0,0-2.15,5.19c.16,3.65,3.25,7.77,7.34,7.35Z"/><path class="cls-1" d="M381.18,405.87a30.31,30.31,0,0,0,14.6,14.53,30.67,30.67,0,0,0,21.91,1.54,31.64,31.64,0,0,0,11.51-6.51,5,5,0,0,0,0-7.07,5.13,5.13,0,0,0-7.07,0c-.17.16-1.51,1.22-.5.46-.41.31-.84.61-1.27.9A26.61,26.61,0,0,1,418,411.1a8.69,8.69,0,0,1-1.41.67l-.25.08a24.49,24.49,0,0,1-3,.91c-.38.09-.77.18-1.15.25s-1.93.48-.6.12a11.31,11.31,0,0,1-2.73.18,10.84,10.84,0,0,1-3.12-.16c1.16.37.08,0-.22,0-.5-.09-1-.2-1.49-.32a24,24,0,0,1-2.5-.76c-.31-.11-1.79-.44-.53-.19a5.72,5.72,0,0,1-1.34-.65c-.77-.4-1.53-.84-2.25-1.31-.42-.28-.82-.57-1.23-.85-.84-.6.68.6-.16-.14s-1.49-1.31-2.18-2c-.26-.27-.52-.54-.76-.82s-1.25-1.46-.4-.43a21.7,21.7,0,0,1-2.86-4.79c-1.1-2.38-4.72-3.16-6.84-1.79a5.14,5.14,0,0,0-1.8,6.84Z"/><path class="cls-1" d="M346.33,407.18a25.5,25.5,0,0,0,46.82-3.11c.91-2.46-1-5.59-3.49-6.15a5.13,5.13,0,0,0-6.15,3.49c-.08.23-.16.45-.25.67.27-.64.3-.71.07-.21s-.42.86-.65,1.28-.48.82-.74,1.22c-.15.23-1,1.6-.27.43a11,11,0,0,1-1.67,1.87c-.34.34-.69.66-1.05,1l-.55.46c.54-.41.6-.45.16-.13a26.71,26.71,0,0,1-2.42,1.54l-1,.49-.65.3c.65-.27.71-.31.2-.1-.91.3-1.8.61-2.74.82a5.66,5.66,0,0,1-1.41.26c1.34.1.12,0-.27,0a19.56,19.56,0,0,1-2.76,0l-.74-.08c.72.1.8.11.24,0s-1-.2-1.44-.32a7.79,7.79,0,0,1-2.46-.79c.63.27.69.29.18.07l-.67-.32c-.44-.22-.88-.45-1.3-.7s-.84-.52-1.25-.79c-.2-.14-.41-.28-.6-.43.51.41.56.45.13.1a24.16,24.16,0,0,1-1.9-1.75c-.34-.35-.65-.73-1-1.1s-.31-.38.1.14c-.14-.2-.29-.4-.42-.6a20.28,20.28,0,0,1-1.48-2.56,5,5,0,0,0-6.84-1.79,5.13,5.13,0,0,0-1.79,6.84Z"/><path class="cls-1" d="M302.77,471.09a29.9,29.9,0,0,0,4.55,22,3.31,3.31,0,0,0,5.71-3.33,26.54,26.54,0,0,1-2.36-4.23c.23.53-.24-.6-.28-.71-.15-.4-.28-.81-.41-1.22-.23-.72-.43-1.45-.59-2.19-.1-.42-.18-.84-.25-1.27,0,0-.16-1.06-.08-.4a24.48,24.48,0,0,1-.19-2.57c0-.76,0-1.51,0-2.27,0-.43.07-.85.11-1.28s.06-.43,0-.09c0-.21.07-.42.11-.63a3.39,3.39,0,0,0-2.31-4.07c-1.6-.36-3.75.49-4.06,2.31Z"/><path class="cls-1" d="M319,469.31l6.54,22.94A3.31,3.31,0,0,0,332,490.5l-6.55-22.94a3.3,3.3,0,0,0-6.37,1.75Z"/><path class="cls-1" d="M476.29,467.84a25.82,25.82,0,0,1,.46,5.07,27,27,0,0,1-.42,4.89,27.76,27.76,0,0,1-3.73,9.82,3.31,3.31,0,1,0,5.71,3.33,35.19,35.19,0,0,0,4.35-24.87,3.3,3.3,0,0,0-6.37,1.76Z"/><path class="cls-1" d="M491,469.14a26.14,26.14,0,0,1-.52,22,3.38,3.38,0,0,0,1.18,4.52,3.35,3.35,0,0,0,4.53-1.18,32.65,32.65,0,0,0,1.18-27.13,3.42,3.42,0,0,0-4.06-2.31c-1.55.43-3,2.41-2.31,4.07Z"/><path class="cls-1" d="M318.37,301.76a51,51,0,0,1,6.52-33.25h-5.18c4.65,6.63,9.34,13.25,14,19.91a9.91,9.91,0,0,1,1.08,1.82c.15.36.07.36-.13.69a7.25,7.25,0,0,1-2.8,1.89,35.69,35.69,0,0,0-3.88,1.74,9,9,0,0,0-3.63,3.7,3.07,3.07,0,0,0,1.08,4.1,3,3,0,0,0,4.1-1.07c.55-1.14,1.47-1.63,2.91-2.27a27.78,27.78,0,0,0,4.35-2c3.51-2.39,5.15-6.23,3-10.18a55.77,55.77,0,0,0-3.47-5.05l-3.7-5.29-7.7-11a3,3,0,0,0-5.18,0,57.51,57.51,0,0,0-7.13,37.87c.25,1.61,2.26,2.49,3.69,2.1a3.08,3.08,0,0,0,2.1-3.69Z"/><path class="cls-1" d="M475.73,302.51a40.54,40.54,0,0,0-9.85-11.26v4.24a120.24,120.24,0,0,1,21.93-19.67l-4.52-2.59L483,313.36c0,3.86,6,3.86,6,0l.33-40.13c0-2.15-2.61-3.91-4.51-2.59a126,126,0,0,0-23.14,20.61c-1,1.1-1.35,3.19,0,4.24a36.26,36.26,0,0,1,8.91,10.05c2,3.32,7.16.3,5.18-3Z"/><path class="cls-1" d="M268.91,358.93a375.83,375.83,0,0,1,47.6,22.14c3.38,1.87,6.41-3.31,3-5.18a387.65,387.65,0,0,0-49-22.75,3,3,0,0,0-3.69,2.1,3.07,3.07,0,0,0,2.09,3.69Z"/><path class="cls-1" d="M271,384.72l48.06,11.34c3.75.89,5.36-4.9,1.59-5.78l-48-11.35c-3.76-.88-5.36,4.9-1.6,5.79Z"/><path class="cls-1" d="M473.29,384a144.44,144.44,0,0,1,48.44-25.38c3.68-1.11,2.11-6.91-1.6-5.79a150.78,150.78,0,0,0-40.48,19.12c-3.65,2.44-7.17,5.06-10.6,7.81-1.26,1-1.05,3.18,0,4.24a3.08,3.08,0,0,0,4.24,0Z"/><path class="cls-1" d="M468.53,399.78a177.94,177.94,0,0,1,50.73-18.42,3,3,0,0,0,2.1-3.69,3.07,3.07,0,0,0-3.69-2.09,183.28,183.28,0,0,0-52.17,19c-3.39,1.85-.36,7,3,5.18Z"/></svg>