<svg id="uncollected_wm" data-name="uncollected wm" xmlns="http://www.w3.org/2000/svg" viewBox="0 0 595.28 595.28"><defs><style>.cls-1{fill:#010101;}.cls-2,.cls-3,.cls-6,.cls-7,.cls-8{fill:none;}.cls-2,.cls-3,.cls-4,.cls-6,.cls-7,.cls-8,.cls-9{stroke:#010101;}.cls-2,.cls-7{stroke-linecap:round;stroke-linejoin:round;}.cls-2{stroke-width:12.85px;}.cls-3,.cls-4,.cls-6,.cls-8,.cls-9{stroke-miterlimit:10;}.cls-3,.cls-4{stroke-width:15.6px;}.cls-10,.cls-4{fill:#fff;}.cls-5{fill:#de5f4c;}.cls-6{stroke-width:4.59px;}.cls-7{stroke-width:2.75px;}.cls-8,.cls-9{stroke-width:2.3px;}.cls-9{fill:#425d72;}</style></defs><path class="cls-1" d="M514.15,66.29a16.51,16.51,0,0,1,16.49,16.49V512.5A16.51,16.51,0,0,1,514.15,529H203.65a16.51,16.51,0,0,1-16.49-16.49V82.78a16.51,16.51,0,0,1,16.49-16.49h310.5m0-15.6H203.65a32.09,32.09,0,0,0-32.09,32.09V512.5a32.09,32.09,0,0,0,32.09,32.09h310.5a32.09,32.09,0,0,0,32.09-32.09V82.78a32.09,32.09,0,0,0-32.09-32.09Z"/><line class="cls-2" x1="178.37" y1="129.03" x2="536.46" y2="129.03"/><line class="cls-2" x1="178.37" y1="156.28" x2="538.15" y2="156.28"/><circle class="cls-3" cx="359.75" cy="341.07" r="116.66"/><rect class="cls-1" x="0.49" y="311.26" width="30.66" height="61.31" rx="3.45" transform="translate(31.63 683.84) rotate(-180)"/><circle class="cls-4" cx="129.78" cy="341.07" r="116.66"/><circle class="cls-1" cx="229.89" cy="92.98" r="18.31"/><circle class="cls-5" cx="284.39" cy="92.98" r="18.31"/><line class="cls-2" x1="178.37" y1="493.5" x2="532.76" y2="493.5"/><circle class="cls-5" cx="427.87" cy="104.34" r="2.55"/><circle class="cls-5" cx="436.39" cy="104.34" r="2.55"/><circle class="cls-5" cx="444.91" cy="104.34" r="2.55"/><circle class="cls-5" cx="453.42" cy="104.34" r="2.55"/><circle class="cls-5" cx="461.94" cy="104.34" r="2.55"/><circle class="cls-5" cx="470.45" cy="104.34" r="2.55"/><circle class="cls-5" cx="478.97" cy="104.34" r="2.55"/><circle class="cls-5" cx="487.48" cy="104.34" r="2.55"/><circle class="cls-6" cx="130.63" cy="341.07" r="93.33"/><line class="cls-7" x1="87.99" y1="331.79" x2="141.91" y2="383"/><line class="cls-7" x1="117.65" y1="310.22" x2="171.56" y2="361.44"/><path class="cls-5" d="M429.54,384.77l-31.19-17.34,5.06-9.1,30.25,16,.06,2.09Z"/><path class="cls-5" d="M396.59,430.24c-.29-2.73-5.06-4.24-7.43-5a20.6,20.6,0,0,0-11.63-.51c-5.34,1.38-8.39,4.55-10.61,6.86s-4.77,4.95-4,7.14c.51,1.42,2.24,2,5.2,2.89a23,23,0,0,0,8.59,1.38c6.21-.31,10.29-3.44,14.95-7C394.89,433.56,396.79,432.07,396.59,430.24Z"/><path class="cls-5" d="M358.06,390.94c.07.82-.66,1.36-2.46,2.89-7,6-15.36,13.08-20.8,19.05-1,1.06-1.77,2-2.75,1.88-2.68-.35-4.79-8.51-3.31-15.45.44-2.09,1.5-7.09,5.78-10.4C343,382.35,357.74,387.44,358.06,390.94Z"/><path class="cls-8" d="M401.32,360.57c-.39.7-1,1.85-1.81,3.25-.37.65-1,1.7-1.8,3.11a301.77,301.77,0,0,1-18.5,27.27c-1.41,1.87-3.45,4.54-6,7.73A34.06,34.06,0,0,1,368,399c-3.61-2.45-4.46-4.07-7.37-6.65-2.76-2.45-6.74-6-12.34-6.87a18.24,18.24,0,0,0-9,.94A18.44,18.44,0,0,0,330,394c-4.28,7.25-1.25,15.43-.44,17.61s3,7.21,17.53,17.41,24.29,16.84,34,13.81c2.25-.7,4.12-2.13,7.88-5,10.9-8.29,17.32-17.16,24.48-27.21,2-2.78,5.85-9,13.59-21.36a88.1,88.1,0,0,0,4.7-8.45c1.35-2.79,2.32-5.18,3-6.86l-31.91-16Z"/><path class="cls-5" d="M388.61,255.19l-24,26.4-7.7-7,22.45-25.8,2.05.41Z"/><path class="cls-5" d="M425.36,297.64c-2.72-.34-5.27,4-6.55,6.1a20.54,20.54,0,0,0-3.15,11.2c.13,5.52,2.52,9.21,4.25,11.9s3.74,5.78,6,5.5c1.5-.17,2.44-1.72,4-4.4a23.21,23.21,0,0,0,3.3-8.05c1.11-6.12-1-10.8-3.4-16.15C428.21,300.06,427.19,297.87,425.36,297.64Z"/><path class="cls-5" d="M378.31,326.19c.82.12,1.17.95,2.25,3.05,4.23,8.22,9.23,17.94,13.8,24.6.81,1.19,1.55,2.18,1.2,3.1-.95,2.54-9.37,2.72-15.8-.3-1.93-.9-6.56-3.08-8.8-8C366.51,338.89,374.83,325.7,378.31,326.19Z"/><path class="cls-8" d="M358.61,277.14c.6.53,1.57,1.41,2.75,2.5.55.51,1.44,1.33,2.62,2.46a301,301,0,0,1,22.33,24.24c1.5,1.8,3.63,4.4,6.15,7.6a32.87,32.87,0,0,1-4,4.4c-3.2,3-5,3.41-8.15,5.65-3,2.13-7.37,5.2-9.5,10.45a18.25,18.25,0,0,0-1.15,9,18.47,18.47,0,0,0,5.25,10.8c6.09,5.82,14.74,4.74,17,4.45s7.7-1.27,21-13.1,21.94-19.8,21.21-29.95c-.17-2.35-1.13-4.5-3.05-8.8-5.59-12.51-12.76-20.78-20.91-30-2.25-2.56-7.4-7.74-17.7-18.1a84.48,84.48,0,0,0-7.15-6.5c-2.41-2-4.51-3.45-6-4.45q-11.44,13.69-22.9,27.4Z"/><polygon class="cls-9" points="352.46 306.41 344.23 383.64 281.05 376.91 289.28 299.68 322.48 315.15 352.46 306.41"/><path class="cls-9" d="M287,321.13l-20.91-10.91c2.11-2.92,5.21-7.19,9.53-13.09a28.84,28.84,0,0,1,6.54-6.89,16.48,16.48,0,0,1,7.35-3.56c2.68-.44,4.06.21,9.19,1,3.47.52,6.3.75,8,.86l1.15.12a32.44,32.44,0,0,0,4.71,10.26,34.7,34.7,0,0,0,8.39,8.49,28.93,28.93,0,0,0,8.85-6.65,26.66,26.66,0,0,0,5.73-10.24,80.79,80.79,0,0,1,16.09,1.72,16.58,16.58,0,0,1,4.48,1.56,17.11,17.11,0,0,1,6.32,6.1c5,7.53,9.93,19.13,10.58,20.65l-22.86,7.33"/><rect class="cls-1" x="417.04" y="455.1" width="177.75" height="16.77" rx="2.6"/><path class="cls-1" d="M430.57,468.52c0,1.12,13.42,67.07,13.42,67.07a15.77,15.77,0,0,0,7.82,8.95H562.49a11.53,11.53,0,0,0,6.7-7.83l15.66-71.54Z"/><path class="cls-10" d="M463,490.88c1.6,3.21,1.14,7.9-1.12,8.94s-6.45-2-7.82-5.59c-1-2.66-1-6.69,1.12-7.82C457.42,485.17,461.41,487.71,463,490.88Z"/><path class="cls-10" d="M463,506.53c1.6,3.21,1.14,7.9-1.12,8.94s-6.45-2-7.82-5.59c-1-2.66-1-6.69,1.12-7.82C457.42,500.83,461.41,503.37,463,506.53Z"/><path class="cls-10" d="M463,522.18c1.6,3.21,1.14,7.9-1.12,8.94s-6.45-2-7.82-5.59c-1-2.66-1-6.69,1.12-7.82C457.42,516.48,461.41,519,463,522.18Z"/><path class="cls-10" d="M478.64,490.88c1.6,3.21,1.14,7.9-1.12,8.94s-6.45-2-7.82-5.59c-1-2.66-1-6.69,1.12-7.82C473.07,485.17,477.07,487.71,478.64,490.88Z"/><path class="cls-10" d="M478.64,506.53c1.6,3.21,1.14,7.9-1.12,8.94s-6.45-2-7.82-5.59c-1-2.66-1-6.69,1.12-7.82C473.07,500.83,477.07,503.37,478.64,506.53Z"/><path class="cls-10" d="M478.64,522.18c1.6,3.21,1.14,7.9-1.12,8.94s-6.45-2-7.82-5.59c-1-2.66-1-6.69,1.12-7.82C473.07,516.48,477.07,519,478.64,522.18Z"/><path class="cls-10" d="M495.41,490.88c1.6,3.21,1.14,7.9-1.12,8.94s-6.45-2-7.82-5.59c-1-2.66-1-6.69,1.12-7.82C489.84,485.17,493.83,487.71,495.41,490.88Z"/><path class="cls-10" d="M495.41,506.53c1.6,3.21,1.14,7.9-1.12,8.94s-6.45-2-7.82-5.59c-1-2.66-1-6.69,1.12-7.82C489.84,500.83,493.83,503.37,495.41,506.53Z"/><path class="cls-10" d="M495.41,522.18c1.6,3.21,1.14,7.9-1.12,8.94s-6.45-2-7.82-5.59c-1-2.66-1-6.69,1.12-7.82C489.84,516.48,493.83,519,495.41,522.18Z"/><path class="cls-10" d="M511.06,490.88c1.6,3.21,1.14,7.9-1.12,8.94s-6.45-2-7.82-5.59c-1-2.66-1-6.69,1.12-7.82C505.49,485.17,509.49,487.71,511.06,490.88Z"/><path class="cls-10" d="M511.06,506.53c1.6,3.21,1.14,7.9-1.12,8.94s-6.45-2-7.82-5.59c-1-2.66-1-6.69,1.12-7.82C505.49,500.83,509.49,503.37,511.06,506.53Z"/><path class="cls-10" d="M511.06,522.18c1.6,3.21,1.14,7.9-1.12,8.94s-6.45-2-7.82-5.59c-1-2.66-1-6.69,1.12-7.82C505.49,516.48,509.49,519,511.06,522.18Z"/><path class="cls-10" d="M526.71,490.88c1.6,3.21,1.14,7.9-1.11,8.94s-6.46-2-7.83-5.59c-1-2.66-1-6.69,1.12-7.82C521.15,485.17,525.14,487.71,526.71,490.88Z"/><path class="cls-10" d="M526.71,506.53c1.6,3.21,1.14,7.9-1.11,8.94s-6.46-2-7.83-5.59c-1-2.66-1-6.69,1.12-7.82C521.15,500.83,525.14,503.37,526.71,506.53Z"/><path class="cls-10" d="M526.71,522.18c1.6,3.21,1.14,7.9-1.11,8.94s-6.46-2-7.83-5.59c-1-2.66-1-6.69,1.12-7.82C521.15,516.48,525.14,519,526.71,522.18Z"/><path class="cls-10" d="M543.48,490.88c1.6,3.21,1.14,7.9-1.12,8.94s-6.45-2-7.82-5.59c-1-2.66-1-6.69,1.12-7.82C537.91,485.17,541.91,487.71,543.48,490.88Z"/><path class="cls-10" d="M543.48,506.53c1.6,3.21,1.14,7.9-1.12,8.94s-6.45-2-7.82-5.59c-1-2.66-1-6.69,1.12-7.82C537.91,500.83,541.91,503.37,543.48,506.53Z"/><path class="cls-10" d="M543.48,522.18c1.6,3.21,1.14,7.9-1.12,8.94s-6.45-2-7.82-5.59c-1-2.66-1-6.69,1.12-7.82C537.91,516.48,541.91,519,543.48,522.18Z"/><path class="cls-10" d="M559.13,490.88c1.6,3.21,1.14,7.9-1.11,8.94s-6.46-2-7.83-5.59c-1-2.66-1-6.69,1.12-7.82C553.57,485.17,557.56,487.71,559.13,490.88Z"/><path class="cls-10" d="M559.13,506.53c1.6,3.21,1.14,7.9-1.11,8.94s-6.46-2-7.83-5.59c-1-2.66-1-6.69,1.12-7.82C553.57,500.83,557.56,503.37,559.13,506.53Z"/><path class="cls-10" d="M559.13,522.18c1.6,3.21,1.14,7.9-1.11,8.94s-6.46-2-7.83-5.59c-1-2.66-1-6.69,1.12-7.82C553.57,516.48,557.56,519,559.13,522.18Z"/></svg>