<svg xmlns="http://www.w3.org/2000/svg" viewBox="0 0 147 106"><defs><style>.cls-1{fill:#ffc3b4;}.cls-2{fill:#fff;}</style></defs><g id="Layer_2" data-name="Layer 2"><g id="Grid_13" data-name="Grid 13"><circle class="cls-1" cx="53" cy="53" r="53"/><rect class="cls-2" x="28" y="44" width="119" height="34"/><path d="M27.44,58.77V77.86c0,5.18,30.2,23.39,46,23.39s46-18.21,46-23.39V58.77l-46,18.59Z"/><path d="M133.49,46.71,73.75,21.06a.81.81,0,0,0-.61,0L13.41,46.71a.78.78,0,0,0,0,1.44l6.93,2.79c-3.27,4-7.2,11-7.29,18a6.8,6.8,0,0,0-1.77.58,6.64,6.64,0,0,0,.43,12.06l-2.61,17a1,1,0,0,0,1.12,1.09H18.4a1,1,0,0,0,1.13-1.09l-2.62-17c.14-.06.29-.1.43-.17a6.67,6.67,0,0,0,2.92-9,6.43,6.43,0,0,0-1.78-2.17,27.22,27.22,0,0,1,.7-5.47,31.78,31.78,0,0,1,5.56-12.12L73.15,72.28a.76.76,0,0,0,.59,0l59.73-24.13A.78.78,0,0,0,133.49,46.71Z"/></g></g></svg>