<svg xmlns="http://www.w3.org/2000/svg" viewBox="0 0 234.73 242.61"><defs><style>.cls-1,.cls-4{fill:#bfddff;}.cls-2{fill:none;stroke:#fff;}.cls-3,.cls-4{fill-rule:evenodd;}</style></defs><g id="Layer_2" data-name="Layer 2"><g id="Grid_9" data-name="Grid 9"><circle class="cls-1" cx="92.87" cy="122.72" r="78"/></g><g id="Grid_13" data-name="Grid 13"><path d="M176.73,114.84a20,20,0,1,0-26.93,27.84l29.79-17.76A20.32,20.32,0,0,0,176.73,114.84Z"/><polygon points="214.19 199.29 198.74 208.5 153.57 144.4 179.31 129.06 214.19 199.29"/><line class="cls-2" x1="183.56" y1="202.37" x2="216.02" y2="183.03"/><line class="cls-2" x1="191.36" y1="203.45" x2="214.97" y2="189.75"/><rect x="203.41" y="201.3" width="7.5" height="7.5" transform="translate(-74.62 130.46) rotate(-29.88)"/><path class="cls-3" d="M48.71,174.83c9.77-11.31,3.75-4.5,7.5-8.79,13.37-15.26,25.46-21.27,41.54-17.44,2.86.68,8.07,1.62,9.38,5.37,2.41,6.9-15.33,17.86-17.64,35-1.35,10,34,50.69-11.39,39.59C33.75,217.69,40.52,184.31,48.71,174.83Z"/><path class="cls-3" d="M88.26,188.54c-20.22-5-23.43-8.94-22-34.67.54-9.6-1.65-19.13,3.49-27.38S83,114.54,101,119Z"/><path class="cls-3" d="M85.13,201.26c18.71,4.59,32.1,20.74,40.15-.25,3-7.94-1.59-15.6-2.55-17.72-2.82-6.22-11.86-7.56,1.4-21.67,6.46-6.88,4.56-14.09,3.77-19.71-1-7.34-4.94-9.74-23.69-18.45Z"/><path class="cls-3" d="M126.29,196.91c.36-6.89-6.3-4.56-8.22-10.71-3.75-12-7.45-25.76-23.25-29.62-23.9-5.85-3.2,16.32-10.32,35.4-3.16,8.45-51.56,25.3-7.27,36.14C120.5,238.71,125.71,208.05,126.29,196.91Z"/><ellipse class="cls-1" cx="123.51" cy="122.22" rx="19.24" ry="12.56" transform="translate(-40.42 179.84) rotate(-64.06)"/><polygon class="cls-3" points="103.2 160 88.57 156.41 122.2 31.08 131.35 33.32 103.2 160"/><path class="cls-4" d="M133.46,122.3c.78,8.58-1.76,15.82-5.69,16.18s-7.74-6.31-8.52-14.89,1.77-15.82,5.69-16.18S132.68,113.72,133.46,122.3Z"/><path class="cls-3" d="M132.53,36.24l-7.68-2.91a2.65,2.65,0,0,1-1.94-3.22c1.1-4.49,1-.05,4.32-13.44,1.07-4.3,1.12-8.64,2.19-12.95a2.7,2.7,0,0,1,1.2-1.64,2.63,2.63,0,0,1,2-.3l7.2.76c1.43.35,4.3,3.09,2.95,4.48a63,63,0,0,0-5.28,13.2c-1.9,7.71.92,8.58-.21,13.14A14.49,14.49,0,0,0,132.53,36.24Z"/><path class="cls-3" d="M120.53,33.63l7.95.93a2.65,2.65,0,0,0,3.16-2c1.11-4.53-.86-.51,2.47-14,1.07-4.35,3-8.26,4.1-12.61a2.86,2.86,0,0,0-.28-2,2.56,2.56,0,0,0-1.59-1.2L129.79.06c-1.38-.34-5.12.79-4.59,2.66A66.4,66.4,0,0,1,123.65,17c-1.92,7.79-4.75,7.27-5.88,11.87A14.4,14.4,0,0,1,120.53,33.63Z"/><path class="cls-3" d="M201.54,69.88l-28.25-5.5a1.5,1.5,0,0,1-1.07-1.55V57c0-1,.7-1.7,1.46-1.55L201.94,61A1.5,1.5,0,0,1,203,62.51v5.83C203,69.3,202.31,70,201.54,69.88Z"/><rect x="172.22" y="58.87" width="3.54" height="25.74"/><rect x="199.47" y="63.96" width="3.54" height="29.14"/><ellipse cx="193.92" cy="94.02" rx="9.25" ry="4.78" transform="translate(-13.18 34.39) rotate(-9.8)"/><ellipse cx="166.72" cy="86.17" rx="9.25" ry="4.78" transform="translate(-12.24 29.64) rotate(-9.8)"/><path d="M55,138.78C45,142.93,38,153.08,38.4,164a3,3,0,0,0,6,0,17.42,17.42,0,0,1,.71-6.1c.15-.52.31-1,.49-1.55.1-.25.19-.51.29-.76.38-1-.1.21.14-.33a24.8,24.8,0,0,1,1.62-3,20.21,20.21,0,0,1,3.94-4.57A14.73,14.73,0,0,1,54,146q.69-.43,1.41-.81l.72-.37.48-.22a3.1,3.1,0,0,0,2.09-3.69c-.39-1.42-2.18-2.72-3.69-2.1Z"/><path d="M50.06,120.74a49.09,49.09,0,0,0-28.68,33.44,45.77,45.77,0,0,0-1.32,12.71,3,3,0,0,0,6,0A43.11,43.11,0,0,1,42.37,132a40.24,40.24,0,0,1,9.29-5.51,3.08,3.08,0,0,0,2.09-3.69c-.39-1.41-2.18-2.71-3.69-2.09Z"/><path d="M44,101.55c-20.79,8.5-36.59,27.25-42,49a67.4,67.4,0,0,0-2,18.87,3.06,3.06,0,0,0,3,3,3,3,0,0,0,3-3c-.83-20.54,9-40.68,25.08-53.56a61.17,61.17,0,0,1,14.49-8.54,3.09,3.09,0,0,0,2.09-3.69c-.39-1.42-2.18-2.72-3.69-2.1Z"/><rect x="231.39" y="49.66" width="3.25" height="37.15" rx="1.62"/><ellipse cx="225.4" cy="87.47" rx="9.52" ry="6.04" transform="translate(-15.02 61.87) rotate(-15.13)"/><path d="M156.69,240.38a66.59,66.59,0,0,1-9-27.66c-.38-4.22-.77-9,.74-13s5.55-5.82,9.73-5.1c4.67.81,8.39,4.19,11.79,7.25,3.58,3.22,7.06,6.54,10.62,9.76s7.17,6.32,11,9.17c1.86,1.37,3.77,2.69,5.74,3.9a24.46,24.46,0,0,0,6.6,3.16,8.13,8.13,0,0,0,10.15-6.09c1.34-5.15-1.48-9.91-4.19-14.05-1.06-1.61-3.66-.11-2.59,1.51,2.32,3.55,5.17,7.8,3.74,12.23a5.11,5.11,0,0,1-3.58,3.62c-2.35.51-4.77-.74-6.74-1.86-8.37-4.76-15.5-11.34-22.52-17.85-3.49-3.24-6.92-6.62-10.72-9.51-3.53-2.68-7.77-4.75-12.32-4.35a10.85,10.85,0,0,0-9.35,6.75c-1.65,4-1.52,8.51-1.25,12.71a69.94,69.94,0,0,0,9.56,30.94,1.5,1.5,0,0,0,2.59-1.51Z"/></g></g></svg>