<svg xmlns="http://www.w3.org/2000/svg" viewBox="0 0 160.5 164.77"><defs><style>.cls-1{fill:#cdeda1;}.cls-2{fill:#ff7b15;stroke-miterlimit:10;}.cls-2,.cls-3,.cls-4{stroke:#000;}.cls-2,.cls-3,.cls-4,.cls-5{stroke-linecap:round;}.cls-2,.cls-5{stroke-width:4px;}.cls-3{fill:#fff;stroke-width:6px;}.cls-3,.cls-4,.cls-5{stroke-linejoin:round;}.cls-4,.cls-5{fill:none;}.cls-4{stroke-width:5px;}.cls-5{stroke:#8f2300;}</style></defs><g id="Layer_2" data-name="Layer 2"><g id="Grid_13" data-name="Grid 13"><circle class="cls-1" cx="66.5" cy="66.5" r="66.5"/><circle class="cls-2" cx="36.23" cy="74.51" r="23.74"/><path d="M50.92,57.56a33.56,33.56,0,0,1-23.64,37c-1.84.55-1.06,3.45.8,2.89A36.88,36.88,0,0,0,53.64,69a37.74,37.74,0,0,0,.17-12.23c-.28-1.9-3.17-1.09-2.89.8Z"/><path d="M41.33,53.57A13.15,13.15,0,0,1,44.54,64a16,16,0,0,1-5.11,9.77c-6.61,6.25-16.27,7-24.85,5.66-1.89-.3-2.7,2.59-.8,2.89,8,1.24,16.48,1,23.57-3.26,6-3.6,10.44-9.88,10.26-17.08a15.87,15.87,0,0,0-4.15-10.52c-1.32-1.41-3.44.71-2.13,2.12Z"/><path d="M58,87.29A36.61,36.61,0,0,0,29.25,59.6a37.7,37.7,0,0,0-12.36-.21c-1.9.28-1.09,3.17.8,2.9a33.78,33.78,0,0,1,24.39,6,33.84,33.84,0,0,1,13,19.81c.43,1.89,3.32,1.09,2.89-.79Z"/><path d="M59.24,73.26A60.1,60.1,0,0,0,44.6,95.14c-.7,1.8,2.2,2.58,2.9.8A56.58,56.58,0,0,1,61.36,75.38c1.41-1.33-.72-3.45-2.12-2.12Z"/><polygon class="cls-3" points="157.5 124.39 74.52 102.65 76.77 42.41 154.87 20.98 157.5 124.39"/><polygon class="cls-4" points="128.31 100.79 94.46 95.26 95.15 75.91 127.62 73.15 128.31 100.79"/><line class="cls-4" x1="115.27" y1="98.92" x2="115.27" y2="111.96"/><line class="cls-4" x1="105.96" y1="98.92" x2="105.96" y2="110.72"/><path d="M64.55,108.71c1.11,16.14,13.57,27.74,19.86,41.87a35.25,35.25,0,0,1,3.17,12.74c.08,1.92,3.08,1.93,3,0-.65-16.2-13.08-28-19.55-41.94a36.14,36.14,0,0,1-3.48-12.67c-.13-1.92-3.13-1.93-3,0Z"/><path d="M121,105c-2.25,15.53-12.73,28.34-15.37,43.78a36.29,36.29,0,0,0,0,13c.28,1.47,2.56,1.38,2.9,0l.3-1.25c.46-1.88-2.43-2.68-2.89-.8l-.31,1.25h2.9c-1.86-9.76,1.67-19.55,5.6-28.35s8.39-17.32,9.77-26.85c.27-1.89-2.62-2.71-2.89-.8Z"/><path d="M80.93,140.56c4-8.93,8.5-18.34,6.6-28.37-.36-1.9-3.25-1.1-2.89.79,1.72,9.12-2.71,18-6.3,26.07-.77,1.75,1.81,3.28,2.59,1.51Z"/><path d="M86.94,147.37a103.66,103.66,0,0,0,14.74-36.54c.3-1.58-1.89-2.74-2.74-1.16l-.46.84c-.91,1.7,1.68,3.22,2.59,1.52l.46-.84L98.78,110a101.24,101.24,0,0,1-14.43,35.83c-1.06,1.62,1.54,3.13,2.59,1.51Z"/><path d="M89.35,157.44a94.63,94.63,0,0,0,23.48-45.7c.38-1.88-2.51-2.69-2.89-.8a91.73,91.73,0,0,1-22.71,44.38c-1.32,1.41.8,3.54,2.12,2.12Z"/><path d="M75.73,129.75c1-6.5,2-13.09,1.81-19.69l-3,.4.16.46c.61,1.82,3.51,1,2.89-.79l-.16-.47c-.52-1.53-3-1.37-2.94.4.2,6.34-.74,12.65-1.7,18.89a1.55,1.55,0,0,0,1,1.85,1.51,1.51,0,0,0,1.84-1.05Z"/><path d="M97.74,162c.62-2.48,2.47-4.36,4.36-6,2.15-1.86,4.4-3.54,6.1-5.86a1.51,1.51,0,0,0-.54-2,1.52,1.52,0,0,0-2,.54c-1.64,2.23-4,3.81-6.08,5.64a14.18,14.18,0,0,0-4.68,6.92c-.46,1.88,2.43,2.68,2.89.8Z"/><path d="M85.84,149.52A51,51,0,0,1,100,163a1.53,1.53,0,0,0,2,.53,1.51,1.51,0,0,0,.54-2.05,54.92,54.92,0,0,0-15.25-14.52c-1.63-1-3.14,1.56-1.51,2.59Z"/><path d="M80,141a119.14,119.14,0,0,1,25.67,18.34c1.41,1.32,3.53-.8,2.12-2.12a122,122,0,0,0-26.28-18.81c-1.7-.91-3.22,1.68-1.51,2.59Z"/><path d="M76,134a113.07,113.07,0,0,1,30.74,15c1.6,1.1,3.1-1.5,1.52-2.59A116.12,116.12,0,0,0,76.8,131.1c-1.85-.57-2.64,2.32-.79,2.9Z"/><path d="M75.39,125.68c10,6.85,22,10.09,32.56,16,1.69.94,3.2-1.65,1.51-2.59-10.57-5.9-22.5-9.14-32.56-16-1.59-1.09-3.1,1.51-1.51,2.59Z"/><path d="M95.31,129a75.31,75.31,0,0,1,14.39,7c1.64,1,3.15-1.57,1.51-2.59a79,79,0,0,0-15.1-7.3,1.53,1.53,0,0,0-1.85,1.05,1.54,1.54,0,0,0,1,1.85Z"/><path d="M97.93,121.21a49.62,49.62,0,0,1,14.11,9.5c1.39,1.34,3.51-.77,2.12-2.12a51.88,51.88,0,0,0-14.71-10,1.55,1.55,0,0,0-2,.54,1.5,1.5,0,0,0,.53,2Z"/><path d="M85.69,125.21a23.64,23.64,0,0,1,2.45.6c.38.12.75.24,1.12.38l.52.2c.22.09-.2-.09,0,0l.32.14a25.63,25.63,0,0,1,4.27,2.55,1.5,1.5,0,0,0,2-.54,1.53,1.53,0,0,0-.54-2.05,23.68,23.68,0,0,0-9.42-4.18,1.5,1.5,0,0,0-.79,2.89Z"/><path d="M71.74,122.69a85.18,85.18,0,0,1,4.06-21c.6-1.83-2.3-2.62-2.9-.79a88.54,88.54,0,0,0-4.16,21.82c-.12,1.92,2.88,1.92,3,0Z"/><ellipse class="cls-5" cx="93.85" cy="104.51" rx="29.5" ry="6.21"/><path d="M69.48,119.52,73.75,123a1.63,1.63,0,0,0,1.06.44,1.5,1.5,0,0,0,1.06-.44,1.52,1.52,0,0,0,.44-1.06,1.48,1.48,0,0,0-.44-1.06L71.6,117.4a1.5,1.5,0,0,0-2.12,0,1.56,1.56,0,0,0-.44,1.06,1.46,1.46,0,0,0,.44,1.06Z"/></g></g></svg>