<svg xmlns="http://www.w3.org/2000/svg" viewBox="0 0 261.6 167.58"><defs><style>.cls-1{fill:#bfddff;}.cls-2{fill:#fff;stroke:#000;stroke-width:5px;}</style></defs><g id="Layer_2" data-name="Layer 2"><g id="Grid_9" data-name="Grid 9"><circle class="cls-1" cx="111.1" cy="82" r="82"/><circle cx="35.27" cy="25.16" r="7.64"/><path d="M35.27,34.69A15.28,15.28,0,0,0,20.06,48.57,1.29,1.29,0,0,0,21.34,50H49.2a1.28,1.28,0,0,0,1.28-1.39A15.27,15.27,0,0,0,35.27,34.69Z"/><circle cx="73.26" cy="25.16" r="7.64"/><path d="M73.26,34.69A15.27,15.27,0,0,0,58.05,48.57,1.28,1.28,0,0,0,59.33,50H87.19a1.29,1.29,0,0,0,1.28-1.39A15.28,15.28,0,0,0,73.26,34.69Z"/><circle cx="112.41" cy="25.16" r="7.64"/><path d="M112.41,34.69A15.27,15.27,0,0,0,97.2,48.57,1.28,1.28,0,0,0,98.48,50h27.86a1.28,1.28,0,0,0,1.28-1.39A15.27,15.27,0,0,0,112.41,34.69Z"/><circle cx="150.62" cy="24.82" r="7.64"/><path d="M150.62,34.35a15.28,15.28,0,0,0-15.21,13.88,1.29,1.29,0,0,0,1.28,1.39h27.86a1.28,1.28,0,0,0,1.28-1.39A15.27,15.27,0,0,0,150.62,34.35Z"/><circle cx="188.61" cy="24.82" r="7.64"/><path d="M188.61,34.35A15.27,15.27,0,0,0,173.4,48.23a1.27,1.27,0,0,0,1.28,1.39h27.85a1.27,1.27,0,0,0,1.28-1.39A15.27,15.27,0,0,0,188.61,34.35Z"/><circle cx="227.76" cy="24.82" r="7.64"/><path d="M227.76,34.35a15.27,15.27,0,0,0-15.21,13.88,1.28,1.28,0,0,0,1.28,1.39h27.86A1.28,1.28,0,0,0,243,48.23,15.28,15.28,0,0,0,227.76,34.35Z"/><rect class="cls-2" x="3.61" y="42.2" width="255.48" height="40.82" rx="9.36"/><circle cx="34.3" cy="66" r="7.64"/><path d="M34.3,75.53A15.28,15.28,0,0,0,19.09,89.41a1.29,1.29,0,0,0,1.28,1.39H48.23a1.28,1.28,0,0,0,1.28-1.39A15.27,15.27,0,0,0,34.3,75.53Z"/><circle cx="72.29" cy="66" r="7.64"/><path d="M72.29,75.53A15.27,15.27,0,0,0,57.08,89.41a1.28,1.28,0,0,0,1.28,1.39H86.22a1.29,1.29,0,0,0,1.28-1.39A15.28,15.28,0,0,0,72.29,75.53Z"/><circle cx="111.44" cy="66" r="7.64"/><path d="M111.44,75.53A15.27,15.27,0,0,0,96.23,89.41a1.28,1.28,0,0,0,1.28,1.39h27.86a1.28,1.28,0,0,0,1.28-1.39A15.28,15.28,0,0,0,111.44,75.53Z"/><circle cx="149.65" cy="65.66" r="7.64"/><path d="M149.65,75.19a15.28,15.28,0,0,0-15.21,13.88,1.29,1.29,0,0,0,1.28,1.39h27.86a1.28,1.28,0,0,0,1.28-1.39A15.27,15.27,0,0,0,149.65,75.19Z"/><circle cx="187.64" cy="65.66" r="7.64"/><path d="M187.64,75.19a15.27,15.27,0,0,0-15.21,13.88,1.27,1.27,0,0,0,1.28,1.39h27.85a1.27,1.27,0,0,0,1.28-1.39A15.27,15.27,0,0,0,187.64,75.19Z"/><circle cx="226.79" cy="65.66" r="7.64"/><path d="M226.79,75.19a15.27,15.27,0,0,0-15.21,13.88,1.28,1.28,0,0,0,1.28,1.39h27.86A1.29,1.29,0,0,0,242,89.07,15.28,15.28,0,0,0,226.79,75.19Z"/><circle cx="34.16" cy="101.94" r="7.64"/><path d="M34.16,111.47A15.28,15.28,0,0,0,19,125.35a1.29,1.29,0,0,0,1.28,1.4H48.09a1.29,1.29,0,0,0,1.28-1.4A15.27,15.27,0,0,0,34.16,111.47Z"/><circle cx="72.14" cy="101.94" r="7.64"/><path d="M72.14,111.47a15.27,15.27,0,0,0-15.2,13.88,1.28,1.28,0,0,0,1.28,1.4H86.07a1.29,1.29,0,0,0,1.28-1.4A15.27,15.27,0,0,0,72.14,111.47Z"/><circle cx="111.3" cy="101.94" r="7.64"/><path d="M111.3,111.47a15.27,15.27,0,0,0-15.21,13.88,1.29,1.29,0,0,0,1.28,1.4h27.86a1.29,1.29,0,0,0,1.28-1.4A15.28,15.28,0,0,0,111.3,111.47Z"/><circle cx="149.51" cy="101.6" r="7.64"/><path d="M149.51,111.13A15.27,15.27,0,0,0,134.3,125a1.29,1.29,0,0,0,1.28,1.4h27.86a1.29,1.29,0,0,0,1.28-1.4A15.27,15.27,0,0,0,149.51,111.13Z"/><circle cx="187.49" cy="101.6" r="7.64"/><path d="M187.49,111.13A15.28,15.28,0,0,0,172.28,125a1.29,1.29,0,0,0,1.28,1.4h27.86a1.29,1.29,0,0,0,1.28-1.4A15.27,15.27,0,0,0,187.49,111.13Z"/><circle cx="226.65" cy="101.6" r="7.64"/><path d="M226.65,111.13A15.27,15.27,0,0,0,211.44,125a1.29,1.29,0,0,0,1.28,1.4h27.85a1.3,1.3,0,0,0,1.29-1.4A15.28,15.28,0,0,0,226.65,111.13Z"/><rect class="cls-2" x="2.5" y="118.98" width="255.48" height="40.82" rx="9.36"/><circle cx="33.19" cy="142.78" r="7.64"/><path d="M33.19,152.31A15.28,15.28,0,0,0,18,166.19a1.28,1.28,0,0,0,1.28,1.39H47.12a1.28,1.28,0,0,0,1.28-1.39A15.27,15.27,0,0,0,33.19,152.31Z"/><circle cx="71.17" cy="142.78" r="7.64"/><path d="M71.17,152.31A15.28,15.28,0,0,0,56,166.19a1.29,1.29,0,0,0,1.29,1.39H85.1a1.28,1.28,0,0,0,1.28-1.39A15.27,15.27,0,0,0,71.17,152.31Z"/><circle cx="110.33" cy="142.78" r="7.64"/><path d="M110.33,152.31a15.27,15.27,0,0,0-15.21,13.88,1.28,1.28,0,0,0,1.28,1.39h27.86a1.29,1.29,0,0,0,1.28-1.39A15.28,15.28,0,0,0,110.33,152.31Z"/><circle cx="148.54" cy="142.44" r="7.64"/><path d="M148.54,152a15.27,15.27,0,0,0-15.21,13.88,1.28,1.28,0,0,0,1.28,1.39h27.86a1.28,1.28,0,0,0,1.28-1.39A15.27,15.27,0,0,0,148.54,152Z"/><circle cx="186.52" cy="142.44" r="7.64"/><path d="M186.52,152a15.28,15.28,0,0,0-15.21,13.88,1.29,1.29,0,0,0,1.28,1.39h27.86a1.28,1.28,0,0,0,1.28-1.39A15.27,15.27,0,0,0,186.52,152Z"/><circle cx="225.68" cy="142.44" r="7.64"/><path d="M225.68,152a15.27,15.27,0,0,0-15.21,13.88,1.28,1.28,0,0,0,1.28,1.39H239.6a1.29,1.29,0,0,0,1.29-1.39A15.28,15.28,0,0,0,225.68,152Z"/></g></g></svg>