<svg xmlns="http://www.w3.org/2000/svg" viewBox="0 0 164.83 118"><defs><style>.cls-1{fill:#ffc3b4;}.cls-2{fill:#fff;}.cls-3{fill:#003b63;}</style></defs><g id="Layer_2" data-name="Layer 2"><g id="Grid_9" data-name="Grid 9"><circle class="cls-1" cx="59" cy="59" r="59"/><rect class="cls-2" x="39" y="59" width="51" height="23"/><path class="cls-3" d="M134.83,55.66a13.1,13.1,0,1,0,13.1,13.09A13.1,13.1,0,0,0,134.83,55.66Zm0,23.19a10.1,10.1,0,1,1,10.1-10.1A10.11,10.11,0,0,1,134.83,78.85Z"/><path class="cls-3" d="M156.83,43.75h-125a8,8,0,0,0-8,8v34a8,8,0,0,0,8,8h125a8,8,0,0,0,8-8v-34A8,8,0,0,0,156.83,43.75Zm-71.5,34.5h-41a3,3,0,0,1,0-6h41a3,3,0,0,1,0,6Zm0-12h-41a3,3,0,0,1,0-6h41a3,3,0,0,1,0,6Zm49.5,19a16.5,16.5,0,1,1,16.5-16.5A16.5,16.5,0,0,1,134.83,85.25Z"/><path class="cls-3" d="M63.58,95.75H46.08a2.5,2.5,0,1,0,0,5h17.5a2.5,2.5,0,0,0,0-5Z"/><path class="cls-3" d="M142.58,95.75h-17.5a2.5,2.5,0,1,0,0,5h17.5a2.5,2.5,0,0,0,0-5Z"/></g></g></svg>