<svg xmlns="http://www.w3.org/2000/svg" viewBox="0 0 179.07 160.55"><defs><style>.cls-1{fill:#cdeda1;}.cls-2,.cls-6{fill:#fff;}.cls-2,.cls-4,.cls-5{stroke:#000;}.cls-2{stroke-width:7px;}.cls-3,.cls-4{fill:#b7474f;}.cls-4{stroke-miterlimit:10;stroke-width:5px;fill-rule:evenodd;}.cls-5{fill:none;stroke-width:3px;}</style></defs><g id="Layer_2" data-name="Layer 2"><g id="Grid_13" data-name="Grid 13"><circle class="cls-1" cx="67.5" cy="67.5" r="67.5"/><rect class="cls-2" x="59.6" y="61.57" width="57.9" height="95.48"/><rect class="cls-2" x="117.19" y="53.67" width="49.25" height="82.16"/><rect class="cls-3" x="63" y="119.92" width="51" height="34.86"/><path class="cls-4" d="M140.45,30.52,107.93,52.85A2.28,2.28,0,0,0,109.22,57h65.06a2.29,2.29,0,0,0,1.29-4.17L143,30.52A2.27,2.27,0,0,0,140.45,30.52Z"/><rect class="cls-3" x="120" y="105.28" width="43" height="27.72"/><rect class="cls-2" x="29.29" y="46.42" width="30.31" height="81.84"/><rect class="cls-3" x="33" y="96.43" width="23" height="28.57"/><rect x="73.24" y="69.91" width="12.12" height="10.61"/><rect x="73.24" y="86.58" width="12.12" height="10.61"/><rect x="73.24" y="104" width="12.12" height="10.61"/><rect class="cls-5" x="94.83" y="80.14" width="10.61" height="8.34"/><rect class="cls-5" x="94.83" y="96.81" width="10.61" height="8.34"/><rect x="145.22" y="62.24" width="10.61" height="7.91"/><rect x="145.22" y="76.24" width="10.61" height="7.91"/><rect x="145.22" y="90.79" width="10.61" height="7.91"/><rect x="34.24" y="69.02" width="8.84" height="7.25"/><rect x="34.37" y="56.32" width="8.84" height="7.25"/><rect class="cls-6" x="73.24" y="126.25" width="12.12" height="8.34"/><rect class="cls-6" x="73.24" y="140.65" width="12.12" height="8.34"/><rect x="34.5" y="81.35" width="8.84" height="7.25"/><path class="cls-4" d="M43.12,28.83,20,45.3a2.28,2.28,0,0,0,1.32,4.15H67.6a2.29,2.29,0,0,0,1.32-4.15L45.77,28.83A2.27,2.27,0,0,0,43.12,28.83Z"/><path class="cls-3" d="M144,119.84a1.5,1.5,0,0,0,0-3,1.5,1.5,0,0,0,0,3Z"/><path class="cls-4" d="M89.35,31l-40,27.43a2.22,2.22,0,0,0,1.26,4h79.91a2.22,2.22,0,0,0,1.26-4L91.86,31A2.21,2.21,0,0,0,89.35,31Z"/></g></g></svg>