<svg xmlns="http://www.w3.org/2000/svg" viewBox="0 0 220.91 243.86"><defs><style>.cls-1{fill:#ffff89;}.cls-11,.cls-2{fill:#ffd599;}.cls-3{fill:#ffe1bf;}.cls-12,.cls-4{fill:#fff;}.cls-11,.cls-13,.cls-4,.cls-5,.cls-6,.cls-8,.cls-9{fill-rule:evenodd;}.cls-5,.cls-7{fill:#d4a700;}.cls-10,.cls-6{fill:#ffe7cb;}.cls-9{fill:#ffd973;}.cls-13{fill:#999;}</style></defs><g id="Layer_2" data-name="Layer 2"><g id="Grid_9" data-name="Grid 9"><ellipse class="cls-1" cx="139.56" cy="82.93" rx="81.35" ry="81.43"/><rect class="cls-2" x="82.7" y="159.33" width="16.85" height="13.02" transform="translate(-81.48 88.3) rotate(-37.02)"/><rect class="cls-3" x="113.47" y="208.22" width="16.85" height="16.74" transform="translate(-50.34 37.41) rotate(-14.5)"/><path class="cls-4" d="M116.82,237.75A103.68,103.68,0,0,0,146.18,243c3.5.11,7.16,0,10.22-1.68s5.27-5.42,4.12-8.72c-1-3-4.24-4.54-7.17-5.72q-8.25-3.35-16.72-6.06"/><path d="M116.62,238.47a104.41,104.41,0,0,0,17.54,4.2c5.42.81,11.19,1.55,16.67,1,4.52-.45,9.27-2.62,10.51-7.39,1.19-4.57-2.37-7.7-6.14-9.41a171.24,171.24,0,0,0-18.37-6.77c-.92-.29-1.32,1.16-.4,1.45,5,1.62,10,3.4,14.93,5.35,3.55,1.4,9.19,3.34,8.69,8.14-.53,5.13-6.11,7-10.49,7.22a78.63,78.63,0,0,1-15.47-1.12A105.09,105.09,0,0,1,117,237c-.92-.31-1.32,1.14-.4,1.44Z"/><path class="cls-5" d="M88.43,49.21l-.35,1L72.62,44.72l1.21-3.42c1.14,1,3,1.9,6.32,4.12C84.25,48.18,86.81,49.29,88.43,49.21Z"/><path class="cls-6" d="M110,23.38c-4.54,3.24-4.27-1.57-8.43-1.95-2.64-.23-2.82-1.44-1.82-3.75.92-2.09,3.69-7.29,5.71-7.92,1.68-.52,6.23,6.05,7.78,7.14C119.7,21.43,113.37,21,110,23.38Z"/><path class="cls-6" d="M117.75,30.51c-6.43-6.43,6.25-7.38,20.75,3.89,17.5,13.61,8.29,20.26,0,22.69-19.08,5.59-21.58,8.61-23.34,2.59S99,50,117.75,46.72c9.4-1.62,6.53-.67,13-2.59S121,33.75,117.75,30.51Z"/><circle class="cls-7" cx="57.46" cy="105.07" r="12.32"/><rect class="cls-2" x="52.92" y="66.17" width="45.38" height="51.87" transform="translate(-13.79 13.32) rotate(-9.23)"/><ellipse cx="78.13" cy="125.93" rx="18.15" ry="23.99" transform="translate(-69.82 134.53) rotate(-61.51)"/><path class="cls-8" d="M152.61,113.63c-2.83,9.62-16.36,17.62-35.81,17s-35-9.28-34.62-19.3,16.1-14.6,35.53-13.48C147.55,99.54,154.4,107.57,152.61,113.63Z"/><path class="cls-8" d="M122.15,124.07c11.68-13.59,26-21,31.25-15.92,10.07,9.79-.83,17-12.52,30.6-5.25,6.11-16.38,14.06-19.78,19.07-3.87,5.7-6.93,2.16-10-.48s-9.27-7.47-6-11.51C109,141,116.65,130.46,122.15,124.07Z"/><path class="cls-8" d="M100.55,186.32c-2.84-9.33-4.72-19.9-6.78-26.78-1.5-5,8-6.9,11.38-7.74,14.82-3.66,14.71,9.23,19.82,26,2.3,7.52,2.7,21,5.13,26.37,2.76,6.14-2.24,7-6.45,8.26-4.05,1.23-12.26,4.13-13.9-.68C107.78,206,103,194.19,100.55,186.32Z"/><path class="cls-8" d="M111.1,162.11C96.69,173,98.7,172.56,88.39,160.84c-6.3-7.16-15.18-13.17-21.83-19-13-11.4-12.76-25.19-6.06-32.16s23.23-1.94,36.9,11.22c6.53,6.28,12.25,19,14.65,25.4C114.68,153.24,115.13,159.07,111.1,162.11Z"/><path class="cls-9" d="M70.6,54.12c-1,8.18-9.93,21-25,7.37-4.26-3.84-10.18-.26-14-2.45-6.11-3.48-7.76-5-6.6-17.08.3-3.14-.11-4.61.77-6.26,3.82-7.16,13.79-3.17,25.16-4.26C83.34,28.32,71.6,46,70.6,54.12Z"/><path class="cls-9" d="M119.05,72c-18.34,4.59-17.61-3.54-17.71-.36-.23,7.15,1.31,15.18-2.47,14.72-6-.75-10.34-22-9.1-32.15s-14.93-10.68-9-9.44c1.43.3.86,3.88,19.45,2.6,18.8-1.3,17.5.64,20.74,5.83C124.71,59.15,124.23,70.71,119.05,72Z"/><ellipse cx="82.42" cy="114.14" rx="23.02" ry="11.02"/><path class="cls-9" d="M108.94,89.4c3,6.59,4.27,7.89.38,8.54-4.61.76-1.37-.7-3.89,1.29-2.77,2.2-10.08,10.14-22,2-35-24-36.31,20.09-38.25,7.13-1.06-7,1.3-10.37,2.94-12.7,5.61-7.94,1.1-14.23-.93-24.28-5-24.75-3.63-40.3,14.49-38.06,2.1.26-.94-7.3,20.45,8.26,12,8.73,29.91,11.7,28,17.31C103.93,77,102.72,75.61,108.94,89.4Z"/><ellipse class="cls-10" cx="87.6" cy="21.43" rx="17.83" ry="19.45"/><path class="cls-6" d="M139.83,44.68c-2.69,3.7-9.33,5-17.54-6.39-6.68-9.27-9.08-13-15.5-17.62-1.61-1.16,3.1-3.82,7.07-2.48,5.19,1.76,13,7.85,18.13,11.6C141.12,36.42,142.52,41,139.83,44.68Z"/><path class="cls-11" d="M73.91,17.5c.73-1.22,9.09-1.77,12.41-1.77,11.53,0,17.28,5.75,17.74,6.21,1.77,1.77-.89,9.75-.89,8S97,23.71,91.64,22.83C77.54,20.47,71.25,21.94,73.91,17.5Z"/><path class="cls-4" d="M104.88,18c0,.23,0,.45,0,.68l-9.31-2.66-20,.08-6,2.72c0-.22,0-.44,0-.67,0-8.94,8-16.23,17.74-16.27S104.92,9.1,104.88,18Z"/><ellipse class="cls-12" cx="102.42" cy="18.89" rx="1.62" ry="6.1" transform="translate(22.52 85.69) rotate(-50.34)"/><path class="cls-13" d="M73.66,13c-.64,3.89-1.85,6.48-4.53,6.48S70.92,11,71.72,9.76C73,7.82,81.44,0,86.63,1.34,89.24,2,75.79.26,73.66,13Z"/><path d="M76.84,16.59c6.06-.59,12.37-1.22,18.28.61a19,19,0,0,1,6.8,3.63,26.46,26.46,0,0,1,2.57,2.82,2,2,0,0,0,2.31.68c2-.81,1.82-3.14.69-4.57A19.07,19.07,0,0,0,102,15.49a29.48,29.48,0,0,0-13.11-3.77A28.46,28.46,0,0,0,73.71,15.2c-.85.47-.09,1.77.76,1.3a27.63,27.63,0,0,1,24.33-.95,26.24,26.24,0,0,1,5.26,3.1,13.65,13.65,0,0,1,2.13,1.88c.43.51.92,1.28.55,2-.57,1-1.46-.29-1.88-.8a19.79,19.79,0,0,0-10.47-6.25c-5.74-1.48-11.73-.91-17.55-.35-1,.1-1,1.6,0,1.5Z"/><path class="cls-11" d="M76.28,18.31c-.49-1.12-2.34-1.4-4.14-.62a3.75,3.75,0,0,0-2.38,3.44c-.29,5.24,1.37.32,4.15-.08C80.12,20.16,76.76,19.44,76.28,18.31Z"/><path d="M69.33,19.28c-.57-.46-1.06-.64-.61-1.21.28-.36.63-.57.8-1,.29-.73.13-1.58.39-2.35a15.67,15.67,0,0,1,1.46-2.89,23.49,23.49,0,0,1,7.7-8.09C85.35-.09,94.94.91,100.14,6.15a11.7,11.7,0,0,1,2.66,4.73,11.62,11.62,0,0,1,.78,5.24c-.14.94,1.31,1.35,1.45.4a15.22,15.22,0,0,0-2.7-10.11c-2.33-3.33-6.49-5.35-10.4-6A20.32,20.32,0,0,0,79.45,1.79a24,24,0,0,0-9.18,8.94,17.79,17.79,0,0,0-1.73,3.36c-.33.9-.12,2.11-.75,2.8-1.21,1.3-.91,2.34.48,3.45.75.6,1.82-.46,1.06-1.06Z"/><path d="M70.66,20.25a8.6,8.6,0,0,1,2.14-1.77,8.21,8.21,0,0,1,2.6-1,.75.75,0,0,0-.4-1.45,9.85,9.85,0,0,0-5.4,3.13.76.76,0,0,0,0,1.06.75.75,0,0,0,1.06,0Z"/><path d="M86.4,7.91l-.18-.25a.39.39,0,0,0-.42-.17.37.37,0,0,0-.28.36,10.51,10.51,0,0,0,.64,3.08.39.39,0,0,0,.47.26.38.38,0,0,0,.26-.46,9.45,9.45,0,0,1-.62-2.88l-.7.19.18.25a.4.4,0,0,0,.52.13.37.37,0,0,0,.13-.51Z"/><path d="M86.26,9.89,88.81,9a.38.38,0,0,0-.2-.73l-2.55.9a.38.38,0,0,0-.26.46.37.37,0,0,0,.46.26Z"/><path d="M88,7.73a8.71,8.71,0,0,0,.6,2.94.39.39,0,0,0,.46.26.38.38,0,0,0,.26-.46,8.08,8.08,0,0,1-.57-2.74.38.38,0,0,0-.38-.37.37.37,0,0,0-.37.37Z"/><path d="M93.37,8.05a1.9,1.9,0,0,0-1.65-.38A1.75,1.75,0,0,0,90.5,8.8a1.83,1.83,0,0,0,.18,1.61,2.19,2.19,0,0,0,1.56.88,4,4,0,0,0,2.2-.51.38.38,0,1,0-.38-.65c-.76.37-1.86.72-2.57.07a1,1,0,0,1-.34-.95,1,1,0,0,1,.6-.8,1.13,1.13,0,0,1,1.09.13.4.4,0,0,0,.53,0,.39.39,0,0,0,0-.53Z"/><path d="M95.92,9.16A1.66,1.66,0,0,0,99,9.38a.41.41,0,0,0-.14-.52.38.38,0,0,0-.51.14l-.08.15-.06.09h0a1.59,1.59,0,0,1-.13.13s-.07.06,0,0l-.07,0-.16.08s0,0,0,0l-.09,0-.08,0s-.12,0,0,0h-.28l-.16-.05h0l-.08,0a.71.71,0,0,1-.14-.1l0,0,0,0-.07-.08c-.05-.05,0,0,0,0a.64.64,0,0,1-.08-.14s0-.07,0,0l0-.1a.39.39,0,0,0-.46-.26.37.37,0,0,0-.26.46Z"/><path d="M97,10.28l.08,1.54a.39.39,0,0,0,.38.38.38.38,0,0,0,.37-.38l-.08-1.54a.38.38,0,1,0-.75,0Z"/><path class="cls-6" d="M29.55,72.94c6,8.69-6.83,7.73-20.54-8C-7.55,45.89,2.19,39.52,10.7,38,21.61,36.07,26,34.2,28.28,35.7c1.95,1.29,3.65,2,4.54,5.18,2.18,7.83-.53,12.44-2.59,12.32-9.69-.58-6.08.24-12.68,1.47S26.54,68.57,29.55,72.94Z"/><path class="cls-6" d="M5.67,52.31c3-3.79,9.83-4.9,17.11,7.48C28.69,69.85,29.56,75.91,36.85,79c1.82.78-3.46,3.91-7.34,2.32-5.07-2.07-12.37-8.82-17.25-13C3.65,61,2.64,56.1,5.67,52.31Z"/><path class="cls-6" d="M30.21,70.38c8.21-3.47,6.11,3.94,12.45,6,4,1.29,3.9,3.24,1.52,6.48C42,85.78,35.89,92.9,32.52,93.18c-2.79.22-7.59-11.61-9.63-13.84C14.38,70,24.07,73,30.21,70.38Z"/><path class="cls-5" d="M89.87,48.66a2.13,2.13,0,0,1-1.44.55c-1.62.08-4.18-1-8.28-3.79-3.3-2.22-5.18-3.17-6.32-4.12a4,4,0,0,1-1.46-2.36c-.84-3.37.46-2.91,2.75-1.24s5.27,4.34,8.22,5.9,4.87,2.41,6,2.95C91.51,47.52,91.19,47.48,89.87,48.66Z"/><path class="cls-6" d="M91.82,39.59l-1.95,2.59-1.29,3.24-.15,3.79c-1.62.08-4.18-1-8.28-3.79-3.3-2.22-5.18-3.17-6.32-4.12l.48-3.66L75,32.46Z"/><path class="cls-5" d="M35.41,46.07c0,5.83,2.43,12.26-3.24,10.37-5.83-1.94-4.54-1.29-5.83-2.59-2.6-2.59,3.89,1.3,5.83-2,2.35-3.91,1.46-7.29.65-9.72-.65-1.94-1.45-5.34,0-3.89A11.53,11.53,0,0,1,35.41,46.07Z"/><path class="cls-7" d="M31.16,38l.71,1.11a.75.75,0,0,0,.45.35.57.57,0,0,0,.29,0,.47.47,0,0,0,.28-.09.77.77,0,0,0,.35-.44.78.78,0,0,0-.08-.58l-.7-1.12a.83.83,0,0,0-.45-.35.61.61,0,0,0-.3,0,.71.71,0,0,0-.28.09.74.74,0,0,0-.34.45.84.84,0,0,0,.07.58Z"/><path class="cls-7" d="M72.69,37.42a.75.75,0,0,0,0-1.5.75.75,0,0,0,0,1.5Z"/><path class="cls-12" d="M56.93,115.65c1.39,15.59,15.24,25.19,26.23,34.4,6,5.08,11.62,10.63,15.09,17.83s5.08,15.42,7.44,23.17,5.76,15.81,12.06,21.38c.72.64,1.78-.42,1.06-1.06-11.89-10.52-12.31-27.72-18-41.51a50,50,0,0,0-13.25-18c-5.57-5-11.75-9.35-17.11-14.6-6-5.84-11.22-13-12-21.6-.09-1-1.59-1-1.5,0Z"/><path class="cls-12" d="M60.39,114.46a42.71,42.71,0,0,0,9.74,19.67c4.81,5.72,10.79,10,16.61,14.63a64.18,64.18,0,0,1,8.19,7.44,37.13,37.13,0,0,1,6,9.68c3.34,7.51,5.11,15.64,7.5,23.47s5.32,16,11.75,21.61c.72.63,1.79-.42,1.06-1.06-5.81-5.06-8.65-12.22-10.89-19.4-2.37-7.59-4.13-15.42-7.06-22.82A43.77,43.77,0,0,0,98,157.62a46.21,46.21,0,0,0-7.31-7.55c-5.57-4.73-11.72-8.75-16.82-14-5.91-6.12-10.5-13.54-12-22-.17-1-1.62-.55-1.44.4Z"/><path class="cls-5" d="M59.4,47.37c0,2.68-12.32,23.34-13,19.45-.95-5.65-1.95-5.19-2.6-5.84-1.21-1.21-5.18-2.59-2.59-2.59,1.7,0,8.43-1.3,10.37-3.24C55.67,51.1,59.4,45.42,59.4,47.37Z"/><path class="cls-5" d="M121,70.71c-1.07,2.46-11.67,3.89-15.56,2.59-1.94-.65-.65-2.59-1.29-5.19-.42-1.65-3.4-8-2-5.83s4.45,7.18,7.13,7.78C115.16,71.35,121.77,68.92,121,70.71Z"/><path class="cls-5" d="M99,97.29c-1.47.34-9.08,0-17.51-5.84A78.15,78.15,0,0,1,67.83,79.78c-1.38-1.51-5.58-7-3.89-9.07,1.08-1.33,1.12.3,1.94,1.94,2.6,5.19,2.6,5.84,5.19,8.43,3.31,3.3,10.86,10.72,16.86,13C93.11,96,99.93,97.06,99,97.29Z"/><path class="cls-5" d="M50.33,74.6c2.05,8.2,1.94,7.13,1.29,10.37-.42,2.11-3.35-6.77-5.18-16.86-1.3-7.13,1.14-5.34,3.24-5.83S48.38,66.82,50.33,74.6Z"/><path class="cls-5" d="M58.84,90.89c-8,.81-10.72,5-9.16,1.86.65-1.3,1.29-4.54,11-3.89,3.85.26,1.29,0,4.54.65a14.64,14.64,0,0,1,4.53,1.29C71.47,91.48,66,90.17,58.84,90.89Z"/><path class="cls-5" d="M52.27,83.67c.13,1.06.36,3.75,1.94,4.54a16.4,16.4,0,0,0,5.84,1.3c-.72,0-9.72,4.45-9.72,1.94,0-.93.77-2,.64-3.24-.64-6.48-1.1-5.83-.64-5.83C51,82.38,51.62,78.49,52.27,83.67Z"/><path class="cls-11" d="M91.17,40.24c1.39-.35-2.59,1.94-2.59,5.18,0,3-14.56-8.49-14.27-9.07.65-1.3,0-2,.65-1.3a67.24,67.24,0,0,0,11,5.83C87.93,41.53,88.58,40.88,91.17,40.24Z"/><path class="cls-11" d="M141.09,42.83c1.3.65-9.65-.73-12.32,1.94-.65.65-5.18-4.53-7.78-7.78-1.46-1.82-5.18-7.78-4.54-7.13.46.46,8.45,10,11.67,11C130.07,41.53,138.7,41.63,141.09,42.83Z"/><path class="cls-11" d="M113.21,20.14a4.22,4.22,0,0,0-1.29,2.59c-.15,1.08,4.53,7.13,5.83,9.08.36.54-5.61-6.77-7.13-7.78-2-1.3,0-1.93.65-2.6C112.56,20.14,111.27,21.43,113.21,20.14Z"/><path class="cls-11" d="M14,48c-3.24-2.59.86-.32,3.89,2,1.7,1.28,8.13,1.89,8.43,2.59.15.37-3.42.7-5.84,1.3-2.59.65-.65,1.3-3.34-2.27C15.92,50,16.11,49.68,14,48Z"/><path d="M113.68,221.85l-1.16-1.46a.76.76,0,0,0-1.28.53A48.14,48.14,0,0,0,116,237.43a.75.75,0,0,0,1.29,0l.32-.48c.54-.8-.76-1.55-1.29-.75l-.32.47h1.29a46.09,46.09,0,0,1-4.5-15.75l-1.29.54,1.17,1.45c.6.75,1.65-.31,1.06-1.06Z"/><ellipse class="cls-12" cx="128.45" cy="224.58" rx="5.76" ry="4.88"/><path class="cls-4" d="M112.93,222.37c0-4,3.91,2.66,7.09,2.66s5.32-3.58,5.32-.89-1.69,9.75-4.87,9.75S112.93,225.06,112.93,222.37Z"/><path d="M112.25,221.63c1.39-.41,2.66.71,3.6,1.6a8.64,8.64,0,0,0,3.15,2.2,3.8,3.8,0,0,0,4.84-3.92c-.1-.95-1.6-1-1.5,0a2.39,2.39,0,0,1-1.31,2.38,2.7,2.7,0,0,1-2.9-.63c-1.84-1.44-3.61-3.86-6.28-3.07a.75.75,0,0,0,.4,1.44Z"/><path class="cls-4" d="M122.61,220.89a3.69,3.69,0,0,0,2.83-1.08c1-1,1.31-2.46,2.38-3.31a4.07,4.07,0,0,1,4.81.28,11.88,11.88,0,0,1,3.07,4.12"/><path d="M122.61,221.64a4.5,4.5,0,0,0,3.73-1.74c.79-1,1.22-2.61,2.5-3.13a3.7,3.7,0,0,1,3.66.86,12.43,12.43,0,0,1,2.55,3.65c.46.85,1.76.09,1.3-.76-1.41-2.61-3.41-5.67-6.8-5.42a4.34,4.34,0,0,0-3.46,2.37,8.85,8.85,0,0,1-1.19,1.81,3,3,0,0,1-2.29.86c-1,0-1,1.47,0,1.5Z"/><ellipse class="cls-12" cx="83.22" cy="168.27" rx="3.99" ry="5.32"/><path class="cls-4" d="M93.42,173.59c0,2.94-3.56,6.21-5.77,6.21s-4-2.39-4-5.32,1.79-5.33,4-5.33S93.42,170.65,93.42,173.59Z"/><path d="M116.3,235.91c5.35,1.46,10.81,2.81,16.24,4a71.1,71.1,0,0,0,11.82,1.36c3.43.13,6.68.14,9.76-1.59a12.69,12.69,0,0,0,6.23-8.08c.21-.94-1.23-1.34-1.45-.4a11.19,11.19,0,0,1-5.53,7.19c-3,1.69-6.32,1.5-9.67,1.35a65,65,0,0,1-11.38-1.41c-2.75-.62-5.48-1.35-8.24-2-2.47-.56-4.93-1.18-7.39-1.84a.75.75,0,0,0-.39,1.44Z"/><path d="M73.94,169.5l4.53-3.38c1.25-.94,2.6-2.21,4.15-2.62,2.93-.77,3,3.13,3.86,4.91a3.55,3.55,0,0,0,2.1,1.9c1.19.37,2.94-.17,3.63,1.13,1,1.91.12,4.29,2.16,5.7.79.55,1.54-.75.76-1.29-1-.68-.92-2.27-1.08-3.32a4.31,4.31,0,0,0-1.27-2.75c-1.24-1-2.82-.32-4.11-1.05-1-.55-1.21-1.9-1.5-2.88-.68-2.32-2-4.5-4.79-3.84A12.81,12.81,0,0,0,78,164.58l-4.85,3.63c-.76.57,0,1.87.76,1.29Z"/><path d="M72.88,169.21c-2,0-3.09,2-3,3.81.16,2.38,1.82,4.63,3,6.61a83.71,83.71,0,0,0,9.39,12.9A63.77,63.77,0,0,0,88,198.2c1.7,1.47,3.6,3,5.86,3.47a6.14,6.14,0,0,0,5.66-1.5,7.35,7.35,0,0,0,1.63-6.09c-.71-5.68-7.16-10.47-5-16.49.32-.92-1.13-1.31-1.45-.4-1.47,4.14.83,8.07,2.83,11.57,1.75,3.07,4.34,9.7-.68,11.34-4.23,1.39-8.37-3.35-11-6a74.46,74.46,0,0,1-8.46-10.28c-1.4-2-2.72-4.13-4-6.27a18.43,18.43,0,0,1-1.8-3.54c-.33-1-.37-3.33,1.26-3.3a.75.75,0,0,0,0-1.5Z"/><path d="M72.29,170.65c-.11,1.87.79,3.8,1.56,5.45a54,54,0,0,0,4.41,7.48c3.54,5.14,7.65,10.22,12.65,14,1.85,1.4,4.09,2.86,6.5,2.9a.75.75,0,0,0,0-1.5c-1.94,0-3.77-1.26-5.28-2.36a41.23,41.23,0,0,1-6.2-5.76,67.44,67.44,0,0,1-10.25-14.44c-.87-1.7-2-3.81-1.89-5.79,0-1-1.45-1-1.5,0Z"/><path d="M124.43,224l-.42-.11a.75.75,0,0,0-.58,1.37,80.7,80.7,0,0,0,20.71,7.79c3.11.7,7.07,1.66,10.21.65,2.13-.69,3.82-3.51,1.79-5.31-.72-.63-1.78.42-1.06,1.07,1.25,1.09-.19,2.51-1.31,2.84a11.62,11.62,0,0,1-4.2.14,49.55,49.55,0,0,1-9-1.83A80.32,80.32,0,0,1,124.18,224l-.57,1.37.43.11a.75.75,0,0,0,.39-1.45Z"/><path d="M135.56,229.15a10.82,10.82,0,0,1,5.79-5.73.77.77,0,0,0,.52-.92A.74.74,0,0,0,141,222a12.51,12.51,0,0,0-6.84,6.77.76.76,0,0,0,.53.92.77.77,0,0,0,.92-.52Z"/><path d="M139.83,231.25a19,19,0,0,1,6.38-6l-1-1-.17.24a.75.75,0,0,0,.27,1,.76.76,0,0,0,1-.27l.17-.24c.45-.64-.41-1.38-1-1a20.59,20.59,0,0,0-6.92,6.56c-.53.81.76,1.57,1.29.76Z"/><path d="M144.79,232.17a12.73,12.73,0,0,1,6.18-5.52.78.78,0,0,0,.52-.93.75.75,0,0,0-.92-.52,14.41,14.41,0,0,0-7.08,6.22.75.75,0,0,0,1.3.75Z"/><path d="M149.24,233a18.5,18.5,0,0,1,5.54-4.48.75.75,0,0,0-.76-1.29,19.72,19.72,0,0,0-5.84,4.71.75.75,0,0,0,1.06,1.06Z"/><path d="M128.89,227.55a8.56,8.56,0,0,0,7.58-6.24.75.75,0,0,0-1.45-.4,7,7,0,0,1-6.13,5.14.75.75,0,0,0,0,1.5Z"/><path d="M86.31,182.09a128.11,128.11,0,0,0,7.51,10.58c1.15,1.41,2.54,3.2,4.61,2.85a2.17,2.17,0,0,0,1.33-3.61c-.69-.67-1.75.39-1.06,1.06.41.4,0,1-.47,1.07a2.21,2.21,0,0,1-1.93-.81,31.37,31.37,0,0,1-3.07-3.73c-2-2.64-3.8-5.41-5.62-8.17-.53-.8-1.83-.05-1.3.76Z"/><path d="M94,191.94c.18-.14.36-.26.55-.38l.3-.16.15-.07,0,0a3.58,3.58,0,0,1,.63-.21L96,191l.16,0,.09,0a5.39,5.39,0,0,1,1.27,0,6,6,0,0,1,.6.13,4,4,0,0,1,.56.19.77.77,0,0,0,1-.27.75.75,0,0,0-.27-1,6.17,6.17,0,0,0-6.21.64.77.77,0,0,0-.26,1,.75.75,0,0,0,1,.27Z"/><path d="M92.1,188.67a4.74,4.74,0,0,1,5.34-.27c.82.51,1.58-.78.76-1.29a6.27,6.27,0,0,0-7.16.5.75.75,0,0,0,0,1.06.76.76,0,0,0,1.06,0Z"/><path d="M89.91,185.27a7,7,0,0,1,6.55-.18c.86.43,1.62-.86.75-1.3a8.56,8.56,0,0,0-8.06.19.75.75,0,0,0,.76,1.29Z"/><path d="M89.62,170.05a14.29,14.29,0,0,0-3.09,12c.19,1,1.63.55,1.44-.4a12.72,12.72,0,0,1,2.71-10.59c.62-.73-.44-1.8-1.06-1.06Z"/><path d="M87.3,177.82A7.63,7.63,0,0,0,95,181.64a.76.76,0,0,0,.53-.92.77.77,0,0,0-.93-.52,6.15,6.15,0,0,1-6-3.13c-.46-.85-1.75-.1-1.29.75Z"/></g></g></svg>