<svg xmlns="http://www.w3.org/2000/svg" viewBox="0 0 192 138"><defs><style>.cls-1{fill:#bfddff;}.cls-2,.cls-8{fill:#fff;}.cls-3{fill:#044a00;}.cls-3,.cls-4,.cls-5,.cls-6,.cls-7,.cls-8{stroke:#000;stroke-linecap:round;stroke-linejoin:round;}.cls-3,.cls-6{stroke-width:6px;}.cls-4,.cls-5,.cls-6,.cls-7{fill:none;}.cls-4{stroke-width:7px;}.cls-5{stroke-width:5px;}.cls-7,.cls-8{stroke-width:4px;}</style></defs><g id="Layer_2" data-name="Layer 2"><g id="Grid_9" data-name="Grid 9"><circle class="cls-1" cx="68.5" cy="68.5" r="68.5"/><rect class="cls-2" x="35" y="39" width="129" height="95"/></g><g id="Grid_13" data-name="Grid 13"><rect class="cls-3" x="11" y="26.5" width="178" height="32"/><line class="cls-4" x1="34.67" y1="59.83" x2="34.67" y2="134.17"/><line class="cls-4" x1="165.33" y1="59.83" x2="165.33" y2="134.17"/><polygon class="cls-5" points="165 134.5 34.33 134.5 67.67 108.5 131.67 108.5 165 134.5"/><line class="cls-6" x1="53" y1="59.83" x2="53" y2="117.83"/><line class="cls-6" x1="147" y1="59.83" x2="147" y2="119.83"/><line class="cls-7" x1="67.67" y1="108.5" x2="67.67" y2="59.83"/><line class="cls-7" x1="131.67" y1="108.5" x2="131.67" y2="59.83"/><polygon class="cls-8" points="121.67 78.5 77.67 78.5 68.33 59.17 131 58.5 121.67 78.5"/><rect class="cls-8" x="78" y="78.83" width="44" height="29.67"/><line class="cls-4" x1="34.33" y1="134.5" x2="165" y2="134.5"/><path class="cls-2" d="M26.05,50V34.51H31.3a6.36,6.36,0,0,1,3,.62A4,4,0,0,1,36,36.82a5.29,5.29,0,0,1,.56,2.45A5.15,5.15,0,0,1,36,41.7a4,4,0,0,1-1.72,1.67,6.41,6.41,0,0,1-3,.6H27.08v-1.7h4.19a4.74,4.74,0,0,0,2-.36,2.3,2.3,0,0,0,1.11-1,3.57,3.57,0,0,0,.34-1.6,3.66,3.66,0,0,0-.35-1.63,2.42,2.42,0,0,0-1.11-1.08,4.65,4.65,0,0,0-2-.38h-3.3V50Zm7.31-7,3.81,7H35l-3.76-7Z"/><path class="cls-2" d="M40.33,50h-2l5.69-15.52H46L51.69,50h-2L45.08,37H45ZM41.05,44H49v1.66H41.05Z"/><path class="cls-2" d="M54.11,50V34.51h9.31v1.67H56v5.24h6.73v1.67H56V50Z"/><path class="cls-2" d="M66.63,50V34.51h9.3v1.67H68.51v5.24h6.72v1.67H68.51V50Z"/><path class="cls-2" d="M79.14,50V34.51H81V48.36h7.21V50Z"/><path class="cls-2" d="M91.14,50V34.51h9.37v1.67H93v5.24h7v1.67H93v5.27h7.61V50Z"/><path class="cls-2" d="M112.39,38.39a2.38,2.38,0,0,0-1.11-1.79A4.29,4.29,0,0,0,108.9,36a4.52,4.52,0,0,0-1.8.33,2.79,2.79,0,0,0-1.19.92,2.15,2.15,0,0,0-.43,1.32,1.87,1.87,0,0,0,.3,1.07,2.45,2.45,0,0,0,.77.73,4.68,4.68,0,0,0,1,.48c.34.12.66.22,1,.3l1.57.42c.41.11.86.26,1.36.44a6.81,6.81,0,0,1,1.43.76A4.2,4.2,0,0,1,114,44a3.51,3.51,0,0,1,.45,1.84,4.1,4.1,0,0,1-.66,2.27,4.49,4.49,0,0,1-1.91,1.61,8,8,0,0,1-5.92.06,4.58,4.58,0,0,1-1.91-1.5,4.34,4.34,0,0,1-.79-2.23h1.94a2.38,2.38,0,0,0,.6,1.45,3.11,3.11,0,0,0,1.32.85,5.3,5.3,0,0,0,1.72.27,4.92,4.92,0,0,0,1.93-.35,3.3,3.3,0,0,0,1.36-1,2.34,2.34,0,0,0,.5-1.48,1.85,1.85,0,0,0-.43-1.26,3.22,3.22,0,0,0-1.14-.79,12.3,12.3,0,0,0-1.52-.53l-1.91-.54a7.13,7.13,0,0,1-2.88-1.5,3.26,3.26,0,0,1-1.06-2.54,3.78,3.78,0,0,1,.71-2.27,4.67,4.67,0,0,1,1.91-1.52,7,7,0,0,1,5.35,0,4.76,4.76,0,0,1,1.85,1.46,3.6,3.6,0,0,1,.72,2.1Z"/><path class="cls-2" d="M123.51,50V34.51h1.88v6.91h8.27V34.51h1.88V50h-1.88V43.09h-8.27V50Z"/><path class="cls-2" d="M139.93,50h-2l5.7-15.52h1.94L151.29,50h-2L144.69,37h-.12Zm.73-6.06h7.94v1.66h-7.94Z"/><path class="cls-2" d="M153.72,50V34.51h1.88V48.36h7.21V50Z"/><path class="cls-2" d="M165.72,50V34.51h1.88V48.36h7.21V50Z"/></g></g></svg>