<svg xmlns="http://www.w3.org/2000/svg" viewBox="0 0 221.02 165.16"><defs><style>.cls-1{fill:#ffff89;}.cls-2{fill:#666;}.cls-3{fill:#333;}</style></defs><g id="Layer_2" data-name="Layer 2"><g id="Grid_9" data-name="Grid 9"><ellipse class="cls-1" cx="93.12" cy="79.49" rx="79.48" ry="79.71" transform="translate(4.07 163.51) rotate(-83.82)"/></g><g id="Grid_13" data-name="Grid 13"><rect class="cls-2" x="62.82" y="76.48" width="100.92" height="20.31" transform="translate(-25.05 51.98) rotate(-23.34)"/><rect class="cls-3" x="148.98" y="8.63" width="35.52" height="109.86" rx="13.99" transform="translate(345.03 55.86) rotate(156.66)"/><rect class="cls-3" x="185.07" y="9.3" width="23.52" height="82.56" rx="9.87" transform="translate(397.59 19.03) rotate(156.66)"/><rect x="210.96" y="30.61" width="6.14" height="25.1" rx="2.52" transform="translate(427.64 -2.02) rotate(156.66)"/><rect class="cls-3" x="36.52" y="57.17" width="35.52" height="109.86" rx="13.99" transform="translate(-39.97 30.68) rotate(-23.34)"/><rect class="cls-3" x="12.43" y="83.8" width="23.52" height="82.56" rx="9.87" transform="translate(-47.58 19.82) rotate(-23.34)"/><rect class="cls-3" x="3.93" y="119.95" width="6.14" height="25.1" rx="2.52" transform="translate(-51.93 13.62) rotate(-23.34)"/></g></g></svg>