<svg xmlns="http://www.w3.org/2000/svg" viewBox="0 0 230.91 184.74"><defs><style>.cls-1{fill:#cdeda1;}.cls-2{fill:#ffe8aa;}.cls-2,.cls-4,.cls-5,.cls-6,.cls-7,.cls-8{stroke:#000;stroke-miterlimit:10;}.cls-2,.cls-5{stroke-width:7px;}.cls-3{fill:#00496f;}.cls-4{fill:#fff;stroke-width:6px;}.cls-5,.cls-6,.cls-7,.cls-8{fill:none;}.cls-6,.cls-7{stroke-linecap:round;}.cls-6,.cls-8{stroke-width:5px;}.cls-7{stroke-width:4px;}</style></defs><g id="Layer_2" data-name="Layer 2"><g id="Grid_13" data-name="Grid 13"><circle class="cls-1" cx="75.86" cy="75.86" r="75.86"/><circle class="cls-2" cx="76.31" cy="120.83" r="60.41"/><path class="cls-3" d="M101.67,144a113.84,113.84,0,0,1,7.66,21.14,1.51,1.51,0,0,0,2.89,0l.23-1c.42-1.88-2.48-2.68-2.9-.8l-.22,1h2.89a117.15,117.15,0,0,0-8-21.86c-.84-1.74-3.42-.22-2.59,1.52Z"/><path d="M35.72,75a65.15,65.15,0,0,0-8.92,36.75c.12,1.92,3.13,1.93,3,0A62.31,62.31,0,0,1,38.31,76.5,1.5,1.5,0,0,0,35.72,75Z"/><path d="M18.22,111.08c10.64,1.85,21.12,4.54,31.8,6.2,1.89.29,2.7-2.6.8-2.9C40.14,112.73,29.66,110,19,108.19c-1.89-.33-2.7,2.56-.79,2.89Z"/><path d="M17,133.45A85,85,0,0,0,45,141c1.92.2,1.9-2.8,0-3a80.84,80.84,0,0,1-26.43-7.09c-1.73-.82-3.26,1.76-1.51,2.59Z"/><path d="M58.66,94.63A178.05,178.05,0,0,0,43.89,140.9q-1.16,6.73-1.78,13.54c-.18,1.92,2.82,1.91,3,0a173.08,173.08,0,0,1,10.73-45.69q2.46-6.41,5.41-12.6c.83-1.74-1.76-3.26-2.59-1.52Z"/><path d="M73.05,115.89a319.05,319.05,0,0,0-11,52.18c-.24,1.91,2.77,1.89,3,0a315,315,0,0,1,10.85-51.39c.56-1.85-2.34-2.64-2.89-.79Z"/><path d="M31,98.27A102.32,102.32,0,0,1,72.53,73.78c2.11-.63,3.53-1.33,4.54-3.39,1.16-2.4,2.22-4.86,3.34-7.28.81-1.74-1.77-3.27-2.59-1.52q-1.44,3.1-2.85,6.22a6.28,6.28,0,0,1-1.32,2.37,7.58,7.58,0,0,1-2.47.87,108.11,108.11,0,0,0-32,16.35,104.84,104.84,0,0,0-10.3,8.75c-1.39,1.34.73,3.46,2.12,2.12Z"/><path d="M48.48,84.4a198.77,198.77,0,0,1,25.63,34.46,1.5,1.5,0,0,0,2.59-1.52A203.52,203.52,0,0,0,50.6,82.28c-1.31-1.42-3.43.71-2.12,2.12Z"/><path d="M74.34,72.83A375.18,375.18,0,0,1,105.9,117c1,1.65,3.6.14,2.59-1.51a381.83,381.83,0,0,0-32-44.82c-1.23-1.49-3.34.64-2.12,2.12Z"/><path d="M93.88,92.94A67.24,67.24,0,0,1,106.78,71c1.27-1.44-.84-3.57-2.12-2.12A70.94,70.94,0,0,0,91,92.14c-.65,1.82,2.25,2.61,2.89.8Z"/><path d="M97.91,85.18a49.09,49.09,0,0,1,31.71,14.6c1.36,1.38,3.48-.74,2.13-2.12A52.28,52.28,0,0,0,97.91,82.18c-1.93-.13-1.92,2.87,0,3Z"/><path d="M120.69,93.12c1.36,14.19,2.34,28.57.3,42.75l3,.4,0-1.76c0-1.93-3-1.93-3,0l0,1.76c0,1.64,2.7,2.11,3,.4,2.07-14.48,1.19-29.06-.2-43.55-.18-1.91-3.19-1.93-3,0Z"/><path d="M122.26,137a40.57,40.57,0,0,1,5.25,14.34,1.51,1.51,0,0,0,1.84,1,1.55,1.55,0,0,0,1.05-1.85,43,43,0,0,0-5.55-15.06,1.5,1.5,0,0,0-2.59,1.52Z"/><path d="M76.31,119.84q23.44-.15,46.8-2.39c1.91-.18,1.93-3.18,0-3q-23.33,2.25-46.8,2.39a1.5,1.5,0,0,0,0,3Z"/><path d="M68.14,144.38a120,120,0,0,0,55.2-7.17c1.78-.68,1-3.58-.8-2.89a118,118,0,0,1-54.4,7.06c-1.92-.2-1.91,2.8,0,3Z"/><path d="M26,137c7.26,13.38,19.24,23.79,32.47,31a107.58,107.58,0,0,0,12.94,6c1.8.69,2.58-2.21.8-2.9C58,165.65,44.64,157,35,145.13a62.2,62.2,0,0,1-6.42-9.62c-.92-1.69-3.51-.18-2.59,1.52Z"/><path d="M86.88,145.36a194.74,194.74,0,0,1,9.93,32.27,1.51,1.51,0,0,0,2.89,0l.29-1.53c.35-1.88-2.54-2.69-2.9-.8l-.28,1.53H99.7a194.74,194.74,0,0,0-9.93-32.27c-.71-1.76-3.62-1-2.89.8Z"/><path d="M115.2,140.58a129.34,129.34,0,0,1,5.09,21.53,1.51,1.51,0,0,0,1.84,1,1.53,1.53,0,0,0,1.05-1.84,129,129,0,0,0-5.09-21.52c-.6-1.83-3.5-1-2.89.79Z"/><path d="M56,177.83a195.73,195.73,0,0,0,39.29-11.62c1.76-.73,1-3.63-.8-2.89a196.19,196.19,0,0,1-39.29,11.62c-1.89.35-1.09,3.24.8,2.89Z"/><path class="cls-3" d="M64.55,108.34a251.7,251.7,0,0,0-14,51c-.3,1.89,2.59,2.7,2.9.8a250.41,250.41,0,0,1,14-51c.7-1.8-2.2-2.58-2.9-.8Z"/><path class="cls-3" d="M73,132c16.26.88,32.56-1.21,48.4-4.84,1.88-.44,1.08-3.33-.8-2.9C105,127.87,89,129.9,73,129c-1.93-.1-1.92,2.9,0,3Z"/><path class="cls-3" d="M19.6,123.19A96,96,0,0,0,46,130.24c1.92.21,1.9-2.8,0-3a93.36,93.36,0,0,1-25.6-6.95c-1.78-.74-2.56,2.17-.8,2.9Z"/><path class="cls-3" d="M62.28,78.67A218.34,218.34,0,0,1,90.7,116.5,1.51,1.51,0,0,0,93.3,115,222.24,222.24,0,0,0,64.4,76.55c-1.32-1.41-3.44.71-2.12,2.12Z"/><path class="cls-3" d="M85.45,78.14A31.49,31.49,0,0,1,92.06,67.8a1.5,1.5,0,0,0-2.12-2.12,35,35,0,0,0-7.39,11.66,1.51,1.51,0,0,0,1,1.85,1.54,1.54,0,0,0,1.85-1Z"/><path class="cls-4" d="M118.32,15.5c-10.28,9.26-3.71,20,6.46,30.67,8-7.68,15.82-15.38,23.79-23C138.42,12.67,125.08,9.41,118.32,15.5Z"/><line class="cls-5" x1="125.74" y1="49.29" x2="151.75" y2="24.42"/><line class="cls-6" x1="173.04" y1="127.96" x2="128.49" y2="46.66"/><line class="cls-7" x1="133.53" y1="43.47" x2="188.57" y2="117.95"/><line class="cls-7" x1="140.06" y1="38.44" x2="203.32" y2="106.28"/><line class="cls-7" x1="228.46" y1="75.28" x2="149.23" y2="27.15"/><line class="cls-7" x1="145.81" y1="32.04" x2="217.77" y2="90.35"/><path class="cls-8" d="M144,73.5c.56.59,7.73-5.36,16-13.3"/><path class="cls-8" d="M174.94,42.73c.89.94-5.76,8.75-14.88,17.47"/><path class="cls-8" d="M136.68,59.89c.56.58,6.4-4.1,13.07-10.48"/><path class="cls-8" d="M161.86,35c.67.7-4.84,7.06-12.32,14.21"/><line class="cls-6" x1="145.84" y1="85.13" x2="166.43" y2="126.98"/><line class="cls-6" x1="145.59" y1="78.09" x2="145.84" y2="85.13"/><line class="cls-6" x1="188.02" y1="118.11" x2="174.2" y2="117.59"/><line class="cls-6" x1="152.65" y1="78.81" x2="174.2" y2="117.59"/><line class="cls-6" x1="153.86" y1="72.1" x2="152.65" y2="78.81"/><line class="cls-6" x1="203.32" y1="106.28" x2="188.79" y2="108.03"/><line class="cls-6" x1="162.66" y1="71.93" x2="188.58" y2="107.93"/><line class="cls-6" x1="163.08" y1="65.12" x2="162.66" y2="71.93"/><line class="cls-6" x1="217.26" y1="90.86" x2="203.04" y2="94.29"/><line class="cls-6" x1="172.87" y1="61.49" x2="202.82" y2="94.21"/><line class="cls-6" x1="172.5" y1="54.67" x2="172.87" y2="61.49"/><line class="cls-7" x1="180.71" y1="53.06" x2="214.98" y2="81.23"/><line class="cls-6" x1="179.37" y1="46.37" x2="180.71" y2="53.06"/><path d="M146.09,79.27l6.54,2.6a1.51,1.51,0,0,0,1.85-1.05,1.56,1.56,0,0,0-1-1.85l-6.54-2.59a1.5,1.5,0,0,0-1.85,1,1.55,1.55,0,0,0,1.05,1.85Z"/><path d="M175.11,128.56l3.13-10.41a2.27,2.27,0,0,0-1.57-2.77,2.3,2.3,0,0,0-2.76,1.58l-3.14,10.41a2.25,2.25,0,1,0,4.34,1.19Z"/><path d="M155.62,73.52l7.06.65-.4-2.94-.56.14a1.5,1.5,0,0,0-1,1.84,1.52,1.52,0,0,0,1.84,1.05l.56-.14a1.49,1.49,0,0,0,1.07-1.64,1.53,1.53,0,0,0-1.47-1.31l-7.06-.65a1.5,1.5,0,0,0-1.5,1.5,1.54,1.54,0,0,0,1.5,1.5Z"/><path d="M191.43,118.15l2.28-10.08a2.25,2.25,0,0,0-4.34-1.19L187.09,117a2.25,2.25,0,1,0,4.34,1.2Z"/><path d="M206.09,105.93l.56-10.8a2.27,2.27,0,0,0-2.25-2.25,2.3,2.3,0,0,0-2.25,2.25l-.56,10.8a2.27,2.27,0,0,0,2.25,2.25,2.31,2.31,0,0,0,2.25-2.25Z"/><path d="M164,65.42l12.24,1.26a1.52,1.52,0,0,0,1.5-1.5,1.54,1.54,0,0,0-1.5-1.5L164,62.42a1.52,1.52,0,0,0-1.5,1.5,1.54,1.54,0,0,0,1.5,1.5Z"/><path d="M172.67,55.52a81.15,81.15,0,0,0,11.89,1.93,1.51,1.51,0,0,0,1.5-1.5,1.53,1.53,0,0,0-1.5-1.5,75.67,75.67,0,0,1-11.09-1.83,1.5,1.5,0,0,0-.8,2.9Z"/><line class="cls-6" x1="187.52" y1="45.83" x2="228.41" y2="68.27"/><line class="cls-6" x1="180.5" y1="45.26" x2="187.52" y2="45.83"/><line class="cls-6" x1="173.06" y1="127.64" x2="166.65" y2="127.68"/></g></g></svg>