<svg xmlns="http://www.w3.org/2000/svg" viewBox="0 0 119.5 115"><defs><style>.cls-1{fill:#ffc3b4;}.cls-2{fill-rule:evenodd;}</style></defs><g id="Layer_2" data-name="Layer 2"><g id="Grid_13" data-name="Grid 13"><circle class="cls-1" cx="57.5" cy="57.5" r="57.5"/><path d="M109.92,16.8H80.58a3,3,0,0,0-3,3V47.33a1.8,1.8,0,0,1-1.8,1.8H48.25a3,3,0,0,0-3,3V79.66a1.81,1.81,0,0,1-1.8,1.81H15.91a3,3,0,0,0-3,3V112a3,3,0,0,0,3,3H116.5a3,3,0,0,0,3-3V19.79a3,3,0,0,0-3-3Z"/><path class="cls-2" d="M56.11,16.33,36.83,20.61a2.4,2.4,0,0,0-1.18,4l4.12,4.11-27.95,28a4.79,4.79,0,0,0,6.77,6.77l28-27.94,4.11,4.11a2.39,2.39,0,0,0,4-1.17L59,19.18A2.39,2.39,0,0,0,56.11,16.33Z"/></g></g></svg>