<svg xmlns="http://www.w3.org/2000/svg" viewBox="0 0 168.49 171.4"><defs><style>.cls-1{fill:#ffff89;}.cls-2{stroke:#fff;stroke-width:3px;}.cls-2,.cls-3,.cls-4,.cls-5,.cls-6,.cls-7,.cls-8{stroke-linejoin:round;}.cls-3,.cls-4,.cls-5,.cls-6,.cls-7,.cls-8{stroke:#000;}.cls-3{stroke-width:6px;}.cls-4,.cls-5,.cls-8{fill:#fff;}.cls-4,.cls-6,.cls-8{stroke-linecap:round;}.cls-4{stroke-width:8px;}.cls-5,.cls-6,.cls-7,.cls-8{stroke-width:2px;}.cls-6,.cls-7{fill:none;}</style></defs><g id="Layer_2" data-name="Layer 2"><g id="Grid_13" data-name="Grid 13"><circle class="cls-1" cx="72.08" cy="68.17" r="68.16"/><ellipse cx="83.07" cy="152.57" rx="30.5" ry="18.83"/><path class="cls-2" d="M81,157.25,2.58,106.82a1.94,1.94,0,0,1,.29-3.4L83.67,68a2,2,0,0,1,1.61,0l80.6,38.18a1.93,1.93,0,0,1,.13,3.42L83,157.3A1.94,1.94,0,0,1,81,157.25Z"/><rect class="cls-3" x="3.25" y="91.2" width="10.54" height="12.05"/><polygon class="cls-4" points="80.81 139.4 4 90.45 83.82 55.05 162.89 91.95 80.81 139.4"/><polygon class="cls-5" points="72.68 120.09 35.34 98.56 36 93.08 72.76 113.86 72.68 120.09"/><line class="cls-6" x1="72.9" y1="120.19" x2="75.16" y2="118.69"/><line class="cls-6" x1="75.16" y1="112.66" x2="75.16" y2="118.69"/><line class="cls-6" x1="38.26" y1="91.58" x2="75.16" y2="112.66"/><line class="cls-6" x1="36" y1="93.08" x2="38.26" y2="91.58"/><line class="cls-7" x1="75.16" y1="112.66" x2="72.56" y2="113.93"/><polygon class="cls-5" points="92.59 119.14 127.89 98.82 127.12 93.41 92.36 113 92.59 119.14"/><line class="cls-6" x1="88.72" y1="117.93" x2="92.48" y2="119.44"/><line class="cls-6" x1="88.72" y1="111.91" x2="88.72" y2="117.93"/><line class="cls-6" x1="89.47" y1="111.91" x2="92.48" y2="112.66"/><line class="cls-6" x1="124.86" y1="91.58" x2="88.72" y2="111.91"/><line class="cls-6" x1="127.12" y1="93.08" x2="124.86" y2="91.58"/><polygon class="cls-6" points="77.42 71.08 42.78 87.06 42.78 82.7 77.42 66.73 77.42 71.08"/><line class="cls-6" x1="39.77" y1="81.79" x2="39.77" y2="86.31"/><line class="cls-6" x1="42.78" y1="87.06" x2="39.77" y2="86.31"/><line class="cls-6" x1="75.16" y1="65.22" x2="39.77" y2="81.79"/><line class="cls-6" x1="42.78" y1="82.54" x2="39.77" y2="81.79"/><line class="cls-6" x1="77.42" y1="66.73" x2="75.16" y2="65.22"/><polygon class="cls-8" points="123.36 87.81 89.47 72.75 89.47 67.48 123.36 82.54 123.36 87.81"/><line class="cls-6" x1="92.48" y1="65.97" x2="127.12" y2="80.28"/><line class="cls-6" x1="127.12" y1="85.55" x2="127.12" y2="80.28"/><line class="cls-6" x1="92.48" y1="65.97" x2="89.37" y2="67.66"/><line class="cls-6" x1="123.63" y1="82.42" x2="127.12" y2="80.28"/><line class="cls-6" x1="123.36" y1="87.81" x2="127.12" y2="85.55"/><ellipse cx="124.48" cy="29.58" rx="9.42" ry="10.14"/><path d="M125.62,42.63c-8.76-2-17.57,7.58-18.37,19.68-.07,1.16.6,2.16,1.44,2.16L141.48,81c.84,0,.73-4.11.65-5.28C141.34,63.67,139.17,45.64,125.62,42.63Z"/><ellipse cx="42.49" cy="30.97" rx="9.33" ry="10.14"/><path d="M42.23,44.89C33,45.61,24.81,61.46,25.5,74.26,26,82.65,26,81,26.9,81l35-16.46a1.89,1.89,0,0,0,1.58-2.38C61.06,53.17,52,44.14,42.23,44.89Z"/><circle cx="42.32" cy="85.98" r="10.14"/><path d="M35.88,97.17c-11.4-5.7-23.18,10.13-24.3,23.06-.11,1.24.1,2,1.31,2L48.81,145.8c1.2,0,2.35-10.81,2.24-12.05C49.93,120.82,47.3,102.87,35.88,97.17Z"/><circle cx="129.65" cy="86.12" r="10.14"/><path d="M133.9,99.38c-8.28,4.4-14.48,29.59-15.41,42.91a2,2,0,0,0,1.7,2.38L158,118c1,0-.2-4.31-.76-5.42C151.22,100.66,143.53,94.27,133.9,99.38Z"/><path d="M133.2,100.88c-8.53,4.4-14.9,29.6-15.86,42.91a2.06,2.06,0,0,0,1.75,2.39L158,119.49c1,0-.2-4.31-.78-5.41C151,102.17,143.1,95.77,133.2,100.88Z"/><polygon class="cls-7" points="85.7 77.27 66.13 89.32 60.85 87.81 81.19 75.76 85.7 77.27"/><line class="cls-7" x1="60.85" y1="87.81" x2="60.85" y2="94.59"/><line class="cls-7" x1="66.13" y1="89.32" x2="66.13" y2="96.1"/><line class="cls-6" x1="60.85" y1="94.59" x2="66.13" y2="96.1"/><line class="cls-6" x1="86.46" y1="83.29" x2="66.13" y2="96.1"/><line class="cls-6" x1="85.7" y1="77.27" x2="86.46" y2="83.29"/><polygon class="cls-8" points="99.26 94.59 78.93 87.81 78.93 82.54 99.26 88.57 99.26 94.59"/><polygon class="cls-8" points="99.26 88.57 78.93 82.54 82.69 80.28 103.03 86.31 99.26 88.57"/><line class="cls-6" x1="103.02" y1="86.31" x2="103.02" y2="92.33"/><line class="cls-6" x1="99.33" y1="94.55" x2="103.02" y2="92.33"/></g></g></svg>