<svg xmlns="http://www.w3.org/2000/svg" viewBox="0 0 161.86 160.82"><defs><style>.cls-1{fill:#ffff89;}.cls-2{fill:#fff;}</style></defs><g id="Layer_2" data-name="Layer 2"><g id="Grid_9" data-name="Grid 9"><circle class="cls-1" cx="67.17" cy="67.17" r="67.17"/></g><g id="Grid_13" data-name="Grid 13"><path d="M97.24,156.82A60.62,60.62,0,1,1,157.86,96.2,60.69,60.69,0,0,1,97.24,156.82Z"/><path d="M97.23,39.58A56.62,56.62,0,1,1,40.61,96.2,56.69,56.69,0,0,1,97.23,39.58m0-8A64.62,64.62,0,1,0,161.86,96.2,64.62,64.62,0,0,0,97.23,31.58Z"/><path class="cls-2" d="M97.24,127.5a31.3,31.3,0,1,1,31.29-31.3A31.33,31.33,0,0,1,97.24,127.5Z"/><path d="M97.23,66.41A29.8,29.8,0,1,1,67.44,96.2,29.83,29.83,0,0,1,97.23,66.41m0-3A32.8,32.8,0,1,0,130,96.2a32.79,32.79,0,0,0-32.8-32.79Z"/><path d="M97.75,78.68c6,0,10,3.58,10,8.4A5.62,5.62,0,0,1,106,91.25a37.82,37.82,0,0,1-4,2.81c3.85,2.06,7.26,4.61,7.26,9.32,0,6.87-6.88,10.34-12.18,10.34-7.26,0-11.81-3.68-11.81-9.15a6.06,6.06,0,0,1,2.33-4.93c1.08-.81,3.36-2.17,4.93-3.09-3.14-1.78-5.91-4.44-5.91-8.44C86.59,83,91.14,78.68,97.75,78.68Zm0,32.77c3,0,4.87-1.9,4.82-5.42,0-3.79-2.55-5.63-8-8.39a7.71,7.71,0,0,0-2.87,6.28C91.74,109.06,94.72,111.45,97.75,111.45ZM97,81c-2.65,0-4.11,2-4.11,4.71,0,3.57,2.7,5.36,7,7.31,1.25-1.14,2-2.71,2-5.74C101.92,82.47,99.16,81,97,81Z"/></g></g></svg>