<svg xmlns="http://www.w3.org/2000/svg" viewBox="0 0 173 146"><defs><style>.cls-1{fill:#bfddff;}.cls-2{fill:#fff;}.cls-3{fill:#551300;}</style></defs><g id="Layer_2" data-name="Layer 2"><g id="Grid_13" data-name="Grid 13"><circle class="cls-1" cx="66.5" cy="66.5" r="66.5"/><rect class="cls-2" x="25" y="33" width="148" height="113"/><polygon class="cls-3" points="25.66 87.87 25.66 89.88 38.24 89.88 47.02 89.88 47.02 89.26 46.63 87.87 43.36 87.87 25.66 87.87"/><polygon class="cls-3" points="168.84 87.87 168.84 89.88 156.26 89.88 147.48 89.88 147.48 89.26 147.87 87.87 151.14 87.87 168.84 87.87"/><path class="cls-3" d="M60.88,60.31a14.28,14.28,0,0,1-12.13-6.22,11.68,11.68,0,0,1-1.34,1.72A32.23,32.23,0,0,1,45.78,72.3a35.87,35.87,0,0,1-7.22,11.5,1.86,1.86,0,0,1-1.36.56A1.83,1.83,0,0,1,36.12,84a1.37,1.37,0,0,1-.27-2.11,32.88,32.88,0,0,0,6.64-10.55,29.32,29.32,0,0,0,1.75-13.05,15.25,15.25,0,0,1-7.62,2A14.28,14.28,0,0,1,24.5,54.09V85.87H47.06c8.74-5.4,14.39-13.94,14.39-23.56,0-.68,0-1.35-.09-2Z"/><path class="cls-3" d="M157.88,60.31a15.25,15.25,0,0,1-7.62-2A29.32,29.32,0,0,0,152,71.37a32.88,32.88,0,0,0,6.64,10.55,1.37,1.37,0,0,1-.27,2.11,1.83,1.83,0,0,1-1.08.33,1.86,1.86,0,0,1-1.36-.56,35.87,35.87,0,0,1-7.22-11.5,32.23,32.23,0,0,1-1.63-16.49,11.68,11.68,0,0,1-1.34-1.72,14.28,14.28,0,0,1-12.13,6.22l-.48,0c0,.67-.09,1.34-.09,2,0,9.62,5.65,18.16,14.39,23.56H170V54.09A14.28,14.28,0,0,1,157.88,60.31Z"/><polygon class="cls-3" points="24.5 91.88 24.5 132.97 59.14 132.97 47.74 91.88 24.5 91.88"/><polygon class="cls-3" points="134.59 128.96 59.91 128.96 61.56 134.47 24.5 134.47 24.5 146 170 146 170 134.47 132.94 134.47 134.59 128.96"/><polygon class="cls-3" points="170 91.88 170 132.97 135.36 132.97 146.75 91.88 170 91.88"/><path class="cls-3" d="M26.23,33.25v15c0,5,4.66,9,10.39,9s10.4-4,10.4-9v-15Z"/><path class="cls-3" d="M50.48,33.25v15c0,5,4.66,9,10.4,9s10.39-4,10.39-9v-15Z"/><path class="cls-3" d="M74.73,33.25v15c0,5,4.66,9,10.39,9s10.4-4,10.4-9v-15Z"/><path class="cls-3" d="M99,33.25v15c0,5,4.66,9,10.4,9s10.39-4,10.39-9v-15Z"/><path class="cls-3" d="M123.23,33.25v15c0,5,4.66,9,10.39,9s10.4-4,10.4-9v-15Z"/><path class="cls-3" d="M147.48,33.25v15c0,5,4.66,9,10.4,9s10.39-4,10.39-9v-15Z"/></g></g></svg>