<svg xmlns="http://www.w3.org/2000/svg" viewBox="0 0 154.16 141.4"><defs><style>.cls-1{fill:#ffff89;}.cls-2{fill:#fff;}.cls-3{fill:none;stroke:#000;stroke-linecap:round;stroke-miterlimit:10;stroke-width:4px;}.cls-4{fill:#993e00;}</style></defs><g id="Layer_2" data-name="Layer 2"><g id="Grid_13" data-name="Grid 13"><circle class="cls-1" cx="70.7" cy="70.7" r="70.69"/><rect class="cls-2" x="37.14" y="50.14" width="112" height="71"/><line class="cls-3" x1="74.14" y1="23.14" x2="93.14" y2="42.14"/><line class="cls-3" x1="121.14" y1="14.14" x2="93.14" y2="42.14"/><path class="cls-4" d="M44.62,130.14a10,10,0,0,1-10-10V52.11a10,10,0,0,1,10-10H142.2a10,10,0,0,1,10,10v68.07a10,10,0,0,1-10,10Zm87.74-28.42a8,8,0,1,0,5.57,0,8,8,0,1,0-5.57,0ZM55.63,56.07a14,14,0,0,0-14,14v33.23a14,14,0,0,0,14,14h51.55a14,14,0,0,0,14-14V70a14,14,0,0,0-14-14Zm70.08,16.07a4,4,0,0,0,1.93,7.5h15a4,4,0,0,0,1.94-7.5,4,4,0,0,0,0-7,4,4,0,0,0-1.94-7.5h-15a4,4,0,0,0-1.93,7.5,4,4,0,0,0,0,7Z"/><path d="M142.2,44.14a8,8,0,0,1,8,8v68.07a8,8,0,0,1-8,8H44.62a8,8,0,0,1-8-8V52.11a8,8,0,0,1,8-8H142.2M55.63,119.22h51.55a16,16,0,0,0,16-16V79.61a6,6,0,0,0,4.5,2h15a6,6,0,0,0,4.88-9.5,6,6,0,0,0,0-7,5.94,5.94,0,0,0,1.12-3.5,6,6,0,0,0-6-6h-15a6,6,0,0,0-6,6,6,6,0,0,0,1.13,3.5l-.27.41a16,16,0,0,0-15.32-11.48H55.63a16,16,0,0,0-16,16v33.23a16,16,0,0,0,16,16m72.91-17.5a10,10,0,1,0,13.21,0,10,10,0,1,0-13.21,0M142.2,40.14H44.62a12,12,0,0,0-12,12v68.07a12,12,0,0,0,12,12H142.2a12,12,0,0,0,12-12V52.11a12,12,0,0,0-12-12ZM55.63,115.22a12,12,0,0,1-12-12V70a12,12,0,0,1,12-12h51.55a12,12,0,0,1,12,12v33.23a12,12,0,0,1-12,12Zm72-51.58a2,2,0,0,1,0-4h15a2,2,0,0,1,0,4Zm0,7a2,2,0,0,1,0-4h15a2,2,0,0,1,0,4Zm0,7a2,2,0,0,1,0-4h15a2,2,0,0,1,0,4Zm7.5,22.58a6,6,0,1,1,6-6,6,6,0,0,1-6,6Zm0,15a6,6,0,1,1,6-6,6,6,0,0,1-6,6Z"/></g></g></svg>