<svg width="20" height="20" viewBox="0 0 20 20" fill="none" xmlns="http://www.w3.org/2000/svg">
<path d="M10.7553 4.31133C10.7297 3.83422 10.2421 3.91539 9.76636 3.91539C10.1178 4.00899 10.4503 4.13921 10.7553 4.31133Z" fill="#666666"/>
<path d="M5.66935 3.1156C3.8224 3.1156 2.97227 5.45336 4.44874 6.62913C4.95206 5.28516 5.95403 4.32015 7.26757 3.93926C6.90826 3.44251 6.32772 3.1156 5.66935 3.1156Z" fill="#666666"/>
<path d="M1.85383 6.26329C1.9291 6.50482 2.02662 6.73653 2.14247 6.95605L1.53577 7.56309C1.37284 7.72602 1.37284 7.99047 1.53577 8.15374L2.60517 9.22348C2.68305 9.30136 2.78976 9.34519 2.90098 9.34519C3.01097 9.34519 3.11697 9.30136 3.1962 9.22348L3.80222 8.61644C3.89317 8.66457 3.99398 8.69407 4.08817 8.73558C4.08817 8.72867 4.0875 8.7215 4.0875 8.71459C4.0875 8.21852 4.14447 7.75055 4.24592 7.31112C3.51421 6.8402 3.02598 6.02278 3.02598 5.0895C3.02598 3.63166 4.21186 2.44544 5.66937 2.44544C6.65629 2.44544 7.5084 2.99487 7.96326 3.79758C8.44888 3.73736 8.90504 3.73736 9.45414 3.84112C9.3835 3.62745 9.3004 3.41833 9.1963 3.22232L9.803 2.61498C9.88215 2.53677 9.92598 2.43039 9.92598 2.31981C9.92598 2.20918 9.88215 2.10285 9.803 2.02463L8.73419 0.95557C8.65243 0.873769 8.54573 0.833184 8.43906 0.833184C8.33235 0.833184 8.22569 0.873769 8.14452 0.95557L7.53588 1.5629C7.31601 1.44642 7.08498 1.3489 6.84286 1.27527V0.417224C6.84286 0.186866 6.65697 0 6.42593 0H4.91347C4.68375 0 4.49587 0.186866 4.49587 0.417224V1.27523C4.25439 1.34886 4.02331 1.44638 3.80277 1.56286L3.1962 0.956202C3.11435 0.874401 3.00769 0.833816 2.90098 0.833816C2.79431 0.833816 2.68701 0.874401 2.60584 0.955865L1.53577 2.02493C1.45789 2.10348 1.41406 2.20948 1.41406 2.32044C1.41406 2.43136 1.45789 2.5374 1.53577 2.61562L2.14247 3.22261C2.02658 3.44252 1.9291 3.67389 1.85518 3.91537H0.997804C0.766771 3.91537 0.5802 4.10254 0.5802 4.33323V5.84573C0.5802 6.07575 0.766771 6.26329 0.997804 6.26329H1.85383Z" fill="#666666"/>
<path d="M14.9557 14.3564C15.6246 13.9896 16.084 13.2874 16.084 12.4725C16.084 11.2833 15.1161 10.316 13.9269 10.316C13.5087 10.316 13.1212 10.441 12.7901 10.6478C12.5918 11.4371 12.2796 12.1921 11.8712 12.8479C13.0289 13.0655 14.0911 13.5927 14.9557 14.3564Z" fill="#666666"/>
<path d="M19.4192 11.6565C19.4192 11.4075 19.2169 11.2058 18.9688 11.2058H18.0435C17.9636 10.945 17.8576 10.695 17.7319 10.4578L18.387 9.80269C18.4721 9.71824 18.5192 9.60373 18.5192 9.4843C18.5192 9.36482 18.4721 9.25027 18.387 9.16556L17.2338 8.01204C17.1462 7.92396 17.0303 7.87979 16.9152 7.87979C16.8 7.87979 16.6848 7.92396 16.5971 8.01204L15.9407 8.66746C15.7037 8.54179 15.4544 8.43647 15.1926 8.35691V7.43151C15.1926 7.18282 14.9916 6.9812 14.743 6.9812H13.1114C13.0021 6.9812 12.9059 7.02503 12.8274 7.08985C12.9648 7.59115 13.04 8.13472 13.04 8.71458C13.04 9.08271 13.0113 9.45648 12.9576 9.82815C13.2613 9.71622 13.5845 9.64592 13.9269 9.64592C15.4858 9.64592 16.7541 10.914 16.7541 12.4725C16.7541 13.4687 16.2339 14.3417 15.4531 14.8453C16.0212 15.4684 16.4728 16.2076 16.7666 17.0358C16.815 17.0525 16.8654 17.0646 16.9158 17.0646C17.031 17.0646 17.1462 17.0208 17.2345 16.9327L18.3884 15.7792C18.4729 15.6948 18.5193 15.5802 18.5193 15.4608C18.5193 15.3414 18.4729 15.2269 18.3884 15.1421L17.732 14.4867C17.8576 14.2498 17.9636 13.9997 18.0435 13.7386H18.9689C19.088 13.7386 19.2038 13.6915 19.2876 13.6064C19.3721 13.5222 19.4199 13.4074 19.4199 13.288L19.4192 11.6565Z" fill="#666666"/>
<path d="M15.8477 17.4436C15.1481 15.385 13.2993 13.9691 11.165 13.7764C10.4503 14.5332 9.56549 15.0133 8.56344 15.0133C7.56214 15.0133 6.67661 14.5332 5.96261 13.7764C3.8271 13.9691 1.97821 15.385 1.27853 17.444L0.89178 18.5824C0.781152 18.91 0.834127 19.271 1.03574 19.552C1.23732 19.8332 1.56195 20 1.90749 20H15.2188C15.565 20 15.8896 19.8332 16.0912 19.552C16.2921 19.271 16.3458 18.91 16.2345 18.5824L15.8477 17.4436Z" fill="#666666"/>
<path d="M5.09277 8.71454C5.09277 11.268 6.64716 14.0079 8.56339 14.0079C10.4804 14.0079 12.0347 11.268 12.0347 8.71454C12.0347 3.42153 5.09277 3.41103 5.09277 8.71454Z" fill="#666666"/>
</svg>
