<svg width="18" height="18" viewBox="0 0 18 18" fill="none" xmlns="http://www.w3.org/2000/svg">
<path d="M17.7503 8.99791H16.5003C16.4021 8.99791 16.3218 9.07827 16.3218 9.17648V16.3193H1.67892V1.67648H8.82178C8.91999 1.67648 9.00035 1.59612 9.00035 1.49791V0.247907C9.00035 0.149693 8.91999 0.0693359 8.82178 0.0693359H0.786063C0.390974 0.0693359 0.0717773 0.388532 0.0717773 0.783622V17.2122C0.0717773 17.6073 0.390974 17.9265 0.786063 17.9265H17.2146C17.6097 17.9265 17.9289 17.6073 17.9289 17.2122V9.17648C17.9289 9.07827 17.8486 8.99791 17.7503 8.99791Z" fill="#3F3F46"/>
<path d="M5.51582 9.50907L5.47341 12.1631C5.47118 12.3617 5.63189 12.5247 5.83055 12.5247H5.83948L8.47341 12.46C8.51805 12.4577 8.5627 12.4399 8.59395 12.4086L17.8774 3.14523C17.9466 3.07603 17.9466 2.96219 17.8774 2.893L15.1029 0.120675C15.0672 0.084961 15.0225 0.0693359 14.9756 0.0693359C14.9288 0.0693359 14.8841 0.0871931 14.8484 0.120675L5.56716 9.38407C5.53492 9.41778 5.51659 9.46242 5.51582 9.50907ZM6.93323 10.0359L14.9756 2.0113L15.9846 3.018L7.9377 11.047L6.91761 11.0716L6.93323 10.0359Z" fill="#3F3F46"/>
</svg>
