<svg width="39" height="40" viewBox="0 0 39 40" fill="none" xmlns="http://www.w3.org/2000/svg">
<path d="M11.602 7.0909C10.9585 7.0909 10.437 6.56185 10.437 5.90908V1.18182C10.437 0.529047 10.9585 0 11.602 0C12.2456 0 12.7671 0.529047 12.7671 1.18182V5.90908C12.7671 6.56185 12.2456 7.0909 11.602 7.0909Z" fill="black"/>
<path d="M11.602 7.0909C10.9585 7.0909 10.437 6.56185 10.437 5.90908V1.18182C10.437 0.529047 10.9585 0 11.602 0C12.2456 0 12.7671 0.529047 12.7671 1.18182V5.90908C12.7671 6.56185 12.2456 7.0909 11.602 7.0909Z" fill="black"/>
<path d="M23.2526 7.32728C22.6091 7.32728 22.0876 6.79824 22.0876 6.14547V1.41821C22.0876 0.765436 22.6091 0.236389 23.2526 0.236389C23.8962 0.236389 24.4177 0.765436 24.4177 1.41821V6.14547C24.4177 6.79824 23.8962 7.32728 23.2526 7.32728Z" fill="black"/>
<path d="M32.6896 27.8908C32.6896 29.8454 31.1213 31.4363 29.1944 31.4363H5.66024C3.73243 31.4363 2.16506 29.8454 2.16506 27.8908V14.5363H32.6896V27.8908ZM29.1944 4.25452H25.3497V6.14542C25.3497 7.318 24.4086 8.27269 23.2526 8.27269C22.0958 8.27269 21.1555 7.318 21.1555 6.14542V4.25452H13.6991V5.90906C13.6991 7.08164 12.758 8.03633 11.602 8.03633C10.4452 8.03633 9.50493 7.08164 9.50493 5.90906V4.25452H5.66024C3.08527 4.25452 1 6.36978 1 8.98178V27.8908C1 30.5028 3.08527 32.6181 5.66024 32.6181H29.1944C31.7694 32.6181 33.8547 30.5028 33.8547 27.8908V8.98178C33.8547 6.36978 31.7694 4.25452 29.1944 4.25452Z" fill="black"/>
<path d="M32.6896 27.8908C32.6896 29.8455 31.1213 31.4363 29.1944 31.4363H5.66024C3.73243 31.4363 2.16506 29.8455 2.16506 27.8908V14.5363H32.6896V27.8908ZM29.1944 4.25452H25.3497V6.14543C25.3497 7.31801 24.4086 8.2727 23.2526 8.2727C22.0958 8.2727 21.1555 7.31801 21.1555 6.14543V4.25452H13.6991V5.90906C13.6991 7.08165 12.758 8.03633 11.602 8.03633C10.4452 8.03633 9.50493 7.08165 9.50493 5.90906V4.25452H5.66024C3.08527 4.25452 1 6.36979 1 8.98179V27.8908C1 30.5028 3.08527 32.6181 5.66024 32.6181H29.1944C31.7694 32.6181 33.8547 30.5028 33.8547 27.8908V8.98179C33.8547 6.36979 31.7694 4.25452 29.1944 4.25452Z" stroke="black" stroke-miterlimit="10"/>
<path d="M23.2526 7.32728C22.6091 7.32728 22.0876 6.79824 22.0876 6.14547V1.41821C22.0876 0.765436 22.6091 0.236389 23.2526 0.236389C23.8962 0.236389 24.4177 0.765436 24.4177 1.41821V6.14547C24.4177 6.79824 23.8962 7.32728 23.2526 7.32728Z" fill="black"/>
<path d="M8.50372 21.3909H5.37991C4.95575 21.3909 4.61169 21.0419 4.61169 20.6116V18.861C4.61169 18.4308 4.95575 18.0818 5.37991 18.0818H8.50372C8.92788 18.0818 9.27193 18.4308 9.27193 18.861V20.6116C9.27193 21.0419 8.92788 21.3909 8.50372 21.3909Z" fill="black"/>
<path d="M8.50372 21.3909H5.37991C4.95575 21.3909 4.61169 21.0419 4.61169 20.6116V18.861C4.61169 18.4308 4.95575 18.0818 5.37991 18.0818H8.50372C8.92787 18.0818 9.27193 18.4308 9.27193 18.861V20.6116C9.27193 21.0419 8.92787 21.3909 8.50372 21.3909Z" stroke="black" stroke-miterlimit="10"/>
<path d="M15.4932 21.3909H12.3712C11.9461 21.3909 11.6021 21.0409 11.6021 20.6107V18.862C11.6021 18.4308 11.9461 18.0818 12.3712 18.0818H15.4932C15.9182 18.0818 16.2623 18.4308 16.2623 18.862V20.6107C16.2623 21.0409 15.9182 21.3909 15.4932 21.3909Z" fill="black"/>
<path d="M15.4932 21.3909H12.3712C11.9461 21.3909 11.6021 21.0409 11.6021 20.6107V18.862C11.6021 18.4308 11.9461 18.0818 12.3712 18.0818H15.4932C15.9182 18.0818 16.2623 18.4308 16.2623 18.862V20.6107C16.2623 21.0409 15.9182 21.3909 15.4932 21.3909Z" stroke="black" stroke-miterlimit="10"/>
<path d="M29.4739 21.3909H26.3519C25.9268 21.3909 25.5828 21.0409 25.5828 20.6107V18.862C25.5828 18.4308 25.9268 18.0818 26.3519 18.0818H29.4739C29.898 18.0818 30.243 18.4308 30.243 18.862V20.6107C30.243 21.0409 29.898 21.3909 29.4739 21.3909Z" fill="black"/>
<path d="M29.4739 21.3909H26.3519C25.9268 21.3909 25.5828 21.0409 25.5828 20.6107V18.862C25.5828 18.4308 25.9268 18.0818 26.3519 18.0818H29.4739C29.898 18.0818 30.243 18.4308 30.243 18.862V20.6107C30.243 21.0409 29.898 21.3909 29.4739 21.3909Z" stroke="black" stroke-miterlimit="10"/>
<path d="M22.4835 21.3909H19.3615C18.9365 21.3909 18.5924 21.0409 18.5924 20.6107V18.862C18.5924 18.4308 18.9365 18.0818 19.3615 18.0818H22.4835C22.9086 18.0818 23.2526 18.4308 23.2526 18.862V20.6107C23.2526 21.0409 22.9086 21.3909 22.4835 21.3909Z" fill="black"/>
<path d="M22.4835 21.3909H19.3615C18.9365 21.3909 18.5924 21.0409 18.5924 20.6107V18.862C18.5924 18.4308 18.9365 18.0818 19.3615 18.0818H22.4835C22.9086 18.0818 23.2526 18.4308 23.2526 18.862V20.6107C23.2526 21.0409 22.9086 21.3909 22.4835 21.3909Z" stroke="black" stroke-miterlimit="10"/>
<path d="M8.50372 27.7726H5.37991C4.95575 27.7726 4.61169 27.4236 4.61169 26.9934V25.2428C4.61169 24.8126 4.95575 24.4636 5.37991 24.4636H8.50372C8.92788 24.4636 9.27193 24.8126 9.27193 25.2428V26.9934C9.27193 27.4236 8.92788 27.7726 8.50372 27.7726Z" fill="black"/>
<path d="M8.50372 27.7726H5.37991C4.95575 27.7726 4.61169 27.4236 4.61169 26.9934V25.2428C4.61169 24.8126 4.95575 24.4636 5.37991 24.4636H8.50372C8.92787 24.4636 9.27193 24.8126 9.27193 25.2428V26.9934C9.27193 27.4236 8.92787 27.7726 8.50372 27.7726Z" stroke="black" stroke-miterlimit="10"/>
<path d="M15.4932 27.7726H12.3712C11.9461 27.7726 11.6021 27.4227 11.6021 26.9925V25.2437C11.6021 24.8126 11.9461 24.4636 12.3712 24.4636H15.4932C15.9182 24.4636 16.2623 24.8126 16.2623 25.2437V26.9925C16.2623 27.4227 15.9182 27.7726 15.4932 27.7726Z" fill="black"/>
<path d="M15.4932 27.7726H12.3712C11.9461 27.7726 11.6021 27.4227 11.6021 26.9925V25.2437C11.6021 24.8126 11.9461 24.4636 12.3712 24.4636H15.4932C15.9182 24.4636 16.2623 24.8126 16.2623 25.2437V26.9925C16.2623 27.4227 15.9182 27.7726 15.4932 27.7726Z" stroke="black" stroke-miterlimit="10"/>
<path d="M29.4739 27.7726H26.3519C25.9268 27.7726 25.5828 27.4227 25.5828 26.9925V25.2437C25.5828 24.8126 25.9268 24.4636 26.3519 24.4636H29.4739C29.898 24.4636 30.243 24.8126 30.243 25.2437V26.9925C30.243 27.4227 29.898 27.7726 29.4739 27.7726Z" fill="black"/>
<path d="M29.4739 27.7726H26.3519C25.9268 27.7726 25.5828 27.4227 25.5828 26.9925V25.2437C25.5828 24.8126 25.9268 24.4636 26.3519 24.4636H29.4739C29.898 24.4636 30.243 24.8126 30.243 25.2437V26.9925C30.243 27.4227 29.898 27.7726 29.4739 27.7726Z" stroke="black" stroke-miterlimit="10"/>
<path d="M22.4835 27.7726H19.3615C18.9365 27.7726 18.5924 27.4227 18.5924 26.9925V25.2437C18.5924 24.8126 18.9365 24.4636 19.3615 24.4636H22.4835C22.9086 24.4636 23.2526 24.8126 23.2526 25.2437V26.9925C23.2526 27.4227 22.9086 27.7726 22.4835 27.7726Z" fill="black"/>
<path d="M22.4835 27.7726H19.3615C18.9365 27.7726 18.5924 27.4227 18.5924 26.9925V25.2437C18.5924 24.8126 18.9365 24.4636 19.3615 24.4636H22.4835C22.9086 24.4636 23.2526 24.8126 23.2526 25.2437V26.9925C23.2526 27.4227 22.9086 27.7726 22.4835 27.7726Z" stroke="black" stroke-miterlimit="10"/>
<path d="M26.3482 23.4563L35.6724 27.2039C35.7488 27.2335 36.2522 27.4366 36.4633 28.0072C36.6818 28.5944 36.4142 29.0976 36.3759 29.1668C35.7898 29.6423 35.2027 30.1188 34.6165 30.5943C34.5564 30.6589 34.3671 30.8823 34.3526 31.2193C34.3435 31.4215 34.4017 31.5794 34.4399 31.6653C35.2027 32.6172 35.9654 33.5691 36.7273 34.5201C36.7965 34.606 36.953 34.822 36.9912 35.1452C37.0267 35.4388 36.9457 35.6678 36.9039 35.7693C36.1994 36.4239 35.4958 37.0785 34.7922 37.7322C34.7558 37.7719 34.5337 38 34.1769 38C34.1232 38 33.8073 37.9954 33.5607 37.7322C32.6223 36.543 31.6838 35.3529 30.7463 34.1637C30.7163 34.1406 30.6207 34.0742 30.4824 34.0742C30.4451 34.0742 30.3295 34.0788 30.2184 34.1637C29.6322 34.6983 29.0452 35.2347 28.459 35.7693C28.3361 35.8256 27.9557 35.978 27.4914 35.8589C26.8507 35.6936 26.5667 35.1415 26.5239 35.0556C26.0542 31.5462 25.5855 28.0367 25.1167 24.5264C25.1277 24.4405 25.1877 24.0241 25.5564 23.724C25.8877 23.4544 26.2508 23.4535 26.3482 23.4563Z" fill="#DF5F4B"/>
<path d="M26.3482 23.4563L35.6724 27.2039C35.7488 27.2335 36.2522 27.4366 36.4633 28.0072C36.6818 28.5944 36.4142 29.0976 36.3759 29.1668C35.7898 29.6423 35.2027 30.1188 34.6165 30.5943C34.5564 30.6589 34.3671 30.8823 34.3526 31.2193C34.3435 31.4215 34.4017 31.5794 34.4399 31.6653C35.2027 32.6172 35.9654 33.5691 36.7273 34.5201C36.7965 34.606 36.953 34.822 36.9912 35.1452C37.0267 35.4388 36.9457 35.6678 36.9039 35.7693C36.1994 36.4239 35.4958 37.0786 34.7922 37.7322C34.7558 37.7719 34.5337 38 34.1769 38C34.1232 38 33.8073 37.9954 33.5607 37.7322C32.6223 36.543 31.6838 35.3529 30.7463 34.1637C30.7163 34.1406 30.6207 34.0742 30.4824 34.0742C30.4451 34.0742 30.3295 34.0788 30.2184 34.1637C29.6322 34.6983 29.0452 35.2347 28.459 35.7693C28.3361 35.8256 27.9557 35.978 27.4914 35.8589C26.8507 35.6936 26.5667 35.1415 26.5239 35.0556C26.0542 31.5462 25.5855 28.0367 25.1167 24.5264C25.1277 24.4405 25.1877 24.0241 25.5564 23.724C25.8877 23.4544 26.2508 23.4535 26.3482 23.4563Z" stroke="#DE5F4B" stroke-width="4" stroke-miterlimit="10"/>
</svg>
