<svg width="35" height="35" viewBox="0 0 35 35" fill="none" xmlns="http://www.w3.org/2000/svg">
<path d="M32.6971 3.96037H25.7596V1.31752C25.7596 1.13582 25.6109 0.98716 25.4292 0.98716H23.1167C22.935 0.98716 22.7864 1.13582 22.7864 1.31752V3.96037H12.2149V1.31752C12.2149 1.13582 12.0663 0.98716 11.8846 0.98716H9.57207C9.39038 0.98716 9.24172 1.13582 9.24172 1.31752V3.96037H2.30422C1.5733 3.96037 0.982788 4.55089 0.982788 5.2818V32.7014C0.982788 33.4324 1.5733 34.0229 2.30422 34.0229H32.6971C33.428 34.0229 34.0185 33.4324 34.0185 32.7014V5.2818C34.0185 4.55089 33.428 3.96037 32.6971 3.96037ZM31.0453 31.0497H3.956V15.3577H31.0453V31.0497ZM3.956 12.5497V6.93359H9.24172V8.91573C9.24172 9.09743 9.39038 9.24609 9.57207 9.24609H11.8846C12.0663 9.24609 12.2149 9.09743 12.2149 8.91573V6.93359H22.7864V8.91573C22.7864 9.09743 22.935 9.24609 23.1167 9.24609H25.4292C25.6109 9.24609 25.7596 9.09743 25.7596 8.91573V6.93359H31.0453V12.5497H3.956Z" fill="#002642" fill-opacity="0.8"/>
</svg>
