<svg width="38" height="42" viewBox="0 0 38 42" fill="none" xmlns="http://www.w3.org/2000/svg">
<path d="M22.5 22.8335H25.25V28.0035L29.7233 30.5885L28.3483 32.9718L22.5 29.5985V22.8335ZM29.8333 13.6668H4.16667V33.8335H12.7283C11.94 32.1652 11.5 30.2952 11.5 28.3335C11.5 24.9299 12.8521 21.6657 15.2588 19.259C17.6655 16.8522 20.9297 15.5002 24.3333 15.5002C26.295 15.5002 28.165 15.9402 29.8333 16.7285V13.6668ZM4.16667 37.5002C3.19421 37.5002 2.26157 37.1139 1.57394 36.4262C0.886308 35.7386 0.5 34.806 0.5 33.8335V8.16683C0.5 6.13183 2.13167 4.50016 4.16667 4.50016H6V0.833496H9.66667V4.50016H24.3333V0.833496H28V4.50016H29.8333C30.8058 4.50016 31.7384 4.88647 32.4261 5.5741C33.1137 6.26174 33.5 7.19437 33.5 8.16683V19.3502C35.7733 21.6602 37.1667 24.8318 37.1667 28.3335C37.1667 31.7371 35.8146 35.0013 33.4079 37.408C31.0012 39.8147 27.7369 41.1668 24.3333 41.1668C20.8317 41.1668 17.66 39.7735 15.35 37.5002H4.16667ZM24.3333 19.4418C21.9751 19.4418 19.7135 20.3786 18.046 22.0461C16.3785 23.7136 15.4417 25.9753 15.4417 28.3335C15.4417 33.2468 19.42 37.2252 24.3333 37.2252C25.501 37.2252 26.6572 36.9952 27.736 36.5483C28.8148 36.1015 29.795 35.4465 30.6207 34.6209C31.4464 33.7952 32.1013 32.815 32.5482 31.7362C32.995 30.6574 33.225 29.5012 33.225 28.3335C33.225 23.4202 29.2467 19.4418 24.3333 19.4418Z" fill="#72BA75"/>
</svg>
