<svg width="31" height="35" viewBox="0 0 31 35" fill="none" xmlns="http://www.w3.org/2000/svg">
<path d="M9.7451 1.37255C9.7451 0.614511 9.13059 0 8.37255 0C7.61451 0 7 0.614511 7 1.37255V6.86275C7 7.62078 7.61451 8.23529 8.37255 8.23529C9.13059 8.23529 9.7451 7.62078 9.7451 6.86275V1.37255Z" fill="#002642"/>
<path d="M26.051 4.66663H24.5686V6.8627C24.5686 7.51795 24.3083 8.14635 23.845 8.60967C23.3817 9.073 22.7533 9.33329 22.098 9.33329C21.4428 9.33329 20.8144 9.073 20.3511 8.60967C19.8877 8.14635 19.6275 7.51795 19.6275 6.8627V4.66663H10.8431V6.8627C10.8431 7.51795 10.5828 8.14635 10.1195 8.60967C9.6562 9.073 9.02779 9.33329 8.37255 9.33329C7.71731 9.33329 7.08891 9.073 6.62558 8.60967C6.16226 8.14635 5.90196 7.51795 5.90196 6.8627V4.66663H4.41961C2.05334 4.66663 0.137257 6.91761 0.137257 9.69839V29.8309C0.137257 32.6117 2.05334 34.8627 4.41961 34.8627H26.051C28.4173 34.8627 30.3333 32.6117 30.3333 29.8309V9.69839C30.3333 6.91761 28.4173 4.66663 26.051 4.66663ZM28.9608 29.8309C28.9608 31.8486 27.6541 33.4902 26.051 33.4902H4.41961C2.81647 33.4902 1.50981 31.8431 1.50981 29.8309V16.1054H28.9608V29.8309Z" fill="#002642" stroke="#002642" stroke-miterlimit="10"/>
<path d="M23.4706 1.37255C23.4706 0.614511 22.8561 0 22.098 0C21.34 0 20.7255 0.614511 20.7255 1.37255V6.86275C20.7255 7.62078 21.34 8.23529 22.098 8.23529C22.8561 8.23529 23.4706 7.62078 23.4706 6.86275V1.37255Z" fill="#002642"/>
<path d="M7 19.902H4.52941C4.2262 19.902 3.98039 20.1478 3.98039 20.451V22.9216C3.98039 23.2248 4.2262 23.4706 4.52941 23.4706H7C7.30322 23.4706 7.54902 23.2248 7.54902 22.9216V20.451C7.54902 20.1478 7.30322 19.902 7 19.902Z" fill="#002642" stroke="#002642" stroke-miterlimit="10"/>
<path d="M13.3137 19.902H10.8431C10.5399 19.902 10.2941 20.1478 10.2941 20.451V22.9216C10.2941 23.2248 10.5399 23.4706 10.8431 23.4706H13.3137C13.6169 23.4706 13.8627 23.2248 13.8627 22.9216V20.451C13.8627 20.1478 13.6169 19.902 13.3137 19.902Z" fill="#002642" stroke="#002642" stroke-miterlimit="10"/>
<path d="M19.6275 19.902H17.1569C16.8537 19.902 16.6078 20.1478 16.6078 20.451V22.9216C16.6078 23.2248 16.8537 23.4706 17.1569 23.4706H19.6275C19.9307 23.4706 20.1765 23.2248 20.1765 22.9216V20.451C20.1765 20.1478 19.9307 19.902 19.6275 19.902Z" fill="#002642" stroke="#002642" stroke-miterlimit="10"/>
<path d="M25.9412 19.902H23.4706C23.1674 19.902 22.9216 20.1478 22.9216 20.451V22.9216C22.9216 23.2248 23.1674 23.4706 23.4706 23.4706H25.9412C26.2444 23.4706 26.4902 23.2248 26.4902 22.9216V20.451C26.4902 20.1478 26.2444 19.902 25.9412 19.902Z" fill="#002642" stroke="#002642" stroke-miterlimit="10"/>
<path d="M7 26.4902H4.52941C4.2262 26.4902 3.98039 26.736 3.98039 27.0393V29.5098C3.98039 29.8131 4.2262 30.0589 4.52941 30.0589H7C7.30322 30.0589 7.54902 29.8131 7.54902 29.5098V27.0393C7.54902 26.736 7.30322 26.4902 7 26.4902Z" fill="#002642" stroke="#002642" stroke-miterlimit="10"/>
<path d="M13.3137 26.4902H10.8431C10.5399 26.4902 10.2941 26.736 10.2941 27.0393V29.5098C10.2941 29.8131 10.5399 30.0589 10.8431 30.0589H13.3137C13.6169 30.0589 13.8627 29.8131 13.8627 29.5098V27.0393C13.8627 26.736 13.6169 26.4902 13.3137 26.4902Z" fill="#002642" stroke="#002642" stroke-miterlimit="10"/>
<path d="M19.6275 26.4902H17.1569C16.8537 26.4902 16.6078 26.736 16.6078 27.0393V29.5098C16.6078 29.8131 16.8537 30.0589 17.1569 30.0589H19.6275C19.9307 30.0589 20.1765 29.8131 20.1765 29.5098V27.0393C20.1765 26.736 19.9307 26.4902 19.6275 26.4902Z" fill="#002642" stroke="#002642" stroke-miterlimit="10"/>
<path d="M25.9412 26.4902H23.4706C23.1674 26.4902 22.9216 26.736 22.9216 27.0393V29.5098C22.9216 29.8131 23.1674 30.0589 23.4706 30.0589H25.9412C26.2444 30.0589 26.4902 29.8131 26.4902 29.5098V27.0393C26.4902 26.736 26.2444 26.4902 25.9412 26.4902Z" fill="#002642" stroke="#002642" stroke-miterlimit="10"/>
</svg>
