<svg width="37" height="37" viewBox="0 0 37 37" fill="none" xmlns="http://www.w3.org/2000/svg">
<path d="M4.04688 31.7969C4.04688 32.4364 4.56357 32.9531 5.20312 32.9531H31.7969C32.4364 32.9531 32.9531 32.4364 32.9531 31.7969V16.6211H4.04688V31.7969ZM31.7969 6.64844H25.7266V4.33594C25.7266 4.17695 25.5965 4.04688 25.4375 4.04688H23.4141C23.2551 4.04688 23.125 4.17695 23.125 4.33594V6.64844H13.875V4.33594C13.875 4.17695 13.7449 4.04688 13.5859 4.04688H11.5625C11.4035 4.04688 11.2734 4.17695 11.2734 4.33594V6.64844H5.20312C4.56357 6.64844 4.04688 7.16514 4.04688 7.80469V14.1641H32.9531V7.80469C32.9531 7.16514 32.4364 6.64844 31.7969 6.64844Z" fill="#DE5F4C"/>
</svg>
