<svg width="37" height="37" viewBox="0 0 37 37" fill="none" xmlns="http://www.w3.org/2000/svg">
<path d="M33.697 4.96037H26.7595V2.31752C26.7595 2.13582 26.6109 1.98716 26.4292 1.98716H24.1167C23.935 1.98716 23.7863 2.13582 23.7863 2.31752V4.96037H13.2149V2.31752C13.2149 2.13582 13.0662 1.98716 12.8845 1.98716H10.572C10.3903 1.98716 10.2417 2.13582 10.2417 2.31752V4.96037H3.30419C2.57327 4.96037 1.98276 5.55089 1.98276 6.2818V33.7014C1.98276 34.4324 2.57327 35.0229 3.30419 35.0229H33.697C34.428 35.0229 35.0185 34.4324 35.0185 33.7014V6.2818C35.0185 5.55089 34.428 4.96037 33.697 4.96037ZM32.0453 32.0497H4.95597V16.3577H32.0453V32.0497ZM4.95597 13.5497V7.93359H10.2417V9.91573C10.2417 10.0974 10.3903 10.2461 10.572 10.2461H12.8845C13.0662 10.2461 13.2149 10.0974 13.2149 9.91573V7.93359H23.7863V9.91573C23.7863 10.0974 23.935 10.2461 24.1167 10.2461H26.4292C26.6109 10.2461 26.7595 10.0974 26.7595 9.91573V7.93359H32.0453V13.5497H4.95597Z" fill="#002642" fill-opacity="0.8"/>
</svg>
