<svg width="168" height="168" viewBox="0 0 168 168" fill="none" xmlns="http://www.w3.org/2000/svg">
<path d="M116.331 113.852C120.392 120.194 122.863 127.549 123.441 135.057C123.862 140.5 123.312 146.043 124.487 151.371C125.661 156.699 129.141 162.043 134.467 163.232C141.136 164.719 147.34 159.269 151.107 153.576C162.056 137.037 162.856 112.915 153.06 95.6446C152.035 93.8457 151.092 92.4435 150.492 91.5815" fill="white"/>
<path d="M112.876 115.869C113.554 116.946 114.204 118.046 114.803 119.17C115.097 119.735 115.387 120.304 115.659 120.881C115.778 121.144 115.906 121.403 116.025 121.668C116.122 121.881 116.209 122.09 116.306 122.302C116.131 121.881 116.131 121.884 116.306 122.309C117.259 124.679 118.043 127.106 118.602 129.598C118.88 130.841 119.114 132.093 119.289 133.358C119.177 132.54 119.258 133.161 119.273 133.327C119.314 133.673 119.351 134.02 119.386 134.367C119.458 135.1 119.505 135.841 119.536 136.578C119.679 139.501 119.617 142.43 119.751 145.35C120.017 150.565 120.951 155.943 124.04 160.294C127.126 164.641 131.924 167.842 137.457 167.452C147.884 166.715 154.899 156.705 158.698 147.923C162.553 139.032 164.327 129.314 163.805 119.629C163.24 108.958 160.088 98.3709 153.937 89.564C152.747 87.8526 150.389 86.8939 148.468 88.1306C146.775 89.2267 145.759 91.7626 147.037 93.5989C148.268 95.3634 149.395 97.1997 150.389 99.1079C150.876 100.042 151.332 100.991 151.763 101.953C151.829 102.106 151.979 102.356 152.004 102.506C151.948 102.371 151.891 102.24 151.835 102.106C151.907 102.293 151.988 102.478 152.06 102.665C152.282 103.227 152.5 103.792 152.707 104.364C153.434 106.369 154.034 108.418 154.515 110.494C154.746 111.491 154.956 112.493 155.131 113.499C155.218 114.005 155.306 114.507 155.377 115.016C155.387 115.06 155.53 116.066 155.443 115.401C155.355 114.77 155.505 115.981 155.521 116.091C156.002 120.391 156.018 124.745 155.577 129.051C155.53 129.557 155.499 130.082 155.402 130.585C155.609 129.526 155.409 130.55 155.377 130.744C155.346 130.95 155.315 131.153 155.281 131.356C155.106 132.471 154.899 133.58 154.65 134.682C154.178 136.827 153.587 138.945 152.875 141.019C152.538 142.002 152.219 143.08 151.748 144.004C151.804 143.898 152.091 143.217 151.794 143.889C151.676 144.166 151.557 144.444 151.429 144.719C151.179 145.269 150.917 145.815 150.651 146.356C149.717 148.239 148.661 150.072 147.484 151.815C147.19 152.252 146.878 152.677 146.565 153.098C147.078 152.408 146.647 153.001 146.509 153.173C146.34 153.379 146.165 153.585 145.997 153.788C145.232 154.688 144.413 155.54 143.535 156.327C143.342 156.509 143.135 156.68 142.936 156.852C142.767 156.993 142.183 157.442 142.879 156.921C142.464 157.236 142.039 157.533 141.599 157.814C141.168 158.089 140.721 158.345 140.265 158.582C140.009 158.713 139.721 158.888 139.449 158.973C140.424 158.673 139.449 158.948 139.281 159.007C138.815 159.163 138.337 159.294 137.856 159.394C137.763 159.413 137.666 159.432 137.569 159.45C137.113 159.525 137.179 159.519 137.753 159.432C137.713 159.4 137.266 159.469 137.169 159.472C136.785 159.488 136.026 159.613 135.673 159.429L136.138 159.491C135.929 159.46 135.729 159.422 135.529 159.375C135.251 159.313 134.979 159.241 134.708 159.154C134.617 159.126 134.53 159.094 134.436 159.066C134.027 158.91 134.083 158.941 134.611 159.16C134.489 159.066 134.252 158.994 134.108 158.923C133.652 158.692 133.211 158.426 132.787 158.133C132.746 158.108 132.715 158.079 132.674 158.054C132.324 157.795 132.371 157.833 132.818 158.167C132.652 158.126 132.412 157.82 132.29 157.702C131.868 157.317 131.475 156.905 131.115 156.471C130.909 156.234 130.469 155.959 131.115 156.493C130.947 156.356 130.819 156.081 130.7 155.9C130.403 155.456 130.125 155 129.869 154.532C129.66 154.154 129.285 153.645 129.219 153.22C129.229 153.314 129.541 154.063 129.276 153.364C129.141 152.998 129.004 152.636 128.885 152.264C128.548 151.259 128.31 150.231 128.126 149.191C128.076 148.942 128.039 148.692 127.998 148.442C128.142 149.316 127.957 148.083 127.948 147.998C127.87 147.246 127.814 146.487 127.773 145.728C127.604 142.746 127.676 139.754 127.542 136.768C127.404 133.764 127.03 130.75 126.389 127.811C125.158 122.174 122.872 116.7 119.776 111.834C118.658 110.07 116.172 109.201 114.307 110.401C112.548 111.537 111.677 113.983 112.876 115.869Z" fill="black"/>
<path d="M15.4316 98.3086C1.97153 113.602 1.22496 138.567 13.748 154.638C18.6834 160.978 27.0737 166.187 34.4863 163.083C42.3362 159.797 44.1355 149.679 44.7665 141.19C45.3975 132.702 47.0468 122.602 54.8186 119.136" fill="white"/>
<path d="M12.6047 95.4792C-0.527391 110.516 -2.8202 133.358 6.56658 150.912C8.92186 155.319 12.0518 159.441 16.0002 162.536C20.389 165.978 25.9149 168.61 31.6344 167.876C36.9947 167.183 41.4085 164.113 44.1762 159.491C46.6658 155.328 47.6747 150.509 48.2995 145.759C48.6181 143.345 48.7524 140.919 49.0023 138.495C49.0648 137.877 49.0648 137.177 49.2241 136.578C48.9398 137.649 49.196 136.806 49.2366 136.537C49.2897 136.172 49.349 135.806 49.4115 135.441C49.6146 134.261 49.8613 133.086 50.1675 131.928C50.3299 131.316 50.5079 130.707 50.7079 130.104C50.8484 129.673 51.0202 128.658 51.3545 128.352C51.2889 128.508 51.2233 128.664 51.1577 128.823C51.2295 128.661 51.3014 128.505 51.3763 128.346C51.5232 128.033 51.6793 127.724 51.8418 127.418C52.0823 126.965 52.3447 126.525 52.6227 126.094C52.7633 125.885 52.9101 125.679 53.0538 125.469C53.3068 125.129 53.2506 125.198 52.8851 125.679C52.9913 125.547 53.0975 125.419 53.2068 125.291C53.5879 124.851 53.9971 124.429 54.4345 124.042C54.5094 123.973 54.9999 123.645 55.0092 123.558C54.5313 123.923 54.4657 123.98 54.8093 123.73C54.9499 123.633 55.0904 123.539 55.2341 123.449C55.7464 123.121 56.2837 122.843 56.8397 122.587C58.7452 121.712 59.3637 118.808 58.2735 117.118C57.0053 115.151 54.8437 114.748 52.8039 115.685C43.895 119.767 41.7397 130.547 40.9244 139.314C40.8338 140.291 40.7682 141.269 40.6838 142.249C40.5995 143.245 40.662 144.545 40.3402 145.485C40.6745 144.513 40.3808 145.182 40.3309 145.513C40.2965 145.738 40.259 145.966 40.2215 146.194C40.1434 146.69 40.0529 147.187 39.956 147.683C39.7467 148.754 39.4968 149.816 39.1938 150.866C39.0439 151.381 38.8815 151.893 38.7065 152.402C38.6347 152.608 38.4129 153.579 38.238 153.639C38.3067 153.479 38.3723 153.323 38.4379 153.167C38.3692 153.326 38.2973 153.486 38.2255 153.642C38.1161 153.876 38.0037 154.11 37.885 154.338C37.6538 154.791 37.4071 155.241 37.1384 155.675C36.9541 155.968 36.3231 156.593 36.2888 156.918C36.3263 156.556 36.7792 156.325 36.4481 156.69C36.2825 156.874 36.1263 157.068 35.9577 157.249C35.6172 157.611 35.2486 157.936 34.8862 158.273C34.274 158.845 35.4797 157.905 35.0143 158.189C34.7644 158.339 34.5364 158.529 34.2896 158.686C33.8554 158.957 33.4025 159.185 32.9464 159.419C32.1748 159.816 33.5805 159.22 32.9995 159.398C32.7621 159.469 32.5278 159.566 32.2904 159.638C32.0093 159.722 31.7219 159.8 31.4314 159.863C31.2034 159.916 30.2881 160.219 31.3439 159.919C30.8191 160.069 30.1569 160.016 29.6103 160.007C29.3197 160.003 29.0292 159.972 28.7419 159.963C27.7516 159.925 29.6196 160.153 28.6482 159.957C28.164 159.86 27.686 159.769 27.2112 159.641C26.6302 159.485 26.0711 159.282 25.5057 159.085C24.5498 158.748 26.2585 159.469 25.3433 159.013C25.0684 158.879 24.7904 158.754 24.5186 158.611C23.4565 158.067 22.4413 157.43 21.4761 156.731C21.298 156.602 20.7295 156.147 21.4042 156.69C21.1575 156.493 20.9138 156.293 20.6733 156.09C20.1516 155.647 19.6487 155.188 19.1583 154.71C18.3024 153.87 17.5215 152.977 16.7624 152.052C16.6156 151.874 16.2407 151.556 16.8499 152.168C16.6562 151.974 16.4969 151.696 16.3376 151.478C15.9471 150.934 15.5691 150.385 15.2068 149.826C14.0198 147.989 12.9827 146.059 12.0987 144.061C12.0737 144.004 11.727 143.133 11.9612 143.751C12.1986 144.373 11.8644 143.495 11.8425 143.439C11.6333 142.908 11.4333 142.374 11.2459 141.837C10.8679 140.763 10.5337 139.67 10.2401 138.567C9.96831 137.555 9.73403 136.534 9.53723 135.51C9.44665 135.041 9.36231 134.573 9.28734 134.101C9.2436 133.839 9.14677 133.517 9.15614 133.255C9.11241 134.382 9.15302 133.192 9.11866 132.899C8.87501 130.716 8.78129 128.517 8.84064 126.325C8.87501 125.085 8.95622 123.845 9.08742 122.612C9.11553 122.328 9.15302 122.043 9.18425 121.759C9.28734 120.85 9.05931 122.515 9.19363 121.687C9.30296 121.028 9.40604 120.366 9.53099 119.711C9.99642 117.281 10.6586 114.889 11.5114 112.565C11.6988 112.053 11.8582 111.444 12.1299 110.969C11.6145 111.872 12.0799 111.094 12.1768 110.876C12.3298 110.529 12.4891 110.185 12.6516 109.842C13.1795 108.727 13.7543 107.634 14.379 106.569C15.0037 105.504 15.6785 104.467 16.3938 103.458C16.5063 103.305 16.6187 103.152 16.7312 102.999C16.8436 102.843 16.9561 102.693 17.0716 102.54C16.7374 102.971 16.703 103.015 16.9717 102.675C17.3965 102.153 17.8182 101.638 18.2587 101.135C19.6331 99.5578 19.9236 97.0095 18.2587 95.4792C16.753 94.0957 14.0729 93.799 12.6047 95.4792Z" fill="black"/>
<path d="M150.964 56.8102C152.732 43.9466 153.659 30.9643 153.716 17.9758C153.731 15.7491 153.706 13.4662 152.922 11.3769C152.138 9.29072 150.445 7.40756 148.246 7.02967C145.725 6.59558 143.342 8.16332 141.271 9.64987C134.211 14.7122 127.148 19.7746 120.095 24.837L118.33 25.9457C106.863 19.9651 98.0977 18.9033 83.0664 18.9033C74.2668 18.9033 65.8453 20.1119 58.0735 22.3074L39.4155 5.93975C38.291 4.95288 36.9915 3.90356 35.4952 4.00037C34.0396 4.09406 32.8994 5.25581 31.9529 6.37072C22.1507 17.9258 20.9356 30.6052 21.4791 45.7517C15.6034 53.478 12.2329 62.4098 12.2329 71.9349C12.2329 101.225 43.9449 124.97 83.0664 124.97C122.185 124.97 153.9 101.225 153.9 71.9349C153.9 66.6789 152.86 61.6072 150.964 56.8102Z" fill="white"/>
<path d="M154.818 57.8752C156.627 44.6493 157.664 31.3297 157.714 17.9758C157.73 14.6623 157.52 11.2645 155.89 8.29763C154.259 5.33391 151.317 3.2415 147.918 2.98542C144.551 2.73558 141.561 4.54692 138.928 6.43008C136.257 8.34448 133.58 10.2651 130.909 12.1826C126.077 15.646 121.344 19.3281 116.315 22.4948H120.351C116.859 20.6803 113.22 19.0813 109.462 17.9008C105.863 16.7703 102.18 16.0989 98.4476 15.6336C94.5898 15.1526 90.6977 14.9902 86.8149 14.9309C82.1731 14.8622 77.5437 14.9496 72.9268 15.4462C67.5447 16.0271 62.2187 16.9952 57.0084 18.4536C58.3047 18.7971 59.6042 19.1407 60.9005 19.4811L47.278 7.5325C44.9602 5.49943 42.7142 3.19778 40.159 1.4614C38.8033 0.540113 37.154 -0.0470101 35.4953 0.00295783C33.4555 0.0654178 31.6969 1.04604 30.2194 2.38268C28.2577 4.15967 26.6552 6.53939 25.2152 8.7411C23.9407 10.6898 22.8349 12.7417 21.904 14.8747C19.8705 19.5435 18.6678 24.3436 18.0087 29.3841C17.2997 34.8119 17.2872 40.2896 17.4808 45.7517C17.662 45.0772 17.8432 44.4057 18.0244 43.7343C11.9144 51.8291 8.23462 61.7415 8.23462 71.938C8.23462 79.1928 10.0932 86.3101 13.3638 92.7653C20.4265 106.703 33.721 116.447 47.8965 122.284C64.3616 129.067 82.9259 130.494 100.391 127.421C116.218 124.639 131.9 117.568 143.198 105.941C148.412 100.582 152.547 94.2924 155.156 87.2813C158.026 79.5956 158.576 71.1698 157.002 63.1374C156.499 60.6109 155.755 58.1469 154.818 55.7484C154.05 53.8091 152.101 52.2444 149.902 52.9565C148.012 53.5686 146.284 55.789 147.103 57.8752C147.934 59.9863 148.611 62.1506 149.102 64.3648C149.324 65.3829 149.517 66.4103 149.652 67.4409C149.549 66.6477 149.652 67.4628 149.667 67.6627C149.702 67.9687 149.733 68.2748 149.764 68.5839C149.811 69.2023 149.852 69.8207 149.877 70.439C149.933 72.0473 149.902 73.6588 149.764 75.264C149.733 75.6169 149.702 75.9698 149.661 76.3227C149.63 76.6631 149.364 77.7999 149.645 76.5445C149.492 77.2284 149.43 77.9373 149.292 78.6275C149.011 80.0453 148.661 81.4476 148.237 82.8279C148.03 83.4994 147.806 84.1646 147.565 84.8266C147.446 85.1577 147.324 85.4856 147.196 85.8135C147.062 86.1477 146.478 87.2438 147.062 86.1633C146.39 87.4094 145.878 88.7429 145.197 89.989C144.494 91.2881 143.72 92.5498 142.895 93.7709C142.511 94.3424 142.12 94.9014 141.711 95.4573C141.592 95.6197 141.464 95.7821 141.343 95.9445C141.255 96.0663 140.911 96.5035 141.286 96.0257C141.711 95.4792 141.208 96.1225 141.152 96.1975C140.999 96.3911 140.84 96.5816 140.687 96.7721C139.743 97.9245 138.753 99.0363 137.722 100.107C136.666 101.201 135.57 102.253 134.436 103.262C133.858 103.774 133.274 104.274 132.674 104.764C132.381 105.011 132.074 105.254 131.771 105.498C131.637 105.604 131.5 105.71 131.365 105.819C131.084 106.044 132.074 105.289 131.34 105.829C128.726 107.768 126.014 109.548 123.169 111.129C121.679 111.953 120.17 112.727 118.624 113.449C117.905 113.786 117.187 114.114 116.459 114.43C116.281 114.501 116.115 114.583 115.937 114.651C116.859 114.298 116.209 114.536 115.978 114.629C115.497 114.826 115.019 115.02 114.532 115.207C111.277 116.469 107.95 117.518 104.564 118.371C102.777 118.82 100.972 119.214 99.1567 119.551C98.3133 119.707 97.4668 119.854 96.6171 119.985C96.1142 120.067 95.6113 120.138 95.1053 120.21C94.8991 120.241 94.34 120.36 95.2583 120.191C94.9553 120.245 94.6461 120.27 94.3399 120.304C86.7618 121.213 79.0618 121.2 71.4837 120.27C71.3993 120.257 70.8839 120.216 70.8746 120.191C70.9027 120.263 71.6617 120.304 71.0245 120.21C70.5216 120.138 70.0155 120.067 69.5126 119.985C68.6161 119.845 67.7196 119.692 66.8262 119.523C65.0113 119.183 63.2121 118.786 61.4253 118.333C57.9986 117.465 54.6281 116.394 51.3388 115.104C50.9421 114.948 50.5454 114.789 50.1518 114.629C50.0206 114.573 49.4427 114.342 49.9769 114.558C50.5954 114.807 49.7332 114.455 49.677 114.43C48.9054 114.095 48.1401 113.749 47.3811 113.39C45.8442 112.665 44.3292 111.891 42.8454 111.063C40.0028 109.48 37.2915 107.693 34.6832 105.751C34.1209 105.329 34.8019 105.869 34.8737 105.897C34.6925 105.819 34.5145 105.62 34.3614 105.498C34.0553 105.254 33.7554 105.011 33.4555 104.764C32.8277 104.245 32.2092 103.718 31.6032 103.177C30.438 102.137 29.3166 101.054 28.2389 99.9263C27.2112 98.852 26.2272 97.734 25.2901 96.5816C25.0902 96.3349 24.909 96.032 24.681 95.8133C25.5213 96.6222 24.6185 95.7228 24.4217 95.4573C23.9907 94.8702 23.5752 94.2768 23.1691 93.671C22.3476 92.4468 21.5823 91.1819 20.8763 89.8859C20.5546 89.2957 20.2484 88.6992 19.9548 88.0933C19.783 87.7404 19.6143 87.3844 19.4519 87.0252C19.3176 86.7348 18.8865 85.4918 19.2895 86.6848C18.3867 83.9959 17.3871 81.432 16.8373 78.6275C16.703 77.9373 16.6405 77.2284 16.4875 76.5445C16.7655 77.7999 16.5062 76.6663 16.4687 76.3227C16.425 75.9292 16.3906 75.5389 16.3563 75.1454C16.2282 73.5152 16.197 71.8756 16.2657 70.2423C16.3094 69.2335 16.4031 68.231 16.5062 67.2254C16.525 67.0412 16.5593 66.4384 16.4937 67.2942C16.5125 67.0755 16.5593 66.8444 16.5937 66.6321C16.6843 66.0855 16.7842 65.539 16.8936 64.9925C17.3028 62.9813 17.8619 61.0044 18.5648 59.0744C18.7366 58.606 18.9209 58.1406 19.102 57.6722C19.1614 57.5192 19.4082 56.9726 19.0864 57.7034C19.177 57.5004 19.2613 57.2943 19.3551 57.0913C19.8142 56.067 20.3109 55.0614 20.8451 54.0776C21.8197 52.2757 22.913 50.5424 24.1094 48.881C24.4842 48.3563 24.8809 47.8879 25.1308 47.2914C25.49 46.4419 25.4682 45.6393 25.4432 44.7524C25.412 43.7686 25.3901 42.7849 25.3776 41.798C25.3526 39.8368 25.3713 37.8787 25.4526 35.9174C25.5307 34.0342 25.6712 32.1511 25.893 30.2773C25.9149 30.1086 25.9867 29.8401 25.968 29.6839C26.0492 30.3554 25.893 30.2055 25.9461 29.8557C26.0148 29.4122 26.0773 28.9719 26.1523 28.5315C26.3085 27.6102 26.4865 26.6921 26.6896 25.777C27.0863 24.0126 27.5829 22.2668 28.1889 20.5616C28.3358 20.1463 28.4888 19.734 28.6512 19.3218C28.7231 19.1376 28.7949 18.9564 28.8699 18.7753C29.1823 17.9977 28.8168 18.9127 28.8106 18.9096C28.745 18.8752 29.982 16.4393 30.0975 16.2144C30.9597 14.5717 31.9343 12.9884 33.0057 11.4737C33.2525 11.1239 33.5086 10.7835 33.7648 10.44C34.3833 9.59992 33.418 10.846 33.8366 10.3463C34.0116 10.1371 34.1802 9.91847 34.3552 9.70611C34.63 9.37194 34.9081 9.04091 35.1986 8.71924C35.3423 8.56309 35.4891 8.40694 35.6421 8.25704C35.7921 8.10713 35.9514 7.96347 36.1138 7.82606C36.0107 7.91038 35.9076 7.99158 35.8077 8.07278C35.9764 7.98221 36.6386 7.81045 36.1482 7.86354C36.042 7.87603 35.1455 7.97909 35.6546 7.99783C36.2263 8.01657 34.7862 7.66991 35.6671 8.02281C35.5047 7.95723 34.983 7.63244 35.5765 8.01657C35.7483 8.12587 35.942 8.2664 36.1232 8.36634C35.5234 8.0353 35.917 8.18833 36.0951 8.34448C36.6074 8.78482 37.1165 9.23141 37.6257 9.678C39.4499 11.2801 41.2773 12.8822 43.1047 14.4843C46.6564 17.601 50.2112 20.7178 53.7628 23.8377C54.2564 24.2686 54.7374 24.7215 55.2435 25.1368C56.4055 26.0831 57.6425 26.5047 59.1356 26.1643C60.2227 25.9145 61.2972 25.5772 62.3812 25.3117C64.5365 24.7933 66.7106 24.353 68.9004 23.9938C69.3783 23.9126 69.8594 23.8377 70.3404 23.7658C70.3092 23.7721 71.4962 23.6003 70.8964 23.6846C70.2998 23.769 71.4931 23.6066 71.4587 23.6128C72.5614 23.4754 73.6672 23.3598 74.773 23.263C77.0876 23.06 79.4054 22.9414 81.7295 22.9101C85.8372 22.8508 89.9667 22.9226 94.0682 23.2099C94.9553 23.2724 95.8456 23.3442 96.7296 23.4348C97.1138 23.4723 97.4949 23.516 97.8791 23.5597C98.0665 23.5816 98.2571 23.6066 98.4476 23.6284C99.3535 23.7315 97.6792 23.5129 98.5039 23.6347C100.188 23.8876 101.859 24.1781 103.517 24.5653C105.157 24.9494 106.782 25.4117 108.381 25.9519C109.134 26.2049 109.877 26.4766 110.611 26.7608C111.011 26.9169 111.411 27.0762 111.811 27.2386C112.517 27.529 111.698 27.2292 111.652 27.173C111.748 27.2917 112.323 27.4666 112.461 27.529C113.282 27.8976 114.107 28.2848 114.916 28.6877C115.291 28.8719 115.659 29.0687 116.034 29.2529C117.49 29.9712 118.849 30.1836 120.351 29.3997C121.304 28.9 122.207 28.2223 123.072 27.6009C126.927 24.837 130.772 22.0763 134.627 19.3156C138.416 16.5986 142.12 13.6286 146.159 11.2863C146.325 11.1895 146.847 11.0365 146.119 11.2832C146.325 11.2114 146.525 11.1333 146.734 11.0709C146.812 11.049 147.253 10.8866 147.365 10.9178C146.637 10.7398 147.046 11.0365 147.431 10.9553C147.924 10.8554 146.684 10.6867 147.468 10.9428C147.534 10.9647 148.012 11.1115 148.012 11.1052C147.821 11.2426 147.34 10.7398 147.837 11.0615C147.965 11.1302 148.084 11.2051 148.205 11.2863C148.446 11.4519 148.365 11.3863 147.965 11.0958C147.996 11.0334 149.068 12.3388 148.646 11.7548C148.324 11.3082 148.683 11.836 148.758 11.9515C148.883 12.1608 148.996 12.3794 149.117 12.5918C149.38 13.0415 149.277 12.5918 149.068 12.4387C149.149 12.4981 149.252 12.9759 149.292 13.107C149.452 13.6629 149.574 14.2376 149.661 14.8153C149.539 13.9721 149.63 14.7622 149.645 14.9746C149.667 15.2682 149.683 15.5617 149.692 15.8584C149.717 16.3269 149.717 16.8016 149.723 17.27C149.723 18.4911 149.708 19.7091 149.692 20.927C149.652 23.3536 149.589 25.7802 149.492 28.2067C149.302 32.9912 148.996 37.7693 148.574 42.5382C148.374 44.8273 148.14 47.1102 147.884 49.3931C147.759 50.5643 147.612 51.7385 147.468 52.9096C147.406 53.4312 147.34 53.9496 147.278 54.4711C147.237 54.7303 147.206 54.9927 147.175 55.2519C147.006 56.5386 147.278 54.4649 147.103 55.7484C146.95 56.8633 146.918 57.8159 147.509 58.8308C147.996 59.6584 148.939 60.4485 149.902 60.6672C151.779 61.095 154.515 60.0894 154.818 57.8752Z" fill="black"/>
<path d="M47.7371 88.5681C49.83 88.5681 51.8323 86.7318 51.7354 84.5707C51.6386 82.4064 49.9799 80.5732 47.7371 80.5732C45.6473 80.5732 43.6419 82.4127 43.7387 84.5707C43.8356 86.738 45.4943 88.5681 47.7371 88.5681Z" fill="black"/>
<path d="M115.553 92.6964C118.689 92.6964 121.694 89.9388 121.551 86.7003C121.407 83.4555 118.914 80.7041 115.553 80.7041C112.42 80.7041 109.412 83.4648 109.555 86.7003C109.699 89.9513 112.189 92.6964 115.553 92.6964Z" fill="black"/>
<path d="M70.8089 103.409C75.9911 102.878 81.2109 102.921 86.3838 103.54C85.2311 101.532 84.0816 99.5268 82.9321 97.5218C82.7852 97.7935 82.6197 98.0496 82.4604 98.315C82.2198 98.6555 82.2917 98.5711 82.679 98.0621C82.5822 98.1808 82.4854 98.2963 82.3792 98.4119C82.1761 98.6398 81.9575 98.8584 81.7325 99.0646C81.617 99.1645 81.4983 99.2644 81.3796 99.3613C81.8887 98.9771 81.9731 98.9053 81.6357 99.1489C81.3733 99.3113 81.1203 99.483 80.8485 99.6298C80.7142 99.7017 80.5768 99.7704 80.4393 99.8359C80.0551 100.011 80.1613 99.9671 80.7579 99.7048C80.5143 99.6954 80.127 99.9171 79.8802 99.9796C79.7334 100.017 79.5834 100.051 79.4335 100.083C79.0055 100.154 79.1336 100.142 79.8115 100.042C79.5303 99.9952 79.1586 100.089 78.8681 100.086C78.7088 100.083 78.5526 100.076 78.3933 100.067C77.9591 100.026 78.0809 100.045 78.7525 100.13C78.4808 100.017 78.1153 100.011 77.8279 99.9328C77.5686 99.8609 77.1875 99.6392 76.9283 99.633C77.5155 99.889 77.6186 99.9296 77.2344 99.7516C77.0907 99.6829 76.9501 99.608 76.8127 99.5299C76.6284 99.4268 76.2098 99.0396 76.013 99.024C76.5034 99.4175 76.5878 99.4799 76.2629 99.2145C76.1442 99.1114 76.0255 99.0052 75.9131 98.8959C75.6819 98.6773 75.4726 98.4431 75.2664 98.2026C73.9076 96.6036 70.9932 96.7005 69.6125 98.2026C68.0507 99.9047 68.1631 102.15 69.6125 103.855C72.0771 106.757 76.2473 108.462 80.0426 108.009C84.1316 107.519 87.8613 105.251 89.8355 101.557C90.5164 100.286 90.5789 98.7929 89.8355 97.5218C89.0577 96.1945 87.83 95.7167 86.3838 95.5449C81.2109 94.9266 75.9911 94.8829 70.8089 95.4138C69.7218 95.5231 68.7785 95.7854 67.9788 96.5818C67.2853 97.2782 66.7637 98.415 66.8105 99.4112C66.898 101.391 68.5786 103.637 70.8089 103.409Z" fill="black"/>
<path d="M75.7819 106.353C78.1559 111.472 83.0039 115.448 88.5079 116.728C94.4898 118.115 100.815 116.409 105.42 112.4C106.229 111.687 106.141 110.298 105.42 109.573C104.611 108.764 103.408 108.861 102.59 109.573C99.0161 112.684 93.8901 113.958 89.2826 112.802C84.8094 111.678 81.1609 108.493 79.2336 104.339C78.7806 103.358 77.3656 103.112 76.4972 103.621C75.4945 104.208 75.3258 105.373 75.7819 106.353Z" fill="black"/>
<path d="M52.7914 107.219C55.4496 112.646 61.5878 116.313 67.6571 115.863C73.8265 115.401 79.1712 111.25 81.3015 105.476C81.6764 104.464 80.8861 103.287 79.9052 103.018C78.7901 102.712 77.8217 103.399 77.4469 104.414C75.9319 108.515 71.7555 111.666 67.3698 111.881C62.6811 112.116 58.2891 109.38 56.2431 105.201C55.7683 104.233 54.3907 103.968 53.5067 104.486C52.5196 105.064 52.3134 106.247 52.7914 107.219Z" fill="black"/>
<path d="M21.0544 148.28C20.2359 153.039 21.2293 157.999 23.9625 162.002C24.328 162.536 25.0152 162.777 25.6025 162.433C26.1335 162.124 26.4022 161.328 26.0336 160.79C23.6783 157.343 22.6568 153.052 23.369 148.917C23.4784 148.28 23.1972 147.624 22.5287 147.443C21.954 147.284 21.1668 147.636 21.0544 148.28Z" fill="black"/>
<path d="M31.7842 146.587C33.2211 151.631 34.6612 156.674 36.0981 161.715C36.5229 163.198 38.8376 162.568 38.4159 161.078C36.9759 156.034 35.5358 150.991 34.0958 145.95C33.6741 144.467 31.3594 145.098 31.7842 146.587Z" fill="black"/>
<path d="M132.515 144.994C132.587 149.81 130.884 154.56 127.692 158.183C126.677 159.338 128.373 161.043 129.397 159.878C132.996 155.781 134.995 150.456 134.914 144.994C134.889 143.451 132.49 143.448 132.515 144.994Z" fill="black"/>
<path d="M141.992 147.846C143.176 153.042 141.927 158.536 138.737 162.786C138.344 163.308 138.656 164.123 139.168 164.429C139.778 164.791 140.424 164.513 140.808 163.998C144.376 159.238 145.622 152.989 144.304 147.209C143.96 145.703 141.639 146.337 141.992 147.846Z" fill="black"/>
<path d="M33.6273 38.2377C32.4965 30.8206 34.1052 23.0818 37.888 16.6328H33.746C36.7791 20.9582 39.8185 25.2773 42.8453 29.6057C43.114 29.993 43.417 30.399 43.6107 30.805C43.6325 30.8456 43.6856 29.8837 43.6388 31.0298C43.6419 30.9112 43.7512 30.73 43.6075 30.9393C43.5232 31.0611 43.267 31.3171 43.0859 31.4452C42.7423 31.6888 42.2581 31.9293 41.9613 32.0604C40.0309 32.913 37.8287 33.7 36.7822 35.8299C36.2137 36.9916 36.4698 38.4251 37.6444 39.1121C38.7002 39.7305 40.3526 39.4182 40.9243 38.2502C41.1679 37.7568 41.1742 37.7536 41.5084 37.5257C41.8989 37.2602 42.3424 37.0572 42.7735 36.8698C43.5732 36.5201 44.7758 36.0953 45.6286 35.5082C48.1088 33.7968 49.1927 31.0267 47.684 28.2566C47.053 27.0917 46.1752 26.0268 45.4162 24.9431C44.5915 23.7689 43.7668 22.5946 42.9453 21.4172C41.2585 19.0157 39.5748 16.6141 37.888 14.2094C36.879 12.7697 34.7143 12.5604 33.746 14.2094C29.2634 21.8513 27.6703 30.7831 29.001 39.515C29.1947 40.7954 30.8097 41.5012 31.9498 41.1889C33.3211 40.8111 33.824 39.5244 33.6273 38.2377Z" fill="black"/>
<path d="M137.394 38.6342C135.673 35.758 133.468 33.1877 130.828 31.1203V34.5119C135.083 29.6494 139.896 25.2928 145.207 21.6046C144.007 20.9144 142.798 20.2242 141.599 19.534C141.521 28.3565 141.449 37.1758 141.377 45.9983C141.352 49.0838 146.15 49.09 146.175 45.9983C146.247 37.1758 146.319 28.3565 146.397 19.534C146.406 17.8164 144.304 16.4048 142.783 17.4635C137.138 21.3828 131.965 25.9455 127.439 31.1203C126.661 32.0041 126.358 33.6718 127.439 34.5119C129.772 36.342 131.731 38.5093 133.243 41.0546C134.826 43.706 138.978 41.295 137.394 38.6342Z" fill="black"/>
<path d="M0.809487 75.2984C11.6644 79.452 22.2163 84.3645 32.3872 89.9796C33.7429 90.726 34.9517 88.6555 33.5992 87.9091C23.244 82.194 12.4953 77.2128 1.44673 72.9874C0.00356766 72.4346 -0.621176 74.7519 0.809487 75.2984Z" fill="black"/>
<path d="M2.18706 92.3092C12.7546 94.8013 23.3222 97.2966 33.8866 99.7887C35.3891 100.145 36.0294 97.8306 34.5238 97.4777L2.8243 89.995C1.32492 89.6421 0.684552 91.9532 2.18706 92.3092Z" fill="black"/>
<path d="M134.867 92.0158C144.432 84.3707 155.443 78.615 167.157 75.0766C168.638 74.6332 168.003 72.3159 166.526 72.7656C154.387 76.4289 143.07 82.4063 133.171 90.32C131.965 91.2819 133.674 92.9714 134.867 92.0158Z" fill="black"/>
<path d="M131.884 102.322C142.408 96.5566 153.762 92.4436 165.533 90.0982C167.045 89.7953 166.404 87.4843 164.895 87.7841C152.932 90.1701 141.368 94.3924 130.669 100.251C129.316 100.991 130.525 103.062 131.884 102.322Z" fill="black"/>
<path d="M140.721 93.1121C138.615 106.222 126.286 115.148 113.173 113.049C100.053 110.951 91.1256 98.621 93.2247 85.5107C95.3238 72.4004 107.653 63.4717 120.77 65.5704C133.883 67.669 142.814 79.9986 140.721 93.1121Z" fill="white"/>
<path d="M140.721 93.112C138.615 106.222 126.286 115.148 113.173 113.049C100.053 110.951 91.1256 98.6209 93.2247 85.5106C95.3238 72.4003 107.653 63.4716 120.77 65.5703C133.883 67.6689 142.814 79.9985 140.721 93.112Z" stroke="#DE5E4D" stroke-width="3" stroke-miterlimit="10"/>
<path d="M135.97 92.3502C134.289 102.84 124.421 109.983 113.932 108.302C103.436 106.622 96.2953 96.7598 97.9728 86.2697C99.6533 75.7795 109.518 68.6404 120.007 70.3174C130.5 71.9976 137.65 81.86 135.97 92.3502Z" stroke="#DE5E4D" stroke-width="3" stroke-miterlimit="10"/>
<path d="M122.519 112.958C124.79 127.583 126.773 134.941 128.46 138.633C128.901 139.591 130.525 142.924 129.141 145.175C128.491 146.237 127.342 146.787 126.711 147.087C126.205 147.324 123.806 148.467 122.041 147.546C120.442 146.712 120.042 144.551 119.864 143.52C119.105 139.042 117.858 128.358 116.562 114.201C118.546 113.789 120.529 113.374 122.519 112.958Z" fill="white"/>
<path d="M122.313 113.255C120.376 113.748 118.521 114.233 116.659 114.651L117.018 114.161C117.377 117.284 117.705 120.413 118.033 123.539C118.361 126.665 118.714 129.788 119.089 132.908C119.473 136.025 119.864 139.148 120.351 142.233C120.479 143.005 120.592 143.789 120.776 144.482C120.97 145.178 121.248 145.834 121.647 146.318C122.057 146.809 122.575 147.074 123.206 147.161C123.847 147.239 124.549 147.133 125.24 146.921C125.583 146.818 125.927 146.687 126.261 146.534C126.605 146.374 126.942 146.215 127.245 146.034C127.854 145.678 128.367 145.222 128.66 144.669C129.269 143.539 129.054 141.987 128.582 140.594C128.348 139.875 128.029 139.22 127.711 138.461C127.389 137.717 127.117 136.962 126.861 136.206C126.349 134.694 125.927 133.164 125.543 131.628C124.784 128.555 124.128 125.466 123.6 122.359C123.328 120.803 123.078 119.248 122.841 117.69L122.503 115.388C122.406 114.698 122.369 114.001 122.313 113.255ZM122.719 112.665C123.078 113.218 123.584 114.02 124.031 114.995L124.19 115.363L124.334 115.65L124.599 116.203L125.127 117.302C125.846 118.767 126.502 120.232 127.133 121.693C128.404 124.61 129.613 127.499 130.772 130.278C131.387 131.656 131.956 133.014 132.58 134.245C132.899 134.851 133.186 135.453 133.489 135.956L133.73 136.353L134.083 136.987C134.323 137.449 134.57 137.945 134.786 138.483C135.211 139.566 135.595 140.784 135.754 142.327C135.826 143.102 135.842 143.951 135.707 144.903C135.579 145.85 135.289 146.887 134.78 147.883C134.273 148.888 133.586 149.782 132.899 150.456C132.202 151.143 131.509 151.655 130.859 152.061C130.547 152.264 130.238 152.442 129.957 152.592L129.229 152.973C128.654 153.254 128.039 153.498 127.373 153.713C126.046 154.123 124.478 154.494 122.35 154.279C121.288 154.157 120.079 153.832 118.93 153.223C117.777 152.614 116.818 151.746 116.131 150.897C114.738 149.163 114.235 147.586 113.882 146.296C113.723 145.653 113.61 145.032 113.538 144.576L113.388 143.305C113.01 140 112.826 136.837 112.795 133.629C112.707 127.24 113.123 120.847 114.316 114.407L114.763 111.975L116.097 111.99C117.418 112.009 118.689 112.1 119.817 112.218C120.385 112.274 120.895 112.377 121.385 112.449C121.872 112.521 122.319 112.59 122.719 112.665Z" fill="#DE5E4D"/>
<path d="M115.553 92.6964C118.689 92.6964 121.694 89.9388 121.551 86.7003C121.407 83.4555 118.914 80.7041 115.553 80.7041C112.42 80.7041 109.412 83.4648 109.555 86.7003C109.699 89.9513 112.189 92.6964 115.553 92.6964Z" fill="black"/>
</svg>
