<svg width="20" height="20" viewBox="0 0 20 20" fill="none" xmlns="http://www.w3.org/2000/svg">
<rect width="20" height="20" rx="2" fill="#002642"/>
<path d="M15.6287 5.55819C15.5176 5.43244 15.3819 5.33078 15.23 5.25948C15.0781 5.18819 14.9132 5.14876 14.7455 5.14364C14.5778 5.13852 14.4108 5.16781 14.2548 5.22971C14.0989 5.2916 13.9572 5.3848 13.8387 5.50353L11.23 8.11223L8.62127 10.7209L8.18649 11.1557L6.41506 9.38428C6.19273 9.15611 5.89206 9.02087 5.57384 9.00588C5.25561 8.99089 4.94357 9.09728 4.70077 9.30353C4.57502 9.41464 4.47336 9.55032 4.40206 9.70222C4.33076 9.85412 4.29134 10.019 4.28622 10.1867C4.2811 10.3545 4.31039 10.5215 4.37228 10.6774C4.43418 10.8334 4.52737 10.975 4.64611 11.0936L6.56661 13.0191L7.73928 14.1917C7.85227 14.3087 8.00664 14.3768 8.16924 14.3812C8.33184 14.3856 8.48968 14.326 8.60885 14.2153L8.62003 14.2042L10.3592 12.465L12.9679 9.85633L15.543 7.28117C15.7738 7.05879 15.9112 6.75678 15.9271 6.43666C15.943 6.11654 15.8363 5.80239 15.6287 5.55819Z" fill="white"/>
</svg>
