<svg width="17" height="17" viewBox="0 0 17 17" fill="none" xmlns="http://www.w3.org/2000/svg">
<path d="M8.5 16C12.6421 16 16 12.6421 16 8.5C16 4.35786 12.6421 1 8.5 1C4.35786 1 1 4.35786 1 8.5C1 12.6421 4.35786 16 8.5 16Z" fill="#DE5F4C" stroke="#DE5F4C" stroke-width="2" stroke-miterlimit="10"/>
<path d="M12.25 4.69682C12.1516 4.59821 12.0347 4.51998 11.906 4.4666C11.7773 4.41322 11.6394 4.38574 11.5 4.38574C11.3607 4.38574 11.2228 4.41322 11.0941 4.4666C10.9654 4.51998 10.8485 4.59821 10.75 4.69682L8.50005 6.94682L6.25005 4.69682C6.15162 4.59821 6.03472 4.51998 5.90603 4.4666C5.77733 4.41322 5.63937 4.38574 5.50005 4.38574C5.36072 4.38574 5.22276 4.41322 5.09407 4.4666C4.96537 4.51998 4.84847 4.59821 4.75005 4.69682V4.69682C4.65143 4.79525 4.5732 4.91215 4.51982 5.04085C4.46644 5.16954 4.43896 5.3075 4.43896 5.44682C4.43896 5.58615 4.46644 5.72411 4.51982 5.8528C4.5732 5.9815 4.65143 6.0984 4.75005 6.19682L7.00005 8.44682L4.75005 10.6968C4.65143 10.7952 4.5732 10.9122 4.51982 11.0408C4.46644 11.1695 4.43896 11.3075 4.43896 11.4468C4.43896 11.5862 4.46644 11.7241 4.51982 11.8528C4.5732 11.9815 4.65143 12.0984 4.75005 12.1968V12.1968C4.84847 12.2954 4.96537 12.3737 5.09407 12.4271C5.22276 12.4804 5.36072 12.5079 5.50005 12.5079C5.63937 12.5079 5.77733 12.4804 5.90603 12.4271C6.03472 12.3737 6.15162 12.2954 6.25005 12.1968L8.50005 9.94682L10.75 12.1968C10.8485 12.2954 10.9654 12.3737 11.0941 12.4271C11.2228 12.4804 11.3607 12.5079 11.5 12.5079C11.6394 12.5079 11.7773 12.4804 11.906 12.4271C12.0347 12.3737 12.1516 12.2954 12.25 12.1968V12.1968C12.3487 12.0984 12.4269 11.9815 12.4803 11.8528C12.5337 11.7241 12.5611 11.5862 12.5611 11.4468C12.5611 11.3075 12.5337 11.1695 12.4803 11.0408C12.4269 10.9122 12.3487 10.7952 12.25 10.6968L10 8.44682L12.25 6.19682C12.3487 6.0984 12.4269 5.9815 12.4803 5.8528C12.5337 5.72411 12.5611 5.58615 12.5611 5.44682C12.5611 5.3075 12.5337 5.16954 12.4803 5.04085C12.4269 4.91215 12.3487 4.79525 12.25 4.69682V4.69682Z" fill="#FAFAF4"/>
</svg>
