<svg width="18" height="19" viewBox="0 0 18 19" fill="none" xmlns="http://www.w3.org/2000/svg">
<path d="M13.5 4.93571C13.3819 4.81737 13.2416 4.72349 13.0872 4.65943C12.9327 4.59538 12.7672 4.56241 12.6 4.56241C12.4328 4.56241 12.2673 4.59538 12.1128 4.65943C11.9584 4.72349 11.8181 4.81737 11.7 4.93571L9.00001 7.63571L6.30001 4.93571C6.1819 4.81737 6.04161 4.72349 5.88718 4.65943C5.73275 4.59538 5.5672 4.56241 5.40001 4.56241C5.23282 4.56241 5.06727 4.59538 4.91283 4.65943C4.7584 4.72349 4.61812 4.81737 4.50001 4.93571C4.38167 5.05382 4.28779 5.1941 4.22374 5.34853C4.15968 5.50297 4.12671 5.66852 4.12671 5.83571C4.12671 6.0029 4.15968 6.16845 4.22374 6.32288C4.28779 6.47731 4.38167 6.6176 4.50001 6.73571L7.20001 9.43571L4.50001 12.1357C4.38167 12.2538 4.28779 12.3941 4.22374 12.5485C4.15968 12.703 4.12671 12.8685 4.12671 13.0357C4.12671 13.2029 4.15968 13.3684 4.22374 13.5229C4.28779 13.6773 4.38167 13.8176 4.50001 13.9357C4.61812 14.054 4.7584 14.1479 4.91283 14.212C5.06727 14.276 5.23282 14.309 5.40001 14.309C5.5672 14.309 5.73275 14.276 5.88718 14.212C6.04161 14.1479 6.1819 14.054 6.30001 13.9357L9.00001 11.2357L11.7 13.9357C11.8181 14.054 11.9584 14.1479 12.1128 14.212C12.2673 14.276 12.4328 14.309 12.6 14.309C12.7672 14.309 12.9327 14.276 13.0872 14.212C13.2416 14.1479 13.3819 14.054 13.5 13.9357C13.6183 13.8176 13.7122 13.6773 13.7763 13.5229C13.8403 13.3684 13.8733 13.2029 13.8733 13.0357C13.8733 12.8685 13.8403 12.703 13.7763 12.5485C13.7122 12.3941 13.6183 12.2538 13.5 12.1357L10.8 9.43571L13.5 6.73571C13.6183 6.6176 13.7122 6.47731 13.7763 6.32288C13.8403 6.16845 13.8733 6.0029 13.8733 5.83571C13.8733 5.66852 13.8403 5.50297 13.7763 5.34853C13.7122 5.1941 13.6183 5.05382 13.5 4.93571Z" fill="black" fill-opacity="0.65"/>
</svg>
