<svg width="26" height="26" viewBox="0 0 26 26" fill="none" xmlns="http://www.w3.org/2000/svg">
<path d="M12.817 17.3184C12.8387 17.3461 12.8664 17.3686 12.8981 17.384C12.9298 17.3994 12.9645 17.4074 12.9998 17.4074C13.035 17.4074 13.0698 17.3994 13.1015 17.384C13.1331 17.3686 13.1609 17.3461 13.1826 17.3184L16.4326 13.2065C16.5516 13.0556 16.4442 12.8322 16.2498 12.8322H14.0996V3.01257C14.0996 2.88489 13.9951 2.78043 13.8674 2.78043H12.1263C11.9987 2.78043 11.8942 2.88489 11.8942 3.01257V12.8293H9.74978C9.55536 12.8293 9.44799 13.0527 9.56697 13.2036L12.817 17.3184ZM23.6203 16.3027H21.8792C21.7516 16.3027 21.6471 16.4072 21.6471 16.5349V21.0036H4.35246V16.5349C4.35246 16.4072 4.24799 16.3027 4.12031 16.3027H2.37924C2.25156 16.3027 2.1471 16.4072 2.1471 16.5349V22.2804C2.1471 22.794 2.56206 23.209 3.07567 23.209H22.9239C23.4375 23.209 23.8525 22.794 23.8525 22.2804V16.5349C23.8525 16.4072 23.748 16.3027 23.6203 16.3027Z" fill="#DE5F4C"/>
</svg>
