<svg width="17" height="17" viewBox="0 0 17 17" fill="none" xmlns="http://www.w3.org/2000/svg">
<path d="M8.5 16C12.6421 16 16 12.6421 16 8.5C16 4.35786 12.6421 1 8.5 1C4.35786 1 1 4.35786 1 8.5C1 12.6421 4.35786 16 8.5 16Z" fill="#DE5F4C" stroke="#DE5F4C" stroke-width="2" stroke-miterlimit="10"/>
<path d="M12.25 4.69634C12.1516 4.59772 12.0347 4.51949 11.906 4.46611C11.7773 4.41273 11.6394 4.38525 11.5 4.38525C11.3607 4.38525 11.2228 4.41273 11.0941 4.46611C10.9654 4.51949 10.8485 4.59772 10.75 4.69634L8.50005 6.94634L6.25005 4.69634C6.15162 4.59772 6.03472 4.51949 5.90603 4.46611C5.77733 4.41273 5.63937 4.38525 5.50005 4.38525C5.36072 4.38525 5.22276 4.41273 5.09407 4.46611C4.96537 4.51949 4.84847 4.59772 4.75005 4.69634C4.65143 4.79476 4.5732 4.91166 4.51982 5.04036C4.46644 5.16905 4.43896 5.30701 4.43896 5.44634C4.43896 5.58566 4.46644 5.72362 4.51982 5.85231C4.5732 5.98101 4.65143 6.09791 4.75005 6.19634L7.00005 8.44634L4.75005 10.6963C4.65143 10.7948 4.5732 10.9117 4.51982 11.0404C4.46644 11.1691 4.43896 11.307 4.43896 11.4463C4.43896 11.5857 4.46644 11.7236 4.51982 11.8523C4.5732 11.981 4.65143 12.0979 4.75005 12.1963C4.84847 12.2949 4.96537 12.3732 5.09407 12.4266C5.22276 12.4799 5.36072 12.5074 5.50005 12.5074C5.63937 12.5074 5.77733 12.4799 5.90603 12.4266C6.03472 12.3732 6.15162 12.2949 6.25005 12.1963L8.50005 9.94634L10.75 12.1963C10.8485 12.2949 10.9654 12.3732 11.0941 12.4266C11.2228 12.4799 11.3607 12.5074 11.5 12.5074C11.6394 12.5074 11.7773 12.4799 11.906 12.4266C12.0347 12.3732 12.1516 12.2949 12.25 12.1963C12.3487 12.0979 12.4269 11.981 12.4803 11.8523C12.5337 11.7236 12.5611 11.5857 12.5611 11.4463C12.5611 11.307 12.5337 11.1691 12.4803 11.0404C12.4269 10.9117 12.3487 10.7948 12.25 10.6963L10 8.44634L12.25 6.19634C12.3487 6.09791 12.4269 5.98101 12.4803 5.85231C12.5337 5.72362 12.5611 5.58566 12.5611 5.44634C12.5611 5.30701 12.5337 5.16905 12.4803 5.04036C12.4269 4.91166 12.3487 4.79476 12.25 4.69634Z" fill="#FAFAF4"/>
</svg>
