<svg width="17" height="17" viewBox="0 0 17 17" fill="none" xmlns="http://www.w3.org/2000/svg">
<path d="M15.7188 3.25H13.0938V1.60938C13.0938 0.885449 12.5052 0.296875 11.7812 0.296875H5.21875C4.49482 0.296875 3.90625 0.885449 3.90625 1.60938V3.25H1.28125C0.918262 3.25 0.625 3.54326 0.625 3.90625V4.5625C0.625 4.65273 0.698828 4.72656 0.789062 4.72656H2.02773L2.53428 15.4521C2.56709 16.1515 3.14541 16.7031 3.84473 16.7031H13.1553C13.8566 16.7031 14.4329 16.1535 14.4657 15.4521L14.9723 4.72656H16.2109C16.3012 4.72656 16.375 4.65273 16.375 4.5625V3.90625C16.375 3.54326 16.0817 3.25 15.7188 3.25ZM11.6172 3.25H5.38281V1.77344H11.6172V3.25Z" fill="#DE5F4C"/>
</svg>
