<svg id="black_logo" data-name="black logo" xmlns="http://www.w3.org/2000/svg" viewBox="0 0 1190.55 1190.55"><defs><style>.cls-1{stroke:#000;stroke-width:3px;}.cls-1,.cls-2{stroke-miterlimit:10;}.cls-2{fill:#bababa;stroke:#fff;opacity:0.25;}</style></defs><path d="M370.4,963.05V884.51h24.2a26.52,26.52,0,0,1,12.81,2.91,20.38,20.38,0,0,1,8.25,8.08,24.27,24.27,0,0,1,2.87,12,23.89,23.89,0,0,1-2.87,11.87,20.15,20.15,0,0,1-8.23,8,26.64,26.64,0,0,1-12.79,2.88H373v-4.49h21.55a22.08,22.08,0,0,0,10.36-2.26,16,16,0,0,0,6.6-6.35,19.38,19.38,0,0,0,2.3-9.65,19.92,19.92,0,0,0-2.3-9.76,16,16,0,0,0-6.62-6.46,21.81,21.81,0,0,0-10.37-2.3H375.2v74.09Zm32.26-35.59L422,963.05h-5.52l-19.21-35.59Z"/><path d="M447.43,963.05V884.51h4.79v37h47.33v-37h4.79v78.54h-4.79V926H452.22v37.08Z"/><path d="M558.55,963.05H536.77V884.51h23.47q11,0,18.91,4.68a30.65,30.65,0,0,1,12.06,13.4q4.2,8.73,4.16,20.92,0,12.47-4.37,21.31a30.88,30.88,0,0,1-12.54,13.54Q570.24,963.06,558.55,963.05Zm-17-4.44h16.8q10.5,0,17.72-4.2A26.8,26.8,0,0,0,587,942.34q3.71-7.86,3.66-18.83,0-10.82-3.56-18.54a26.5,26.5,0,0,0-10.38-11.87Q569.9,889,560.05,889H541.56Z"/><path d="M623.8,963.05V884.51h43.73V889H628.6v32.56h36.59V926H628.6v32.64h39.85v4.44Z"/><path d="M694,884.51l25.77,72.37h.54l25.78-72.37h5.06l-28.35,78.54h-5.52L689,884.51Z"/><path d="M817.86,904.15a16.75,16.75,0,0,0-6-11.86q-5.35-4.51-13.83-4.52a23.36,23.36,0,0,0-10.16,2.11,17.25,17.25,0,0,0-7,5.75,14.29,14.29,0,0,0-2.54,8.36,12.5,12.5,0,0,0,1.17,5.47,13.64,13.64,0,0,0,3.32,4.33,22,22,0,0,0,5.1,3.32,45.43,45.43,0,0,0,6.52,2.49l8.59,2.53a60.14,60.14,0,0,1,8.15,3.11,27.89,27.89,0,0,1,6.52,4.2,16.68,16.68,0,0,1,5.89,13.21,19.93,19.93,0,0,1-3.2,11.12,21.78,21.78,0,0,1-9.09,7.73,35.38,35.38,0,0,1-27.08.25,21.79,21.79,0,0,1-8.88-7.15A20.36,20.36,0,0,1,771.72,944h4.91a15.42,15.42,0,0,0,3.13,8.42,17.58,17.58,0,0,0,7.3,5.47,29.68,29.68,0,0,0,21.59-.25,18,18,0,0,0,7.56-6,15.27,15.27,0,0,0,2.72-9,12.57,12.57,0,0,0-1.95-7.09,16.39,16.39,0,0,0-5.77-5.1,47.28,47.28,0,0,0-9.46-3.84l-9.17-2.76q-9.2-2.8-14.05-7.63a16.29,16.29,0,0,1-4.85-12,18.55,18.55,0,0,1,3.22-10.76,22.07,22.07,0,0,1,8.76-7.39,28.51,28.51,0,0,1,12.52-2.68,27.23,27.23,0,0,1,12.39,2.7,21.89,21.89,0,0,1,8.52,7.41,21.1,21.1,0,0,1,3.49,10.72Z"/><polygon class="cls-1" points="543.49 484.3 488.9 538.46 547.96 597.61 602.6 543.4 543.49 484.3"/><polygon class="cls-1" points="651.61 494.78 706.2 440.62 647.14 381.47 592.5 435.67 651.61 494.78"/><rect class="cls-2" x="305" y="447.75" width="585.1" height="83.59" transform="translate(-171.43 562.89) rotate(-44.77)"/><path class="cls-1" d="M651.61,494.78q27.28-27.09,54.59-54.16L821.26,555.68l-201,201-54.38-54.37L712.51,555.68Z"/><polygon class="cls-1" points="620.31 354.73 647.14 381.47 592.5 435.67 565.93 409.1 620.31 354.73"/><path class="cls-1" d="M543.49,484.3,488.9,538.46,373.84,423.4l201-201,54.38,54.38L482.59,423.4Z"/><polygon class="cls-1" points="574.79 624.35 547.96 597.61 602.6 543.4 629.17 569.97 574.79 624.35"/></svg>