<svg width="41" height="43" viewBox="0 0 41 43" fill="none" xmlns="http://www.w3.org/2000/svg">
<g clip-path="url(#clip0)">
<path d="M30.7705 20.551C30.7705 29.3192 23.9932 36.4271 15.6329 36.4271C7.27256 36.4271 0.495224 29.3192 0.495224 20.551C0.495224 11.7829 7.27256 4.67537 15.6329 4.67537C23.9932 4.67537 30.7705 11.7829 30.7705 20.551Z" fill="#C1DBDC"/>
<path d="M6.1804 2.94613C6.00832 2.94613 5.83624 2.87749 5.70497 2.73941C5.44203 2.46406 5.44203 2.01752 5.70497 1.74176L7.16861 0.206719C7.43154 -0.0690387 7.85731 -0.0690387 8.11986 0.206719C8.38279 0.482074 8.38279 0.92902 8.11986 1.20437L6.65622 2.73941C6.52456 2.87749 6.35248 2.94613 6.1804 2.94613Z" fill="#4C241D"/>
<path d="M2.76536 6.52816C2.59328 6.52816 2.4212 6.45912 2.28955 6.32144C2.027 6.04568 2.027 5.59914 2.28955 5.32378L3.75357 3.78834C4.01612 3.51299 4.44189 3.51299 4.70483 3.78834C4.96737 4.0641 4.96737 4.51064 4.70483 4.786L3.2408 6.32144C3.10952 6.45912 2.93744 6.52816 2.76536 6.52816Z" fill="#4C241D"/>
<path d="M4.22901 2.94613C4.05693 2.94613 3.88485 2.87749 3.75357 2.73941L2.28955 1.20437C2.027 0.92902 2.027 0.482074 2.28955 0.206719C2.55248 -0.0690387 2.97825 -0.0690387 3.2408 0.206719L4.70483 1.74176C4.96737 2.01752 4.96737 2.46406 4.70483 2.73941C4.57355 2.87749 4.40109 2.94613 4.22901 2.94613Z" fill="#4C241D"/>
<path d="M7.64443 6.52816C7.47235 6.52816 7.29988 6.45912 7.16861 6.32144L5.70497 4.786C5.44203 4.51064 5.44203 4.0641 5.70497 3.78834C5.96751 3.51299 6.39329 3.51299 6.65622 3.78834L8.11986 5.32378C8.38279 5.59914 8.38279 6.04568 8.11986 6.32144C7.98859 6.45912 7.81651 6.52816 7.64443 6.52816Z" fill="#4C241D"/>
<path d="M36.0222 8.32241C34.8777 8.32241 33.9469 7.34615 33.9469 6.14622C33.9469 4.94588 34.8777 3.96963 36.0222 3.96963C37.1671 3.96963 38.098 4.94588 38.098 6.14622C38.098 7.34615 37.1671 8.32241 36.0222 8.32241ZM36.0222 5.38072C35.6196 5.38072 35.2923 5.7239 35.2923 6.14622C35.2923 6.56813 35.6196 6.91132 36.0222 6.91132C36.4253 6.91132 36.7525 6.56813 36.7525 6.14622C36.7525 5.7239 36.4253 5.38072 36.0222 5.38072Z" fill="#4C241D"/>
<path d="M30.8745 2.61789C30.8745 3.14316 30.4683 3.56911 29.9675 3.56911C29.4666 3.56911 29.0605 3.14316 29.0605 2.61789C29.0605 2.09262 29.4666 1.66707 29.9675 1.66707C30.4683 1.66707 30.8745 2.09262 30.8745 2.61789Z" fill="#4C241D"/>
<path d="M20.8515 7.30739C20.6794 7.30739 20.5073 7.23835 20.3757 7.10067C20.1131 6.82532 20.1131 6.37837 20.3757 6.10302L22.3594 4.02333C22.6219 3.74797 23.0477 3.74797 23.3106 4.02333C23.5732 4.29908 23.5732 4.74563 23.3106 5.02098L21.3269 7.10067C21.1956 7.23835 21.0235 7.30739 20.8515 7.30739Z" fill="#4C241D"/>
<path d="M22.8348 7.30739C22.6627 7.30739 22.4907 7.23835 22.3594 7.10067L20.3757 5.02098C20.1131 4.74563 20.1131 4.29908 20.3757 4.02333C20.6386 3.74797 21.0644 3.74797 21.3269 4.02333L23.3106 6.10302C23.5732 6.37837 23.5732 6.82532 23.3106 7.10067C23.1794 7.23835 23.0073 7.30739 22.8348 7.30739Z" fill="#4C241D"/>
<path d="M30.496 41.3209C26.3815 42.1894 21.2619 42.7013 15.8646 41.8728C5.81815 40.3309 4.62783 38.9913 4.12545 37.0598C3.77436 35.7117 3.804 34.2832 4.16972 32.9396C4.4981 31.7344 5.05668 30.016 6.00678 27.657C6.92647 25.3742 7.16399 22.8524 6.66469 20.4303L5.40739 14.3313C5.15061 13.0854 5.86781 11.8467 7.04003 11.5116C7.86309 11.2762 8.74274 11.5411 9.32134 12.1984L10.9933 14.098C11.6015 14.7892 12.6424 14.7892 13.2503 14.098L14.883 12.2432C15.5028 11.539 16.3955 11.1712 17.3067 11.2447L18.5278 11.3432C19.409 11.4143 20.2151 11.8915 20.7291 12.6457C21.1714 13.2953 21.9725 13.5562 22.6882 13.2832L23.4142 13.0063C24.3816 12.6376 25.4395 12.6227 26.4162 12.9639C27.2635 13.2598 28.0092 13.8105 28.5608 14.5469L29.9059 16.3424C30.6704 17.3627 31.9043 17.8641 33.1242 17.6509L34.4951 17.4115C35.886 17.1685 37.2899 17.7583 38.1361 18.9413C39.0092 20.1626 39.1355 21.8018 38.4602 23.1544L36.9943 26.0892C36.4384 27.2019 36.2636 28.481 36.4981 29.7128C36.6694 30.61 37.0513 31.4477 37.6098 32.1506L39.1778 34.1242C39.6301 34.693 39.8777 35.4101 39.8777 36.151C39.8777 37.468 39.1012 38.6518 37.9247 39.1128C37.4147 39.3131 36.8126 39.5368 36.1293 39.7701" fill="#BD53B5"/>
<path d="M21.4947 43.0001C19.5434 43.0001 17.6308 42.8572 15.7676 42.5705C5.98676 41.0698 4.13391 39.7717 3.476 37.2455C3.09912 35.7973 3.11529 34.2412 3.52259 32.7458C3.93411 31.2374 4.56161 29.433 5.38736 27.3824C6.26239 25.2099 6.47682 22.858 6.00677 20.5793L4.74947 14.4799C4.41763 12.8674 5.34656 11.2645 6.86294 10.8305C7.93238 10.5232 9.06302 10.8648 9.81563 11.7195L11.4875 13.6191C11.6531 13.8073 11.8783 13.9106 12.122 13.9106C12.366 13.9106 12.5905 13.8073 12.7556 13.6199L14.389 11.7643C15.1524 10.8959 16.2376 10.4501 17.3587 10.541L18.5798 10.6395C19.6623 10.7271 20.6455 11.3085 21.2765 12.2355C21.5425 12.6255 22.0279 12.7838 22.4583 12.6199L23.184 12.3429C24.29 11.9222 25.5138 11.904 26.6287 12.2949C27.6038 12.636 28.4546 13.2638 29.0894 14.1105L30.4348 15.9064C31.0473 16.7243 32.034 17.1293 33.0137 16.9549L34.3834 16.7155C36.0261 16.4248 37.6726 17.1176 38.6739 18.5186C39.6967 19.9491 39.8465 21.8971 39.0558 23.4818L37.5898 26.4167C37.1074 27.3828 36.9538 28.5044 37.1575 29.5752C37.3069 30.3548 37.6418 31.0892 38.1268 31.6989L39.6948 33.6724C40.2461 34.3664 40.5502 35.247 40.5502 36.151C40.5502 37.7579 39.5897 39.2138 38.1603 39.7742C37.6418 39.9772 37.0312 40.205 36.3375 40.442C35.9876 40.5631 35.6049 40.3604 35.4894 39.9894C35.3743 39.6191 35.5676 39.221 35.921 39.0995C36.5939 38.8694 37.1871 38.6489 37.6895 38.4527C38.5957 38.097 39.2047 37.1724 39.2047 36.151C39.2047 35.5764 39.0119 35.0176 38.6616 34.5768L37.0924 32.6028C36.4653 31.8127 36.0315 30.8619 35.8382 29.8517C35.5745 28.4653 35.7732 27.0126 36.398 25.7618L37.8639 22.8274C38.4159 21.7219 38.3112 20.3629 37.5979 19.3648C36.8988 18.389 35.7554 17.9045 34.6052 18.1072L33.2351 18.347C31.7695 18.6018 30.2939 18.0018 29.3773 16.7784L28.0315 14.9826C27.5599 14.3536 26.9278 13.8864 26.2033 13.6329C25.3748 13.3426 24.4648 13.3567 23.644 13.6688L22.9184 13.9458C21.924 14.3265 20.798 13.9595 20.1816 13.0555C19.782 12.4697 19.1607 12.1019 18.4766 12.0466L17.2547 11.948C16.5502 11.8915 15.8604 12.1725 15.3776 12.7212L13.7442 14.5768C13.3281 15.0504 12.7371 15.3217 12.1227 15.3217C12.122 15.3217 12.122 15.3217 12.122 15.3217C11.5076 15.3217 10.9159 15.0504 10.4993 14.5768L8.82704 12.6772C8.41666 12.2113 7.80033 12.0243 7.21749 12.1919C6.38982 12.4281 5.88397 13.3026 6.06452 14.182L7.3222 20.2813C7.85038 22.8447 7.61016 25.4901 6.62657 27.9311C5.8216 29.9296 5.21336 31.6799 4.81684 33.133C4.47653 34.3809 4.46229 35.6741 4.77411 36.8733C5.1841 38.4499 6.22697 39.6805 15.962 41.1744C20.5023 41.8716 25.3479 41.6875 30.3628 40.6285C30.7255 40.5494 31.0816 40.7989 31.1551 41.1812C31.2282 41.5628 30.993 41.935 30.6281 42.0121C27.5129 42.6706 24.4582 43.0001 21.4947 43.0001Z" fill="#4C241D"/>
<path d="M34.2418 40.3721C33.9065 40.4714 33.5585 40.5704 33.1985 40.6685L34.2418 40.3721Z" fill="#BD53B5"/>
<path d="M33.1977 41.3738C32.899 41.3738 32.6264 41.163 32.5475 40.8453C32.454 40.4682 32.6699 40.0834 33.0299 39.9853C33.3844 39.8888 33.7282 39.7911 34.0593 39.6926C34.4188 39.5884 34.7884 39.8065 34.8897 40.1803C34.9905 40.5558 34.7819 40.9454 34.4246 41.0516C34.0843 41.1513 33.7313 41.2519 33.3675 41.3512C33.3109 41.3669 33.2539 41.3738 33.1977 41.3738Z" fill="#4C241D"/>
<path d="M26.156 18.9781C26.156 19.3395 25.8765 19.6322 25.5323 19.6322C25.1877 19.6322 24.9086 19.3395 24.9086 18.9781C24.9086 18.6167 25.1877 18.324 25.5323 18.324C25.8765 18.324 26.156 18.6167 26.156 18.9781Z" fill="#4C241D"/>
<path d="M18.3593 17.9966C18.3593 18.358 18.0802 18.6507 17.7356 18.6507C17.391 18.6507 17.1119 18.358 17.1119 17.9966C17.1119 17.6356 17.391 17.3425 17.7356 17.3425C18.0802 17.3425 18.3593 17.6356 18.3593 17.9966Z" fill="#4C241D"/>
<path d="M25.8533 22.3441C18.9409 22.3441 14.3363 21.0279 14.125 20.9665C13.7669 20.8619 13.5575 20.4731 13.6565 20.0976C13.7558 19.7226 14.1219 19.5029 14.4853 19.6063C14.5396 19.622 20.1039 21.2071 28.0018 20.8894C28.3591 20.8619 28.6855 21.1773 28.6994 21.5673C28.714 21.9565 28.4245 22.2839 28.0527 22.2989C27.2974 22.3304 26.5628 22.3441 25.8533 22.3441Z" fill="#4C241D"/>
</g>
<defs>
<clipPath id="clip0">
<rect width="41" height="43" fill="white"/>
</clipPath>
</defs>
</svg>
