<svg width="33" height="35" viewBox="0 0 33 35" fill="none" xmlns="http://www.w3.org/2000/svg">
<path d="M2.73457 28.5251L4.44798 24.0424L7.21729 26.8117L2.73457 28.5251ZM29.9902 1.50509L29.7533 1.26943C28.9369 0.450485 27.8472 0 26.691 0C25.5336 0 24.4438 0.450485 23.6275 1.26943L3.35822 21.5374C3.32958 21.5673 3.30614 21.5999 3.2814 21.6311C3.26838 21.6467 3.25406 21.6624 3.24234 21.6793C3.19808 21.7444 3.16162 21.8108 3.13428 21.8824C3.13298 21.8837 3.13167 21.8863 3.13037 21.8876L0.0668124 29.9013C-0.0738015 30.2697 0.014733 30.6864 0.293357 30.965C0.484748 31.1564 0.739936 31.2579 1.00163 31.2579C1.12142 31.2579 1.2412 31.2371 1.35838 31.1929L9.37077 28.128C9.37337 28.128 9.37597 28.1267 9.37728 28.1254C9.44758 28.098 9.51529 28.0616 9.57908 28.0173C9.59731 28.0056 9.61163 27.99 9.62856 27.977C9.65981 27.9522 9.69236 27.9301 9.721 27.9014L29.9902 7.63221C30.8105 6.81457 31.2597 5.72611 31.2597 4.56865C31.2597 3.41119 30.8105 2.32404 29.9902 1.50509Z" fill="black"/>
<path d="M32.0001 34.5897H0.999921C0.447881 34.5897 0 34.1418 0 33.5898C0 33.0364 0.447881 32.5898 0.999921 32.5898H32.0001C32.5495 32.5898 33 33.0364 33 33.5898C33 34.1418 32.5495 34.5897 32.0001 34.5897Z" fill="black"/>
</svg>
