<svg width="61" height="55" viewBox="0 0 61 55" fill="none" xmlns="http://www.w3.org/2000/svg">
<g clip-path="url(#clip0)">
<path d="M18.746 47.3968C18.2947 47.3968 17.9107 47.4015 17.5314 47.3968C16.0721 47.3776 15.352 46.3789 15.8369 45.0073C16.4417 43.2965 17.0658 41.5904 17.6803 39.8796C17.7475 39.698 17.7955 39.5116 17.8771 39.2583C17.565 39.2583 17.3106 39.2631 17.061 39.2583C15.9665 39.2297 15.2128 38.618 15.016 37.5618C14.3343 33.8917 13.6622 30.2215 12.9854 26.5561C11.8044 20.1668 10.6187 13.7822 9.4522 7.39285C9.38499 7.02966 9.23138 6.85762 8.90014 6.73337C6.38948 5.76326 3.87881 4.77881 1.37775 3.78959C0.331243 3.37382 -0.182411 2.4515 0.0576143 1.49573C0.355246 0.296233 1.53137 -0.305904 2.7603 0.152867C4.33486 0.745447 5.89983 1.37626 7.46479 1.98795C8.82813 2.52319 10.1915 3.06798 11.5596 3.58409C12.4237 3.90906 12.9038 4.50642 13.067 5.40006C14.2239 11.713 15.3904 18.0211 16.5521 24.3292C17.2002 27.8416 17.8483 31.3589 18.4819 34.8713C18.5492 35.2489 18.7076 35.3779 19.106 35.3779C29.0527 35.3683 38.9993 35.3683 48.9459 35.3731C49.2724 35.3731 49.4788 35.3253 49.5988 34.9478C51.831 27.9754 54.0777 21.0031 56.3243 14.0355C56.3339 14.002 56.3243 13.959 56.3243 13.8443C55.8875 13.8157 55.4458 13.7774 54.9994 13.7583C48.0578 13.4668 41.1163 13.1753 34.1748 12.879C29.8687 12.6974 25.5675 12.5015 21.2662 12.3103C20.0373 12.2577 19.2212 11.4214 19.2644 10.2745C19.3076 9.16581 20.1765 8.3773 21.3814 8.41553C23.3257 8.47766 25.2699 8.57801 27.2141 8.66403C31.3569 8.84563 35.5045 9.032 39.6474 9.20882C46.1136 9.49078 52.5799 9.76317 59.0462 10.0403C60.0735 10.0834 60.6544 10.6855 61 11.5839C61 11.8611 61 12.1383 61 12.4154C60.2559 14.6806 59.5022 16.941 58.7678 19.211C56.8092 25.2754 54.8602 31.3445 52.9064 37.4137C52.4407 38.8617 51.9174 39.2488 50.4005 39.2488C40.9483 39.2488 31.5009 39.2536 22.0487 39.2345C21.5159 39.2345 21.2902 39.3969 21.127 39.8844C20.6662 41.2655 20.1525 42.6322 19.6149 44.1185C19.9269 44.1185 20.1717 44.1185 20.4165 44.1185C30.3632 44.1185 40.3098 44.1185 50.2565 44.1185C50.5157 44.1185 50.7749 44.1137 51.0294 44.1471C51.9175 44.2618 52.5415 44.9548 52.5175 45.7863C52.4935 46.6226 51.8454 47.306 50.9622 47.3681C50.3765 47.4063 49.786 47.3776 49.0708 47.3776" fill="#D57054"/>
<path d="M23.9401 54.9998C25.5866 54.9998 26.9212 53.6711 26.9212 52.0321C26.9212 50.3931 25.5866 49.0645 23.9401 49.0645C22.2937 49.0645 20.959 50.3931 20.959 52.0321C20.959 53.6711 22.2937 54.9998 23.9401 54.9998Z" fill="#D57054"/>
<path d="M45.0239 54.9998C46.6704 54.9998 48.005 53.6711 48.005 52.0321C48.005 50.3931 46.6704 49.0645 45.0239 49.0645C43.3775 49.0645 42.0428 50.3931 42.0428 52.0321C42.0428 53.6711 43.3775 54.9998 45.0239 54.9998Z" fill="#D57054"/>
<path d="M30.0128 21.2371C30.9619 21.2371 31.7313 20.4711 31.7313 19.5263C31.7313 18.5814 30.9619 17.8154 30.0128 17.8154C29.0636 17.8154 28.2942 18.5814 28.2942 19.5263C28.2942 20.4711 29.0636 21.2371 30.0128 21.2371Z" fill="#D57054"/>
<path d="M39.6378 21.0081C40.5869 21.0081 41.3564 20.2421 41.3564 19.2973C41.3564 18.3524 40.5869 17.5864 39.6378 17.5864C38.6886 17.5864 37.9192 18.3524 37.9192 19.2973C37.9192 20.2421 38.6886 21.0081 39.6378 21.0081Z" fill="#D57054"/>
<path d="M29.3407 28.7496C28.6302 28.7496 28.1262 28.2383 28.3518 27.7461C29.0095 26.279 30.7521 23.7271 34.8517 23.7271C38.9753 23.7271 40.6603 26.3076 41.2844 27.77C41.4956 28.2574 41.0011 28.7592 40.3051 28.764H40.1754C39.7338 28.7688 39.3354 28.568 39.1817 28.267C38.6921 27.316 37.3671 25.3566 34.7413 25.3566C32.1154 25.3566 30.8049 27.3064 30.3248 28.2526C30.1712 28.5537 29.7776 28.7496 29.3407 28.7496Z" fill="#D57054"/>
</g>
<defs>
<clipPath id="clip0">
<rect width="61" height="55" fill="white"/>
</clipPath>
</defs>
</svg>
