<svg width="33" height="33" viewBox="0 0 33 33" fill="none" xmlns="http://www.w3.org/2000/svg">
<path d="M15.2127 15.4472H0V9.77995C0 7.24834 1.00568 4.82042 2.7958 3.0303C4.58592 1.24018 7.01384 0.234497 9.54545 0.234497H15.2127V15.4472Z" fill="#DE5F4C"/>
<path d="M33 15.2127H17.7873V0H23.4545C25.9862 0 28.4141 1.00568 30.2042 2.7958C31.9943 4.58592 33 7.01384 33 9.54545V15.2127Z" fill="#DE5F4C"/>
<path d="M15.2127 33H9.54545C7.01384 33 4.58592 31.9943 2.7958 30.2042C1.00568 28.414 0 25.9861 0 23.4545L0 17.7872H15.2127V33Z" fill="#DE5F4C"/>
<path d="M23.22 33H17.5527V17.7872H32.7655V23.4545C32.7655 25.9861 31.7598 28.414 29.9697 30.2042C28.1795 31.9943 25.7516 33 23.22 33Z" fill="#DE5F4C"/>
</svg>
