<svg xmlns="http://www.w3.org/2000/svg" viewBox="0 0 147.33 137"><defs><style>.cls-1{fill:#333;}.cls-2,.cls-3,.cls-6,.cls-8{fill:none;}.cls-2,.cls-3,.cls-4,.cls-7,.cls-8{stroke:#000;}.cls-2,.cls-4,.cls-6{stroke-linecap:round;stroke-linejoin:round;}.cls-2{stroke-width:5px;}.cls-3,.cls-7,.cls-8{stroke-miterlimit:10;}.cls-3{stroke-width:4px;}.cls-4{stroke-width:3px;}.cls-5,.cls-7{fill:#fff;}.cls-6{stroke:#fff;}.cls-7,.cls-8{stroke-width:0.75px;}</style></defs><g id="Layer_2" data-name="Layer 2"><g id="Icon"><path class="cls-1" d="M3.33,103.5l72-24.1L144.16,107,79.88,134.5Z"/><path class="cls-2" d="M2.5,26.6,74.81,2.5l70,26.4V107l-70-28.69L3.33,103.5l77.22,31L144.83,107"/><line class="cls-3" x1="75.29" y1="3.65" x2="75.29" y2="78.74"/><polygon class="cls-4" points="15.6 32.34 56.93 18.57 56.93 48.41 15.6 62.19 15.6 32.34"/><rect class="cls-5" x="34.57" y="93.5" width="5.02" height="17.5" rx="2.51"/><rect class="cls-5" x="51.21" y="93.5" width="5.02" height="17.5" rx="2.51"/><rect class="cls-5" x="38.01" y="101.1" width="15.2" height="2.44"/><rect class="cls-5" x="31.13" y="95.89" width="2.58" height="12.67" rx="1.29"/><rect class="cls-5" x="57.23" y="95.89" width="2.58" height="12.67" rx="1.29"/><rect class="cls-5" x="28.83" y="100.67" width="1.43" height="3.16" rx="0.72"/><rect class="cls-5" x="60.67" y="100.67" width="1.43" height="3.16" rx="0.72"/><path d="M84.49,50.91a3.25,3.25,0,0,0,.2-.77c.1-.72-.08-1.1-1.16-3.67a1.36,1.36,0,0,0-1.55-1,2.57,2.57,0,0,0-2.12,1.15,2.09,2.09,0,0,0-.19,1.16c0,.87.43.91,1.35,2.71.28.55.49,1,1,1.16a1.25,1.25,0,0,0,.58,0L89.9,67.91a7,7,0,0,0-.77.39,5.72,5.72,0,0,0-2.9,3.28,4.45,4.45,0,0,0,.39,2.9c.53,1.11,1.07,1.09,2.51,3.09a4.54,4.54,0,0,1,1,1.93,4.12,4.12,0,0,1-.2,1.93,8.22,8.22,0,0,0,.58,5,7.13,7.13,0,0,0,4.64,3.86,7.75,7.75,0,0,0,3.76-.09c1.69-.34,4.92-1,6.76-3.86.44-.68,1.93-3.24,1.07-5.7-.81-2.31-3.54-4.16-4.25-4.64a5.54,5.54,0,0,1-2.22-2c-.49-.93-.29-1.47-.49-2.6-.07-.4-.62-3.53-2.89-4.64a5.51,5.51,0,0,0-4.54.1Z"/><circle class="cls-6" cx="95.79" cy="77.86" r="2.9"/><line class="cls-6" x1="94.83" y1="84.42" x2="101.39" y2="81.33"/><path d="M80,48.31c-.35.24-.5.24-.58.19s-.06-.32-.2-.39a.34.34,0,0,0-.38.2c0,.11.1.33.38.77.08.12.14.2.2.19s.19-.38.19-.38h0a.32.32,0,0,1,0-.2.5.5,0,0,1,.58-.19"/><path d="M80.73,49.66c-.34.24-.5.24-.58.19s-.06-.32-.19-.38a.33.33,0,0,0-.39.19c0,.11.1.33.39.77.08.12.13.2.19.19s.19-.38.19-.38h0a.32.32,0,0,1,0-.2c.06-.15.3-.24.58-.19"/><path d="M81.48,50.8c-.34.24-.5.25-.58.19s-.06-.32-.19-.38a.33.33,0,0,0-.39.19c0,.11.1.33.39.77.08.13.13.2.19.2s.19-.39.19-.39h0a.29.29,0,0,1,0-.19c.06-.16.3-.25.58-.2"/><path d="M83.55,46.79c.4-.12.5-.25.51-.34s-.22-.25-.19-.39a.36.36,0,0,1,.39-.19c.11,0,.2.28.38.78,0,.14.07.23,0,.27s-.42-.08-.42-.08h0a.3.3,0,0,0-.16-.12c-.16,0-.37.08-.5.34"/><path d="M84.15,48.23c.4-.13.5-.25.51-.34s-.22-.25-.19-.39a.34.34,0,0,1,.39-.19c.11,0,.2.28.38.78,0,.14.07.23,0,.27s-.42-.08-.42-.08h0a.25.25,0,0,0-.16-.12c-.16,0-.37.08-.5.34"/><path d="M84.6,49.52c.4-.12.5-.25.51-.34s-.22-.25-.19-.39a.34.34,0,0,1,.39-.19c.11,0,.2.28.37.78,0,.14.08.23,0,.27s-.43-.08-.43-.08h0a.27.27,0,0,0-.15-.12c-.16-.05-.38.08-.51.34"/><circle class="cls-7" cx="80.83" cy="115" r="9"/><line class="cls-8" x1="74.47" y1="108.81" x2="87.02" y2="121.36"/><path class="cls-8" d="M75.13,121.85A9.26,9.26,0,0,1,88,109.47"/><path class="cls-8" d="M72.33,112.77a4.85,4.85,0,0,1,2.31.83c.25.17,1.14.84,2.14,3.3.89,2.17.62,2.71,1.33,4.13a8.63,8.63,0,0,0,2.47,3"/><path class="cls-8" d="M78.77,106.33a4.35,4.35,0,0,0,.66,2.31A4.22,4.22,0,0,0,80.75,110c1.88,1.29,3.49,1.31,5.28,2a11,11,0,0,1,3.8,2.48"/></g></g></svg>