<svg width="33" height="33" viewBox="0 0 33 33" fill="none" xmlns="http://www.w3.org/2000/svg">
<path d="M15.2127 15.4471H0V9.77983C0 7.24822 1.00568 4.82029 2.7958 3.03017C4.58592 1.24005 7.01384 0.234375 9.54545 0.234375H15.2127V15.4471Z" fill="#002642"/>
<path d="M33 15.2127H17.7873V0H23.4546C25.9862 0 28.4141 1.00568 30.2042 2.7958C31.9943 4.58592 33 7.01384 33 9.54545V15.2127Z" fill="#002642"/>
<path d="M15.2127 32.9998H9.54545C7.01384 32.9998 4.58592 31.9942 2.7958 30.204C1.00568 28.4139 0 25.986 0 23.4544L0 17.7871H15.2127V32.9998Z" fill="#002642"/>
<path d="M23.22 32.9998H17.5527V17.7871H32.7655V23.4544C32.7655 25.986 31.7598 28.4139 29.9697 30.204C28.1795 31.9942 25.7516 32.9998 23.22 32.9998Z" fill="#002642"/>
</svg>
