<svg width="35" height="32" viewBox="0 0 35 32" fill="none" xmlns="http://www.w3.org/2000/svg">
<mask id="path-1-inside-1" fill="white">
<path d="M27.0578 0H7.00461C3.14225 0 0 3.14225 0 7.00461C0 10.8857 3.17492 14.0092 6.96283 14.0092H10.1089V8.52105C10.1089 6.06323 12.1084 4.06367 14.5662 4.06367H14.5759C17.0285 4.06892 19.0237 6.06849 19.0237 8.52105V14.0092H27.0578C30.9202 14.0092 34.0624 10.867 34.0624 7.00461C34.0624 3.14225 30.9202 0 27.0578 0ZM29.04 6.02784L25.0483 10.0195C24.6586 10.4092 24.0267 10.4093 23.637 10.0195L21.6412 8.02368C21.2515 7.63396 21.2515 7.00215 21.6412 6.61242C22.0308 6.2227 22.6627 6.2227 23.0524 6.61242L24.3427 7.9026L27.6288 4.61658C28.0184 4.22686 28.6503 4.22686 29.04 4.61658C29.4297 5.0063 29.4297 5.63819 29.04 6.02784Z"/>
</mask>
<path d="M27.0578 0H7.00461C3.14225 0 0 3.14225 0 7.00461C0 10.8857 3.17492 14.0092 6.96283 14.0092H10.1089V8.52105C10.1089 6.06323 12.1084 4.06367 14.5662 4.06367H14.5759C17.0285 4.06892 19.0237 6.06849 19.0237 8.52105V14.0092H27.0578C30.9202 14.0092 34.0624 10.867 34.0624 7.00461C34.0624 3.14225 30.9202 0 27.0578 0ZM29.04 6.02784L25.0483 10.0195C24.6586 10.4092 24.0267 10.4093 23.637 10.0195L21.6412 8.02368C21.2515 7.63396 21.2515 7.00215 21.6412 6.61242C22.0308 6.2227 22.6627 6.2227 23.0524 6.61242L24.3427 7.9026L27.6288 4.61658C28.0184 4.22686 28.6503 4.22686 29.04 4.61658C29.4297 5.0063 29.4297 5.63819 29.04 6.02784Z" fill="white"/>
<path d="M10.1089 14.0092V16.0092H12.1089V14.0092H10.1089ZM14.5759 4.06367L14.5802 2.06367H14.5759V4.06367ZM19.0237 14.0092H17.0237V16.0092H19.0237V14.0092ZM29.04 6.02784L27.6259 4.61351L27.6258 4.61363L29.04 6.02784ZM25.0483 10.0195L23.6341 8.60531L23.6339 8.60543L25.0483 10.0195ZM23.637 10.0195L25.0514 8.60543L25.0512 8.60531L23.637 10.0195ZM21.6412 6.61242L23.0554 8.02664L23.0555 8.02652L21.6412 6.61242ZM23.0524 6.61242L21.6382 8.02664L21.6383 8.02667L23.0524 6.61242ZM24.3427 7.9026L22.9285 9.31685L24.3427 10.731L25.7569 9.31683L24.3427 7.9026ZM27.6288 4.61658L29.043 6.03081L29.0431 6.03067L27.6288 4.61658ZM29.04 4.61658L30.4544 3.20249L30.4542 3.20237L29.04 4.61658ZM27.0578 -2H7.00461V2H27.0578V-2ZM7.00461 -2C2.03768 -2 -2 2.03768 -2 7.00461H2C2 4.24682 4.24682 2 7.00461 2V-2ZM-2 7.00461C-2 11.992 2.07213 16.0092 6.96283 16.0092V12.0092C4.27771 12.0092 2 9.7793 2 7.00461H-2ZM6.96283 16.0092H10.1089V12.0092H6.96283V16.0092ZM12.1089 14.0092V8.52105H8.10894V14.0092H12.1089ZM12.1089 8.52105C12.1089 7.16775 13.2131 6.06367 14.5662 6.06367V2.06367C11.0038 2.06367 8.10894 4.95872 8.10894 8.52105H12.1089ZM14.5662 6.06367H14.5759V2.06367H14.5662V6.06367ZM14.5716 6.06366C15.9213 6.06656 17.0237 7.17136 17.0237 8.52105H21.0237C21.0237 4.96562 18.1357 2.07129 14.5802 2.06367L14.5716 6.06366ZM17.0237 8.52105V14.0092H21.0237V8.52105H17.0237ZM19.0237 16.0092H27.0578V12.0092H19.0237V16.0092ZM27.0578 16.0092C32.0248 16.0092 36.0624 11.9715 36.0624 7.00461H32.0624C32.0624 9.76242 29.8156 12.0092 27.0578 12.0092V16.0092ZM36.0624 7.00461C36.0624 2.03771 32.0248 -2 27.0578 -2V2C29.8156 2 32.0624 4.2468 32.0624 7.00461H36.0624ZM27.6258 4.61363L23.6341 8.60531L26.4625 11.4337L30.4542 7.44206L27.6258 4.61363ZM23.6339 8.60543C24.0253 8.21403 24.6599 8.21393 25.0514 8.60543L22.2227 11.4336C23.3936 12.6047 25.292 12.6045 26.4626 11.4336L23.6339 8.60543ZM25.0512 8.60531L23.0554 6.60947L20.227 9.4379L22.2228 11.4337L25.0512 8.60531ZM23.0554 6.60947C23.4467 7.0008 23.4467 7.63531 23.0554 8.02664L20.227 5.19821C19.0562 6.36898 19.0562 8.26713 20.227 9.4379L23.0554 6.60947ZM23.0555 8.02652C22.664 8.41807 22.0295 8.4179 21.6382 8.02664L24.4667 5.19821C23.296 4.02751 21.3976 4.02733 20.2268 5.19833L23.0555 8.02652ZM21.6383 8.02667L22.9285 9.31685L25.7569 6.48835L24.4666 5.19817L21.6383 8.02667ZM25.7569 9.31683L29.043 6.03081L26.2146 3.20235L22.9285 6.48837L25.7569 9.31683ZM29.0431 6.03067C28.6516 6.42223 28.0171 6.42206 27.6258 6.0308L30.4542 3.20237C29.2835 2.03167 27.3852 2.03149 26.2144 3.20249L29.0431 6.03067ZM27.6257 6.03067C27.2345 5.63942 27.2343 5.00497 27.6259 4.61351L30.4541 7.44218C31.625 6.2714 31.6249 4.37319 30.4544 3.20249L27.6257 6.03067Z" fill="#002642" fill-opacity="0.8" mask="url(#path-1-inside-1)"/>
<path d="M23.4521 16.8178L17.0279 16.15V8.52111C17.0279 7.16368 15.9291 6.0625 14.5717 6.05958C13.2102 6.05665 12.1049 7.15955 12.1049 8.52111V21.2891H12.0825L9.65271 19.26C8.62784 18.4042 7.0985 18.5647 6.27355 19.6145C5.48246 20.6214 5.63521 22.0747 6.6183 22.895L11.5502 27.0105H26.0757V19.7885C26.0757 18.2782 24.9508 17.0044 23.4521 16.8178Z" fill="white"/>
<path d="M25.0757 26.0105V19.7885C25.0757 18.7857 24.3311 17.9396 23.3376 17.8112L16.9246 17.1447L16.0279 17.0515V16.15V8.52111C16.0279 7.71514 15.3755 7.06131 14.5695 7.05957C13.7611 7.05784 13.1049 7.71267 13.1049 8.52111V21.2891V22.2891H12.1049H12.0825H11.7199L11.4415 22.0567L9.01175 20.0276C9.01174 20.0276 9.01174 20.0276 9.01173 20.0276C8.41975 19.5332 7.5364 19.6259 7.05987 20.2324C6.60292 20.8139 6.69115 21.6534 7.259 22.1272M25.0757 26.0105L7.259 22.1272M25.0757 26.0105H11.9126L7.259 22.1272M25.0757 26.0105L6.6183 22.895L7.259 22.1272" stroke="#002642" stroke-opacity="0.8" stroke-width="2"/>
<path d="M12.1048 31.0022C12.1048 31.5533 12.5516 32.0001 13.1027 32.0001H25.0778C25.6289 32.0001 26.0757 31.5533 26.0757 31.0022V29.0063H12.1048V31.0022Z" fill="white"/>
<path d="M13.1048 31.0001V30.0063H25.0757V31.0001H13.1048Z" stroke="#002642" stroke-opacity="0.8" stroke-width="2"/>
</svg>

