<svg width="35" height="32" viewBox="0 0 35 32" fill="none" xmlns="http://www.w3.org/2000/svg">
<path d="M27.0578 0H7.00461C3.14225 0 0 3.14225 0 7.00461C0 10.8857 3.17492 14.0092 6.96283 14.0092H10.1089V8.52105C10.1089 6.06323 12.1084 4.06367 14.5662 4.06367H14.5759C17.0285 4.06892 19.0237 6.06849 19.0237 8.52105V14.0092H27.0578C30.9202 14.0092 34.0624 10.867 34.0624 7.00461C34.0624 3.14225 30.9202 0 27.0578 0ZM29.04 6.02784L25.0483 10.0195C24.6586 10.4092 24.0267 10.4093 23.637 10.0195L21.6412 8.02368C21.2515 7.63396 21.2515 7.00215 21.6412 6.61242C22.0308 6.2227 22.6627 6.2227 23.0524 6.61242L24.3427 7.9026L27.6288 4.61658C28.0184 4.22686 28.6503 4.22686 29.04 4.61658C29.4297 5.0063 29.4297 5.63819 29.04 6.02784Z" fill="#DE5F4C"/>
<path d="M23.4521 16.8176L17.028 16.1499V8.52099C17.028 7.16355 15.9291 6.06238 14.5717 6.05945C13.2102 6.05653 12.1049 7.15943 12.1049 8.52099V21.289H12.0825L9.65272 19.2599C8.62785 18.4041 7.09851 18.5645 6.27356 19.6144C5.48247 20.6213 5.63522 22.0746 6.61831 22.8949L11.5502 27.0104H26.0757V19.7884C26.0757 18.2781 24.9508 17.0043 23.4521 16.8176V16.8176Z" fill="#DE5F4C"/>
<path d="M12.1047 31.0021C12.1047 31.5532 12.5515 32 13.1027 32H25.0777C25.6288 32 26.0757 31.5532 26.0757 31.0021V29.0062H12.1047V31.0021Z" fill="#DE5F4C"/>
</svg>
