<svg width="16" height="14" viewBox="0 0 16 14" fill="none" xmlns="http://www.w3.org/2000/svg">
<path d="M8.08836 5.13185C8.08836 6.6718 6.886 7.92068 5.40343 7.92068C3.92042 7.92068 2.71851 6.6718 2.71851 5.13185C2.71851 3.59191 3.92042 2.34302 5.40343 2.34302C6.886 2.34302 8.08836 3.59191 8.08836 5.13185Z" fill="black"/>
<path d="M13.3894 2.78883C13.3894 4.32878 12.187 5.57767 10.7045 5.57767C9.22145 5.57767 8.01953 4.32878 8.01953 2.78883C8.01953 1.24889 9.22145 0 10.7045 0C12.187 0 13.3894 1.24889 13.3894 2.78883Z" fill="#666666"/>
<path d="M8.08836 5.13185C8.08836 6.6718 6.886 7.92068 5.40343 7.92068C3.92042 7.92068 2.71851 6.6718 2.71851 5.13185C2.71851 3.59191 3.92042 2.34302 5.40343 2.34302C6.886 2.34302 8.08836 3.59191 8.08836 5.13185Z" fill="#666666"/>
<path d="M5.34966 8.42285C2.54886 8.42285 0.249011 10.6497 0.0018424 13.4921C-0.0219491 13.7653 0.187769 14.0001 0.45212 14.0001H10.2472C10.5111 14.0001 10.7208 13.7653 10.6975 13.4921C10.4499 10.6497 8.15002 8.42285 5.34966 8.42285Z" fill="black"/>
<path d="M10.6508 6.07959C9.04178 6.07959 7.59931 6.81547 6.61548 7.97924C7.63411 8.20943 8.58137 8.71466 9.36253 9.45969C10.0106 10.0784 10.5103 10.8294 10.8376 11.6568H15.5483C15.8123 11.6568 16.022 11.422 15.9982 11.1488C15.751 8.30645 13.4512 6.07959 10.6508 6.07959Z" fill="#666666"/>
<path d="M5.34966 8.42285C2.54886 8.42285 0.249011 10.6497 0.0018424 13.4921C-0.0219491 13.7653 0.187769 14.0001 0.45212 14.0001H10.2472C10.5111 14.0001 10.7208 13.7653 10.6975 13.4921C10.4499 10.6497 8.15002 8.42285 5.34966 8.42285Z" fill="#666666"/>
</svg>
