<svg width="36" height="36" viewBox="0 0 36 36" fill="none" xmlns="http://www.w3.org/2000/svg">
<g clip-path="url(#clip0)">
<path d="M9 14.3438C9 14.8552 9.20319 15.3458 9.56487 15.7075C9.92654 16.0691 10.4171 16.2723 10.9286 16.2723C11.4401 16.2723 11.9306 16.0691 12.2923 15.7075C12.654 15.3458 12.8571 14.8552 12.8571 14.3438C12.8571 13.8323 12.654 13.3417 12.2923 12.98C11.9306 12.6184 11.4401 12.4152 10.9286 12.4152C10.4171 12.4152 9.92654 12.6184 9.56487 12.98C9.20319 13.3417 9 13.8323 9 14.3438ZM23.1429 14.3438C23.1429 14.8552 23.346 15.3458 23.7077 15.7075C24.0694 16.0691 24.5599 16.2723 25.0714 16.2723C25.5829 16.2723 26.0735 16.0691 26.4351 15.7075C26.7968 15.3458 27 14.8552 27 14.3438C27 13.8323 26.7968 13.3417 26.4351 12.98C26.0735 12.6184 25.5829 12.4152 25.0714 12.4152C24.5599 12.4152 24.0694 12.6184 23.7077 12.98C23.346 13.3417 23.1429 13.8323 23.1429 14.3438ZM18 0C8.05982 0 0 8.05982 0 18C0 27.9402 8.05982 36 18 36C27.9402 36 36 27.9402 36 18C36 8.05982 27.9402 0 18 0ZM28.567 28.567C27.1929 29.9411 25.5938 31.0179 23.8138 31.7732C21.9777 32.5527 20.021 32.9464 18 32.9464C15.979 32.9464 14.0223 32.5527 12.1821 31.7732C10.4049 31.0226 8.7906 29.9337 7.42902 28.567C6.05491 27.1929 4.97813 25.5938 4.22277 23.8138C3.44732 21.9777 3.05357 20.021 3.05357 18C3.05357 15.979 3.44732 14.0223 4.22679 12.1821C4.97735 10.4049 6.06631 8.7906 7.43304 7.42902C8.80714 6.05491 10.4062 4.97813 12.1862 4.22277C14.0223 3.44732 15.979 3.05357 18 3.05357C20.021 3.05357 21.9777 3.44732 23.8179 4.22679C25.5951 4.97735 27.2094 6.06631 28.571 7.43304C29.9451 8.80714 31.0219 10.4062 31.7772 12.1862C32.5527 14.0223 32.9464 15.979 32.9464 18C32.9464 20.021 32.5527 21.9777 31.7732 23.8179C31.0236 25.5944 29.9345 27.2076 28.567 28.567ZM18 18.8438C14.5647 18.8438 11.7482 21.5478 11.5714 24.9348C11.5692 24.9784 11.5759 25.0219 11.5911 25.0628C11.6063 25.1036 11.6296 25.141 11.6597 25.1726C11.6898 25.2041 11.7259 25.2293 11.766 25.2464C11.8061 25.2636 11.8493 25.2724 11.8929 25.2723H13.8254C13.9942 25.2723 14.1388 25.1437 14.1509 24.975C14.3036 22.9862 15.971 21.4152 18 21.4152C20.029 21.4152 21.7004 22.9862 21.8491 24.975C21.8612 25.1437 22.0058 25.2723 22.1746 25.2723H24.1071C24.1507 25.2724 24.1939 25.2636 24.234 25.2464C24.2741 25.2293 24.3102 25.2041 24.3403 25.1726C24.3704 25.141 24.3937 25.1036 24.4089 25.0628C24.4241 25.0219 24.4308 24.9784 24.4286 24.9348C24.2518 21.5478 21.4353 18.8438 18 18.8438Z" fill="black" fill-opacity="0.65"/>
</g>
<defs>
<clipPath id="clip0">
<rect width="36" height="36" fill="white"/>
</clipPath>
</defs>
</svg>
