<svg width="33" height="22" viewBox="0 0 33 22" fill="none" xmlns="http://www.w3.org/2000/svg">
<path fill-rule="evenodd" clip-rule="evenodd" d="M0 11.0001C0 9.99766 0.812603 9.18506 1.815 9.18506H4.015V10.6151H1.815C1.60237 10.6151 1.43 10.7874 1.43 11.0001C1.43 11.2127 1.60237 11.3851 1.815 11.3851H4.015V12.8151H1.815C0.812603 12.8151 0 12.0025 0 11.0001Z" fill="black"/>
<path fill-rule="evenodd" clip-rule="evenodd" d="M32.2301 10.9999C32.2301 12.0023 31.4175 12.8149 30.4151 12.8149H28.2151V11.3849H30.4151C30.6277 11.3849 30.8001 11.2126 30.8001 10.9999C30.8001 10.7873 30.6277 10.6149 30.4151 10.6149H28.2151V9.18494H30.4151C31.4175 9.18494 32.2301 9.99754 32.2301 10.9999Z" fill="black"/>
<path fill-rule="evenodd" clip-rule="evenodd" d="M22.715 1.43H21.615C21.1898 1.43 20.845 1.77474 20.845 2.2V19.8C20.845 20.2253 21.1898 20.57 21.615 20.57H22.715C23.1403 20.57 23.485 20.2253 23.485 19.8V2.2C23.485 1.77474 23.1403 1.43 22.715 1.43ZM21.615 0C20.4 0 19.415 0.984974 19.415 2.2V19.8C19.415 21.015 20.4 22 21.615 22H22.715C23.9301 22 24.915 21.015 24.915 19.8V2.2C24.915 0.984974 23.9301 0 22.715 0H21.615Z" fill="black"/>
<path fill-rule="evenodd" clip-rule="evenodd" d="M6.21504 4.73005H5.11504C4.68978 4.73005 4.34504 5.07479 4.34504 5.50005V16.5C4.34504 16.9253 4.68978 17.27 5.11504 17.27H6.21504C6.6403 17.27 6.98504 16.9253 6.98504 16.5V5.50005C6.98504 5.07479 6.6403 4.73005 6.21504 4.73005ZM5.11504 3.30005C3.90001 3.30005 2.91504 4.28502 2.91504 5.50005V16.5C2.91504 17.7151 3.90001 18.7 5.11504 18.7H6.21504C7.43007 18.7 8.41504 17.7151 8.41504 16.5V5.50005C8.41504 4.28502 7.43007 3.30005 6.21504 3.30005H5.11504Z" fill="black"/>
<path fill-rule="evenodd" clip-rule="evenodd" d="M27.1151 4.73005H26.0151C25.5898 4.73005 25.2451 5.07479 25.2451 5.50005V16.5C25.2451 16.9253 25.5898 17.27 26.0151 17.27H27.1151C27.5403 17.27 27.8851 16.9253 27.8851 16.5V5.50005C27.8851 5.07479 27.5403 4.73005 27.1151 4.73005ZM26.0151 3.30005C24.8 3.30005 23.8151 4.28502 23.8151 5.50005V16.5C23.8151 17.7151 24.8 18.7 26.0151 18.7H27.1151C28.3301 18.7 29.3151 17.7151 29.3151 16.5V5.50005C29.3151 4.28502 28.3301 3.30005 27.1151 3.30005H26.0151Z" fill="black"/>
<path fill-rule="evenodd" clip-rule="evenodd" d="M10.6151 1.43H9.51506C9.0898 1.43 8.74506 1.77474 8.74506 2.2V19.8C8.74506 20.2253 9.0898 20.57 9.51506 20.57H10.6151C11.0403 20.57 11.3851 20.2253 11.3851 19.8V2.2C11.3851 1.77474 11.0403 1.43 10.6151 1.43ZM9.51506 0C8.30004 0 7.31506 0.984974 7.31506 2.2V19.8C7.31506 21.015 8.30004 22 9.51506 22H10.6151C11.8301 22 12.8151 21.015 12.8151 19.8V2.2C12.8151 0.984974 11.8301 0 10.6151 0H9.51506Z" fill="black"/>
<path fill-rule="evenodd" clip-rule="evenodd" d="M20.1151 12.815H11.7151V11.385H20.1151V12.815Z" fill="black"/>
<path fill-rule="evenodd" clip-rule="evenodd" d="M20.1151 10.6151H11.7151V9.18506H20.1151V10.6151Z" fill="black"/>
</svg>
