<svg width="31" height="30" viewBox="0 0 31 30" fill="none" xmlns="http://www.w3.org/2000/svg">
<path d="M29.5022 14.7675L16.2281 1.10111C16.1325 1.00244 16.019 0.924164 15.894 0.870756C15.769 0.817347 15.6351 0.789856 15.4998 0.789856C15.3645 0.789856 15.2305 0.817347 15.1055 0.870756C14.9806 0.924164 14.867 1.00244 14.7715 1.10111L1.49734 14.7675C1.11062 15.166 0.891479 15.7072 0.891479 16.2716C0.891479 17.4437 1.81638 18.3966 2.95398 18.3966H4.35261V28.1484C4.35261 28.7361 4.81345 29.2109 5.38386 29.2109H13.4373V21.7734H17.0467V29.2109H25.6157C26.1861 29.2109 26.6469 28.7361 26.6469 28.1484V18.3966H28.0456C28.5934 18.3966 29.1187 18.1742 29.5054 17.7724C30.3079 16.9423 30.3079 15.5976 29.5022 14.7675Z" fill="#DE5F4C"/>
</svg>
