<svg xmlns="http://www.w3.org/2000/svg" viewBox="0 0 135.93 127"><defs><style>.cls-1{fill:#de5f4c;}</style></defs><g id="Layer_2" data-name="Layer 2"><g id="Icon"><path class="cls-1" d="M134.46,63.93A5,5,0,1,1,127.39,71l-5.72-5.71v47A14.75,14.75,0,0,1,106.93,127H85a5,5,0,0,1-5-5V87.18a5,5,0,0,0-5-5H60.91a5,5,0,0,0-5,5V122a5,5,0,0,1-5,5H29a14.75,14.75,0,0,1-14.74-14.74v-47L8.53,71a5,5,0,1,1-7.07-7.07L35.39,30a5.52,5.52,0,0,1,.53-.43L63.74,1.75a6,6,0,0,1,8.44,0L100,29.57a5.52,5.52,0,0,1,.53.43Z"/></g></g></svg>