<svg width="33" height="34" viewBox="0 0 33 34" fill="none" xmlns="http://www.w3.org/2000/svg">
<path d="M30.5022 16.7675L17.2281 3.10111C17.1326 3.00244 17.019 2.92416 16.8941 2.87076C16.7691 2.81735 16.6351 2.78986 16.4998 2.78986C16.3645 2.78986 16.2305 2.81735 16.1056 2.87076C15.9806 2.92416 15.8671 3.00244 15.7715 3.10111L2.49737 16.7675C2.11065 17.166 1.89151 17.7072 1.89151 18.2716C1.89151 19.4437 2.81641 20.3966 3.95401 20.3966H5.35264V30.1484C5.35264 30.7361 5.81348 31.2109 6.38389 31.2109H14.4373V23.7734H18.0467V31.2109H26.6157C27.1861 31.2109 27.647 30.7361 27.647 30.1484V20.3966H29.0456C29.5935 20.3966 30.1188 20.1742 30.5055 19.7724C31.3079 18.9423 31.3079 17.5976 30.5022 16.7675Z" fill="#DE5F4C"/>
</svg>
