<svg xmlns="http://www.w3.org/2000/svg" viewBox="0 0 135.82 127"><g id="Layer_2" data-name="Layer 2"><g id="Icon"><path d="M134.23,63.75a5.17,5.17,0,0,1,.48,6.92,5,5,0,0,1-7.37.33l-4.43-4.43a.75.75,0,0,0-1.29.53v45.11A14.79,14.79,0,0,1,106.83,127H85A5,5,0,0,1,80,122V87.23a5,5,0,0,0-5-5h-14a5,5,0,0,0-5,5V122a5,5,0,0,1-5,5H29A14.79,14.79,0,0,1,14.2,112.21V67.1a.75.75,0,0,0-1.29-.53L8.48,71a5,5,0,0,1-7.37-.33,5.17,5.17,0,0,1,.48-6.92L35.34,30a5.4,5.4,0,0,1,.52-.43h0L63.69,1.75a6,6,0,0,1,8.44,0L100,29.57h0a5.4,5.4,0,0,1,.52.43Z"/></g></g></svg>