<svg width="33" height="34" viewBox="0 0 33 34" fill="none" xmlns="http://www.w3.org/2000/svg">
<path d="M32.5047 16.7321L18.2735 2.07719L17.3196 1.09438C17.1022 0.871921 16.8083 0.74707 16.5019 0.74707C16.1956 0.74707 15.9016 0.871921 15.6843 1.09438L0.499147 16.7321C0.276438 16.9607 0.100427 17.2329 -0.0184961 17.5327C-0.137419 17.8325 -0.196844 18.1538 -0.193264 18.4776C-0.178532 19.8133 0.900598 20.8796 2.19703 20.8796H3.76232V33.2388H29.2416V20.8796H30.84C31.4698 20.8796 32.0628 20.6254 32.5084 20.1663C32.7278 19.9409 32.9017 19.6729 33.0199 19.3779C33.1381 19.0828 33.1984 18.7665 33.1971 18.4473C33.1971 17.8022 32.9504 17.1912 32.5047 16.7321ZM18.5644 30.5067H14.4394V22.7656H18.5644V30.5067ZM26.5898 18.1475V30.5067H20.9216V21.8549C20.9216 21.0163 20.2623 20.337 19.4484 20.337H13.5555C12.7416 20.337 12.0823 21.0163 12.0823 21.8549V30.5067H6.4141V18.1475H2.87839L16.5056 4.11871L17.3564 4.99527L30.1292 18.1475H26.5898Z" fill="#002642" fill-opacity="0.8"/>
</svg>
