<svg width="37" height="34" viewBox="0 0 37 34" fill="none" xmlns="http://www.w3.org/2000/svg">
<path d="M29.9173 14.8234V30.0529C29.9173 30.3895 29.7836 30.7123 29.5455 30.9503C29.3075 31.1884 28.9847 31.3221 28.6481 31.3221H24.1152V23.3378C24.1152 22.2726 23.692 21.2511 22.9388 20.4979C22.1856 19.7447 21.1641 19.3216 20.0989 19.3216H16.3264C15.2612 19.3216 14.2396 19.7447 13.4864 20.4979C12.7333 21.2511 12.3101 22.2726 12.3101 23.3378V31.3221H7.78249C7.4459 31.3221 7.12309 31.1884 6.88509 30.9503C6.64708 30.7123 6.51337 30.3895 6.51337 30.0529V14.8234L18.2247 3.12012L29.9173 14.8234Z" fill="#DE5F4C"/>
<path d="M36.0193 17.1131C36.1471 17.2366 36.2491 17.3843 36.3193 17.5477C36.3894 17.711 36.4264 17.8867 36.4279 18.0644C36.4294 18.2422 36.3956 18.4185 36.3283 18.583C36.2609 18.7475 36.1615 18.897 36.0358 19.0227C35.9101 19.1484 35.7607 19.2478 35.5961 19.3151C35.4316 19.3824 35.2553 19.4163 35.0776 19.4147C34.8998 19.4132 34.7242 19.3763 34.5608 19.3061C34.3975 19.2359 34.2498 19.1339 34.1263 19.0061L32.5947 17.4772V30.0614C32.5919 31.1065 32.1749 32.1079 31.4352 32.8461C30.6954 33.5844 29.6932 33.9993 28.6481 34H22.7764C22.4214 34 22.0808 33.859 21.8298 33.6079C21.5787 33.3568 21.4377 33.0163 21.4377 32.6613V23.3383C21.4377 22.9832 21.2966 22.6427 21.0456 22.3916C20.7945 22.1406 20.454 21.9995 20.0989 21.9995H16.3264C15.9713 21.9995 15.6308 22.1406 15.3797 22.3916C15.1287 22.6427 14.9876 22.9832 14.9876 23.3383V32.6613C14.9876 33.0163 14.8466 33.3568 14.5955 33.6079C14.3444 33.859 14.0039 34 13.6489 34H7.7825C6.73601 33.9993 5.73258 33.5833 4.9926 32.8433C4.25262 32.1033 3.83659 31.0999 3.83588 30.0534V17.4692L2.30168 19.0061C2.17819 19.1339 2.03047 19.2359 1.86713 19.3061C1.7038 19.3763 1.52813 19.4132 1.35038 19.4147C1.17262 19.4163 0.996333 19.3824 0.831807 19.3151C0.66728 19.2478 0.517807 19.1484 0.392109 19.0227C0.26641 18.897 0.167005 18.7475 0.0996915 18.583C0.0323784 18.4185 -0.00149412 18.2422 5.05466e-05 18.0644C0.00159521 17.8867 0.0385261 17.711 0.108688 17.5477C0.17885 17.3843 0.280839 17.2366 0.408702 17.1131L9.49341 8.0284C9.53829 7.98713 9.58568 7.94868 9.63531 7.91326L17.0841 0.464501C17.3848 0.166916 17.7909 0 18.214 0C18.6371 0 19.0431 0.166916 19.3439 0.464501L26.7926 7.91326C26.8423 7.94868 26.8897 7.98713 26.9345 8.0284L36.0193 17.1131ZM29.9173 30.0534V14.8239L18.2247 3.12057L6.51069 14.8239V30.0534C6.51069 30.2203 6.54361 30.3855 6.60755 30.5397C6.6715 30.6938 6.76522 30.8339 6.88336 30.9517C7.00149 31.0696 7.14171 31.1631 7.296 31.2267C7.45029 31.2903 7.61561 31.3229 7.7825 31.3225H12.3101V23.3383C12.3101 22.2731 12.7333 21.2515 13.4864 20.4984C14.2396 19.7452 15.2612 19.322 16.3264 19.322H20.0989C21.1641 19.322 22.1856 19.7452 22.9388 20.4984C23.692 21.2515 24.1152 22.2731 24.1152 23.3383V31.3225H28.6455C28.8123 31.3229 28.9777 31.2903 29.132 31.2267C29.2862 31.1631 29.4265 31.0696 29.5446 30.9517C29.6627 30.8339 29.7565 30.6938 29.8204 30.5397C29.8844 30.3855 29.9173 30.2203 29.9173 30.0534Z" fill="#DE5F4C"/>
</svg>
