<svg width="44" height="47" viewBox="0 0 44 47" fill="none" xmlns="http://www.w3.org/2000/svg">
<path fill-rule="evenodd" clip-rule="evenodd" d="M14.6667 5.875H9.33337C8.2288 5.875 7.33337 6.77043 7.33337 7.875V43.0417C7.33337 44.1462 8.22881 45.0417 9.33338 45.0417H34.6667C35.7713 45.0417 36.6667 44.1462 36.6667 43.0417V7.875C36.6667 6.77043 35.7713 5.875 34.6667 5.875H29.3334V6.85417C29.3334 8.4765 28.1022 9.79167 26.5834 9.79167H17.4167C15.8979 9.79167 14.6667 8.4765 14.6667 6.85417V5.875Z" fill="#00263F"/>
<path fill-rule="evenodd" clip-rule="evenodd" d="M23.8333 3.91671L27 3.91671C27.2761 3.91671 27.5 4.14057 27.5 4.41671V7.33337C27.5 7.60952 27.2761 7.83337 27 7.83337H17C16.7239 7.83337 16.5 7.60952 16.5 7.33337V4.41671C16.5 4.14057 16.7239 3.91671 17 3.91671L20.1667 3.91671C20.1667 2.83515 20.9875 1.95837 22 1.95837C23.0125 1.95837 23.8333 2.83515 23.8333 3.91671Z" fill="black"/>
<rect x="12.8334" y="19.5834" width="9.16667" height="3.91667" rx="1.95833" fill="white"/>
<rect x="12.8334" y="27.4166" width="16.5" height="3.91667" rx="1.95833" fill="#FFFEFE"/>
</svg>
