<svg width="18" height="24" viewBox="0 0 18 24" fill="none" xmlns="http://www.w3.org/2000/svg">
<path d="M9 12.2732C6.93177 12.2732 5.25444 10.5966 5.25444 8.52838C5.25444 6.46015 6.93177 4.78283 9 4.78283C11.0682 4.78283 12.7449 6.46015 12.7449 8.52838C12.7449 10.5966 11.0682 12.2732 9 12.2732ZM9 0C4.02909 0 0 4.06277 0 9.07439C0 11.0381 0.621101 12.8543 1.67241 14.3401C1.78049 14.519 1.92787 14.7415 2.12367 15.0173L8.40627 23.4839C8.68068 23.8496 9.22879 23.8496 9.5032 23.4839L15.9949 14.8215C16.0581 14.7282 16.1135 14.6439 16.1648 14.5639C17.315 13.0396 18 11.1377 18 9.07439C18 4.06277 13.9702 0 9 0Z" fill="#DE5F4C"/>
</svg>
