<svg width="21" height="19" viewBox="0 0 21 19" fill="none" xmlns="http://www.w3.org/2000/svg">
<path d="M10.5 0C4.69693 0 0 4.24888 0 9.5C0 11.1663 0.480331 12.7937 1.39245 14.2291L0.0395737 18.0302C-0.0547943 18.2952 0.0227509 18.5857 0.240326 18.7826C0.455818 18.9775 0.776093 19.0503 1.07185 18.9642L5.27307 17.7402C6.85954 18.5654 8.6583 19 10.5 19C16.3031 19 21 14.7511 21 9.5C21 4.2496 16.3039 0 10.5 0ZM10.5 17.5156C8.83646 17.5156 7.2149 17.0957 5.8106 16.3012C5.60857 16.1869 5.35767 16.1561 5.12423 16.224L2.09148 17.1077L3.06816 14.3638C3.14218 14.1556 3.11094 13.9283 2.98277 13.7428C2.10477 12.4722 1.64062 11.0051 1.64062 9.5C1.64062 5.08022 5.61497 1.48438 10.5 1.48438C15.385 1.48438 19.3594 5.08022 19.3594 9.5C19.3594 13.9198 15.385 17.5156 10.5 17.5156ZM11.5254 9.5C11.5254 10.0123 11.0664 10.4277 10.5 10.4277C9.93363 10.4277 9.47461 10.0123 9.47461 9.5C9.47461 8.98757 9.93363 8.57227 10.5 8.57227C11.0664 8.57227 11.5254 8.98757 11.5254 9.5ZM15.627 9.5C15.627 10.0123 15.1679 10.4277 14.6016 10.4277C14.0352 10.4277 13.5762 10.0123 13.5762 9.5C13.5762 8.98757 14.0352 8.57227 14.6016 8.57227C15.1679 8.57227 15.627 8.98757 15.627 9.5ZM7.42383 9.5C7.42383 10.0123 6.96481 10.4277 6.39844 10.4277C5.83223 10.4277 5.37305 10.0123 5.37305 9.5C5.37305 8.98757 5.83223 8.57227 6.39844 8.57227C6.96481 8.57227 7.42383 8.98757 7.42383 9.5Z" fill="#EB5757"/>
</svg>
