<svg width="22" height="22" viewBox="0 0 22 22" fill="none" xmlns="http://www.w3.org/2000/svg">
<path d="M11 0C4.92545 0 0 4.92545 0 11C0 17.0746 4.92545 22 11 22C17.0746 22 22 17.0746 22 11C22 4.92545 17.0746 0 11 0ZM11 20.1339C5.9567 20.1339 1.86607 16.0433 1.86607 11C1.86607 5.9567 5.9567 1.86607 11 1.86607C16.0433 1.86607 20.1339 5.9567 20.1339 11C20.1339 16.0433 16.0433 20.1339 11 20.1339ZM12.1712 10.4304L11.5475 10.2855V6.98795C12.4806 7.11562 13.0576 7.7 13.1558 8.41696C13.1681 8.51518 13.2516 8.58638 13.3498 8.58638H14.4522C14.5676 8.58638 14.6585 8.48571 14.6487 8.37031C14.4989 6.84062 13.2393 5.85848 11.5574 5.68906V4.88616C11.5574 4.77812 11.469 4.68973 11.3609 4.68973H10.671C10.5629 4.68973 10.4746 4.77812 10.4746 4.88616V5.69643C8.73616 5.86585 7.37589 6.82589 7.37589 8.6183C7.37589 10.2781 8.59866 11.0786 9.88281 11.3855L10.4893 11.5402V15.044C9.40402 14.8991 8.79509 14.3196 8.66987 13.5388C8.65513 13.4455 8.57165 13.3768 8.47589 13.3768H7.34152C7.22612 13.3768 7.13527 13.475 7.14509 13.5904C7.25558 14.9408 8.27946 16.1833 10.4647 16.3429V17.1138C10.4647 17.2219 10.5531 17.3103 10.6612 17.3103H11.3585C11.4665 17.3103 11.5549 17.2219 11.5549 17.1114L11.55 16.333C13.4725 16.1636 14.8475 15.1348 14.8475 13.2884C14.8451 11.5844 13.7623 10.8232 12.1712 10.4304V10.4304ZM10.4868 10.0326C10.3493 9.9933 10.2339 9.95647 10.1185 9.90982C9.28862 9.61027 8.90312 9.12656 8.90312 8.5029C8.90312 7.61161 9.57835 7.10335 10.4868 6.98795V10.0326ZM11.5475 15.0513V11.7685C11.6237 11.7906 11.6924 11.8078 11.7636 11.8225C12.925 12.1761 13.3154 12.6672 13.3154 13.421C13.3154 14.381 12.5935 14.958 11.5475 15.0513Z" fill="#DE5F4C"/>
</svg>
