<svg width="16" height="14" viewBox="0 0 16 14" fill="none" xmlns="http://www.w3.org/2000/svg">
<path d="M15.8125 0.75H4.40625C4.32031 0.75 4.25 0.820312 4.25 0.90625V2C4.25 2.08594 4.32031 2.15625 4.40625 2.15625H15.8125C15.8984 2.15625 15.9688 2.08594 15.9688 2V0.90625C15.9688 0.820312 15.8984 0.75 15.8125 0.75ZM15.8125 6.29688H4.40625C4.32031 6.29688 4.25 6.36719 4.25 6.45312V7.54688C4.25 7.63281 4.32031 7.70312 4.40625 7.70312H15.8125C15.8984 7.70312 15.9688 7.63281 15.9688 7.54688V6.45312C15.9688 6.36719 15.8984 6.29688 15.8125 6.29688ZM15.8125 11.8438H4.40625C4.32031 11.8438 4.25 11.9141 4.25 12V13.0938C4.25 13.1797 4.32031 13.25 4.40625 13.25H15.8125C15.8984 13.25 15.9688 13.1797 15.9688 13.0938V12C15.9688 11.9141 15.8984 11.8438 15.8125 11.8438ZM0.03125 1.45312C0.03125 1.59676 0.0595407 1.73899 0.114507 1.87168C0.169473 2.00438 0.250038 2.12496 0.351602 2.22652C0.453166 2.32809 0.57374 2.40865 0.70644 2.46362C0.83914 2.51858 0.981367 2.54688 1.125 2.54688C1.26863 2.54688 1.41086 2.51858 1.54356 2.46362C1.67626 2.40865 1.79683 2.32809 1.8984 2.22652C1.99996 2.12496 2.08053 2.00438 2.13549 1.87168C2.19046 1.73899 2.21875 1.59676 2.21875 1.45312C2.21875 1.30949 2.19046 1.16726 2.13549 1.03457C2.08053 0.901865 1.99996 0.781291 1.8984 0.679727C1.79683 0.578163 1.67626 0.497598 1.54356 0.442632C1.41086 0.387666 1.26863 0.359375 1.125 0.359375C0.981367 0.359375 0.83914 0.387666 0.70644 0.442632C0.57374 0.497598 0.453166 0.578163 0.351602 0.679727C0.250038 0.781291 0.169473 0.901865 0.114507 1.03457C0.0595407 1.16726 0.03125 1.30949 0.03125 1.45312ZM0.03125 7C0.03125 7.14363 0.0595407 7.28586 0.114507 7.41856C0.169473 7.55126 0.250038 7.67183 0.351602 7.7734C0.453166 7.87496 0.57374 7.95553 0.70644 8.01049C0.83914 8.06546 0.981367 8.09375 1.125 8.09375C1.26863 8.09375 1.41086 8.06546 1.54356 8.01049C1.67626 7.95553 1.79683 7.87496 1.8984 7.7734C1.99996 7.67183 2.08053 7.55126 2.13549 7.41856C2.19046 7.28586 2.21875 7.14363 2.21875 7C2.21875 6.85637 2.19046 6.71414 2.13549 6.58144C2.08053 6.44874 1.99996 6.32817 1.8984 6.2266C1.79683 6.12504 1.67626 6.04447 1.54356 5.98951C1.41086 5.93454 1.26863 5.90625 1.125 5.90625C0.981367 5.90625 0.83914 5.93454 0.70644 5.98951C0.57374 6.04447 0.453166 6.12504 0.351602 6.2266C0.250038 6.32817 0.169473 6.44874 0.114507 6.58144C0.0595407 6.71414 0.03125 6.85637 0.03125 7ZM0.03125 12.5469C0.03125 12.6905 0.0595407 12.8327 0.114507 12.9654C0.169473 13.0981 0.250038 13.2187 0.351602 13.3203C0.453166 13.4218 0.57374 13.5024 0.70644 13.5574C0.83914 13.6123 0.981367 13.6406 1.125 13.6406C1.26863 13.6406 1.41086 13.6123 1.54356 13.5574C1.67626 13.5024 1.79683 13.4218 1.8984 13.3203C1.99996 13.2187 2.08053 13.0981 2.13549 12.9654C2.19046 12.8327 2.21875 12.6905 2.21875 12.5469C2.21875 12.4032 2.19046 12.261 2.13549 12.1283C2.08053 11.9956 1.99996 11.875 1.8984 11.7735C1.79683 11.6719 1.67626 11.5913 1.54356 11.5364C1.41086 11.4814 1.26863 11.4531 1.125 11.4531C0.981367 11.4531 0.83914 11.4814 0.70644 11.5364C0.57374 11.5913 0.453166 11.6719 0.351602 11.7735C0.250038 11.875 0.169473 11.9956 0.114507 12.1283C0.0595407 12.261 0.03125 12.4032 0.03125 12.5469Z" fill="black" fill-opacity="0.85"/>
</svg>
