<svg width="29" height="29" viewBox="0 0 29 29" fill="none" xmlns="http://www.w3.org/2000/svg">
<g clip-path="url(#clip0)">
<path d="M10.4904 26.3839C11.1711 27.9229 12.7117 29 14.5 29C16.2883 29 17.8288 27.9229 18.5096 26.3839H10.4904Z" fill="#DE5F4C"/>
<path d="M14.4997 2.77067C15.6798 2.77067 16.8129 2.97888 17.8644 3.36008V3.23056C17.8644 1.44922 16.4152 0 14.6339 0H14.3662C12.5848 0 11.1356 1.44922 11.1356 3.23056V3.35843C12.1865 2.97837 13.3193 2.77067 14.4997 2.77067Z" fill="#DE5F4C"/>
<path d="M25.1189 24.6819H3.88113C3.47934 24.6819 3.11131 24.4109 3.02774 24.0178C2.94502 23.6287 3.12237 23.2446 3.48218 23.0784C3.56756 23.023 4.21025 22.5736 4.85367 21.214C6.03539 18.7171 6.28343 15.1999 6.28343 12.6889C6.28343 8.15842 9.96928 4.47269 14.4997 4.47269C19.0194 4.47269 22.6985 8.14066 22.716 12.6563C22.7164 12.6671 22.7166 12.678 22.7166 12.6889C22.7166 15.1999 22.9646 18.7171 24.1463 21.214C24.7898 22.5736 25.4324 23.0231 25.5178 23.0784C25.8776 23.2446 26.0551 23.6286 25.9723 24.0178C25.8887 24.4108 25.5207 24.6819 25.1189 24.6819ZM25.5274 23.0844H25.5279H25.5274Z" fill="#DE5F4C"/>
</g>
<defs>
<clipPath id="clip0">
<rect width="29" height="29" fill="white"/>
</clipPath>
</defs>
</svg>
