<svg width="16" height="16" viewBox="0 0 16 16" fill="none" xmlns="http://www.w3.org/2000/svg">
<path d="M7.875 0C3.52617 0 0 3.52617 0 7.875C0 12.2238 3.52617 15.75 7.875 15.75C12.2238 15.75 15.75 12.2238 15.75 7.875C15.75 3.52617 12.2238 0 7.875 0ZM11.25 8.29688C11.25 8.37422 11.1867 8.4375 11.1094 8.4375H8.4375V11.1094C8.4375 11.1867 8.37422 11.25 8.29688 11.25H7.45312C7.37578 11.25 7.3125 11.1867 7.3125 11.1094V8.4375H4.64062C4.56328 8.4375 4.5 8.37422 4.5 8.29688V7.45312C4.5 7.37578 4.56328 7.3125 4.64062 7.3125H7.3125V4.64062C7.3125 4.56328 7.37578 4.5 7.45312 4.5H8.29688C8.37422 4.5 8.4375 4.56328 8.4375 4.64062V7.3125H11.1094C11.1867 7.3125 11.25 7.37578 11.25 7.45312V8.29688Z" fill="#DE5F4C"/>
</svg>
