<svg width="33" height="34" viewBox="0 0 33 34" fill="none" xmlns="http://www.w3.org/2000/svg">
<path d="M16.3728 16.2653C20.8643 16.2653 24.5054 12.6242 24.5054 8.13266C24.5054 3.64112 20.8643 0 16.3728 0C11.8812 0 8.24011 3.64112 8.24011 8.13266C8.24011 12.6242 11.8812 16.2653 16.3728 16.2653Z" fill="#002642"/>
<path d="M16.2122 17.7312C12.1531 17.7296 8.24006 19.2455 5.24137 21.9812C2.24268 24.7169 0.374962 28.4748 0.00494753 32.5169C-0.0111787 32.7059 0.0122186 32.8963 0.0736503 33.0757C0.135082 33.2552 0.233203 33.4199 0.36177 33.5594C0.490336 33.6989 0.646533 33.8101 0.82042 33.886C0.994307 33.9618 1.18208 34.0006 1.37178 33.9999H31.0492C31.2389 34.0006 31.4266 33.9618 31.6005 33.886C31.7744 33.8101 31.9306 33.6989 32.0592 33.5594C32.1877 33.4199 32.2859 33.2552 32.3473 33.0757C32.4087 32.8963 32.4321 32.7059 32.416 32.5169C32.046 28.4753 30.1788 24.718 27.1808 21.9824C24.1829 19.2468 20.2707 17.7305 16.2122 17.7312Z" fill="#002642"/>
</svg>
