<svg width="37" height="37" viewBox="0 0 37 37" fill="none" xmlns="http://www.w3.org/2000/svg">
<path d="M26.5479 24.3414C26.1098 23.3035 25.4739 22.3607 24.6757 21.5656C23.88 20.7682 22.9374 20.1325 21.9 19.6934C21.8907 19.6888 21.8814 19.6865 21.8721 19.6818C23.3192 18.6366 24.2599 16.9339 24.2599 15.0129C24.2599 11.8307 21.6816 9.25234 18.4993 9.25234C15.3171 9.25234 12.7387 11.8307 12.7387 15.0129C12.7387 16.9339 13.6795 18.6366 15.1266 19.6841C15.1173 19.6888 15.108 19.6911 15.0987 19.6958C14.0581 20.1348 13.1243 20.7643 12.323 21.568C11.5256 22.3637 10.8898 23.3063 10.4508 24.3437C10.0195 25.3594 9.78686 26.4483 9.76553 27.5516C9.76491 27.5763 9.76926 27.601 9.77832 27.6241C9.78738 27.6472 9.80097 27.6682 9.81829 27.686C9.83561 27.7037 9.8563 27.7178 9.87915 27.7274C9.90201 27.7371 9.92656 27.742 9.95136 27.742H11.3451C11.4473 27.742 11.5286 27.6607 11.5309 27.5608C11.5773 25.7676 12.2974 24.0882 13.5703 22.8153C14.8874 21.4983 16.6364 20.7736 18.4993 20.7736C20.3623 20.7736 22.1113 21.4983 23.4284 22.8153C24.7013 24.0882 25.4214 25.7676 25.4678 27.5608C25.4701 27.663 25.5514 27.742 25.6536 27.742H27.0473C27.0721 27.742 27.0967 27.7371 27.1195 27.7274C27.1424 27.7178 27.1631 27.7037 27.1804 27.686C27.1977 27.6682 27.2113 27.6472 27.2204 27.6241C27.2294 27.601 27.2338 27.5763 27.2332 27.5516C27.2099 26.4412 26.98 25.3611 26.5479 24.3414ZM18.4993 19.0082C17.4332 19.0082 16.4297 18.5924 15.6748 17.8375C14.9199 17.0826 14.5041 16.0791 14.5041 15.0129C14.5041 13.9468 14.9199 12.9433 15.6748 12.1884C16.4297 11.4335 17.4332 11.0177 18.4993 11.0177C19.5655 11.0177 20.569 11.4335 21.3239 12.1884C22.0788 12.9433 22.4946 13.9468 22.4946 15.0129C22.4946 16.0791 22.0788 17.0826 21.3239 17.8375C20.569 18.5924 19.5655 19.0082 18.4993 19.0082Z" fill="#002642" fill-opacity="0.8"/>
<rect x="1" y="1" width="35" height="35" rx="17.5" stroke="#002642" stroke-opacity="0.8" stroke-width="2"/>
</svg>
