<svg width="37" height="37" viewBox="0 0 37 37" fill="none" xmlns="http://www.w3.org/2000/svg">
<path d="M0 18.5C0 8.28273 8.28273 0 18.5 0C28.7173 0 37 8.28273 37 18.5C37 28.7173 28.7173 37 18.5 37C8.28273 37 0 28.7173 0 18.5Z" fill="#DE5F4C"/>
<path d="M26.5479 24.3415C26.1098 23.3036 25.4739 22.3608 24.6757 21.5657C23.88 20.7683 22.9374 20.1326 21.9 19.6935C21.8907 19.6889 21.8814 19.6866 21.8721 19.6819C23.3192 18.6367 24.26 16.934 24.26 15.013C24.26 11.8308 21.6816 9.25244 18.4993 9.25244C15.3171 9.25244 12.7387 11.8308 12.7387 15.013C12.7387 16.934 13.6795 18.6367 15.1266 19.6842C15.1173 19.6889 15.108 19.6912 15.0987 19.6959C14.0581 20.1349 13.1243 20.7644 12.323 21.5681C11.5256 22.3638 10.8898 23.3064 10.4508 24.3438C10.0195 25.3595 9.78686 26.4484 9.76553 27.5517C9.76491 27.5764 9.76926 27.6011 9.77832 27.6242C9.78738 27.6473 9.80097 27.6683 9.81829 27.6861C9.83561 27.7038 9.8563 27.7179 9.87915 27.7275C9.90201 27.7372 9.92656 27.7421 9.95136 27.7421H11.3451C11.4473 27.7421 11.5286 27.6608 11.5309 27.5609C11.5773 25.7677 12.2974 24.0883 13.5703 22.8154C14.8874 21.4984 16.6364 20.7737 18.4993 20.7737C20.3623 20.7737 22.1113 21.4984 23.4284 22.8154C24.7013 24.0883 25.4214 25.7677 25.4678 27.5609C25.4701 27.6631 25.5514 27.7421 25.6536 27.7421H27.0473C27.0721 27.7421 27.0967 27.7372 27.1195 27.7275C27.1424 27.7179 27.1631 27.7038 27.1804 27.6861C27.1977 27.6683 27.2113 27.6473 27.2204 27.6242C27.2294 27.6011 27.2338 27.5764 27.2332 27.5517C27.2099 26.4413 26.98 25.3612 26.5479 24.3415ZM18.4993 19.0083C17.4332 19.0083 16.4297 18.5925 15.6748 17.8376C14.9199 17.0827 14.5041 16.0792 14.5041 15.013C14.5041 13.9469 14.9199 12.9434 15.6748 12.1885C16.4297 11.4336 17.4332 11.0178 18.4993 11.0178C19.5655 11.0178 20.569 11.4336 21.3239 12.1885C22.0788 12.9434 22.4946 13.9469 22.4946 15.013C22.4946 16.0792 22.0788 17.0827 21.3239 17.8376C20.569 18.5925 19.5655 19.0083 18.4993 19.0083Z" fill="white"/>
</svg>
