<svg width="33" height="34" viewBox="0 0 33 34" fill="none" xmlns="http://www.w3.org/2000/svg">
<path d="M16.3728 16.2653C20.8643 16.2653 24.5054 12.6242 24.5054 8.13266C24.5054 3.64112 20.8643 0 16.3728 0C11.8812 0 8.24011 3.64112 8.24011 8.13266C8.24011 12.6242 11.8812 16.2653 16.3728 16.2653Z" fill="#DE5F4C"/>
<path d="M16.2122 17.7314C12.1531 17.7299 8.24006 19.2458 5.24137 21.9815C2.24268 24.7171 0.374962 28.475 0.00494753 32.5172C-0.0111787 32.7062 0.0122186 32.8965 0.0736504 33.076C0.135082 33.2555 0.233203 33.4202 0.36177 33.5597C0.490336 33.6992 0.646533 33.8104 0.82042 33.8862C0.994307 33.9621 1.18208 34.0009 1.37178 34.0002H31.0492C31.2389 34.0009 31.4266 33.9621 31.6005 33.8862C31.7744 33.8104 31.9306 33.6992 32.0592 33.5597C32.1877 33.4202 32.2859 33.2555 32.3473 33.076C32.4087 32.8965 32.4321 32.7062 32.416 32.5172C32.046 28.4756 30.1788 24.7182 27.1808 21.9826C24.1829 19.247 20.2707 17.7307 16.2122 17.7314Z" fill="#DE5F4C"/>
</svg>
