<svg width="14" height="15" viewBox="0 0 14 15" fill="none" xmlns="http://www.w3.org/2000/svg">
<path d="M1.16412 12.37L1.89079 10.4261L3.06527 11.627L1.16412 12.37ZM12.7234 0.652689L12.623 0.550495C12.2767 0.195355 11.8146 0 11.3242 0C10.8333 0 10.3712 0.195355 10.0249 0.550495L1.42861 9.33978C1.41647 9.35277 1.40653 9.36688 1.39604 9.38043C1.39051 9.38721 1.38444 9.39398 1.37947 9.40133C1.3607 9.42956 1.34524 9.45835 1.33364 9.4894C1.33309 9.48997 1.33254 9.4911 1.33198 9.49166L0.0327049 12.9668C-0.0269305 13.1266 0.0106176 13.3073 0.128784 13.4281C0.209955 13.5111 0.318182 13.5552 0.42917 13.5552C0.47997 13.5552 0.530771 13.5461 0.580467 13.5269L3.97858 12.1978C3.97968 12.1978 3.98079 12.1973 3.98134 12.1967C4.01116 12.1849 4.03987 12.169 4.06693 12.1498C4.07466 12.1448 4.08073 12.138 4.08791 12.1323C4.10116 12.1216 4.11497 12.112 4.12712 12.0996L12.7234 3.30975C13.0713 2.95517 13.2618 2.48316 13.2618 1.98122C13.2618 1.47928 13.0713 1.00783 12.7234 0.652689Z" fill="#DE5F4C"/>
<path d="M13.5759 15H0.428529C0.194405 15 0.00445557 14.8058 0.00445557 14.5664C0.00445557 14.3264 0.194405 14.1328 0.428529 14.1328H13.5759C13.8089 14.1328 14 14.3264 14 14.5664C14 14.8058 13.8089 15 13.5759 15Z" fill="#DE5F4C"/>
</svg>
