<svg width="26" height="25" viewBox="0 0 26 25" fill="none" xmlns="http://www.w3.org/2000/svg">
<path d="M20.6534 0H5.34666C2.3985 0 0 2.3985 0 5.34666C0 8.30908 2.42343 10.6933 5.31477 10.6933H7.71621V6.50416C7.71621 4.6281 9.24244 3.10182 11.1185 3.10182H11.1259C12.9979 3.10583 14.5209 4.63211 14.5209 6.50416V10.6933H20.6534C23.6016 10.6933 26 8.29481 26 5.34666C26 2.3985 23.6016 0 20.6534 0ZM22.1664 4.60109L19.1195 7.64796C18.8221 7.94544 18.3398 7.94549 18.0423 7.64796L16.5188 6.12452C16.2214 5.82705 16.2214 5.34478 16.5188 5.0473C16.8163 4.74982 17.2986 4.74982 17.5961 5.0473L18.5809 6.0321L21.0892 3.52386C21.3866 3.22639 21.8689 3.22639 22.1664 3.52386C22.4638 3.82134 22.4638 4.30366 22.1664 4.60109Z" fill="#002642"/>
<path d="M17.9011 12.837L12.9975 12.3273V6.50409C12.9975 5.46795 12.1588 4.62742 11.1226 4.62519C10.0834 4.62295 9.23972 5.4648 9.23972 6.50409V16.25H9.22266L7.36797 14.7012C6.58569 14.0479 5.41833 14.1704 4.78864 14.9718C4.1848 15.7403 4.3014 16.8496 5.05179 17.4758L8.81636 20.6172H19.9037V15.1046C19.9037 13.9517 19.0451 12.9795 17.9011 12.837Z" fill="#002642"/>
<path d="M9.23963 23.6641C9.23963 24.0847 9.58068 24.4258 10.0014 24.4258H19.142C19.5627 24.4258 19.9037 24.0847 19.9037 23.6641V22.1406H9.23963V23.6641Z" fill="#002642"/>
</svg>
