<svg width="18" height="18" viewBox="0 0 18 18" fill="none" xmlns="http://www.w3.org/2000/svg">
<path d="M14.0967 9.50578L5.0404 16.5792C5.01674 16.5978 4.9883 16.6094 4.95835 16.6126C4.9284 16.6158 4.89816 16.6105 4.8711 16.5973C4.84404 16.5841 4.82125 16.5635 4.80536 16.5379C4.78946 16.5123 4.78111 16.4828 4.78125 16.4527L4.78125 14.8998C4.78125 14.8013 4.82746 14.7069 4.9038 14.6466L12.1359 8.99953L4.9038 3.35243C4.82545 3.29216 4.78125 3.19774 4.78125 3.09931L4.78125 1.5464C4.78125 1.41181 4.93594 1.33748 5.0404 1.41984L14.0967 8.49328C14.1736 8.55332 14.2359 8.63013 14.2787 8.71785C14.3216 8.80557 14.3438 8.90191 14.3438 8.99953C14.3438 9.09715 14.3216 9.19349 14.2787 9.28121C14.2359 9.36893 14.1736 9.44574 14.0967 9.50578Z" fill="#666666"/>
</svg>
