<svg width="47" height="28" viewBox="0 0 47 28" fill="none" xmlns="http://www.w3.org/2000/svg">
<path d="M30.2098 7.72995C30.2098 11.2498 27.3542 14.1044 23.8331 14.1044C20.311 14.1044 17.4564 11.2498 17.4564 7.72995C17.4564 4.21007 20.311 1.35547 23.8331 1.35547C27.3542 1.35547 30.2098 4.21007 30.2098 7.72995Z" fill="black"/>
<path d="M40.8803 4.7274C40.8803 7.22617 38.8441 9.25265 36.3333 9.25265C33.8218 9.25265 31.7863 7.22617 31.7863 4.7274C31.7863 2.22864 33.8218 0.202148 36.3333 0.202148C38.8441 0.202148 40.8803 2.22864 40.8803 4.7274Z" fill="#FAFAF4"/>
<path d="M15.8718 4.7274C15.8718 7.22617 13.8356 9.25265 11.3248 9.25265C8.81326 9.25265 6.77777 7.22617 6.77777 4.7274C6.77777 2.22864 8.81326 0.202148 11.3248 0.202148C13.8356 0.202148 15.8718 2.22864 15.8718 4.7274Z" fill="#FAFAF4"/>
<path d="M30.2098 7.72995C30.2098 11.2498 27.3542 14.1044 23.8331 14.1044C20.311 14.1044 17.4564 11.2498 17.4564 7.72995C17.4564 4.21007 20.311 1.35547 23.8331 1.35547C27.3542 1.35547 30.2098 4.21007 30.2098 7.72995Z" fill="#FAFAF4"/>
<path d="M23.7054 15.252C17.0536 15.252 11.5914 20.3419 11.0044 26.8388C10.9479 27.4633 11.446 27.9999 12.0738 27.9999H35.3371C35.9639 27.9999 36.462 27.4633 36.4065 26.8388C35.8184 20.3419 30.3563 15.252 23.7054 15.252Z" fill="black"/>
<path d="M36.3592 11.1919C33.2408 11.1919 30.4452 12.5566 28.5385 14.715C30.5126 15.1419 32.3485 16.0789 33.8625 17.4606C35.1185 18.6081 36.0868 20.0008 36.7213 21.5353H45.8511C46.3626 21.5353 46.769 21.0999 46.7229 20.5932C46.2439 15.3218 41.7866 11.1919 36.3592 11.1919Z" fill="#FAFAF4"/>
<path d="M23.7054 15.252C17.0536 15.252 11.5914 20.3419 11.0044 26.8388C10.9479 27.4633 11.446 27.9999 12.0738 27.9999H35.3371C35.9639 27.9999 36.462 27.4633 36.4065 26.8388C35.8184 20.3419 30.3563 15.252 23.7054 15.252Z" fill="#FAFAF4"/>
<path d="M10.9741 11.1919C14.0925 11.1919 16.8881 12.5566 18.7949 14.715C16.8207 15.1419 14.9848 16.0789 13.4709 17.4606C12.2148 18.6081 11.2465 20.0008 10.612 21.5353H1.48222C0.970739 21.5353 0.564287 21.0999 0.610397 20.5932C1.08943 15.3218 5.54674 11.1919 10.9741 11.1919Z" fill="#FAFAF4"/>
</svg>
