<svg width="20" height="20" viewBox="0 0 20 20" fill="none" xmlns="http://www.w3.org/2000/svg">
<path d="M1.99283 16.4934L2.96173 13.9015L4.52771 15.5027L1.99283 16.4934ZM17.4053 0.870253L17.2713 0.733993C16.8097 0.260474 16.1934 0 15.5396 0C14.8851 0 14.2689 0.260474 13.8073 0.733993L2.34549 12.453C2.3293 12.4704 2.31604 12.4892 2.30206 12.5072C2.29469 12.5163 2.28659 12.5253 2.27997 12.5351C2.25494 12.5727 2.23432 12.6111 2.21886 12.6525C2.21812 12.6533 2.21739 12.6548 2.21665 12.6556L0.48428 17.2891C0.404766 17.5022 0.454831 17.7431 0.612386 17.9042C0.720613 18.0148 0.864916 18.0736 1.0129 18.0736C1.08063 18.0736 1.14837 18.0615 1.21463 18.0359L5.74545 16.2638C5.74692 16.2638 5.74839 16.263 5.74913 16.2623C5.78888 16.2465 5.82717 16.2254 5.86324 16.1998C5.87355 16.193 5.88165 16.184 5.89122 16.1765C5.90889 16.1622 5.9273 16.1494 5.94349 16.1328L17.4053 4.41299C17.8691 3.94023 18.1231 3.31087 18.1231 2.64162C18.1231 1.97237 17.8691 1.34377 17.4053 0.870253Z" fill="black"/>
<path d="M18.5418 20.0001H1.01196C0.6998 20.0001 0.446533 19.7411 0.446533 19.4219C0.446533 19.102 0.6998 18.8438 1.01196 18.8438H18.5418C18.8525 18.8438 19.1073 19.102 19.1073 19.4219C19.1073 19.7411 18.8525 20.0001 18.5418 20.0001Z" fill="black"/>
</svg>
