<svg xmlns="http://www.w3.org/2000/svg" viewBox="0 0 300 237"><defs><style>.cls-1,.cls-4,.cls-6{fill:#e37a69;}.cls-2,.cls-3,.cls-5,.cls-7{fill:none;}.cls-2,.cls-3,.cls-4,.cls-5,.cls-6,.cls-7{stroke:#fff;}.cls-2{stroke-miterlimit:10;stroke-width:8px;}.cls-3,.cls-4,.cls-5,.cls-6,.cls-7{stroke-linecap:round;stroke-linejoin:round;}.cls-3,.cls-4{stroke-width:6px;}.cls-5{stroke-width:3px;}.cls-6,.cls-7{stroke-width:4px;}.cls-8{fill:#fff;}</style></defs><g id="Layer_2" data-name="Layer 2"><g id="Grid_13" data-name="Grid 13"><rect class="cls-1" width="300" height="237"/><circle class="cls-2" cx="148.5" cy="109.5" r="94.5"/><path class="cls-3" d="M245.1,118.19,202.4,173.5c-23.28,4.76-37.9-1.4-43.68-24.32l20.65-65.63c4.31,9.23,14.73,19.22,28.72,26.41C221.53,116.88,235.17,119.63,245.1,118.19Z"/><polygon class="cls-4" points="148.08 103.97 68.49 120.75 40 63.5 142.91 40.75 148.08 103.97"/><polygon class="cls-4" points="183.97 150.46 62.35 177.92 69.03 124.42 148.62 107.64 183.97 150.46"/><polygon class="cls-4" points="163.71 175.12 83.36 192.76 62.35 177.92 184.24 150.16 163.71 175.12"/><path class="cls-4" d="M258.66,110.15c-2.27,4.43-7.15,7.11-13.56,8-9.93,1.44-23.57-1.31-37-8.23-14-7.19-24.41-17.18-28.72-26.41-2.51-5.37-3-10.49-.82-14.64,5.82-11.28,28.45-11.2,50.58.18S264.48,98.86,258.66,110.15Z"/><polygon class="cls-5" points="130.18 94.19 80.57 104.65 63.6 65.27 126.89 50.72 130.18 94.19"/><line class="cls-5" x1="80.52" y1="104.99" x2="70.15" y2="119.14"/><line class="cls-5" x1="130.6" y1="94.67" x2="148.52" y2="104.24"/><path class="cls-6" d="M226.91,94.63a9.72,9.72,0,0,0,8,4.47L258,57.63l-8-4.46Z"/><path class="cls-7" d="M223.5,142.42c-1.74,1.16-5.12,1.21-9.43.35-6.67-1.33-15.6-4.84-24.17-9.8-8.92-5.15-15.33-10.65-17.72-14.74-1.39-2.38-1.42-4.28.21-5.36,4.45-3,19.49,1.28,33.61,9.44S228,139.48,223.5,142.42Z"/><path class="cls-8" d="M124.4,122.88a27.94,27.94,0,0,0-4.79,23.62A26,26,0,0,0,125,157.24a2,2,0,0,0,1.33.76c-.79-.14-.58-.26-.5-.06.19.44.92,1,1.25,1.33.6.66,1.36,1.83,2.38,1.76a1.57,1.57,0,0,0,1.45-1.1v0c.59-1.84-2.31-2.63-2.9-.8v0l1.45-1.1c.68,0,.92.54.61.08a4.18,4.18,0,0,0-.4-.44c-.35-.38-.69-.78-1-1.16-.62-.67-1.31-1.5-2.3-1.51l1.06.44a25.1,25.1,0,0,1-.43-31c1.16-1.54-1.44-3-2.59-1.51Z"/><path class="cls-8" d="M133.28,121a26.67,26.67,0,0,0,2.37,37c1.41,1.3,3.54-.81,2.12-2.12a23.67,23.67,0,0,1-2.37-32.74c1.22-1.48-.89-3.61-2.12-2.12Z"/><path class="cls-8" d="M131.22,133a19.33,19.33,0,0,1,15.62-7.43c1.93,0,1.93-3,0-3a22.45,22.45,0,0,0-18.21,8.91,1.51,1.51,0,0,0,.54,2.05,1.54,1.54,0,0,0,2.05-.53Z"/><path class="cls-8" d="M130.06,142.67a44.33,44.33,0,0,1,23.48-13.09l-.8-2.89-1.2.29c-1.88.46-1.08,3.35.8,2.89l1.2-.29c1.88-.46,1.08-3.28-.8-2.89a47.11,47.11,0,0,0-24.8,13.86c-1.32,1.41.8,3.54,2.12,2.12Z"/><path class="cls-8" d="M132.18,149.16A16,16,0,0,1,146,155.55a1.55,1.55,0,0,0,2.05.54,1.51,1.51,0,0,0,.54-2.05,19.05,19.05,0,0,0-16.41-7.88c-1.92.12-1.93,3.12,0,3Z"/><path class="cls-8" d="M132.87,140.36a18.86,18.86,0,0,1,19.2,14.7c.43,1.89,3.32,1.09,2.89-.79a21.86,21.86,0,0,0-22.09-16.91c-1.93.09-1.94,3.09,0,3Z"/><path class="cls-8" d="M142.45,133.62A24.41,24.41,0,0,1,159,155c.11,1.91,3.11,1.93,3,0a27.5,27.5,0,0,0-18.7-24.27c-1.84-.6-2.63,2.3-.8,2.89Z"/><path class="cls-8" d="M99.5,133c5.2-.65,10.55-1.08,15.56-2.68,5.29-1.7,9.82-5.11,15.08-6.89a20.84,20.84,0,0,1,15.77.89,29.17,29.17,0,0,1,12,10.87,54.89,54.89,0,0,1,6.82,17.48c.43,1.88,3.32,1.08,2.89-.8-2.56-11.13-7.48-22.52-17.61-28.72a24.79,24.79,0,0,0-15.86-3.74c-6.22.79-11.45,4.23-17,6.87s-11.8,3-17.69,3.72c-1.89.24-1.91,3.24,0,3Z"/><path class="cls-8" d="M76.52,173c-3.33-7.29-2.19-15.59.08-23a38.62,38.62,0,0,1,4.17-9.86,14,14,0,0,1,7.83-5.83c3.69-1.12,7.58-1.18,11.4-1.22a1.5,1.5,0,0,0,0-3c-7.37.07-15.55.59-20.55,6.78-2.48,3.08-3.92,6.8-5.16,10.52a52.65,52.65,0,0,0-2.79,13.13,29.11,29.11,0,0,0,2.43,14c.81,1.75,3.39.23,2.59-1.52Z"/><path class="cls-8" d="M91.4,147.88a58.87,58.87,0,0,1,31.95,15.68c1.4,1.34,3.52-.78,2.12-2.12A61.44,61.44,0,0,0,92.19,145c-1.88-.29-2.7,2.6-.79,2.89Z"/><path class="cls-8" d="M116.62,154.89c.39-.43.8-.85,1.23-1.24l.67-.58.19-.15c.07-.06.28-.19,0,0l.36-.27a18,18,0,0,1,3.07-1.77,1.5,1.5,0,0,0,.69-.89,1.5,1.5,0,0,0-1.05-1.85,1.77,1.77,0,0,0-1.15.15,18.22,18.22,0,0,0-6.09,4.45,1.5,1.5,0,0,0,2.12,2.12Z"/><path class="cls-8" d="M109.88,151a15.77,15.77,0,0,1,10.23-4.4,1.54,1.54,0,0,0,1.5-1.5,1.51,1.51,0,0,0-1.5-1.5,18.93,18.93,0,0,0-12.35,5.28c-1.39,1.34.74,3.46,2.12,2.12Z"/><path class="cls-8" d="M103.47,148.63a16.7,16.7,0,0,1,14.84-7.54c1.93.1,1.93-2.9,0-3a19.71,19.71,0,0,0-17.43,9c-1,1.63,1.55,3.14,2.59,1.51Z"/><path class="cls-8" d="M94.46,139.41c.47-.08-.29,0,.19,0l.44,0a7.09,7.09,0,0,1,.8,0l.36,0s.48.06.18,0a6.91,6.91,0,0,1,.79.16,6.77,6.77,0,0,1,.77.22l.42.15c.29.1-.13-.07.18.07a10.82,10.82,0,0,1,1.41.79,3.28,3.28,0,0,1,.31.2l.17.14c-.09-.07-.09-.08,0,0s.41.34.61.53.38.38.56.58l.28.33c.07.09.06.08,0,0l.09.12a9.54,9.54,0,0,1,.82,1.37l.08.18c.06.14.11.27.16.41a8.19,8.19,0,0,1,.23.85,1.5,1.5,0,1,0,2.9-.8,11.13,11.13,0,0,0-12.52-8.14,1.5,1.5,0,1,0,.79,2.89Z"/><path class="cls-8" d="M102.34,133c.26.05.51.11.76.18l.37.12.18.07c-.17-.07.19.09.23.11l.29.14a7.23,7.23,0,0,1,.66.4l.32.22c.26.19-.15-.14.11.09s.35.31.52.48a6,6,0,0,1,.49.52l.25.3c-.2-.25.06.08.08.11a9.42,9.42,0,0,1,.72,1.23l.17.35c-.14-.31,0,.09,0,.13.08.24.16.49.23.74s.11.46.15.69,0,.26,0,.05c0,.13,0,.25,0,.38a6.77,6.77,0,0,1,0,.78c0,.13,0,.25,0,.38,0,.33,0-.24,0,.12a1.55,1.55,0,0,0,1,1.85,1.53,1.53,0,0,0,1.85-1.05,10,10,0,0,0-7.68-11.28,1.53,1.53,0,0,0-1.84,1.05,1.51,1.51,0,0,0,1,1.84Z"/><path class="cls-8" d="M112.09,130.1a9.68,9.68,0,0,1,1.21,2.06c-.06-.15,0,0,0,.06s.07.19.11.28l.18.57c.11.41.2.83.27,1.25,0,.25,0-.21,0,0l0,.3c0,.2,0,.4,0,.6a9.63,9.63,0,0,1,0,1.2s0,.32,0,.17,0,.15,0,.17l-.12.59a10.11,10.11,0,0,1-.37,1.22,1.51,1.51,0,0,0,1.05,1.85,1.54,1.54,0,0,0,1.84-1.05,11.61,11.61,0,0,0-1.59-10.82,1.55,1.55,0,0,0-2.06-.54,1.5,1.5,0,0,0-.53,2Z"/><path class="cls-8" d="M77.82,141.16A26.57,26.57,0,0,0,88.11,157.5a1.5,1.5,0,0,0,2-.53,1.54,1.54,0,0,0-.54-2.06,23.6,23.6,0,0,1-8.91-14.54,1.5,1.5,0,0,0-2.89.79Z"/><path class="cls-8" d="M74,159.7a15.61,15.61,0,0,0,10.5-7.64,1.5,1.5,0,0,0-2.59-1.51,14.1,14.1,0,0,1-.77,1.23l-.26.36,0,0c-.15.19-.31.37-.47.55a12.64,12.64,0,0,1-1,1c-.18.16-.36.32-.55.47,0,0-.36.29-.15.13l-.3.22A14.93,14.93,0,0,1,75.84,156c-.24.11.32-.12-.11.05l-.34.13-.69.23a15.24,15.24,0,0,1-1.48.37,1.49,1.49,0,0,0-1,1.84,1.54,1.54,0,0,0,1.84,1Z"/><path class="cls-8" d="M74.14,166.71a21.15,21.15,0,0,0,16-9.26,1.51,1.51,0,0,0-.54-2,1.53,1.53,0,0,0-2,.54,18,18,0,0,1-13.42,7.77,1.5,1.5,0,0,0,0,3Z"/><path class="cls-8" d="M78.59,165.67a17.56,17.56,0,0,0,4.94,7.59,1.53,1.53,0,0,0,2.12,0,1.51,1.51,0,0,0,0-2.12,17.78,17.78,0,0,1-1.43-1.45l-.33-.39-.14-.18c-.12-.14.16.22,0,0s-.4-.55-.59-.83a16.22,16.22,0,0,1-1-1.72c-.08-.15-.15-.31-.22-.46l-.11-.26c-.09-.2.09.24,0,0s-.26-.67-.37-1a1.5,1.5,0,1,0-2.9.8Z"/><path class="cls-8" d="M95.59,131.3c-4,3.71-6.9,9.08-5.43,14.64,1.41,5.34,6.59,7.76,11.27,9.67a1.5,1.5,0,0,0,1.84-1,1.54,1.54,0,0,0-1-1.85c-3.65-1.5-8-3.38-9.16-7.58-1.2-4.51,1.47-8.76,4.65-11.72,1.41-1.32-.71-3.43-2.12-2.12Z"/><path class="cls-8" d="M88.37,157.18a26.39,26.39,0,0,0,19.08-3.41c1.63-1,.13-3.62-1.52-2.59a23.22,23.22,0,0,1-16.76,3.11c-1.89-.38-2.69,2.52-.8,2.89Z"/><path class="cls-8" d="M82.84,144.94l.46-.39.23-.19c-.1.08-.08.06.06,0,.33-.24.66-.47,1-.68s.7-.41,1.06-.6l.55-.26.27-.12.06,0a15.91,15.91,0,0,1,2.32-.71l.59-.11c.06,0,.63-.09.35-.06.4,0,.81-.07,1.21-.09a1.5,1.5,0,0,0,0-3,16.37,16.37,0,0,0-10.28,4.15,1.5,1.5,0,0,0,0,2.12,1.53,1.53,0,0,0,2.12,0Z"/><path class="cls-8" d="M87.29,153.13s.2-.26,0-.07,0,0,0,0l.27-.31a6.43,6.43,0,0,1,.6-.57l.14-.12c.21-.17-.19.14,0,0s.22-.16.34-.23a6.37,6.37,0,0,1,.72-.41c.11-.06.23-.1.33-.16-.38.21,0,0,.12,0a7.15,7.15,0,0,1,.79-.23l.41-.08c.06,0,.34-.06.08,0s0,0,0,0a8.43,8.43,0,0,1,.87,0,1.5,1.5,0,0,0,1.5-1.5,1.54,1.54,0,0,0-1.5-1.5,8.76,8.76,0,0,0-7.32,3.76,1.49,1.49,0,0,0,.54,2,1.53,1.53,0,0,0,2.05-.54Z"/><path class="cls-8" d="M85.08,161.47a15.68,15.68,0,0,0,9.6,9.62A1.51,1.51,0,0,0,96.52,170a1.54,1.54,0,0,0-1-1.85c-.25-.08-.48-.17-.72-.27.32.13-.08,0-.11,0l-.35-.16c-.44-.22-.86-.46-1.28-.72l-.63-.43-.26-.19c-.28-.21.14.13-.1-.08-.39-.33-.78-.66-1.14-1a12.69,12.69,0,0,1-1-1.09l-.12-.15c.09.12.1.14,0,0l-.19-.26c-.15-.2-.29-.41-.43-.63-.27-.43-.52-.88-.75-1.34-.06-.11-.11-.23-.16-.34s-.18-.42,0-.11q-.15-.36-.27-.72a1.5,1.5,0,1,0-2.9.8Z"/><path class="cls-8" d="M91.81,158.33a30.42,30.42,0,0,0,10.64,10.36A1.5,1.5,0,1,0,104,166.1a27.26,27.26,0,0,1-9.57-9.28,1.5,1.5,0,1,0-2.59,1.51Z"/><path class="cls-8" d="M101.91,157.41a60.75,60.75,0,0,0,10.27,9.15,1.52,1.52,0,0,0,2.06-.53,1.54,1.54,0,0,0-.54-2.06,58,58,0,0,1-9.67-8.68,1.51,1.51,0,0,0-2.12,0,1.53,1.53,0,0,0,0,2.12Z"/></g></g></svg>