<?xml version="1.0" standalone="no"?>
<!DOCTYPE svg PUBLIC "-//W3C//DTD SVG 20010904//EN"
 "http://www.w3.org/TR/2001/REC-SVG-20010904/DTD/svg10.dtd">
<svg version="1.0" xmlns="http://www.w3.org/2000/svg"
 width="378.000000pt" height="348.000000pt" viewBox="0 0 378.000000 348.000000"
 preserveAspectRatio="xMidYMid meet">

<g transform="translate(0.000000,348.000000) scale(0.100000,-0.100000)"
fill="#4b8daf" stroke="none">
<path d="M2720 2606 c-33 -12 -280 -107 -380 -146 -25 -10 -124 -48 -220 -85
-96 -37 -195 -76 -220 -85 -25 -10 -151 -58 -280 -108 -129 -50 -311 -121
-405 -157 -93 -37 -181 -70 -195 -75 -48 -16 -123 -50 -151 -71 -31 -22 -39
-59 -16 -77 15 -13 90 -40 227 -82 58 -18 143 -44 190 -59 l85 -27 83 -255
c114 -349 111 -343 148 -347 16 -2 39 1 51 5 12 4 78 64 147 132 l126 123 28
-18 c25 -16 114 -82 302 -224 139 -105 168 -121 211 -122 28 0 47 6 61 20 20
19 53 152 123 487 28 139 46 222 75 355 12 52 32 149 45 215 14 66 32 152 40
190 56 251 67 328 56 365 -17 56 -62 72 -131 46z m-210 -300 c0 -8 -44 -54
-97 -103 -54 -48 -100 -90 -103 -93 -3 -3 -72 -66 -155 -140 -82 -74 -155
-140 -162 -146 -6 -6 -90 -82 -186 -168 l-175 -157 -11 -132 c-17 -183 -21
-217 -29 -217 -4 0 -26 60 -50 133 -24 72 -61 186 -82 252 -37 113 -38 121
-22 136 14 14 300 197 482 309 25 15 144 90 265 167 121 77 234 147 250 156
37 20 75 22 75 3z"/>
</g>
</svg>
