<svg width="27" height="27" viewBox="0 0 27 27" fill="none" xmlns="http://www.w3.org/2000/svg">
<path d="M13.5 26C20.4036 26 26 20.4036 26 13.5C26 6.59644 20.4036 1 13.5 1C6.59644 1 1 6.59644 1 13.5C1 20.4036 6.59644 26 13.5 26Z" stroke="#DE5F4C" stroke-width="2" stroke-miterlimit="10"/>
<path d="M20.8946 8.48929C20.7349 8.30852 20.5399 8.16239 20.3215 8.0599C20.1032 7.95741 19.8661 7.90073 19.625 7.89337C19.3839 7.88601 19.1439 7.92811 18.9197 8.01709C18.6955 8.10607 18.4919 8.24003 18.3214 8.41072L14.5714 12.1607L10.8214 15.9107L10.1964 16.5357L7.64999 13.9893C7.33039 13.6613 6.89818 13.4669 6.44073 13.4453C5.98329 13.4238 5.53472 13.5767 5.1857 13.8732C5.00494 14.0329 4.8588 14.228 4.75631 14.4463C4.65382 14.6647 4.59714 14.9017 4.58978 15.1428C4.58242 15.3839 4.62453 15.624 4.7135 15.8482C4.80248 16.0724 4.93644 16.276 5.10713 16.4464L7.86785 19.2143L9.55356 20.9C9.71598 21.0682 9.9379 21.166 10.1716 21.1723C10.4054 21.1787 10.6323 21.0931 10.8036 20.9339L10.8196 20.9179L13.3196 18.4179L17.0696 14.6679L20.7714 10.9661C21.1032 10.6464 21.3007 10.2123 21.3236 9.75209C21.3465 9.29191 21.1931 8.84032 20.8946 8.48929Z" fill="#DE5F4C"/>
</svg>
