<svg width="39" height="39" viewBox="0 0 39 39" fill="none" xmlns="http://www.w3.org/2000/svg">
<path d="M13.65 0C8.26522 0 3.9 4.85025 3.9 10.8333C3.9 16.8164 8.26522 21.6667 13.65 21.6667C19.0348 21.6667 23.4 16.8164 23.4 10.8333C23.4 4.85025 19.0348 0 13.65 0ZM7.8 10.8333C7.8 7.24348 10.4191 4.33333 13.65 4.33333C16.8809 4.33333 19.5 7.24348 19.5 10.8333C19.5 14.4232 16.8809 17.3333 13.65 17.3333C10.4191 17.3333 7.8 14.4232 7.8 10.8333Z" fill="#58B994"/>
<path d="M29.0714 11.3063C28.5228 10.9955 27.9158 10.8335 27.3 10.8335V6.50013C28.5316 6.50013 29.7457 6.82406 30.8429 7.44564C30.9638 7.5141 31.0828 7.58596 31.2 7.66111C32.1465 8.2683 32.969 9.09066 33.6127 10.0762C34.3361 11.1837 34.8132 12.4659 35.0049 13.8176C35.1966 15.1694 35.0975 16.5524 34.7157 17.8534C34.3339 19.1545 33.6802 20.3366 32.8082 21.3029C31.9362 22.2693 30.8706 22.9925 29.6987 23.4134C28.6558 23.7878 27.5551 23.9134 26.4684 23.7839C26.3339 23.7679 26.1996 23.748 26.0657 23.7241C24.8504 23.5077 23.6985 22.9749 22.7041 22.1691L22.7021 22.1675L25.001 18.6671C25.4985 19.0704 26.0748 19.337 26.6829 19.4453C27.2909 19.5535 27.9134 19.5003 28.4993 19.2899C29.0852 19.0795 29.618 18.7179 30.054 18.2347C30.49 17.7515 30.8168 17.1605 31.0077 16.51C31.1986 15.8595 31.2482 15.168 31.1523 14.4922C31.0565 13.8163 30.818 13.1753 30.4563 12.6215C30.0946 12.0678 29.62 11.6171 29.0714 11.3063Z" fill="#58B994"/>
<path d="M35.0963 39C35.0963 37.8624 34.8946 36.736 34.5028 35.685C34.111 34.634 33.5368 33.679 32.8128 32.8746C32.0889 32.0703 31.2294 31.4322 30.2835 30.9968C29.3376 30.5615 28.3238 30.3374 27.3 30.3374V26C28.6301 26 29.9488 26.252 31.2 26.7435C31.3942 26.8198 31.5867 26.9018 31.7774 26.9896C33.1969 27.6429 34.4867 28.6005 35.5732 29.8076C36.6596 31.0148 37.5214 32.4479 38.1094 34.0251C38.1884 34.237 38.2622 34.4509 38.3309 34.6667C38.7732 36.0568 39 37.5222 39 39H35.0963Z" fill="#58B994"/>
<path d="M27.3 39H23.4C23.4 33.0169 19.0348 28.1667 13.65 28.1667C8.26522 28.1667 3.9 33.0169 3.9 39H0C0 30.6237 6.11131 23.8333 13.65 23.8333C21.1887 23.8333 27.3 30.6237 27.3 39Z" fill="#58B994"/>
</svg>
