<svg width="50" height="50" viewBox="0 0 50 50" fill="none" xmlns="http://www.w3.org/2000/svg">
<circle cx="25" cy="25" r="23.5" stroke="#D9E0E7" stroke-width="3"/>
<path d="M31.8161 34H28.8681C28.6628 34 28.4978 33.9487 28.3731 33.846C28.2558 33.7433 28.1605 33.626 28.0871 33.494L24.4021 27.389C24.3435 27.5723 24.2738 27.73 24.1931 27.862L20.6621 33.494C20.5741 33.6187 20.4715 33.736 20.3541 33.846C20.2441 33.9487 20.0975 34 19.9141 34H17.1531L22.4331 25.816L17.3621 18.094H20.3101C20.5155 18.094 20.6621 18.1233 20.7501 18.182C20.8455 18.2333 20.9335 18.3213 21.0141 18.446L24.6331 24.276C24.7065 24.0927 24.7945 23.9093 24.8971 23.726L28.2191 18.501C28.2998 18.3617 28.3878 18.259 28.4831 18.193C28.5785 18.127 28.6995 18.094 28.8461 18.094H31.6731L26.5581 25.695L31.8161 34Z" fill="#D9E0E7"/>
</svg>
