<?xml version="1.0" encoding="UTF-8" standalone="no"?>
<!-- Created with Inkscape (http://www.inkscape.org/) -->

<svg
   xmlns:dc="http://purl.org/dc/elements/1.1/"
   xmlns:cc="http://creativecommons.org/ns#"
   xmlns:rdf="http://www.w3.org/1999/02/22-rdf-syntax-ns#"
   xmlns:svg="http://www.w3.org/2000/svg"
   xmlns="http://www.w3.org/2000/svg"
   xmlns:sodipodi="http://sodipodi.sourceforge.net/DTD/sodipodi-0.dtd"
   xmlns:inkscape="http://www.inkscape.org/namespaces/inkscape"
   width="287.89346"
   height="398.82751"
   id="svg2"
   version="1.1"
   inkscape:version="0.48.4 r9939"
   sodipodi:docname="washing machine.svg">
  <defs
     id="defs4" />
  <sodipodi:namedview
     id="base"
     pagecolor="#ffffff"
     bordercolor="#666666"
     borderopacity="1.0"
     inkscape:pageopacity="0.0"
     inkscape:pageshadow="2"
     inkscape:zoom="0.98994949"
     inkscape:cx="240.68421"
     inkscape:cy="175.91026"
     inkscape:document-units="px"
     inkscape:current-layer="layer1"
     showgrid="false"
     showguides="true"
     inkscape:guide-bbox="true"
     inkscape:window-width="1600"
     inkscape:window-height="837"
     inkscape:window-x="-8"
     inkscape:window-y="-8"
     inkscape:window-maximized="1"
     fit-margin-top="0"
     fit-margin-left="0"
     fit-margin-right="0"
     fit-margin-bottom="0" />
  <metadata
     id="metadata7">
    <rdf:RDF>
      <cc:Work
         rdf:about="">
        <dc:format>image/svg+xml</dc:format>
        <dc:type
           rdf:resource="http://purl.org/dc/dcmitype/StillImage" />
        <dc:title />
      </cc:Work>
    </rdf:RDF>
  </metadata>
  <g
     inkscape:label="Layer 1"
     inkscape:groupmode="layer"
     id="layer1"
     transform="translate(-167.68532,-307.05234)">
    <g
       id="g3009">
      <rect
         y="381.62088"
         x="167.68532"
         height="324.25897"
         width="287.89346"
         id="rect2996"
         style="fill:#000000;fill-opacity:1;stroke:none" />
      <rect
         ry="10.101525"
         y="307.05234"
         x="167.68532"
         height="68.690376"
         width="287.89346"
         id="rect2998"
         style="fill:#000000;fill-opacity:1;stroke:none" />
      <rect
         ry="7.5761437"
         y="316.97113"
         x="179.80716"
         height="46.467018"
         width="80.812202"
         id="rect3000"
         style="fill:#ffffff;fill-opacity:1;stroke:none" />
      <path
         transform="translate(-174.28571,-120)"
         d="m 518.57144,461.29074 c 0,6.90356 -5.59644,12.5 -12.5,12.5 -6.90356,0 -12.5,-5.59644 -12.5,-12.5 0,-6.90356 5.59644,-12.5 12.5,-12.5 6.90356,0 12.5,5.59644 12.5,12.5 z"
         sodipodi:ry="12.5"
         sodipodi:rx="12.5"
         sodipodi:cy="461.29074"
         sodipodi:cx="506.07144"
         id="path3021"
         style="fill:#ffffff;fill-opacity:1;stroke:none"
         sodipodi:type="arc" />
      <path
         transform="translate(-135.36417,-120.61792)"
         d="m 518.57144,461.29074 c 0,6.90356 -5.59644,12.5 -12.5,12.5 -6.90356,0 -12.5,-5.59644 -12.5,-12.5 0,-6.90356 5.59644,-12.5 12.5,-12.5 6.90356,0 12.5,5.59644 12.5,12.5 z"
         sodipodi:ry="12.5"
         sodipodi:rx="12.5"
         sodipodi:cy="461.29074"
         sodipodi:cx="506.07144"
         id="path3021-7"
         style="fill:#ffffff;fill-opacity:1;stroke:none"
         sodipodi:type="arc" />
      <path
         inkscape:connector-curvature="0"
         id="path3021-4"
         d="m 427.28414,322.89333 -3.8007,3.8007 c -6.80695,-4.6021 -16.11476,-3.9052 -22.14128,2.12132 -6.02664,6.02665 -6.74583,15.3564 -2.14342,22.16338 l -3.33666,3.33666 4.48571,4.48571 3.31456,-3.31456 c 6.82907,4.81283 16.31944,4.18666 22.42855,-1.92245 6.10989,-6.10989 6.73728,-15.59929 1.92244,-22.42854 l 3.75651,-3.75651 -4.48571,-4.48571 z"
         style="fill:#ffffff;fill-opacity:1;stroke:none" />
      <path
         transform="matrix(1.2516556,0,0,1.2516556,295.82751,-47.790554)"
         d="m 88.893424,450.81635 c 0,42.12083 -34.145683,76.26651 -76.266518,76.26651 -42.120834,0 -76.266517,-34.14568 -76.266517,-76.26651 0,-42.12084 34.145683,-76.26652 76.266517,-76.26652 42.120835,0 76.266518,34.14568 76.266518,76.26652 z"
         sodipodi:ry="76.266518"
         sodipodi:rx="76.266518"
         sodipodi:cy="450.81635"
         sodipodi:cx="12.626906"
         id="path3051"
         style="fill:#ffffff;fill-opacity:1;stroke:none"
         sodipodi:type="arc" />
      <path
         inkscape:connector-curvature="0"
         id="path3051-9"
         d="m 310.65625,441.03125 c -23.20255,0 -43.93906,10.46188 -57.78125,26.9375 10.7147,13.02907 17.125,29.72056 17.125,47.90625 0,18.47097 -6.63757,35.38353 -17.65625,48.5 13.83954,16.82905 34.82297,27.5625 58.3125,27.5625 41.67508,0 75.46875,-33.79367 75.46875,-75.46875 0,-41.67508 -33.79367,-75.4375 -75.46875,-75.4375 z"
         style="fill:#000000;fill-opacity:1;stroke:none" />
      <rect
         ry="7.5761437"
         y="640.05591"
         x="357.86191"
         height="46.467018"
         width="80.812202"
         id="rect3000-1"
         style="fill:#ffffff;fill-opacity:1;stroke:none" />
    </g>
  </g>
</svg>
