<svg width="49" height="49" viewBox="0 0 49 49" fill="none" xmlns="http://www.w3.org/2000/svg">
<g clip-path="url(#clip0)">
<path d="M41.7535 0.985916V8.87324L24.5005 9.85916L7.38309 8.72299V1.14494C7.38309 0.600718 7.82478 0.159028 8.369 0.159028L9.21827 0H40.7676C41.3118 0 41.7535 0.44169 41.7535 0.985916Z" fill="#8C818F"/>
<path d="M9.21829 0V8.98563L7.24646 8.87324V0.985916C7.24646 0.44169 7.68815 0 8.23237 0H9.21829Z" fill="#766D78"/>
<path d="M16.3172 5.66903H10.993C10.5846 5.66903 10.2536 5.33796 10.2536 4.92959C10.2536 4.52123 10.5846 4.19016 10.993 4.19016H16.3172C16.7256 4.19016 17.0566 4.52123 17.0566 4.92959C17.0566 5.33796 16.7256 5.66903 16.3172 5.66903Z" fill="#E9EDF1"/>
<path d="M20.0634 7.27063C19.655 7.27063 19.324 6.93956 19.324 6.53119V2.34204C19.324 1.93367 19.655 1.6026 20.0634 1.6026C20.4719 1.6026 20.8029 1.93367 20.8029 2.34204V6.53109C20.8029 6.93956 20.4719 7.27063 20.0634 7.27063Z" fill="#766D78"/>
<path d="M28.9367 7.27063C28.5282 7.27063 28.1973 6.93956 28.1973 6.53119V2.34204C28.1973 1.93367 28.5282 1.6026 28.9367 1.6026C29.3452 1.6026 29.6761 1.93367 29.6761 2.34204V6.53109C29.6761 6.93956 29.3452 7.27063 28.9367 7.27063Z" fill="#766D78"/>
<path d="M38.5 5.91551H32.1902C32.0268 5.91551 31.8944 5.7831 31.8944 5.61973V3.25354C31.8944 3.09017 32.0268 2.95776 32.1902 2.95776H38.5C38.6634 2.95776 38.7958 3.09017 38.7958 3.25354V5.61973C38.7958 5.7831 38.6634 5.91551 38.5 5.91551Z" fill="#E9EDF1"/>
<path d="M24.5005 6.0618C25.398 6.0618 26.1256 5.33418 26.1256 4.43661C26.1256 3.53905 25.398 2.81143 24.5005 2.81143C23.6029 2.81143 22.8753 3.53905 22.8753 4.43661C22.8753 5.33418 23.6029 6.0618 24.5005 6.0618Z" fill="#766D78"/>
<path d="M24.5001 6.65494C23.277 6.65494 22.2818 5.65986 22.2818 4.43663C22.2818 3.21341 23.277 2.21832 24.5001 2.21832C25.7232 2.21832 26.7184 3.21341 26.7184 4.43663C26.7184 5.65986 25.7232 6.65494 24.5001 6.65494ZM24.5001 3.6972C24.0923 3.6972 23.7606 4.02886 23.7606 4.43663C23.7606 4.84441 24.0923 5.17607 24.5001 5.17607C24.9079 5.17607 25.2395 4.84441 25.2395 4.43663C25.2395 4.02886 24.9079 3.6972 24.5001 3.6972Z" fill="#655E67"/>
<path d="M41.7535 8.87324V47.0282L41.6567 47.9977C41.6567 48.5419 41.2796 48.7956 40.7353 48.7956L8.69604 48.5748C8.15182 48.5748 7.73941 48.442 7.73941 47.8977V8.7569L41.7535 8.87324Z" fill="#F7F9FA"/>
<path d="M41.7535 47.0282V48.0141C41.7535 48.5586 41.3121 49 40.7676 49H8.23238C7.68785 49 7.24646 48.5586 7.24646 48.0141V8.7569H9.21829V46.5352C9.21829 46.8074 9.43904 47.0282 9.71125 47.0282H41.7535Z" fill="#E9EDF1"/>
<path d="M16.3172 45.0933H10.993C10.5846 45.0933 10.2536 44.7622 10.2536 44.3539C10.2536 43.9455 10.5846 43.6144 10.993 43.6144H16.3172C16.7256 43.6144 17.0566 43.9455 17.0566 44.3539C17.0566 44.7622 16.7256 45.0933 16.3172 45.0933Z" fill="#E9EDF1"/>
<path d="M35.6407 14.7887H38.4999C38.6633 14.7887 38.7957 14.6563 38.7957 14.493V12.1268C38.7957 11.9634 38.6633 11.831 38.4999 11.831H35.6407C35.4774 11.831 35.345 11.9634 35.345 12.1268V14.493C35.345 14.6563 35.4774 14.7887 35.6407 14.7887Z" fill="#E9EDF1"/>
<path d="M38.7958 26.8438C38.7958 18.9485 32.3954 12.548 24.5001 12.548C20.6778 12.548 17.2058 14.0481 14.6408 16.4918C11.9077 19.0957 10.6568 22.7689 10.6568 26.8419C10.6568 34.7372 16.673 40.7799 24.5684 40.7799C28.3906 40.7799 31.7943 39.6396 34.3592 37.1961C37.0925 34.5921 38.7958 30.9169 38.7958 26.8438Z" fill="#8C818F"/>
<path d="M35.5462 35.9179C32.9246 39.1063 28.9494 41.1393 24.5 41.1393C16.6048 41.1393 10.2042 34.7387 10.2042 26.8435C10.2042 22.3941 12.2372 18.4189 15.4256 15.7973C13.3946 18.2651 12.176 21.4259 12.176 24.8717C12.176 32.7669 18.5766 39.1675 26.4718 39.1675C29.9176 39.1675 33.0784 37.9489 35.5462 35.9179Z" fill="#766D78"/>
<path d="M34.2881 25.6604H34.2112C29.3556 25.6604 29.3556 28.0266 24.5 28.0266C19.6443 28.0266 19.6443 25.6604 14.7887 25.6604L15.0128 25.6621C15.2973 23.2794 16.1309 21.1561 17.8036 19.6073C19.5618 17.9793 21.9147 16.9843 24.5 16.9843C29.5449 16.9843 33.7045 20.7732 34.2881 25.6604Z" fill="#E9EDF1"/>
<path d="M31.3486 25.9855C30.926 22.579 28.021 19.9425 24.5001 19.9425C21.6714 19.9425 19.2401 21.6739 18.1744 24.1211C17.9145 24.718 18.2573 25.4024 18.1739 26.0697L24.5 29.8756L31.3486 25.9855Z" fill="#FFBF54"/>
<path d="M31.3482 25.9858L24.5 29.8752L17.6528 26.0242C17.7356 25.3568 17.9141 24.7179 18.1753 24.1214C19.1051 24.3876 19.8297 24.7406 20.508 25.0709C21.6359 25.621 22.5272 26.0548 24.5 26.0548C26.4728 26.0548 27.3641 25.621 28.492 25.0709C29.1742 24.7386 29.9028 24.3837 30.8404 24.1165C31.0938 24.7021 31.2673 25.3302 31.3482 25.9858Z" fill="#FFA442"/>
<path d="M32.5529 21.1538C32.5441 21.142 32.5362 21.1311 32.5283 21.1203C32.4435 21.1735 31.7553 21.6162 31.0396 22.4394C31.8904 23.6975 32.3873 25.2138 32.3873 26.8435C32.3873 28.5245 31.8588 30.0842 30.9587 31.3659C31.3797 31.8401 31.8677 32.2276 32.4041 32.5046L32.5312 32.5628C32.5391 32.552 32.547 32.5411 32.5559 32.5293C33.6917 30.9222 34.3591 28.9603 34.3591 26.8435C34.3591 24.7248 33.6907 22.7618 32.5529 21.1538Z" fill="#E9EDF1"/>
<path d="M34.3591 26.8435C34.3591 29.082 33.6132 31.1462 32.3564 32.801C30.5558 35.1719 27.7451 36.3228 24.5384 36.3228C19.0932 36.3228 14.9227 32.2868 14.9227 26.8416C14.9227 26.4413 14.6645 26.0479 14.7118 25.6604H14.7887C19.6444 25.6604 19.6444 28.0266 24.5 28.0266C29.3556 28.0266 29.3556 25.6604 34.2113 25.6604H34.2882C34.3355 26.0479 34.3591 26.4432 34.3591 26.8435Z" fill="#C3DDFF"/>
<path d="M16.6127 24.8717C16.6127 25.1852 16.6275 25.4948 16.657 25.8004C16.657 25.8004 16.1691 26.2665 15.4504 26.2665L14.7118 25.6604C15.0391 22.9235 16.4875 20.5307 18.5855 18.9542C17.3462 20.6027 16.6127 22.6514 16.6127 24.8717Z" fill="#DCE6EB"/>
<path d="M32.3873 32.759C30.589 35.1538 27.7259 36.7027 24.5 36.7027C19.0548 36.7027 14.6408 32.2887 14.6408 26.8435C14.6408 26.4432 14.6645 26.0479 14.7118 25.6604H14.7887C15.5075 25.6604 16.1197 25.7127 16.657 25.8004C17.1244 30.8109 21.3401 34.7309 26.4718 34.7309C28.6921 34.7309 30.7399 33.9973 32.3873 32.759Z" fill="#A4CCFF"/>
<path d="M31.6973 42.5916H38.5001C38.6634 42.5916 38.7959 42.724 38.7959 42.8873V45.7465C38.7959 45.9098 38.6634 46.0423 38.5001 46.0423H31.6973C31.5339 46.0423 31.4015 45.9098 31.4015 45.7465V42.8873C31.4015 42.724 31.5339 42.5916 31.6973 42.5916Z" fill="#E9EDF1"/>
<path d="M32.5316 32.5632C33.0243 31.8761 35.7979 29.7766 35.8072 26.8438C35.8167 23.8733 33.019 21.8044 32.5287 21.1206C32.4652 21.16 32.3508 21.7126 31.8575 22.1789C31.6873 22.3399 31.2233 22.2283 31.0396 22.4394C30.2061 23.3977 29.3352 24.8712 29.3352 26.8437C29.3352 28.6328 29.9604 30.2431 30.9584 31.366C31.1692 31.6032 31.6159 31.6008 31.8575 31.7914C32.0992 31.9822 32.1359 32.3661 32.4036 32.5046L32.5316 32.5632Z" fill="#8C818F"/>
<path d="M34.3591 26.8435C34.3591 28.9603 33.6917 30.9222 32.5559 32.5293C32.547 32.5411 32.5391 32.552 32.5312 32.5628L32.4041 32.5046C31.8677 32.2276 31.3797 31.8401 30.9587 31.3659C31.8588 30.0842 32.3873 28.5245 32.3873 26.8435C32.3873 25.2138 31.8904 23.6975 31.0396 22.4394C31.7553 21.6162 32.4435 21.1735 32.5283 21.1203C32.5362 21.1311 32.5441 21.142 32.5529 21.1538C33.6907 22.7618 34.3591 24.7248 34.3591 26.8435Z" fill="#766D78"/>
</g>
<defs>
<clipPath id="clip0">
<rect width="49" height="49" fill="white"/>
</clipPath>
</defs>
</svg>
