<svg width="100" height="100" viewBox="-5 -5 93 93" fill="none" xmlns="http://www.w3.org/2000/svg">
<path d="M36 1.44337C37.547 0.550211 39.453 0.550212 41 1.44338L69.342 17.8066C70.889 18.6998 71.842 20.3504 71.842 22.1368V54.8633C71.842 56.6496 70.889 58.3002 69.342 59.1934L41 75.5566C39.453 76.4498 37.547 76.4498 36 75.5566L7.65802 59.1934C6.11102 58.3002 5.15802 56.6496 5.15802 54.8633V22.1367C5.15802 20.3504 6.11102 18.6998 7.65802 17.8066L36 1.44337Z" fill="#DE5F4C"/>
<g clip-path="url(#clip0)">
<path d="M31.8739 20.5315C31.8739 19.6857 31.1882 19 30.3423 19C29.4965 19 28.8108 19.6857 28.8108 20.5315V26.6577C28.8108 27.5035 29.4965 28.1892 30.3423 28.1892C31.1882 28.1892 31.8739 27.5035 31.8739 26.6577V20.5315Z" fill="#FAFAF4"/>
<path d="M50.0685 24.2072H48.4144V26.6577C48.4144 27.3888 48.124 28.09 47.607 28.607C47.09 29.124 46.3888 29.4144 45.6576 29.4144C44.9265 29.4144 44.2253 29.124 43.7083 28.607C43.1913 28.09 42.9009 27.3888 42.9009 26.6577V24.2072H33.0991V26.6577C33.0991 27.3888 32.8086 28.09 32.2916 28.607C31.7747 29.124 31.0735 29.4144 30.3423 29.4144C29.6112 29.4144 28.91 29.124 28.393 28.607C27.876 28.09 27.5856 27.3888 27.5856 26.6577V24.2072H25.9315C23.2912 24.2072 21.1531 26.7189 21.1531 29.8218V52.2863C21.1531 55.3892 23.2912 57.9009 25.9315 57.9009H50.0685C52.7088 57.9009 54.8468 55.3892 54.8468 52.2863V29.8218C54.8468 26.7189 52.7088 24.2072 50.0685 24.2072ZM53.3153 52.2863C53.3153 54.5377 51.8573 56.3694 50.0685 56.3694H25.9315C24.1427 56.3694 22.6847 54.5315 22.6847 52.2863V36.971H53.3153V52.2863Z" fill="#FAFAF4" stroke="#FAFAF4" stroke-miterlimit="10"/>
<path d="M47.1892 20.5315C47.1892 19.6857 46.5035 19 45.6576 19C44.8118 19 44.1261 19.6857 44.1261 20.5315V26.6577C44.1261 27.5035 44.8118 28.1892 45.6576 28.1892C46.5035 28.1892 47.1892 27.5035 47.1892 26.6577V20.5315Z" fill="#FAFAF4"/>
<path d="M28.8108 41.2072H26.054C25.7157 41.2072 25.4414 41.4815 25.4414 41.8198V44.5766C25.4414 44.9149 25.7157 45.1892 26.054 45.1892H28.8108C29.1491 45.1892 29.4234 44.9149 29.4234 44.5766V41.8198C29.4234 41.4815 29.1491 41.2072 28.8108 41.2072Z" fill="#FAFAF4" stroke="#FAFAF4" stroke-miterlimit="10"/>
<path d="M35.8558 41.2072H33.0991C32.7607 41.2072 32.4865 41.4815 32.4865 41.8198V44.5766C32.4865 44.9149 32.7607 45.1892 33.0991 45.1892H35.8558C36.1942 45.1892 36.4684 44.9149 36.4684 44.5766V41.8198C36.4684 41.4815 36.1942 41.2072 35.8558 41.2072Z" fill="#FAFAF4" stroke="#FAFAF4" stroke-miterlimit="10"/>
<path d="M42.9009 41.2072H40.1441C39.8058 41.2072 39.5315 41.4815 39.5315 41.8198V44.5766C39.5315 44.9149 39.8058 45.1892 40.1441 45.1892H42.9009C43.2392 45.1892 43.5135 44.9149 43.5135 44.5766V41.8198C43.5135 41.4815 43.2392 41.2072 42.9009 41.2072Z" fill="#FAFAF4" stroke="#FAFAF4" stroke-miterlimit="10"/>
<path d="M49.9459 41.2072H47.1892C46.8508 41.2072 46.5765 41.4815 46.5765 41.8198V44.5766C46.5765 44.9149 46.8508 45.1892 47.1892 45.1892H49.9459C50.2842 45.1892 50.5585 44.9149 50.5585 44.5766V41.8198C50.5585 41.4815 50.2842 41.2072 49.9459 41.2072Z" fill="#FAFAF4" stroke="#FAFAF4" stroke-miterlimit="10"/>
<path d="M28.8108 48.5586H26.054C25.7157 48.5586 25.4414 48.8328 25.4414 49.1712V51.9279C25.4414 52.2663 25.7157 52.5405 26.054 52.5405H28.8108C29.1491 52.5405 29.4234 52.2663 29.4234 51.9279V49.1712C29.4234 48.8328 29.1491 48.5586 28.8108 48.5586Z" fill="#FAFAF4" stroke="#FAFAF4" stroke-miterlimit="10"/>
<path d="M35.8558 48.5586H33.0991C32.7607 48.5586 32.4865 48.8328 32.4865 49.1712V51.9279C32.4865 52.2663 32.7607 52.5405 33.0991 52.5405H35.8558C36.1942 52.5405 36.4684 52.2663 36.4684 51.9279V49.1712C36.4684 48.8328 36.1942 48.5586 35.8558 48.5586Z" fill="#FAFAF4" stroke="#FAFAF4" stroke-miterlimit="10"/>
<path d="M42.9009 48.5586H40.1441C39.8058 48.5586 39.5315 48.8328 39.5315 49.1712V51.9279C39.5315 52.2663 39.8058 52.5405 40.1441 52.5405H42.9009C43.2392 52.5405 43.5135 52.2663 43.5135 51.9279V49.1712C43.5135 48.8328 43.2392 48.5586 42.9009 48.5586Z" fill="#FAFAF4" stroke="#FAFAF4" stroke-miterlimit="10"/>
<path d="M49.9459 48.5586H47.1892C46.8508 48.5586 46.5765 48.8328 46.5765 49.1712V51.9279C46.5765 52.2663 46.8508 52.5405 47.1892 52.5405H49.9459C50.2842 52.5405 50.5585 52.2663 50.5585 51.9279V49.1712C50.5585 48.8328 50.2842 48.5586 49.9459 48.5586Z" fill="#FAFAF4" stroke="#FAFAF4" stroke-miterlimit="10"/>
</g>
<defs>
<clipPath id="clip0">
<rect width="34" height="39.0541" fill="white" transform="translate(21 19)"/>
</clipPath>
</defs>
</svg>
