<svg width="77" height="77" viewBox="0 0 77 77" fill="none" xmlns="http://www.w3.org/2000/svg">
<path d="M36 1.44337C37.547 0.550211 39.453 0.550212 41 1.44338L69.342 17.8066C70.889 18.6998 71.842 20.3504 71.842 22.1368V54.8633C71.842 56.6496 70.889 58.3002 69.342 59.1934L41 75.5566C39.453 76.4498 37.547 76.4498 36 75.5566L7.65802 59.1934C6.11102 58.3002 5.15802 56.6496 5.15802 54.8633V22.1367C5.15802 20.3504 6.11102 18.6998 7.65802 17.8066L36 1.44337Z" fill="#DE5F4C"/>
<g clip-path="url(#clip0)">
<path d="M31.8739 20.5315C31.8739 19.6857 31.1882 19 30.3423 19C29.4965 19 28.8108 19.6857 28.8108 20.5315V26.6577C28.8108 27.5035 29.4965 28.1892 30.3423 28.1892C31.1882 28.1892 31.8739 27.5035 31.8739 26.6577V20.5315Z" fill="#FAFAF4"/>
<path d="M50.0685 24.207H48.4144V26.6575C48.4144 27.3886 48.124 28.0898 47.607 28.6068C47.09 29.1238 46.3888 29.4142 45.6577 29.4142C44.9265 29.4142 44.2253 29.1238 43.7083 28.6068C43.1913 28.0898 42.9009 27.3886 42.9009 26.6575V24.207H33.0991V26.6575C33.0991 27.3886 32.8087 28.0898 32.2917 28.6068C31.7747 29.1238 31.0735 29.4142 30.3423 29.4142C29.6112 29.4142 28.91 29.1238 28.393 28.6068C27.876 28.0898 27.5856 27.3886 27.5856 26.6575V24.207H25.9315C23.2912 24.207 21.1532 26.7187 21.1532 29.8216V52.2861C21.1532 55.389 23.2912 57.9007 25.9315 57.9007H50.0685C52.7088 57.9007 54.8468 55.389 54.8468 52.2861V29.8216C54.8468 26.7187 52.7088 24.207 50.0685 24.207ZM53.3153 52.2861C53.3153 54.5375 51.8573 56.3692 50.0685 56.3692H25.9315C24.1427 56.3692 22.6847 54.5314 22.6847 52.2861V36.9708H53.3153V52.2861Z" fill="#FAFAF4" stroke="#FAFAF4" stroke-miterlimit="10"/>
<path d="M47.1892 20.5315C47.1892 19.6857 46.5035 19 45.6577 19C44.8118 19 44.1261 19.6857 44.1261 20.5315V26.6577C44.1261 27.5035 44.8118 28.1892 45.6577 28.1892C46.5035 28.1892 47.1892 27.5035 47.1892 26.6577V20.5315Z" fill="#FAFAF4"/>
<path d="M28.8108 41.207H26.0541C25.7157 41.207 25.4414 41.4813 25.4414 41.8196V44.5764C25.4414 44.9147 25.7157 45.189 26.0541 45.189H28.8108C29.1491 45.189 29.4234 44.9147 29.4234 44.5764V41.8196C29.4234 41.4813 29.1491 41.207 28.8108 41.207Z" fill="#FAFAF4" stroke="#FAFAF4" stroke-miterlimit="10"/>
<path d="M35.8559 41.207H33.0991C32.7608 41.207 32.4865 41.4813 32.4865 41.8196V44.5764C32.4865 44.9147 32.7608 45.189 33.0991 45.189H35.8559C36.1942 45.189 36.4685 44.9147 36.4685 44.5764V41.8196C36.4685 41.4813 36.1942 41.207 35.8559 41.207Z" fill="#FAFAF4" stroke="#FAFAF4" stroke-miterlimit="10"/>
<path d="M42.9009 41.207H40.1441C39.8058 41.207 39.5315 41.4813 39.5315 41.8196V44.5764C39.5315 44.9147 39.8058 45.189 40.1441 45.189H42.9009C43.2392 45.189 43.5135 44.9147 43.5135 44.5764V41.8196C43.5135 41.4813 43.2392 41.207 42.9009 41.207Z" fill="#FAFAF4" stroke="#FAFAF4" stroke-miterlimit="10"/>
<path d="M49.9459 41.207H47.1892C46.8509 41.207 46.5766 41.4813 46.5766 41.8196V44.5764C46.5766 44.9147 46.8509 45.189 47.1892 45.189H49.9459C50.2843 45.189 50.5586 44.9147 50.5586 44.5764V41.8196C50.5586 41.4813 50.2843 41.207 49.9459 41.207Z" fill="#FAFAF4" stroke="#FAFAF4" stroke-miterlimit="10"/>
<path d="M28.8108 48.5586H26.0541C25.7157 48.5586 25.4414 48.8329 25.4414 49.1712V51.928C25.4414 52.2663 25.7157 52.5406 26.0541 52.5406H28.8108C29.1491 52.5406 29.4234 52.2663 29.4234 51.928V49.1712C29.4234 48.8329 29.1491 48.5586 28.8108 48.5586Z" fill="#FAFAF4" stroke="#FAFAF4" stroke-miterlimit="10"/>
<path d="M35.8559 48.5586H33.0991C32.7608 48.5586 32.4865 48.8329 32.4865 49.1712V51.928C32.4865 52.2663 32.7608 52.5406 33.0991 52.5406H35.8559C36.1942 52.5406 36.4685 52.2663 36.4685 51.928V49.1712C36.4685 48.8329 36.1942 48.5586 35.8559 48.5586Z" fill="#FAFAF4" stroke="#FAFAF4" stroke-miterlimit="10"/>
<path d="M42.9009 48.5586H40.1441C39.8058 48.5586 39.5315 48.8329 39.5315 49.1712V51.928C39.5315 52.2663 39.8058 52.5406 40.1441 52.5406H42.9009C43.2392 52.5406 43.5135 52.2663 43.5135 51.928V49.1712C43.5135 48.8329 43.2392 48.5586 42.9009 48.5586Z" fill="#FAFAF4" stroke="#FAFAF4" stroke-miterlimit="10"/>
<path d="M49.9459 48.5586H47.1892C46.8509 48.5586 46.5766 48.8329 46.5766 49.1712V51.928C46.5766 52.2663 46.8509 52.5406 47.1892 52.5406H49.9459C50.2843 52.5406 50.5586 52.2663 50.5586 51.928V49.1712C50.5586 48.8329 50.2843 48.5586 49.9459 48.5586Z" fill="#FAFAF4" stroke="#FAFAF4" stroke-miterlimit="10"/>
</g>
<defs>
<clipPath id="clip0">
<rect width="34" height="39.0541" fill="white" transform="translate(21 19)"/>
</clipPath>
</defs>
</svg>
