<svg width="90" height="90" viewBox="-5 -5 93 93" fill="none" preserveAspectRatio="xMidYMin" xmlns="http://www.w3.org/2000/svg">
<path d="M36 1.44337C37.547 0.550211 39.453 0.550212 41 1.44338L69.342 17.8066C70.889 18.6998 71.842 20.3504 71.842 22.1368V54.8633C71.842 56.6496 70.889 58.3002 69.342 59.1934L41 75.5566C39.453 76.4498 37.547 76.4498 36 75.5566L7.65802 59.1934C6.11102 58.3002 5.15802 56.6496 5.15802 54.8633V22.1367C5.15802 20.3504 6.11102 18.6998 7.65802 17.8066L36 1.44337Z" fill="#DE5F4C"/>
<path d="M1.27789 34.8956C9.32835 32.2003 17.3788 29.505 25.428 26.8084C33.1323 29.8904 40.8367 32.9724 48.5411 36.0544L26.9696 45.2992C18.4066 41.8317 9.84224 38.363 1.27789 34.8956Z" fill="#FAFAF4"/>
<path d="M1 9.08981C9.08979 6.39321 17.1783 3.69662 25.268 1.00002C33.1009 3.95356 40.9337 6.9071 48.7653 9.85933V36.0544C40.9337 32.844 33.1009 29.6348 25.268 26.4243C17.2713 29.2481 9.27463 32.0718 1.27792 34.8956C9.91699 38.3643 18.5561 41.8317 27.1938 45.2992C34.3856 42.2172 41.5748 39.1351 48.7653 36.0544" stroke="#FAFAF4" stroke-width="1.678" stroke-miterlimit="10" stroke-linecap="round" stroke-linejoin="round"/>
<path d="M25.428 1.38542V26.5855" stroke="#FAFAF4" stroke-width="1.678" stroke-miterlimit="10" stroke-linecap="round" stroke-linejoin="round"/>
<path d="M5.39819 11.0155L19.2653 6.39319V16.4087L5.39819 21.0311V11.0155Z" fill="#FAFAF4" stroke="#FAFAF4" stroke-width="1.0068" stroke-miterlimit="10" stroke-linecap="round" stroke-linejoin="round"/>
<path d="M12.6044 37.4125C12.139 37.4125 11.7615 37.035 11.7615 36.5696V32.3825C11.7615 31.9171 12.139 31.5396 12.6044 31.5396C13.0698 31.5396 13.446 31.9171 13.446 32.3825V36.5696C13.446 37.035 13.0698 37.4125 12.6044 37.4125Z" fill="#DE5F4C"/>
<path d="M18.189 37.4125C17.7236 37.4125 17.3461 37.035 17.3461 36.5696V32.3825C17.3461 31.9171 17.7236 31.5396 18.189 31.5396C18.6544 31.5396 19.0306 31.9171 19.0306 32.3825V36.5696C19.0306 37.035 18.6544 37.4125 18.189 37.4125Z" fill="#DE5F4C"/>
<path d="M12.9177 34.91H18.0199V34.0906H12.9177V34.91Z" fill="#DE5F4C"/>
<path d="M11.0392 36.5945C10.8006 36.5945 10.6066 36.4005 10.6066 36.1606V32.7758C10.6066 32.5372 10.8006 32.3432 11.0392 32.3432C11.2791 32.3432 11.4731 32.5372 11.4731 32.7758V36.1606C11.4731 36.4005 11.2791 36.5945 11.0392 36.5945Z" fill="#DE5F4C"/>
<path d="M19.8015 36.5945C19.5616 36.5945 19.3676 36.4005 19.3676 36.1606V32.7758C19.3676 32.5372 19.5616 32.3432 19.8015 32.3432C20.0401 32.3432 20.2341 32.5372 20.2341 32.7758V36.1606C20.2341 36.4005 20.0401 36.5945 19.8015 36.5945Z" fill="#DE5F4C"/>
<path d="M10.0769 35.0057C9.9445 35.0057 9.83569 34.8982 9.83569 34.7645V34.1877C9.83569 34.0539 9.9445 33.9464 10.0769 33.9464C10.2093 33.9464 10.3181 34.0539 10.3181 34.1877V34.7645C10.3181 34.8982 10.2093 35.0057 10.0769 35.0057Z" fill="#DE5F4C"/>
<path d="M20.7636 35.0057C20.6312 35.0057 20.5237 34.8982 20.5237 34.7645V34.1877C20.5237 34.0539 20.6312 33.9464 20.7636 33.9464C20.8974 33.9464 21.0049 34.0539 21.0049 34.1877V34.7645C21.0049 34.8982 20.8974 35.0057 20.7636 35.0057Z" fill="#DE5F4C"/>
<mask id="path-12-inside-1" fill="white">
<path d="M28.5166 17.2477C28.552 17.1534 28.5717 17.0655 28.5821 16.9882C28.6149 16.7457 28.5572 16.6172 28.1928 15.7572C28.1626 15.6838 28.1155 15.5711 27.9988 15.4976C27.8834 15.4242 27.7615 15.4282 27.675 15.4334C27.616 15.436 27.1454 15.4649 26.9618 15.8214C26.8858 15.9696 26.891 16.1112 26.8963 16.2108C26.9133 16.5005 27.0405 16.5149 27.3512 17.118C27.4456 17.3041 27.515 17.4601 27.675 17.5073C27.751 17.5296 27.8205 17.5191 27.869 17.5073L30.3322 22.9516C30.2667 22.9792 30.1749 23.0211 30.0727 23.0814C29.8577 23.2059 29.2494 23.5573 29.1 24.1826C28.9898 24.6467 29.1812 25.0517 29.2297 25.1553C29.4067 25.5289 29.5889 25.5224 30.0727 26.1923C30.2798 26.4794 30.3624 26.6419 30.3965 26.8412C30.4463 27.127 30.3703 27.3446 30.3322 27.4888C30.1277 28.2688 30.4804 29.0711 30.5263 29.1746C30.8055 29.7895 31.3967 30.2942 32.0823 30.4698C32.5661 30.5944 32.9528 30.517 33.3461 30.4384C33.9137 30.3243 34.9952 30.1054 35.6153 29.1419C35.7608 28.9151 36.2603 28.0577 35.9706 27.2292C35.7005 26.4558 34.7842 25.8357 34.5456 25.6744C34.2546 25.4765 33.9819 25.3402 33.7997 24.9928C33.6358 24.6808 33.704 24.4985 33.6384 24.1184C33.6148 23.986 33.43 22.9359 32.6657 22.5623C31.9735 22.2241 31.2591 22.5413 31.1424 22.5951"/>
</mask>
<path d="M28.5166 17.2477C28.552 17.1534 28.5717 17.0655 28.5821 16.9882C28.6149 16.7457 28.5572 16.6172 28.1928 15.7572C28.1626 15.6838 28.1155 15.5711 27.9988 15.4976C27.8834 15.4242 27.7615 15.4282 27.675 15.4334C27.616 15.436 27.1454 15.4649 26.9618 15.8214C26.8858 15.9696 26.891 16.1112 26.8963 16.2108C26.9133 16.5005 27.0405 16.5149 27.3512 17.118C27.4456 17.3041 27.515 17.4601 27.675 17.5073C27.751 17.5296 27.8205 17.5191 27.869 17.5073L30.3322 22.9516C30.2667 22.9792 30.1749 23.0211 30.0727 23.0814C29.8577 23.2059 29.2494 23.5573 29.1 24.1826C28.9898 24.6467 29.1812 25.0517 29.2297 25.1553C29.4067 25.5289 29.5889 25.5224 30.0727 26.1923C30.2798 26.4794 30.3624 26.6419 30.3965 26.8412C30.4463 27.127 30.3703 27.3446 30.3322 27.4888C30.1277 28.2688 30.4804 29.0711 30.5263 29.1746C30.8055 29.7895 31.3967 30.2942 32.0823 30.4698C32.5661 30.5944 32.9528 30.517 33.3461 30.4384C33.9137 30.3243 34.9952 30.1054 35.6153 29.1419C35.7608 28.9151 36.2603 28.0577 35.9706 27.2292C35.7005 26.4558 34.7842 25.8357 34.5456 25.6744C34.2546 25.4765 33.9819 25.3402 33.7997 24.9928C33.6358 24.6808 33.704 24.4985 33.6384 24.1184C33.6148 23.986 33.43 22.9359 32.6657 22.5623C31.9735 22.2241 31.2591 22.5413 31.1424 22.5951" fill="#FAFAF4"/>
<path d="M28.5821 16.9882L28.8455 17.0239L28.8455 17.0238L28.5821 16.9882ZM28.1928 15.7572L27.9469 15.8582L27.9481 15.8609L28.1928 15.7572ZM27.9988 15.4976L27.8561 15.7219L27.8572 15.7226L27.9988 15.4976ZM27.675 15.4334L27.6868 15.699L27.6911 15.6987L27.675 15.4334ZM26.9618 15.8214L26.7255 15.6998L26.7254 15.7001L26.9618 15.8214ZM26.8963 16.2108L26.6308 16.2248L26.6309 16.2264L26.8963 16.2108ZM27.3512 17.118L27.5882 16.9978L27.5875 16.9962L27.3512 17.118ZM27.675 17.5073L27.5998 17.7622L27.6002 17.7624L27.675 17.5073ZM27.869 17.5073L28.1112 17.3977L28.0203 17.197L27.8062 17.249L27.869 17.5073ZM30.3322 22.9516L30.4352 23.1967L30.687 23.0909L30.5744 22.8421L30.3322 22.9516ZM30.0727 23.0814L30.2059 23.3114L30.2077 23.3104L30.0727 23.0814ZM29.1 24.1826L28.8414 24.1208L28.8413 24.1212L29.1 24.1826ZM29.2297 25.1553L28.989 25.268L28.9895 25.2691L29.2297 25.1553ZM30.0727 26.1923L30.2882 26.0367L30.2882 26.0367L30.0727 26.1923ZM30.3965 26.8412L30.1345 26.886L30.1346 26.8868L30.3965 26.8412ZM30.3322 27.4888L30.0752 27.421L30.0751 27.4214L30.3322 27.4888ZM30.5263 29.1746L30.2832 29.2823L30.2843 29.2845L30.5263 29.1746ZM32.0823 30.4698L32.1486 30.2124L32.1483 30.2124L32.0823 30.4698ZM33.3461 30.4384L33.3982 30.699L33.3984 30.699L33.3461 30.4384ZM35.6153 29.1419L35.8388 29.2857L35.839 29.2854L35.6153 29.1419ZM35.9706 27.2292L35.7196 27.3168L35.7197 27.3169L35.9706 27.2292ZM34.5456 25.6744L34.3961 25.8942L34.3968 25.8947L34.5456 25.6744ZM33.7997 24.9928L34.035 24.8693L34.035 24.8692L33.7997 24.9928ZM33.6384 24.1184L33.9004 24.0732L33.9001 24.0717L33.6384 24.1184ZM32.6657 22.5623L32.7824 22.3235L32.7824 22.3235L32.6657 22.5623ZM28.7655 17.3411C28.8086 17.2261 28.8327 17.1187 28.8455 17.0239L28.3188 16.9525C28.3106 17.0124 28.2954 17.0807 28.2677 17.1544L28.7655 17.3411ZM28.8455 17.0238C28.8681 16.8568 28.8554 16.7233 28.7889 16.5212C28.7286 16.3378 28.6169 16.0768 28.4375 15.6535L27.9481 15.8609C28.1331 16.2976 28.2325 16.5308 28.2839 16.6873C28.3292 16.825 28.329 16.877 28.3187 16.9526L28.8455 17.0238ZM28.4387 15.6562C28.4085 15.5827 28.3353 15.3954 28.1403 15.2727L27.8572 15.7226C27.8956 15.7467 27.9168 15.7849 27.9469 15.8582L28.4387 15.6562ZM28.1415 15.2734C27.9485 15.1506 27.7493 15.1626 27.6589 15.1681L27.6911 15.6987C27.7737 15.6937 27.8184 15.6979 27.8561 15.7219L28.1415 15.2734ZM27.6632 15.1679C27.6222 15.1697 27.4602 15.1794 27.2768 15.244C27.0947 15.3081 26.8603 15.4379 26.7255 15.6998L27.1982 15.9431C27.2469 15.8484 27.3396 15.7855 27.4534 15.7454C27.5659 15.7058 27.6687 15.6997 27.6868 15.6989L27.6632 15.1679ZM26.7254 15.7001C26.6145 15.9161 26.6254 16.1205 26.6309 16.2248L27.1617 16.1968C27.1567 16.1018 27.1571 16.0231 27.1983 15.9428L26.7254 15.7001ZM26.6309 16.2264C26.6364 16.3196 26.6516 16.4017 26.6818 16.4827C26.7108 16.5607 26.75 16.6272 26.7889 16.6888C26.866 16.8109 26.9664 16.9515 27.1149 17.2397L27.5875 16.9962C27.4252 16.6813 27.3067 16.5132 27.2383 16.405C27.2045 16.3513 27.1893 16.3223 27.18 16.2973C27.1718 16.2752 27.1647 16.2468 27.1616 16.1952L26.6309 16.2264ZM27.1141 17.2382C27.1557 17.3202 27.2083 17.4306 27.2729 17.5202C27.3438 17.6185 27.4454 17.7167 27.5998 17.7622L27.7502 17.2524C27.7446 17.2507 27.7315 17.2473 27.7041 17.2093C27.6704 17.1625 27.641 17.1019 27.5882 16.9978L27.1141 17.2382ZM27.6002 17.7624C27.7406 17.8035 27.8631 17.7823 27.9318 17.7656L27.8062 17.249C27.7779 17.2559 27.7614 17.2557 27.7497 17.2522L27.6002 17.7624ZM27.6268 17.6169L30.0901 23.0612L30.5744 22.8421L28.1112 17.3977L27.6268 17.6169ZM30.2293 22.7066C30.1565 22.7372 30.0532 22.7843 29.9377 22.8525L30.2077 23.3104C30.2966 23.2579 30.3769 23.2211 30.4352 23.1967L30.2293 22.7066ZM29.9394 22.8514C29.8308 22.9144 29.6027 23.0456 29.3819 23.2485C29.1614 23.4511 28.9327 23.7389 28.8414 24.1208L29.3585 24.2444C29.4166 24.001 29.5668 23.8005 29.7416 23.6399C29.916 23.4797 30.0996 23.373 30.2059 23.3114L29.9394 22.8514ZM28.8413 24.1212C28.7084 24.6814 28.9388 25.1608 28.989 25.268L29.4704 25.0426C29.4237 24.9427 29.2713 24.6119 29.3586 24.244L28.8413 24.1212ZM28.9895 25.2691C29.0984 25.499 29.2156 25.6173 29.3478 25.7501C29.4716 25.8746 29.6271 26.0292 29.8572 26.3479L30.2882 26.0367C30.0345 25.6854 29.857 25.5083 29.7246 25.3752C29.6005 25.2505 29.538 25.1853 29.47 25.0415L28.9895 25.2691ZM29.8571 26.3478C30.0569 26.6246 30.1108 26.7472 30.1345 26.886L30.6585 26.7964C30.614 26.5366 30.5027 26.3341 30.2882 26.0367L29.8571 26.3478ZM30.1346 26.8868C30.1725 27.1042 30.1173 27.2613 30.0752 27.421L30.5893 27.5565C30.6232 27.4278 30.7201 27.1497 30.6583 26.7955L30.1346 26.8868ZM30.0751 27.4214C29.845 28.2993 30.2376 29.1792 30.2832 29.2823L30.7693 29.067C30.7232 28.9629 30.4105 28.2383 30.5893 27.5562L30.0751 27.4214ZM30.2843 29.2845C30.5968 29.9727 31.2528 30.5317 32.0164 30.7273L32.1483 30.2124C31.5407 30.0567 31.0142 29.6062 30.7683 29.0647L30.2843 29.2845ZM32.0161 30.7272C32.5646 30.8685 33.0056 30.7775 33.3982 30.699L33.294 30.1777C32.9 30.2565 32.5676 30.3203 32.1486 30.2124L32.0161 30.7272ZM33.3984 30.699C33.9579 30.5866 35.1512 30.3542 35.8388 29.2857L35.3918 28.998C34.8393 29.8566 33.8696 30.0621 33.2937 30.1778L33.3984 30.699ZM35.839 29.2854C35.9184 29.1617 36.0934 28.8679 36.2101 28.4896C36.3265 28.1124 36.3918 27.6286 36.2215 27.1415L35.7197 27.3169C35.8391 27.6583 35.7995 28.0174 35.7022 28.3328C35.6052 28.647 35.4577 28.8953 35.3916 28.9983L35.839 29.2854ZM36.2215 27.1416C36.0653 26.6942 35.7314 26.3101 35.4272 26.0275C35.1187 25.7409 34.8156 25.5361 34.6944 25.4542L34.3968 25.8947C34.5142 25.974 34.7886 26.1599 35.0654 26.417C35.3465 26.6781 35.6058 26.9908 35.7196 27.3168L36.2215 27.1416ZM34.6951 25.4547C34.3737 25.2361 34.1783 25.1423 34.035 24.8693L33.5643 25.1162C33.7855 25.538 34.1354 25.7169 34.3961 25.8942L34.6951 25.4547ZM34.035 24.8692C33.9737 24.7525 33.9564 24.6654 33.9469 24.5578C33.9377 24.4532 33.9354 24.2766 33.9004 24.0732L33.3765 24.1635C33.407 24.3403 33.4034 24.4449 33.4174 24.6044C33.4312 24.761 33.4618 24.921 33.5644 25.1163L34.035 24.8692ZM33.9001 24.0717C33.8873 23.9999 33.8308 23.6787 33.6727 23.3229C33.5165 22.9712 33.2452 22.5497 32.7824 22.3235L32.549 22.8011C32.8505 22.9485 33.0537 23.2388 33.1869 23.5387C33.3183 23.8344 33.366 24.1045 33.3768 24.165L33.9001 24.0717ZM32.7824 22.3235C31.9703 21.9267 31.1509 22.2985 31.0312 22.3536L31.2536 22.8365C31.3672 22.7841 31.9767 22.5214 32.549 22.8011L32.7824 22.3235Z" fill="#DE5F4C" mask="url(#path-12-inside-1)"/>
<path d="M33.2818 26.2906C33.2818 26.8268 32.8466 27.262 32.3091 27.262C31.7729 27.262 31.3364 26.8268 31.3364 26.2906C31.3364 25.7531 31.7729 25.3179 32.3091 25.3179C32.8466 25.3179 33.2818 25.7531 33.2818 26.2906Z" stroke="#DE5F4C" stroke-width="0.3356" stroke-miterlimit="10" stroke-linecap="round" stroke-linejoin="round"/>
<path d="M31.9853 28.4943L34.189 27.4573" stroke="#DE5F4C" stroke-width="0.3356" stroke-miterlimit="10" stroke-linecap="round" stroke-linejoin="round"/>
<path d="M26.9932 16.3733C26.8791 16.4533 26.8254 16.4546 26.7992 16.4376C26.7559 16.4087 26.7795 16.3288 26.7349 16.3078C26.6969 16.2894 26.6248 16.3235 26.6052 16.3733C26.5894 16.4101 26.6379 16.4848 26.7349 16.6316C26.7612 16.6736 26.7795 16.6998 26.7992 16.6971C26.8385 16.6906 26.8647 16.5674 26.8647 16.5674C26.8542 16.5346 26.8608 16.5123 26.8647 16.5018C26.8857 16.4494 26.9643 16.4192 27.0587 16.4376" fill="#FAFAF4"/>
<path d="M27.2528 16.8256C27.1374 16.9069 27.085 16.9082 27.0588 16.8912C27.0155 16.8623 27.0378 16.7824 26.9945 16.7614C26.9552 16.743 26.8844 16.7771 26.8647 16.8256C26.849 16.8623 26.8975 16.9371 26.9945 17.0852C27.0207 17.1271 27.0391 17.1534 27.0588 17.1507C27.0981 17.1442 27.123 17.021 27.123 17.021C27.1138 16.9882 27.1191 16.9659 27.123 16.9567C27.144 16.9043 27.2239 16.8728 27.3183 16.8912" fill="#FAFAF4"/>
<path d="M27.5057 17.2097C27.3904 17.291 27.3379 17.2923 27.3104 17.274C27.2671 17.2464 27.2907 17.1665 27.2462 17.1455C27.2081 17.1271 27.136 17.1599 27.1164 17.2097C27.102 17.2464 27.1492 17.3211 27.2462 17.4693C27.2724 17.5099 27.2907 17.5374 27.3104 17.5335C27.351 17.5283 27.3759 17.405 27.3759 17.4037C27.3655 17.371 27.372 17.35 27.3759 17.3395C27.3969 17.2871 27.4756 17.2556 27.57 17.274" fill="#FAFAF4"/>
<path d="M28.2006 15.8647C28.3356 15.8228 28.3684 15.7808 28.371 15.7493C28.375 15.6982 28.2976 15.6668 28.3081 15.6196C28.3173 15.5776 28.3868 15.5409 28.4379 15.5566C28.4759 15.5658 28.5061 15.6497 28.5651 15.8162C28.5808 15.8634 28.59 15.8935 28.5769 15.908C28.548 15.9355 28.434 15.8804 28.434 15.8804C28.4143 15.8516 28.3933 15.8437 28.3828 15.8411C28.3291 15.8254 28.2557 15.8686 28.2124 15.9552" fill="#FAFAF4"/>
<path d="M28.4025 16.3458C28.5362 16.3052 28.5703 16.2632 28.5729 16.2318C28.5768 16.1806 28.4995 16.1492 28.5087 16.102C28.5178 16.06 28.5886 16.0246 28.6397 16.039C28.6778 16.0482 28.7079 16.1321 28.7656 16.2999C28.7826 16.3458 28.7918 16.376 28.7774 16.3904C28.7486 16.4179 28.6358 16.3615 28.6358 16.3615C28.6161 16.334 28.5952 16.3261 28.5847 16.3235C28.5296 16.3065 28.4575 16.351 28.4143 16.4376" fill="#FAFAF4"/>
<path d="M28.5519 16.7797C28.6857 16.7378 28.7197 16.6971 28.7224 16.6657C28.7263 16.6132 28.649 16.5831 28.6594 16.5359C28.6686 16.494 28.7381 16.4572 28.7892 16.4717C28.8272 16.4822 28.8574 16.5661 28.9164 16.7325C28.9321 16.7797 28.9413 16.8099 28.9269 16.823C28.898 16.8518 28.7853 16.7955 28.7853 16.7955C28.7656 16.7679 28.7446 16.7601 28.7342 16.7561C28.6804 16.7417 28.607 16.785 28.5637 16.8715" fill="#FAFAF4"/>
<path d="M32.9921 37.4125C32.9921 39.0814 31.6405 40.4329 29.9717 40.4329C28.3042 40.4329 26.9513 39.0814 26.9513 37.4125C26.9513 35.7437 28.3042 34.3922 29.9717 34.3922C31.6405 34.3922 32.9921 35.7437 32.9921 37.4125Z" fill="#DE5F4C"/>
<path d="M32.9921 37.4126C32.9921 39.0814 31.6405 40.433 29.9717 40.433C28.3042 40.433 26.9513 39.0814 26.9513 37.4126C26.9513 35.7437 28.3042 34.3922 29.9717 34.3922C31.6405 34.3922 32.9921 35.7437 32.9921 37.4126Z" stroke="#DE5F4C" stroke-width="0.265795" stroke-miterlimit="10"/>
<path d="M27.8388 35.3347L32.0508 39.5468" stroke="#FAFAF4" stroke-width="0.2517" stroke-miterlimit="10"/>
<path d="M28.0603 39.7133C27.4153 38.5046 27.6225 37.018 28.5585 36.0544C29.5469 35.0398 31.1331 34.8261 32.3838 35.5563" stroke="#FAFAF4" stroke-width="0.2517" stroke-miterlimit="10"/>
<path d="M27.1178 36.664C27.3118 36.6837 27.6094 36.7427 27.8952 36.9419C27.9791 37.0009 28.2793 37.2238 28.6149 38.0497C28.9098 38.7772 28.8207 38.9595 29.058 39.4353C29.2717 39.864 29.5758 40.1878 29.8891 40.433" stroke="#FAFAF4" stroke-width="0.2517" stroke-miterlimit="10"/>
<path d="M29.2795 34.5023C29.2822 34.6701 29.311 34.9768 29.5011 35.2797C29.6374 35.496 29.8052 35.6284 29.9442 35.7228C30.5774 36.1541 31.1188 36.1606 31.7179 36.3874C32.043 36.5093 32.5018 36.7414 32.9921 37.2185" stroke="#FAFAF4" stroke-width="0.2517" stroke-miterlimit="10"/>

</svg>
