<svg width="77" height="77" viewBox="0 0 77 77" fill="none" xmlns="http://www.w3.org/2000/svg">
<path d="M36 1.44337C37.547 0.550211 39.453 0.550212 41 1.44338L69.342 17.8066C70.889 18.6998 71.842 20.3504 71.842 22.1368V54.8633C71.842 56.6496 70.889 58.3002 69.342 59.1934L41 75.5566C39.453 76.4498 37.547 76.4498 36 75.5566L7.65802 59.1934C6.11102 58.3002 5.15802 56.6496 5.15802 54.8633V22.1367C5.15802 20.3504 6.11102 18.6998 7.65802 17.8066L36 1.44337Z" fill="#DE5F4C"/>
<path d="M37.1347 37.3832H21V31.3725C21 28.6875 22.0666 26.1124 23.9652 24.2138C25.8639 22.3152 28.4389 21.2485 31.124 21.2485H37.1347V37.3832Z" fill="#FAFAF4"/>
<path d="M55.9999 37.1347H39.8652V21H45.876C48.561 21 51.1361 22.0666 53.0347 23.9652C54.9333 25.8639 55.9999 28.4389 55.9999 31.124V37.1347Z" fill="#FAFAF4"/>
<path d="M37.1347 55.9999H31.124C28.4389 55.9999 25.8639 54.9333 23.9652 53.0347C22.0666 51.1361 21 48.561 21 45.876V39.8652H37.1347V55.9999Z" fill="#FAFAF4"/>
<path d="M45.6273 55.9999H39.6166V39.8652H55.7513V45.876C55.7513 48.561 54.6847 51.1361 52.786 53.0347C50.8874 54.9333 48.3124 55.9999 45.6273 55.9999Z" fill="#FAFAF4"/>
</svg>
