<svg width="77" height="77" viewBox="0 0 77 77" fill="none" xmlns="http://www.w3.org/2000/svg">
<path d="M36 1.44337C37.547 0.550211 39.453 0.550212 41 1.44338L69.342 17.8066C70.889 18.6998 71.842 20.3504 71.842 22.1368V54.8633C71.842 56.6496 70.889 58.3002 69.342 59.1934L41 75.5566C39.453 76.4498 37.547 76.4498 36 75.5566L7.65802 59.1934C6.11102 58.3002 5.15802 56.6496 5.15802 54.8633V22.1367C5.15802 20.3504 6.11102 18.6998 7.65802 17.8066L36 1.44337Z" fill="#DE5F4C"/>
<rect x="23" y="18" width="31" height="39" rx="5" fill="#FAFAF4"/>
<path d="M28.2047 59.9999H27.5895C27.3316 59.9999 27.1224 59.7907 27.1224 59.5319V58.9168C27.1224 58.6588 27.3316 58.4497 27.5895 58.4497H28.2047C28.4635 58.4497 28.6726 58.6588 28.6726 58.9168V59.5319C28.6726 59.7907 28.4635 59.9999 28.2047 59.9999Z" fill="#DE5F4C"/>
<path d="M30.1783 59.9999H29.5631C29.3043 59.9999 29.0952 59.7907 29.0952 59.5319V58.9168C29.0952 58.6588 29.3043 58.4497 29.5631 58.4497H30.1783C30.4363 58.4497 30.6454 58.6588 30.6454 58.9168V59.5319C30.6454 59.7907 30.4363 59.9999 30.1783 59.9999Z" fill="#DE5F4C"/>
<path d="M47.0812 59.9999H46.4652C46.2072 59.9999 45.9981 59.7907 45.9981 59.5319V58.9168C45.9981 58.6588 46.2072 58.4497 46.4652 58.4497H47.0812C47.3391 58.4497 47.5483 58.6588 47.5483 58.9168V59.5319C47.5483 59.7907 47.3391 59.9999 47.0812 59.9999Z" fill="#DE5F4C"/>
<path d="M49.0539 59.9999H48.4388C48.1808 59.9999 47.9708 59.7907 47.9708 59.5319V58.9168C47.9708 58.6588 48.1808 58.4497 48.4388 58.4497H49.0539C49.3119 58.4497 49.521 58.6588 49.521 58.9168V59.5319C49.521 59.7907 49.3119 59.9999 49.0539 59.9999Z" fill="#DE5F4C"/>
<path d="M48.5049 44.6379H47.5055C47.0811 44.6379 46.7369 44.2938 46.7369 43.8685V40.3325C46.7369 39.9082 47.0811 39.564 47.5055 39.564H48.5049C48.9302 39.564 49.2744 39.9082 49.2744 40.3325V43.8685C49.2744 44.2938 48.9302 44.6379 48.5049 44.6379Z" fill="#DE5F4C"/>
<path d="M33.0068 38.5772C31.3669 41.4632 32.0762 45.0619 34.4872 46.9632C37.1937 49.0964 41.4303 48.604 43.7185 45.624" stroke="#DE5F4C" stroke-width="0.478008" stroke-miterlimit="10" stroke-linecap="round"/>
<path d="M33.2621 41.4854C33.243 41.7389 33.1001 44.2215 35.0511 45.8352C36.4304 46.9776 38.0024 46.9776 38.4337 46.9637" stroke="#DE5F4C" stroke-width="0.239004" stroke-miterlimit="10" stroke-linecap="round"/>
<path d="M34.9099 40.6206C34.9404 40.5126 34.9753 40.4062 35.0145 40.3026" stroke="#DE5F4C" stroke-width="0.478008" stroke-miterlimit="10" stroke-linecap="round"/>
<path d="M35.5302 39.3538C36.1506 38.5121 37.0908 37.9379 38.1513 37.8019C39.8322 37.5867 41.3884 38.5287 42.0977 39.9159C43.0554 41.7893 42.0254 43.6061 41.9566 43.7212C41.2717 44.8809 40.1938 45.3602 39.4383 45.5571" stroke="#DE5F4C" stroke-width="0.478008" stroke-miterlimit="10" stroke-linecap="round" stroke-dasharray="0.7 1.16"/>
<path d="M38.9069 45.6635C38.7239 45.6887 38.6028 45.694 38.574 45.6948" stroke="#DE5F4C" stroke-width="0.478008" stroke-miterlimit="10" stroke-linecap="round"/>
<path d="M49.9471 18H27.0606C24.8185 18 23 19.8177 23 22.0597V54.8119C23 57.0548 24.8185 58.8724 27.0606 58.8724H49.9471C52.1891 58.8724 54.0068 57.0548 54.0068 54.8119V22.0597C54.0068 19.8177 52.1891 18 49.9471 18ZM49.9471 19.3384C51.4476 19.3384 52.6684 20.5592 52.6684 22.0597V54.8119C52.6684 56.3132 51.4476 57.534 49.9471 57.534H27.0606C25.5601 57.534 24.3384 56.3132 24.3384 54.8119V22.0597C24.3384 20.5592 25.5601 19.3384 27.0606 19.3384H49.9471Z" fill="#DE5F4C"/>
<path d="M23.5646 24.4829H53.1982" stroke="#DE5F4C" stroke-width="1.19502" stroke-miterlimit="10" stroke-linecap="round" stroke-linejoin="round"/>
<path d="M23.5646 26.7383H53.3385" stroke="#DE5F4C" stroke-width="1.19502" stroke-miterlimit="10" stroke-linecap="round" stroke-linejoin="round"/>
<path d="M48.2287 42.0298C48.2287 47.3617 43.9067 51.6846 38.5739 51.6846C33.242 51.6846 28.92 47.3617 28.92 42.0298C28.92 36.6979 33.242 32.3759 38.5739 32.3759C43.9067 32.3759 48.2287 36.6979 48.2287 42.0298Z" stroke="#DE5F4C" stroke-width="1.43402" stroke-miterlimit="10"/>
<path d="M29.3427 21.4993C29.3427 22.3367 28.6639 23.0146 27.8274 23.0146C26.9909 23.0146 26.3121 22.3367 26.3121 21.4993C26.3121 20.6628 26.9909 19.9849 27.8274 19.9849C28.6639 19.9849 29.3427 20.6628 29.3427 21.4993Z" fill="#DE5F4C"/>
<path d="M33.8529 21.4993C33.8529 22.3367 33.1742 23.0146 32.3376 23.0146C31.5011 23.0146 30.8223 22.3367 30.8223 21.4993C30.8223 20.6628 31.5011 19.9849 32.3376 19.9849C33.1742 19.9849 33.8529 20.6628 33.8529 21.4993Z" fill="#DE5F4C"/>
<path d="M46.2978 42.0296C46.2978 46.2958 42.8402 49.7534 38.574 49.7534C34.3087 49.7534 30.8511 46.2958 30.8511 42.0296C30.8511 37.7642 34.3087 34.3067 38.574 34.3067C42.8402 34.3067 46.2978 37.7642 46.2978 42.0296Z" stroke="#DE5F4C" stroke-width="0.478008" stroke-miterlimit="10"/>
<path d="M23.5646 54.6445H52.8923" stroke="#DE5F4C" stroke-width="1.19502" stroke-miterlimit="10" stroke-linecap="round" stroke-linejoin="round"/>
<path d="M44.4235 22.4398C44.4235 22.5565 44.3285 22.6506 44.2117 22.6506C44.095 22.6506 44.0009 22.5565 44.0009 22.4398C44.0009 22.323 44.095 22.228 44.2117 22.228C44.3285 22.228 44.4235 22.323 44.4235 22.4398Z" fill="#DE5F4C"/>
<path d="M45.1284 22.4398C45.1284 22.5565 45.0334 22.6506 44.9166 22.6506C44.7999 22.6506 44.7049 22.5565 44.7049 22.4398C44.7049 22.323 44.7999 22.228 44.9166 22.228C45.0334 22.228 45.1284 22.323 45.1284 22.4398Z" fill="#DE5F4C"/>
<path d="M45.8325 22.4398C45.8325 22.5565 45.7384 22.6506 45.6216 22.6506C45.5048 22.6506 45.4099 22.5565 45.4099 22.4398C45.4099 22.323 45.5048 22.228 45.6216 22.228C45.7384 22.228 45.8325 22.323 45.8325 22.4398Z" fill="#DE5F4C"/>
<path d="M46.5374 22.4398C46.5374 22.5565 46.4424 22.6506 46.3257 22.6506C46.2089 22.6506 46.1148 22.5565 46.1148 22.4398C46.1148 22.323 46.2089 22.228 46.3257 22.228C46.4424 22.228 46.5374 22.323 46.5374 22.4398Z" fill="#DE5F4C"/>
<path d="M47.2423 22.4398C47.2423 22.5565 47.1474 22.6506 47.0306 22.6506C46.9138 22.6506 46.8188 22.5565 46.8188 22.4398C46.8188 22.323 46.9138 22.228 47.0306 22.228C47.1474 22.228 47.2423 22.323 47.2423 22.4398Z" fill="#DE5F4C"/>
<path d="M47.9465 22.4398C47.9465 22.5565 47.8524 22.6506 47.7356 22.6506C47.6188 22.6506 47.5239 22.5565 47.5239 22.4398C47.5239 22.323 47.6188 22.228 47.7356 22.228C47.8524 22.228 47.9465 22.323 47.9465 22.4398Z" fill="#DE5F4C"/>
<path d="M48.6514 22.4398C48.6514 22.5565 48.5565 22.6506 48.4397 22.6506C48.3229 22.6506 48.2288 22.5565 48.2288 22.4398C48.2288 22.323 48.3229 22.228 48.4397 22.228C48.5565 22.228 48.6514 22.323 48.6514 22.4398Z" fill="#DE5F4C"/>
<path d="M49.3563 22.4398C49.3563 22.5565 49.2613 22.6506 49.1445 22.6506C49.0278 22.6506 48.9328 22.5565 48.9328 22.4398C48.9328 22.323 49.0278 22.228 49.1445 22.228C49.2613 22.228 49.3563 22.323 49.3563 22.4398Z" fill="#DE5F4C"/>
</svg>
