<svg width="90" height="90" viewBox="-5 -5 93 93" fill="none" xmlns="http://www.w3.org/2000/svg">
<path d="M36 1.44337C37.547 0.550211 39.453 0.550212 41 1.44338L69.342 17.8066C70.889 18.6998 71.842 20.3504 71.842 22.1368V54.8633C71.842 56.6496 70.889 58.3002 69.342 59.1934L41 75.5566C39.453 76.4498 37.547 76.4498 36 75.5566L7.65802 59.1934C6.11102 58.3002 5.15802 56.6496 5.15802 54.8633V22.1367C5.15802 20.3504 6.11102 18.6998 7.65802 17.8066L36 1.44337Z" fill="#DE5F4C"/>
<path d="M20.4886 43.1364C22.9815 43.1364 24.9972 41.1207 24.9886 38.6364C24.9801 36.152 22.9815 34.1364 20.4886 34.1364C18.0128 34.1364 15.9972 36.152 15.9886 38.6364C15.9801 41.1207 18.0128 43.1364 20.4886 43.1364Z" fill="#FAFAF4"/>
<path d="M38.4886 43.1364C40.9815 43.1364 42.9972 41.1207 42.9886 38.6364C42.9801 36.152 40.9815 34.1364 38.4886 34.1364C36.0128 34.1364 33.9972 36.152 33.9886 38.6364C33.9801 41.1207 36.0128 43.1364 38.4886 43.1364Z" fill="#FAFAF4"/>
<path d="M56.4886 43.1364C58.9815 43.1364 60.9972 41.1207 60.9886 38.6364C60.9801 36.152 58.9815 34.1364 56.4886 34.1364C54.0128 34.1364 51.9972 36.152 51.9886 38.6364C51.9801 41.1207 54.0128 43.1364 56.4886 43.1364Z" fill="#FAFAF4"/>
</svg>
