<svg width="90" height="90" viewBox="-5 -5 93 93" fill="none" xmlns="http://www.w3.org/2000/svg">
<path d="M36 1.44337C37.547 0.550211 39.453 0.550212 41 1.44338L69.342 17.8066C70.889 18.6998 71.842 20.3504 71.842 22.1368V54.8633C71.842 56.6496 70.889 58.3002 69.342 59.1934L41 75.5566C39.453 76.4498 37.547 76.4498 36 75.5566L7.65802 59.1934C6.11102 58.3002 5.15802 56.6496 5.15802 54.8633V22.1367C5.15802 20.3504 6.11102 18.6998 7.65802 17.8066L36 1.44337Z" fill="#DE5F4C"/>
<path d="M54.8803 29.7274C54.8803 32.2262 52.8441 34.2527 50.3333 34.2527C47.8218 34.2527 45.7863 32.2262 45.7863 29.7274C45.7863 27.2286 47.8218 25.2021 50.3333 25.2021C52.8441 25.2021 54.8803 27.2286 54.8803 29.7274Z" fill="#FAFAF4"/>
<path d="M29.8718 29.7274C29.8718 32.2262 27.8356 34.2527 25.3248 34.2527C22.8133 34.2527 20.7778 32.2262 20.7778 29.7274C20.7778 27.2286 22.8133 25.2021 25.3248 25.2021C27.8356 25.2021 29.8718 27.2286 29.8718 29.7274Z" fill="#FAFAF4"/>
<path d="M44.2098 32.7299C44.2098 36.2498 41.3542 39.1044 37.8331 39.1044C34.311 39.1044 31.4564 36.2498 31.4564 32.7299C31.4564 29.2101 34.311 26.3555 37.8331 26.3555C41.3542 26.3555 44.2098 29.2101 44.2098 32.7299Z" fill="#FAFAF4"/>
<path d="M50.3592 36.1919C47.2408 36.1919 44.4452 37.5566 42.5385 39.715C44.5126 40.1419 46.3485 41.0789 47.8625 42.4606C49.1185 43.6081 50.0868 45.0008 50.7213 46.5353H59.8511C60.3626 46.5353 60.769 46.0999 60.7229 45.5932C60.2439 40.3218 55.7866 36.1919 50.3592 36.1919Z" fill="#FAFAF4"/>
<path d="M37.7054 40.252C31.0536 40.252 25.5914 45.3419 25.0044 51.8388C24.9479 52.4633 25.446 52.9999 26.0738 52.9999H49.3371C49.9639 52.9999 50.462 52.4633 50.4065 51.8388C49.8184 45.3419 44.3563 40.252 37.7054 40.252Z" fill="#FAFAF4"/>
<path d="M24.9741 36.1919C28.0925 36.1919 30.8881 37.5566 32.7949 39.715C30.8207 40.1419 28.9848 41.0789 27.4709 42.4606C26.2148 43.6081 25.2465 45.0008 24.612 46.5353H15.4822C14.9707 46.5353 14.5643 46.0999 14.6104 45.5932C15.0894 40.3218 19.5467 36.1919 24.9741 36.1919Z" fill="#FAFAF4"/>
</svg>
