<svg id="Layer_4" data-name="Layer 4" xmlns="http://www.w3.org/2000/svg" viewBox="0 0 541.58 567.7"><defs><style>.cls-1{fill:#010101;}</style></defs><path class="cls-1" d="M519.05,33.44l-3.86-3.87a71.12,71.12,0,0,0-100.58,0L81.94,362.24a16.26,16.26,0,0,0-1.24,1.53c-.22.27-.46.51-.66.8a16.25,16.25,0,0,0-1.77,3.31.93.93,0,0,1,0,.1L27.93,499.51a16.42,16.42,0,0,0,15.33,22.27,16.17,16.17,0,0,0,5.86-1.09l131.52-50.28.1-.06a15.85,15.85,0,0,0,3.32-1.77c.29-.2.53-.44.8-.66a13.72,13.72,0,0,0,1.52-1.24L519.05,134a71.11,71.11,0,0,0,0-100.57ZM71.71,476.92l28.13-73.58,45.44,45.45Z" transform="translate(-26.85 -8.74)"/><path class="cls-1" d="M552,576.45H43.26a16.42,16.42,0,0,1,0-32.83H552a16.42,16.42,0,0,1,0,32.83Z" transform="translate(-26.85 -8.74)"/></svg>