<svg xmlns="http://www.w3.org/2000/svg" viewBox="0 0 128.9 141"><g id="Layer_2" data-name="Layer 2"><g id="Icon"><path d="M128.89,69.88a5.58,5.58,0,0,0-1.63-4.09L109.84,48.37a5.6,5.6,0,1,0-7.92,7.92L110,64.4H67.3a5.6,5.6,0,0,0,0,11.2H110l-8.11,8.11a5.6,5.6,0,0,0,7.92,7.92l17.42-17.42a5.58,5.58,0,0,0,1.63-4.09s0-.08,0-.12S128.89,69.92,128.89,69.88Z"/><path d="M105.88,46.73a5.6,5.6,0,0,0-4,9.56L110,64.4H67.3a5.6,5.6,0,0,0,0,11.2H110l-8.11,8.11a5.6,5.6,0,0,0,7.92,7.92l17.42-17.42a5.58,5.58,0,0,0,1.63-4.09s0-.08,0-.12,0-.08,0-.12a5.58,5.58,0,0,0-1.63-4.09L109.84,48.37a5.61,5.61,0,0,0-4-1.64Z"/><path d="M84.43,135A14,14,0,0,0,94,121.72V128a7,7,0,0,1-7,7ZM13,135a7,7,0,0,1-7-7V13a7,7,0,0,1,7-7h2.57A14,14,0,0,0,6,19.28V121.72A14,14,0,0,0,15.57,135ZM94,19.28A14,14,0,0,0,84.43,6H87a7,7,0,0,1,7,7Z"/><path d="M87,0H13A13,13,0,0,0,0,13V128a13,13,0,0,0,13,13H87a13,13,0,0,0,13-13V110a4,4,0,0,0-4-4H92a4,4,0,0,0-4,4v11.72a8,8,0,0,1-8,8H20a8,8,0,0,1-8-8V19.28a8,8,0,0,1,8-8H80a8,8,0,0,1,8,8V31a4,4,0,0,0,4,4h4a4,4,0,0,0,4-4V13A13,13,0,0,0,87,0Z"/><circle cx="25.2" cy="70" r="5.5"/><path d="M25.2,64.5A5.5,5.5,0,1,0,30.7,70a5.5,5.5,0,0,0-5.5-5.5Z"/></g></g></svg>