<svg xmlns="http://www.w3.org/2000/svg" viewBox="0 0 142 142"><g id="Layer_2" data-name="Layer 2"><g id="Icon"><path d="M80.14,142H61.86a8.4,8.4,0,0,1-8.42-7l-2-9.49q-2.65-.94-5.19-2.13l-8.09,5.31a8.41,8.41,0,0,1-10.93-1L14.33,114.74a8.41,8.41,0,0,1-1-10.93l5.24-8a54.43,54.43,0,0,1-2.24-5.35L7,88.56a8.4,8.4,0,0,1-7-8.42V61.86a8.4,8.4,0,0,1,7-8.42l9.1-1.89a58.41,58.41,0,0,1,2.3-5.61l-5.09-7.75a8.41,8.41,0,0,1,1-10.93L27.26,14.33a8.41,8.41,0,0,1,10.93-1l7.63,5A59.42,59.42,0,0,1,51.59,16L53.44,7a8.4,8.4,0,0,1,8.42-7H80.14a8.4,8.4,0,0,1,8.42,7L90.41,16a59.42,59.42,0,0,1,5.77,2.4l7.63-5a8.41,8.41,0,0,1,10.93,1l12.93,12.93a8.41,8.41,0,0,1,1,10.93l-5.09,7.75a58.41,58.41,0,0,1,2.3,5.61l9.1,1.89a8.4,8.4,0,0,1,7,8.42V80.14a8.4,8.4,0,0,1-7,8.42l-9.31,1.93a54.43,54.43,0,0,1-2.24,5.35l5.24,8a8.41,8.41,0,0,1-1,10.93l-12.93,12.93a8.41,8.41,0,0,1-10.93,1l-8.09-5.31q-2.53,1.18-5.19,2.13l-2,9.49A8.4,8.4,0,0,1,80.14,142ZM64.75,129.9h12.5l1.92-9.26a7.91,7.91,0,0,1,5.43-6,45.36,45.36,0,0,0,7.73-3.18,7.9,7.9,0,0,1,8,.39l7.87,5.17,8.85-8.85L112,100.45a7.94,7.94,0,0,1-.36-8.08,45.44,45.44,0,0,0,3.3-7.85,7.93,7.93,0,0,1,5.94-5.39l9.06-1.88V64.75L121,62.91a7.92,7.92,0,0,1-6-5.48,45.22,45.22,0,0,0-3.3-8.08,7.91,7.91,0,0,1,.38-8l4.95-7.53-8.85-8.85-7.43,4.89a7.93,7.93,0,0,1-8.09.35,46,46,0,0,0-8.2-3.42,7.94,7.94,0,0,1-5.45-5.95l-1.8-8.7H64.75L63,20.8a7.94,7.94,0,0,1-5.45,5.95,46,46,0,0,0-8.2,3.42,7.91,7.91,0,0,1-8.08-.35l-7.44-4.89-8.85,8.85,4.95,7.53a7.89,7.89,0,0,1,.38,8A45.62,45.62,0,0,0,27,57.43a7.92,7.92,0,0,1-6,5.48L12.1,64.75v12.5l9.06,1.88a7.93,7.93,0,0,1,5.94,5.39,45.44,45.44,0,0,0,3.3,7.85,7.92,7.92,0,0,1-.36,8.07l-5.11,7.78,8.85,8.85,7.87-5.17a7.92,7.92,0,0,1,8-.39,45.36,45.36,0,0,0,7.73,3.18,7.91,7.91,0,0,1,5.43,6ZM71,99.62a28.83,28.83,0,1,1,2.3-.09h0C72.56,99.59,71.79,99.62,71,99.62ZM71,54c-.45,0-.9,0-1.35,0a16.78,16.78,0,1,0,2.76,33.45h0A16.78,16.78,0,0,0,71,54Z"/></g></g></svg>