<svg width="12" height="13" viewBox="0 0 12 13" fill="none" xmlns="http://www.w3.org/2000/svg">
<circle cx="6" cy="6.33301" r="5.5" fill="#002642" stroke="#002642"/>
<path d="M8.66713 3.78213L8.32406 3.43906C8.3119 3.42701 8.29547 3.42026 8.27835 3.42026C8.26123 3.42026 8.2448 3.42701 8.23263 3.43906L3.10524 8.56483C3.0932 8.577 3.08644 8.59343 3.08644 8.61055C3.08644 8.62767 3.0932 8.6441 3.10524 8.65626L3.44831 8.99933C3.47339 9.02441 3.51466 9.02441 3.53974 8.99933L8.66632 3.87275C8.69221 3.84847 8.69221 3.80721 8.66713 3.78213ZM4.20322 5.70136C4.84566 5.70136 5.36835 5.17867 5.36835 4.53623C5.36835 3.89378 4.84566 3.37109 4.20322 3.37109C3.56078 3.37109 3.03809 3.89378 3.03809 4.53623C3.03809 5.17867 3.56078 5.70136 4.20322 5.70136ZM4.20322 3.95366C4.52444 3.95366 4.78578 4.21501 4.78578 4.53623C4.78578 4.85745 4.52444 5.11879 4.20322 5.11879C3.882 5.11879 3.62065 4.85745 3.62065 4.53623C3.62065 4.21501 3.882 3.95366 4.20322 3.95366ZM7.56916 6.73703C6.92672 6.73703 6.40402 7.25972 6.40402 7.90216C6.40402 8.54461 6.92672 9.0673 7.56916 9.0673C8.2116 9.0673 8.73429 8.54461 8.73429 7.90216C8.73429 7.25972 8.2116 6.73703 7.56916 6.73703ZM7.56916 8.48473C7.24794 8.48473 6.98659 8.22338 6.98659 7.90216C6.98659 7.58094 7.24794 7.3196 7.56916 7.3196C7.89038 7.3196 8.15172 7.58094 8.15172 7.90216C8.15172 8.22338 7.89038 8.48473 7.56916 8.48473Z" fill="#FAFAF4" stroke="#FAFAF4" stroke-width="0.2"/>
</svg>
