<svg width="40" height="40" viewBox="0 0 40 40" fill="none" xmlns="http://www.w3.org/2000/svg">
<path d="M12.4446 11.2832L10.9316 11.6392C12.206 10.254 13.6874 9.18527 15.467 8.51792L15.467 8.51796L15.4711 8.51635C18.5616 7.28015 21.9006 7.40209 24.9982 8.76462C27.972 10.128 30.3225 12.4802 31.5596 15.5731C32.796 18.6641 32.6739 22.0037 31.3107 25.1017C29.9493 28.1959 27.6003 30.4221 24.5051 31.6608C20.1688 33.2705 15.3451 32.525 11.884 29.4354C10.3918 28.0674 9.155 26.4567 8.41429 24.6049C8.12709 23.8869 7.26368 23.4413 6.51946 23.7389C5.80178 24.026 5.35617 24.8888 5.65313 25.6328C6.54499 27.9258 8.07272 30.0907 9.85873 31.6217C12.6631 34.0436 16.2311 35.3171 19.9241 35.3171C21.8383 35.3171 23.6219 34.934 25.3989 34.2994L25.399 34.2995L25.4059 34.2967C29.2262 32.7686 32.1578 29.9651 33.8142 26.2701C35.4708 22.5746 35.5985 18.3683 34.0689 14.5443C32.5446 10.7335 29.997 7.66985 26.1669 6.00977C22.4717 4.35364 18.2658 4.22611 14.4422 5.75556C12.0205 6.72426 9.82608 8.27011 8.18994 10.2864L7.6695 8.41278C7.59631 7.98985 7.37955 7.65956 7.06394 7.45535C6.74794 7.25088 6.34977 7.18345 5.93207 7.25307L5.91074 7.25662L5.89067 7.26465C5.18396 7.54733 4.74151 8.26359 4.88853 8.99867L4.88835 8.9987L4.89034 9.00683L6.14696 14.159C6.29423 14.8856 6.8843 15.3216 7.5998 15.3216H7.60054H7.60127H7.60201H7.60275H7.60349H7.60422H7.60496H7.6057H7.60643H7.60717H7.60791H7.60864H7.60938H7.61011H7.61085H7.61159H7.61232H7.61306H7.6138H7.61453H7.61527H7.616H7.61674H7.61747H7.61821H7.61894H7.61968H7.62041H7.62115H7.62188H7.62262H7.62335H7.62408H7.62482H7.62555H7.62628H7.62702H7.62775H7.62848H7.62922H7.62995H7.63068H7.63141H7.63214H7.63287H7.63361H7.63434H7.63507H7.6358H7.63653H7.63726H7.63799H7.63872H7.63944H7.64017H7.6409H7.64163H7.64236H7.64308H7.64381H7.64454H7.64526H7.64599H7.64671H7.64744H7.64816H7.64889H7.64961H7.65034H7.65106H7.65178H7.65251H7.65323H7.65395H7.65467H7.65539H7.65611H7.65683H7.65755H7.65827H7.65899H7.65971H7.66042H7.66114H7.66186H7.66258H7.66329H7.66401H7.66472H7.66544H7.66615H7.66686H7.66758H7.66829H7.669H7.66971H7.67042H7.67113H7.67184H7.67255H7.67326H7.67397H7.67467H7.67538H7.67609H7.67679H7.6775H7.6782H7.67891H7.67961H7.68031H7.68101H7.68171H7.68242H7.68312H7.68381H7.68451H7.68521H7.68591H7.68661H7.6873H7.688H7.68869H7.68939H7.69008H7.69077H7.69146H7.69215H7.69285H7.69353H7.69422H7.69491H7.6956H7.69629H7.69697H7.69766H7.69834H7.69903H7.69971H7.70039H7.70107H7.70175H7.70243H7.70311H7.70379H7.70447H7.70514H7.70582H7.70649H7.70717H7.70784H7.70851H7.70919H7.70986H7.71053H7.71119H7.71186H7.71253H7.7132H7.71386H7.71453H7.71519H7.71585H7.71651H7.71717H7.71783H7.71849H7.71915H7.71981H7.72046H7.72112H7.72177H7.72243H7.72308H7.72373H7.72438H7.72503H7.72568H7.72633H7.72697H7.72762H7.72826H7.7289H7.72955H7.73019H7.73083H7.73147H7.73211H7.73274H7.73338H7.73401H7.73465H7.73528H7.73591H7.73654H7.73717H7.7378H7.73843H7.73905H7.73968H7.7403H7.74092H7.74155H7.74217H7.74279H7.7434H7.74402H7.74464H7.74525H7.74587H7.74648H7.74709H7.7477H7.74831H7.74891H7.74952H7.75013H7.75073H7.75133H7.75193H7.75253H7.75313H7.75373H7.75433H7.75492H7.75552H7.75611H7.7567H7.75729H7.75788H7.75847H7.75905H7.75964H7.76022H7.7608H7.76139H7.76196H7.76254H7.76312H7.7637H7.76427H7.76484H7.76541H7.76598H7.76655H7.76712H7.76769H7.76825H7.76882H7.76938H7.76994H7.7705H7.77105H7.77161H7.77217H7.77272H7.77327H7.77382H7.77437H7.77492H7.77546H7.77601H7.77655H7.77709H7.77763H7.77817H7.77871H7.77924H7.77978H7.78031H7.78084H7.78137H7.7819H7.78243H7.78295H7.78348H7.784H7.78452H7.78504H7.78555H7.78607H7.78658H7.7871H7.78761H7.78812H7.78863H7.78913H7.78964H7.79014H7.79064H7.79114H7.79164H7.79213H7.79263H7.79312H7.79361H7.7941H7.79459H7.79508H7.79556H7.79605H7.79653H7.79701H7.79748H7.79796H7.79843H7.79891H7.79938H7.79985H7.80032H7.80078H7.80125H7.80171H7.80217H7.80263H7.80308H7.80354H7.80399H7.80445H7.80489H7.80534H7.80579H7.80623H7.80668H7.80712H7.80756H7.80799H7.80843H7.80886H7.80929H7.80972H7.81015H7.81058H7.811H7.81142H7.81185H7.81226H7.81268H7.8131H7.81351H7.81392H7.81433H7.81474H7.81514H7.81554H7.81595H7.81634H7.81674H7.81714H7.81753H7.81792H7.81831H7.8187H7.81909H7.81947H7.81985H7.82023H7.82061H7.82098H7.82136H7.82173H7.8221H7.82247H7.82283H7.82319H7.82356H7.82392H7.82427H7.82463H7.82498H7.82533H7.82568H7.82603H7.82637H7.82671H7.82705H7.82739H7.82773H7.82806H7.8284H7.82873H7.82905H7.82938H7.8297H7.83002H7.83034H7.83066H7.83097H7.83129H7.8316H7.83191H7.83221H7.83252H7.83282H7.83312H7.83341H7.83371H7.834H7.83429H7.83458H7.83487H7.83515H7.83543H7.83571H7.83599H7.83626H7.83653H7.83681H7.83707H7.83734H7.8376H7.83786H7.83812H7.83838H7.83863H7.83888H7.83913H7.83938H7.83962H7.83987H7.84011H7.84034H7.84058H7.84081H7.84104H7.84127H7.84149H7.84172H7.84194H7.84216H7.84237H7.84259H7.8428H7.84301H7.84321H7.84342H7.84362H7.84382H7.84401H7.84421H7.8444H7.84459H7.84477H7.84496H7.84514H7.84532H7.84549H7.84567H7.84584H7.84601H7.84617H7.84634H7.8465H7.84666H7.84682H7.84697H7.84712H7.84727H7.84741H7.84756H7.8477H7.84784H7.84797H7.84811H7.84824H7.84836H7.84849H7.84861H7.84873H7.84885H7.84896H7.84907H7.84918H7.84929H7.84939H7.8495H7.84959H7.84969H7.84978H7.84987H7.84996H7.85005H7.85013H7.85021H7.85029H7.85036H7.85043H7.8505H7.85057H7.85063H7.85069H7.85075H7.8508H7.85086H7.85091H7.85095H7.851H7.85104H7.85108H7.85111H7.85114H7.85117H7.8512H7.85123H7.85125H7.85127H7.85128H7.85129H7.8513H7.85132H7.87536L7.89871 15.3159L13.0509 14.0593C13.4268 13.9826 13.752 13.7237 13.9483 13.4024C14.1399 13.0889 14.2226 12.6922 14.0871 12.3168C14.0746 11.8841 13.8496 11.5512 13.5332 11.3651C13.2164 11.1787 12.8122 11.1413 12.4446 11.2832Z" fill="#DE5F4C" stroke="#DE5F4C" stroke-width="0.4"/>
<path d="M24.2063 26.2223L24.2207 26.2331L24.2369 26.2412C24.2436 26.2446 24.2503 26.2479 24.2571 26.2513C24.4934 26.3696 24.7816 26.5138 25.0809 26.5138C25.5028 26.5138 25.9515 26.3709 26.2503 25.9263C26.4753 25.6233 26.5418 25.2227 26.4893 24.8551C26.4365 24.4857 26.259 24.1179 25.9554 23.8902L21.5081 20.5547V13.738C21.5081 13.3153 21.3663 12.9475 21.1037 12.6849C20.8411 12.4222 20.4733 12.2805 20.0505 12.2805C19.6278 12.2805 19.26 12.4222 18.9974 12.6849C18.7347 12.9475 18.593 13.3153 18.593 13.738V21.2835C18.593 21.7054 18.7358 22.154 19.1803 22.4528L24.2063 26.2223Z" fill="#DE5F4C" stroke="#DE5F4C" stroke-width="0.4"/>
</svg>
