<svg width="48" height="54" viewBox="0 0 48 54" fill="none" xmlns="http://www.w3.org/2000/svg">
<path d="M15.5549 1.59682C15.5549 0.714921 14.913 0 14.1212 0C13.3294 0 12.6875 0.714921 12.6875 1.59682V7.98411C12.6875 8.86601 13.3294 9.58093 14.1212 9.58093C14.913 9.58093 15.5549 8.86601 15.5549 7.98411V1.59682Z" fill="#00263F"/>
<path d="M15.5549 1.59682C15.5549 0.714921 14.913 0 14.1212 0C13.3294 0 12.6875 0.714921 12.6875 1.59682V7.98411C12.6875 8.86601 13.3294 9.58093 14.1212 9.58093C14.913 9.58093 15.5549 8.86601 15.5549 7.98411V1.59682Z" fill="#00263F"/>
<path d="M29.8918 1.91616C29.8918 1.03426 29.2499 0.319336 28.4581 0.319336C27.6663 0.319336 27.0244 1.03426 27.0244 1.91616V8.30344C27.0244 9.18534 27.6663 9.90026 28.4581 9.90026C29.2499 9.90026 29.8918 9.18534 29.8918 8.30344V1.91616Z" fill="#00263F"/>
<path d="M35.7699 5.74854H31.0387V8.30345C31.0387 9.06575 30.7668 9.79685 30.2828 10.3359C29.7989 10.8749 29.1424 11.1777 28.458 11.1777C27.7736 11.1777 27.1172 10.8749 26.6332 10.3359C26.1492 9.79685 25.8773 9.06575 25.8773 8.30345V5.74854H16.7016V7.98408C16.7016 8.74639 16.4297 9.47749 15.9458 10.0165C15.4618 10.5556 14.8054 10.8584 14.1209 10.8584C13.4365 10.8584 12.7801 10.5556 12.2961 10.0165C11.8122 9.47749 11.5403 8.74639 11.5403 7.98408V5.74854H6.80904C5.28807 5.74854 3.82941 6.42149 2.75392 7.61934C1.67843 8.81719 1.07422 10.4418 1.07422 12.1358V37.685C1.07422 39.379 1.67843 41.0036 2.75392 42.2015C3.82941 43.3993 5.28807 44.0722 6.80904 44.0722H35.7699C37.2909 44.0722 38.7495 43.3993 39.825 42.2015C40.9005 41.0036 41.5047 39.379 41.5047 37.685V12.1358C41.5047 10.4418 40.9005 8.81719 39.825 7.61934C38.7495 6.42149 37.2909 5.74854 35.7699 5.74854ZM40.071 37.685C40.071 38.9555 39.6179 40.174 38.8113 41.0723C38.0047 41.9707 36.9106 42.4754 35.7699 42.4754H6.80904C5.66832 42.4754 4.57428 41.9707 3.76767 41.0723C2.96105 40.174 2.50792 38.9555 2.50792 37.685V19.6409H40.071V37.685Z" fill="#00263F" stroke="black" stroke-width="1.10714" stroke-miterlimit="10"/>
<path d="M29.8918 1.91616C29.8918 1.03426 29.2499 0.319336 28.4581 0.319336C27.6663 0.319336 27.0244 1.03426 27.0244 1.91616V8.30344C27.0244 9.18534 27.6663 9.90026 28.4581 9.90026C29.2499 9.90026 29.8918 9.18534 29.8918 8.30344V1.91616Z" fill="#00263F"/>
<path d="M10.3061 24.4314H6.46384C5.94124 24.4314 5.51758 24.9033 5.51758 25.4853V27.8486C5.51758 28.4307 5.94124 28.9025 6.46384 28.9025H10.3061C10.8287 28.9025 11.2524 28.4307 11.2524 27.8486V25.4853C11.2524 24.9033 10.8287 24.4314 10.3061 24.4314Z" fill="#00263F" stroke="black" stroke-width="1.10714" stroke-miterlimit="10"/>
<path d="M18.9097 24.4314H15.0674C14.5448 24.4314 14.1211 24.9033 14.1211 25.4853V27.8486C14.1211 28.4307 14.5448 28.9025 15.0674 28.9025H18.9097C19.4323 28.9025 19.8559 28.4307 19.8559 27.8486V25.4853C19.8559 24.9033 19.4323 24.4314 18.9097 24.4314Z" fill="#00263F" stroke="black" stroke-width="1.10714" stroke-miterlimit="10"/>
<path d="M36.1138 24.4314H32.2715C31.7489 24.4314 31.3252 24.9033 31.3252 25.4853V27.8486C31.3252 28.4307 31.7489 28.9025 32.2715 28.9025H36.1138C36.6364 28.9025 37.06 28.4307 37.06 27.8486V25.4853C37.06 24.9033 36.6364 24.4314 36.1138 24.4314Z" fill="#00263F" stroke="black" stroke-width="1.10714" stroke-miterlimit="10"/>
<path d="M27.5112 24.4314H23.6689C23.1463 24.4314 22.7227 24.9033 22.7227 25.4853V27.8486C22.7227 28.4307 23.1463 28.9025 23.6689 28.9025H27.5112C28.0338 28.9025 28.4575 28.4307 28.4575 27.8486V25.4853C28.4575 24.9033 28.0338 24.4314 27.5112 24.4314Z" fill="#00263F" stroke="black" stroke-width="1.10714" stroke-miterlimit="10"/>
<path d="M10.3061 33.0542H6.46384C5.94124 33.0542 5.51758 33.5261 5.51758 34.1081V36.4714C5.51758 37.0535 5.94124 37.5253 6.46384 37.5253H10.3061C10.8287 37.5253 11.2524 37.0535 11.2524 36.4714V34.1081C11.2524 33.5261 10.8287 33.0542 10.3061 33.0542Z" fill="#00263F" stroke="black" stroke-width="1.10714" stroke-miterlimit="10"/>
<path d="M18.9097 33.0542H15.0674C14.5448 33.0542 14.1211 33.5261 14.1211 34.1081V36.4714C14.1211 37.0535 14.5448 37.5253 15.0674 37.5253H18.9097C19.4323 37.5253 19.8559 37.0535 19.8559 36.4714V34.1081C19.8559 33.5261 19.4323 33.0542 18.9097 33.0542Z" fill="#00263F" stroke="black" stroke-width="1.10714" stroke-miterlimit="10"/>
<path d="M36.1138 33.0542H32.2715C31.7489 33.0542 31.3252 33.5261 31.3252 34.1081V36.4714C31.3252 37.0535 31.7489 37.5253 32.2715 37.5253H36.1138C36.6364 37.5253 37.06 37.0535 37.06 36.4714V34.1081C37.06 33.5261 36.6364 33.0542 36.1138 33.0542Z" fill="#00263F" stroke="black" stroke-width="1.10714" stroke-miterlimit="10"/>
<path d="M27.5112 33.0542H23.6689C23.1463 33.0542 22.7227 33.5261 22.7227 34.1081V36.4714C22.7227 37.0535 23.1463 37.5253 23.6689 37.5253H27.5112C28.0338 37.5253 28.4575 37.0535 28.4575 36.4714V34.1081C28.4575 33.5261 28.0338 33.0542 27.5112 33.0542Z" fill="#00263F" stroke="black" stroke-width="1.10714" stroke-miterlimit="10"/>
<path d="M32.263 31.6904L43.7327 36.7555C43.9576 36.8502 44.1614 36.9979 44.3302 37.1887C44.4989 37.3794 44.6286 37.6086 44.7104 37.8604C44.7921 38.1122 44.8239 38.3808 44.8036 38.6476C44.7833 38.9145 44.7115 39.1732 44.5929 39.4062L42.428 41.3224C42.235 41.554 42.1205 41.8532 42.104 42.1687C42.0961 42.3757 42.1334 42.5818 42.2129 42.7691L45.0259 46.627C45.2045 46.8687 45.317 47.1625 45.3499 47.4733C45.3804 47.7599 45.3438 48.0503 45.2438 48.3165L42.6459 50.9672C42.5484 51.0821 42.4308 51.1736 42.3004 51.2362C42.17 51.2988 42.0295 51.3311 41.8875 51.3311C41.7455 51.3311 41.605 51.2988 41.4746 51.2362C41.3442 51.1736 41.2266 51.0821 41.129 50.9672L37.6653 46.1448C37.5705 46.0697 37.4575 46.0285 37.3412 46.0266C37.2247 46.0268 37.1113 46.0682 37.0172 46.1448L34.8523 48.3165C34.4773 48.5013 34.0583 48.5439 33.6595 48.4378C33.4045 48.3584 33.1669 48.2209 32.9621 48.034C32.7573 47.8471 32.5895 47.6149 32.4695 47.352C31.896 42.6084 31.3225 37.8658 30.749 33.1243C30.8008 32.7003 30.9944 32.3137 31.291 32.0417C31.5682 31.8017 31.9121 31.6774 32.263 31.6904Z" fill="#DF5F4C" stroke="#DE5F4C" stroke-width="4.42857" stroke-miterlimit="10"/>
</svg>
