<svg width="19" height="19" viewBox="0 0 19 19" fill="none" xmlns="http://www.w3.org/2000/svg">
<path d="M1.57441 15.6687L2.56091 13.2064L4.15537 14.7276L1.57441 15.6687ZM17.2671 0.82674L17.1306 0.697294C16.6606 0.24745 16.0332 0 15.3675 0C14.7011 0 14.0737 0.24745 13.6036 0.697294L1.93348 11.8304C1.91699 11.8468 1.90349 11.8647 1.88925 11.8819C1.88175 11.8905 1.87351 11.899 1.86676 11.9083C1.84127 11.9441 1.82028 11.9806 1.80454 12.0199C1.80379 12.0206 1.80304 12.0221 1.80229 12.0228L0.0384245 16.4247C-0.042535 16.6271 0.00843943 16.8559 0.168859 17.009C0.279054 17.1141 0.425981 17.1699 0.576655 17.1699C0.645621 17.1699 0.714587 17.1584 0.782053 17.1341L5.39525 15.4506C5.39675 15.4506 5.39825 15.4499 5.39899 15.4492C5.43947 15.4341 5.47846 15.4141 5.51519 15.3898C5.52568 15.3834 5.53393 15.3748 5.54367 15.3676C5.56166 15.354 5.5804 15.3419 5.5969 15.3262L17.2671 4.19234C17.7393 3.74322 17.9979 3.14533 17.9979 2.50954C17.9979 1.87375 17.7393 1.27658 17.2671 0.82674Z" fill="#DE5F4C"/>
<path d="M18.4243 18.9999H0.575712C0.257871 18.9999 0 18.7539 0 18.4506C0 18.1467 0.257871 17.9014 0.575712 17.9014H18.4243C18.7406 17.9014 19 18.1467 19 18.4506C19 18.7539 18.7406 18.9999 18.4243 18.9999Z" fill="#DE5F4C"/>
</svg>
