<svg width="34" height="34" viewBox="0 0 34 34" fill="none" xmlns="http://www.w3.org/2000/svg">
<path d="M31.0117 4.05078H10.957C9.30883 4.05078 7.96875 5.39152 7.96875 7.03906C7.96875 8.68727 9.30883 10.0273 10.957 10.0273H31.0117C32.6593 10.0273 34 8.68727 34 7.03906C34 5.39152 32.6593 4.05078 31.0117 4.05078Z" fill="#EB5757"/>
<path d="M31.0117 14.0117H10.957C9.30883 14.0117 7.96875 15.3525 7.96875 17C7.96875 18.6482 9.30883 19.9883 10.957 19.9883H31.0117C32.6593 19.9883 34 18.6482 34 17C34 15.3525 32.6593 14.0117 31.0117 14.0117Z" fill="#EB5757"/>
<path d="M31.0117 23.9727H10.957C9.30883 23.9727 7.96875 25.3134 7.96875 26.9609C7.96875 28.6091 9.30883 29.9492 10.957 29.9492H31.0117C32.6593 29.9492 34 28.6091 34 26.9609C34 25.3134 32.6593 23.9727 31.0117 23.9727Z" fill="#EB5757"/>
<path d="M2.98828 4.05078C1.34008 4.05078 0 5.39152 0 7.03906C0 8.68727 1.34008 10.0273 2.98828 10.0273C4.63582 10.0273 5.97656 8.68727 5.97656 7.03906C5.97656 5.39152 4.63582 4.05078 2.98828 4.05078Z" fill="#EB5757"/>
<path d="M2.98828 14.0117C1.34008 14.0117 0 15.3525 0 17C0 18.6482 1.34008 19.9883 2.98828 19.9883C4.63582 19.9883 5.97656 18.6482 5.97656 17C5.97656 15.3525 4.63582 14.0117 2.98828 14.0117Z" fill="#EB5757"/>
<path d="M2.98828 23.9727C1.34008 23.9727 0 25.3134 0 26.9609C0 28.6091 1.34008 29.9492 2.98828 29.9492C4.63582 29.9492 5.97656 28.6091 5.97656 26.9609C5.97656 25.3134 4.63582 23.9727 2.98828 23.9727Z" fill="#EB5757"/>
</svg>
