<svg xmlns="http://www.w3.org/2000/svg" viewBox="0 0 117.79 134.88"><defs><style>.cls-1{fill:#ffc3b4;}.cls-1,.cls-2{fill-rule:evenodd;}.cls-2{fill:#6e2000;}</style></defs><g id="Layer_2" data-name="Layer 2"><g id="Grid_13" data-name="Grid 13"><path class="cls-1" d="M48.3,114C26.41,110.41,7.77,94.84,1.87,72.61-6.24,42,12.8,10.45,44.41,2.06c23-6.09,46.21,1.72,60.34,18.15"/><path class="cls-2" d="M112.29,28.88v102h-64a8.5,8.5,0,1,1,0-17h57.5v-99h-63a8,8,0,0,0-8,8v100a12,12,0,0,0,12,12h71v-106ZM38.79,114v-.07h.09Z"/><path class="cls-2" d="M47.29,122.88a2,2,0,0,0,2,2h56.5v-4H49.29A2,2,0,0,0,47.29,122.88Z"/></g></g></svg>