<svg id="Capa_1" enable-background="new 0 0 512 512" height="512" viewBox="0 0 512 512" width="512" xmlns="http://www.w3.org/2000/svg"><g><path d="m406.713 15.5h-301.425c-58.056 0-105.288 47.232-105.288 105.288s47.232 105.288 105.288 105.288h76.663v85.063l-3.743-3.14c-18.503-15.527-47.457-14.265-64.538 2.818-17.9 17.9-16.728 46.349 2.737 62.681l65.543 54.998v53.004c0 8.284 6.716 15 15 15h180c8.284 0 15-6.716 15-15v-168.556c0-22.656-16.954-41.854-39.437-44.655l-80.563-10.037v-32.178h134.763c58.056 0 105.287-47.232 105.287-105.288s-47.231-105.286-105.287-105.286zm-194.763 451v-30h150v30zm136.855-168.441c7.494.934 13.146 7.333 13.146 14.885v93.556h-159.541l-66.72-55.984c-5.922-4.969-6.281-13.012-.807-18.487 6.148-6.147 17.382-6.637 24.042-1.049l28.384 23.817c9.736 8.168 24.642 1.239 24.642-11.491v-191.806c0-8.271 6.729-15 15-15s15 6.729 15 15v120c0 7.567 5.637 13.949 13.146 14.885zm57.908-101.984h-134.763v-44.575c0-24.813-20.187-45-45-45s-45 20.187-45 45v44.575h-76.663c-41.513 0-75.287-33.774-75.287-75.287s33.774-75.288 75.288-75.288h301.425c41.513 0 75.287 33.774 75.287 75.288s-33.774 75.287-75.287 75.287z"/><path d="m395.294 79.894-49.394 49.393-19.394-19.393c-5.857-5.858-15.355-5.858-21.213 0s-5.858 15.355 0 21.213l30 30c5.857 5.858 15.355 5.859 21.213 0l60-60c5.858-5.858 5.858-15.355 0-21.213-5.857-5.859-15.355-5.859-21.212 0z"/></g></svg>