<svg id="Artboard_30" height="512" viewBox="0 0 64 64" width="512" xmlns="http://www.w3.org/2000/svg" data-name="Artboard 30"><path d="m58 19v36a2 2 0 0 1 -2 2h-48a2 2 0 0 1 -2-2v-36h-4v41a2 2 0 0 0 2 2h56a2 2 0 0 0 2-2v-41z" fill="#f4b2b0"/><g fill="#b3404a"><path d="m58 7h-2v-2a4 4 0 0 0 -8 0v2h-2v-2a4 4 0 0 0 -8 0v2h-2v-2a4 4 0 0 0 -8 0v2h-2v-2a4 4 0 0 0 -8 0v2h-2v-2a4 4 0 0 0 -8 0v2h-2a5.006 5.006 0 0 0 -5 5v48a3 3 0 0 0 3 3h56a3 3 0 0 0 3-3v-48a5.006 5.006 0 0 0 -5-5zm-8-2a2 2 0 0 1 4 0v5a2 2 0 0 1 -4 0zm-10 0a2 2 0 0 1 4 0v5a2 2 0 0 1 -4 0zm-10 0a2 2 0 0 1 4 0v5a2 2 0 0 1 -4 0zm-10 0a2 2 0 0 1 4 0v5a2 2 0 0 1 -4 0zm-10 0a2 2 0 0 1 4 0v5a2 2 0 0 1 -4 0zm-4 4h2v1a4 4 0 0 0 8 0v-1h2v1a4 4 0 0 0 8 0v-1h2v1a4 4 0 0 0 8 0v-1h2v1a4 4 0 0 0 8 0v-1h2v1a4 4 0 0 0 8 0v-1h2a3 3 0 0 1 3 3v6h-58v-6a3 3 0 0 1 3-3zm1 11h50v35a1 1 0 0 1 -1 1h-48a1 1 0 0 1 -1-1zm53 41h-56a1 1 0 0 1 -1-1v-40h2v35a3 3 0 0 0 3 3h48a3 3 0 0 0 3-3v-35h2v40a1 1 0 0 1 -1 1z"/><path d="m13 30h5a2 2 0 0 0 2-2v-4a2 2 0 0 0 -2-2h-5a2 2 0 0 0 -2 2v4a2 2 0 0 0 2 2zm0-6h5v4h-5z"/><path d="m24 30h5a2 2 0 0 0 2-2v-4a2 2 0 0 0 -2-2h-5a2 2 0 0 0 -2 2v4a2 2 0 0 0 2 2zm0-6h5v4h-5z"/><path d="m35 30h5a2 2 0 0 0 2-2v-4a2 2 0 0 0 -2-2h-5a2 2 0 0 0 -2 2v4a2 2 0 0 0 2 2zm0-6h5v4h-5z"/><path d="m46 30h5a2 2 0 0 0 2-2v-4a2 2 0 0 0 -2-2h-5a2 2 0 0 0 -2 2v4a2 2 0 0 0 2 2zm0-6h5v4h-5z"/><path d="m13 40h5a2 2 0 0 0 2-2v-4a2 2 0 0 0 -2-2h-5a2 2 0 0 0 -2 2v4a2 2 0 0 0 2 2zm0-6h5v4h-5z"/><path d="m24 40h5a2 2 0 0 0 2-2v-4a2 2 0 0 0 -2-2h-5a2 2 0 0 0 -2 2v4a2 2 0 0 0 2 2zm0-6h5v4h-5z"/><path d="m35 40h5a2 2 0 0 0 2-2v-4a2 2 0 0 0 -2-2h-5a2 2 0 0 0 -2 2v4a2 2 0 0 0 2 2zm0-6h5v4h-5z"/><path d="m46 40h5a2 2 0 0 0 2-2v-4a2 2 0 0 0 -2-2h-5a2 2 0 0 0 -2 2v4a2 2 0 0 0 2 2zm0-6h5v4h-5z"/><path d="m13 50h5a2 2 0 0 0 2-2v-4a2 2 0 0 0 -2-2h-5a2 2 0 0 0 -2 2v4a2 2 0 0 0 2 2zm0-6h5v4h-5z"/><path d="m24 50h5a2 2 0 0 0 2-2v-4a2 2 0 0 0 -2-2h-5a2 2 0 0 0 -2 2v4a2 2 0 0 0 2 2zm0-6h5v4h-5z"/><path d="m36 50h.045a1 1 0 0 0 .723-.359l5-6-1.536-1.28-4.3 5.159-2.226-2.226-1.414 1.414 3 3a1 1 0 0 0 .708.292z"/><path d="m47 50h.045a1 1 0 0 0 .723-.359l5-6-1.536-1.28-4.3 5.159-2.226-2.226-1.414 1.414 3 3a1 1 0 0 0 .708.292z"/></g></svg>