<?xml version="1.0"?>
<svg xmlns="http://www.w3.org/2000/svg" viewBox="0 0 64 64" width="512" height="512"><g id="Outline"><g><path d="M48,54a4,4,0,1,0-4,4A4,4,0,0,0,48,54Zm-6,0a2,2,0,1,1,2,2A2,2,0,0,1,42,54Z"/><path d="M56.115,52.818a1,1,0,0,0-1.126.855L54.127,60H39a1,1,0,0,0,0,2H55a1,1,0,0,0,.991-.865l.981-7.191A1,1,0,0,0,56.115,52.818Z"/><path d="M58.753,38.342A1,1,0,0,0,58,38H53.3l1.678-8.813a.98.98,0,0,0,0-.354l.461-2.146,1.493,2.489L55.73,34.821a1,1,0,0,0,.768,1.187,1.022,1.022,0,0,0,.211.022,1,1,0,0,0,.976-.79l1.292-6.031a.993.993,0,0,0-.12-.724l-3-5a1,1,0,0,0-1.835.3L53.2,27.6l-3.833-1.533a1,1,0,0,0-1.363.8l-.83,6.638-.667-.167L46,26.92a1,1,0,0,0-.26-.584l.2-2.575.951-.285,2.636,1.406a1,1,0,1,0,.942-1.764l-3-1.6a1,1,0,0,0-.758-.076l-2,.6a1,1,0,0,0-.71.878l-.124,1.546-1.172-1.173A1,1,0,0,0,41.2,23.4L40,25V24a3,3,0,0,0-3-3H35V20a3,3,0,0,0-3-3H27V12.27l7.664-5.11a1,1,0,0,0,.277-1.387L32.723,2.445a1,1,0,0,0-1.387-.277l-9,6A2.993,2.993,0,0,0,21,10.664V17H16a3,3,0,0,0-3,3v1H11a3,3,0,0,0-3,3v2c0,.02.6,5.268.6,5.268a1,1,0,0,0,.992.887.872.872,0,0,0,.114-.007,1,1,0,0,0,.88-1.106L10.12,27H18a1,1,0,0,0,0-2H10V24a1,1,0,0,1,1-1H37a1,1,0,0,1,1,1v1H22a1,1,0,0,0,0,2H38.5l-.3.4a1,1,0,0,0-.2.683l.3,3.605-.362-1.022a1,1,0,0,0-.617-.612l-2.963-1.018a1,1,0,0,0-1.27.621l-.541,1.573-.619-1.592A1,1,0,0,0,31,29H27a1,1,0,0,0-.939,1.346l.623,1.689C26.456,32.02,26.231,32,26,32H16a10.949,10.949,0,0,0-6.065,1.826,1,1,0,1,0,1.106,1.667A8.957,8.957,0,0,1,16,34H26a9.012,9.012,0,0,1,8.944,8H7.056a8.945,8.945,0,0,1,1.438-3.959,1,1,0,0,0-1.668-1.1A10.956,10.956,0,0,0,5,43a1,1,0,0,0,1,1h.126a4.188,4.188,0,0,0,1.021,1.888A4.816,4.816,0,0,0,7,47a4.976,4.976,0,0,0,1.41,3.466A2.939,2.939,0,0,0,7.184,54H6a1,1,0,0,0-1,1v2a5.006,5.006,0,0,0,5,5h3a1,1,0,0,0,0-2H10a3,3,0,0,1-3-3V56H22.719l.5.624a1,1,0,0,0,1.562,0L28.481,52H32a1,1,0,0,1,0,2H29.8a1,1,0,1,0,0,2H35v1a3,3,0,0,1-3,3H17a1,1,0,0,0,0,2H32a5.006,5.006,0,0,0,5-5V55a1,1,0,0,0-1-1H34.816a2.939,2.939,0,0,0-1.226-3.534A4.976,4.976,0,0,0,35,47a4.857,4.857,0,0,0-.125-1.053A3.048,3.048,0,0,0,35.947,44H36a.953.953,0,0,0,.184-.037A11,11,0,0,0,44,47c5.091,0,9.305-3.059,9.922-7h2.932L55.53,49.708a1,1,0,0,0,.857,1.125.886.886,0,0,0,.135.01,1,1,0,0,0,.991-.865l1.478-10.843A1,1,0,0,0,58.753,38.342ZM23,10.664a1,1,0,0,1,.445-.832l8.168-5.445,1.11,1.664L25.445,10.9a1,1,0,0,0-.445.832V17H23ZM15,21V20a1,1,0,0,1,1-1H32a1,1,0,0,1,1,1v1ZM45.932,35.264l2.021.5-.508,8.638a9.894,9.894,0,0,1-2.05.5Zm-3.824-9.741,1.924,1.924.457,5.711a.875.875,0,0,0-.083.037,1,1,0,0,0-.4.749l-.613,11.023a10.147,10.147,0,0,1-2-.318L40.028,28.3ZM28.435,31h1.881l.9,2.32a10.926,10.926,0,0,0-2.263-.905Zm4.534,15.69A2.689,2.689,0,0,1,33,47a3,3,0,0,1-3,3H12a3,3,0,0,1-2.987-2.876l.092.047a4.257,4.257,0,0,0,3.789,0l1.609-.8a1.108,1.108,0,0,1,.994,0l2.111,1.055a3.126,3.126,0,0,0,2.784,0L22.5,46.367a1.108,1.108,0,0,1,.994,0l2.111,1.055a3.126,3.126,0,0,0,2.784,0L30.5,46.367a1.108,1.108,0,0,1,.994,0A3.109,3.109,0,0,0,32.969,46.69ZM10,54a1,1,0,0,1,0-2h9.519l1.6,2Zm14,.4L22.081,52h3.838Zm9.473-9.87a1.064,1.064,0,0,1-.114.053.157.157,0,0,0-.023,0c-.013.005-.02.016-.033.021a1.077,1.077,0,0,1-.911-.029,3.126,3.126,0,0,0-2.784,0L27.5,45.633a1.108,1.108,0,0,1-.994,0l-2.111-1.055a3.126,3.126,0,0,0-2.784,0L19.5,45.633a1.108,1.108,0,0,1-.994,0l-2.111-1.055a3.126,3.126,0,0,0-2.784,0l-1.608.8a2.247,2.247,0,0,1-2,0L9.236,45a2.214,2.214,0,0,1-.982-1H33.912A1.091,1.091,0,0,1,33.473,44.529Zm3.451-2.779A10.921,10.921,0,0,0,35.393,37.3l-1.34-4.289.605-1.763,1.561.537,2.738,7.732.359,4.306A6.965,6.965,0,0,1,36.924,41.75Zm12.587,1.588L50,35.059a1,1,0,0,0-.756-1.029L49.132,34l.7-5.592,3.031,1.213L50.394,42.591A7.075,7.075,0,0,1,49.511,43.338Z"/><circle cx="23" cy="38" r="1"/><circle cx="19" cy="37" r="1"/><circle cx="16" cy="39" r="1"/><circle cx="31" cy="39" r="1"/><circle cx="12" cy="38" r="1"/><circle cx="27" cy="37" r="1"/></g></g></svg>
